<?xml version="1.0" encoding="UTF-8" standalone="no"?><svg xmlns="http://www.w3.org/2000/svg" xmlns:xlink="http://www.w3.org/1999/xlink" clip-rule="evenodd" stroke-miterlimit="4.00" viewBox="0 0 1024 768"><desc>SVG generated by Keynote</desc><defs></defs><g transform="matrix(1.00, 0.00, -0.00, -1.00, 0.0, 768.0)"><g><clipPath id="clip-2988"><path d="M 0.0 768.0 L 1024.0 768.0 L 1024.0 0.0 L 0.0 0.0 Z M 0.0 768.0 "></path></clipPath><g clip-path="url(#clip-2988)"><image xlink:href="../../AAFA64A7-B22F-44FA-BDCD-1B20F3A178DE/assets/DE78B55DDE70D88C6FF874E8D33A46A3.jpeg" width="1024.00" height="768.00" transform="matrix(1.00, 0.00, -0.00, -1.00, 0.0, 768.0)"></image></g></g><text xml:space="preserve" font-family="Chalkduster" font-size="65.5" fill="#FFFFFF" transform="matrix(1.00, 0.00, -0.00, -1.00, 105.0, 681.0)">W</text><text xml:space="preserve" font-family="Chalkduster" font-size="65.5" fill="#FFFFFF" transform="matrix(1.00, 0.00, -0.00, -1.00, 164.4, 681.0)">i</text><text xml:space="preserve" font-family="Chalkduster" font-size="65.5" fill="#FFFFFF" transform="matrix(1.00, 0.00, -0.00, -1.00, 190.3, 681.0)">e</text><text xml:space="preserve" font-family="Chalkduster" font-size="65.5" fill="#FFFFFF" transform="matrix(1.00, 0.00, -0.00, -1.00, 230.9, 681.0)"> </text><text xml:space="preserve" font-family="Chalkduster" font-size="65.5" fill="#FFFFFF" transform="matrix(1.00, 0.00, -0.00, -1.00, 263.5, 681.0)">f</text><text xml:space="preserve" font-family="Chalkduster" font-size="65.5" fill="#FFFFFF" transform="matrix(1.00, 0.00, -0.00, -1.00, 298.4, 681.0)">u</text><text xml:space="preserve" font-family="Chalkduster" font-size="65.5" fill="#FFFFFF" transform="matrix(1.00, 0.00, -0.00, -1.00, 344.4, 681.0)">n</text><text xml:space="preserve" font-family="Chalkduster" font-size="65.5" fill="#FFFFFF" transform="matrix(1.00, 0.00, -0.00, -1.00, 392.4, 681.0)">k</text><text xml:space="preserve" font-family="Chalkduster" font-size="65.5" fill="#FFFFFF" transform="matrix(1.00, 0.00, -0.00, -1.00, 443.4, 681.0)">t</text><text xml:space="preserve" font-family="Chalkduster" font-size="65.5" fill="#FFFFFF" transform="matrix(1.00, 0.00, -0.00, -1.00, 473.7, 681.0)">i</text><text xml:space="preserve" font-family="Chalkduster" font-size="65.5" fill="#FFFFFF" transform="matrix(1.00, 0.00, -0.00, -1.00, 499.6, 681.0)">o</text><text xml:space="preserve" font-family="Chalkduster" font-size="65.5" fill="#FFFFFF" transform="matrix(1.00, 0.00, -0.00, -1.00, 548.3, 681.0)">n</text><text xml:space="preserve" font-family="Chalkduster" font-size="65.5" fill="#FFFFFF" transform="matrix(1.00, 0.00, -0.00, -1.00, 597.5, 681.0)">i</text><text xml:space="preserve" font-family="Chalkduster" font-size="65.5" fill="#FFFFFF" transform="matrix(1.00, 0.00, -0.00, -1.00, 623.3, 681.0)">e</text><text xml:space="preserve" font-family="Chalkduster" font-size="65.5" fill="#FFFFFF" transform="matrix(1.00, 0.00, -0.00, -1.00, 663.3, 681.0)">r</text><text xml:space="preserve" font-family="Chalkduster" font-size="65.5" fill="#FFFFFF" transform="matrix(1.00, 0.00, -0.00, -1.00, 697.9, 681.0)">t</text><text xml:space="preserve" font-family="Chalkduster" font-size="65.5" fill="#FFFFFF" transform="matrix(1.00, 0.00, -0.00, -1.00, 727.8, 681.0)"> </text><text xml:space="preserve" font-family="Chalkduster" font-size="65.5" fill="#FFFFFF" transform="matrix(1.00, 0.00, -0.00, -1.00, 760.4, 681.0)">d</text><text xml:space="preserve" font-family="Chalkduster" font-size="65.5" fill="#FFFFFF" transform="matrix(1.00, 0.00, -0.00, -1.00, 811.6, 681.0)">a</text><text xml:space="preserve" font-family="Chalkduster" font-size="65.5" fill="#FFFFFF" transform="matrix(1.00, 0.00, -0.00, -1.00, 857.6, 681.0)">s</text><text xml:space="preserve" font-family="Chalkduster" font-size="65.5" fill="#FFFFFF" transform="matrix(1.00, 0.00, -0.00, -1.00, 887.7, 681.0)">?</text><g><clipPath id="clip-2989"><path d="M 92.0 455.0 L 932.0 455.0 L 932.0 50.0 L 92.0 50.0 Z M 92.0 455.0 "></path></clipPath><g clip-path="url(#clip-2989)"><g><clipPath id="clip-2990"><path d="M 94.0 253.5 L 180.3 253.5 L 180.3 453.0 L 94.0 453.0 Z M 94.0 253.5 "></path></clipPath><g clip-path="url(#clip-2990)"><text xml:space="preserve" font-family="Chalkduster" font-size="36.0" fill="#FFFFFF" transform="matrix(1.00, 0.00, -0.00, -1.00, 100.0, 337.0)">E</text><text xml:space="preserve" font-family="Chalkduster" font-size="36.0" fill="#FFFFFF" transform="matrix(1.00, 0.00, -0.00, -1.00, 126.6, 337.0)">L</text><text xml:space="preserve" font-family="Chalkduster" font-size="36.0" fill="#FFFFFF" transform="matrix(1.00, 0.00, -0.00, -1.00, 148.3, 337.0)">Q</text></g></g></g></g><g><clipPath id="clip-2991"><path d="M 92.0 455.0 L 932.0 455.0 L 932.0 50.0 L 92.0 50.0 Z M 92.0 455.0 "></path></clipPath><g clip-path="url(#clip-2991)"><g><clipPath id="clip-2992"><path d="M 182.3 253.5 L 287.9 253.5 L 287.9 453.0 L 182.3 453.0 Z M 182.3 253.5 "></path></clipPath><g clip-path="url(#clip-2992)"><text xml:space="preserve" font-family="Chalkduster" font-size="36.0" fill="#FFFFFF" transform="matrix(1.00, 0.00, -0.00, -1.00, 191.0, 337.0)">G</text><text xml:space="preserve" font-family="Chalkduster" font-size="36.0" fill="#FEFB00" transform="matrix(1.00, 0.00, -0.00, -1.00, 230.9, 337.0)">H</text><text xml:space="preserve" font-family="Chalkduster" font-size="36.0" fill="#FFFFFF" transform="matrix(1.00, 0.00, -0.00, -1.00, 253.1, 337.0)">U</text></g></g></g></g><g><clipPath id="clip-2993"><path d="M 92.0 455.0 L 932.0 455.0 L 932.0 50.0 L 92.0 50.0 Z M 92.0 455.0 "></path></clipPath><g clip-path="url(#clip-2993)"><g><clipPath id="clip-2994"><path d="M 289.9 253.5 L 431.9 253.5 L 431.9 453.0 L 289.9 453.0 Z M 289.9 253.5 "></path></clipPath><g clip-path="url(#clip-2994)"><text xml:space="preserve" font-family="Chalkduster" font-size="36.0" fill="#FFFFFF" transform="matrix(1.00, 0.00, -0.00, -1.00, 300.0, 337.0)">J</text><text xml:space="preserve" font-family="Chalkduster" font-size="36.0" fill="#FEFB00" transform="matrix(1.00, 0.00, -0.00, -1.00, 320.6, 337.0)">H</text><text xml:space="preserve" font-family="Chalkduster" font-size="36.0" fill="#FFFFFF" transform="matrix(1.00, 0.00, -0.00, -1.00, 342.8, 337.0)">L</text><text xml:space="preserve" font-family="Chalkduster" font-size="36.0" fill="#FFFFFF" transform="matrix(1.00, 0.00, -0.00, -1.00, 363.5, 337.0)">V</text><text xml:space="preserve" font-family="Chalkduster" font-size="36.0" fill="#FFFFFF" transform="matrix(1.00, 0.00, -0.00, -1.00, 390.2, 337.0)">W</text></g></g></g></g><g><clipPath id="clip-2995"><path d="M 92.0 455.0 L 932.0 455.0 L 932.0 50.0 L 92.0 50.0 Z M 92.0 455.0 "></path></clipPath><g clip-path="url(#clip-2995)"><g><clipPath id="clip-2996"><path d="M 433.9 253.5 L 544.7 253.5 L 544.7 453.0 L 433.9 453.0 Z M 433.9 253.5 "></path></clipPath><g clip-path="url(#clip-2996)"><text xml:space="preserve" font-family="Chalkduster" font-size="36.0" fill="#FFFFFF" transform="matrix(1.00, 0.00, -0.00, -1.00, 445.0, 337.0)">G</text><text xml:space="preserve" font-family="Chalkduster" font-size="36.0" fill="#FEFB00" transform="matrix(1.00, 0.00, -0.00, -1.00, 484.9, 337.0)">H</text><text xml:space="preserve" font-family="Chalkduster" font-size="36.0" fill="#FFFFFF" transform="matrix(1.00, 0.00, -0.00, -1.00, 507.1, 337.0)">U</text></g></g></g></g><g><clipPath id="clip-2997"><path d="M 92.0 455.0 L 932.0 455.0 L 932.0 50.0 L 92.0 50.0 Z M 92.0 455.0 "></path></clipPath><g clip-path="url(#clip-2997)"><g><clipPath id="clip-2998"><path d="M 546.7 253.5 L 699.1 253.5 L 699.1 453.0 L 546.7 453.0 Z M 546.7 253.5 "></path></clipPath><g clip-path="url(#clip-2998)"><text xml:space="preserve" font-family="Chalkduster" font-size="36.0" fill="#FFFFFF" transform="matrix(1.00, 0.00, -0.00, -1.00, 552.0, 337.0)">V</text><text xml:space="preserve" font-family="Chalkduster" font-size="36.0" fill="#FFFFFF" transform="matrix(1.00, 0.00, -0.00, -1.00, 578.7, 337.0)">W</text><text xml:space="preserve" font-family="Chalkduster" font-size="36.0" fill="#FEFB00" transform="matrix(1.00, 0.00, -0.00, -1.00, 611.4, 337.0)">H</text><text xml:space="preserve" font-family="Chalkduster" font-size="36.0" fill="#FFFFFF" transform="matrix(1.00, 0.00, -0.00, -1.00, 633.5, 337.0)">W</text><text xml:space="preserve" font-family="Chalkduster" font-size="36.0" fill="#FFFFFF" transform="matrix(1.00, 0.00, -0.00, -1.00, 666.2, 337.0)">V</text></g></g></g></g><g><clipPath id="clip-2999"><path d="M 92.0 455.0 L 932.0 455.0 L 932.0 50.0 L 92.0 50.0 Z M 92.0 455.0 "></path></clipPath><g clip-path="url(#clip-2999)"><g><clipPath id="clip-3000"><path d="M 701.1 253.5 L 930.0 253.5 L 930.0 453.0 L 701.1 453.0 Z M 701.1 253.5 "></path></clipPath><g clip-path="url(#clip-3000)"><text xml:space="preserve" font-family="Chalkduster" font-size="36.0" fill="#FFFFFF" transform="matrix(1.00, 0.00, -0.00, -1.00, 710.0, 337.0)">Y</text><text xml:space="preserve" font-family="Chalkduster" font-size="36.0" fill="#FEFB00" transform="matrix(1.00, 0.00, -0.00, -1.00, 743.7, 337.0)">H</text><text xml:space="preserve" font-family="Chalkduster" font-size="36.0" fill="#FFFFFF" transform="matrix(1.00, 0.00, -0.00, -1.00, 765.9, 337.0)">U</text><text xml:space="preserve" font-family="Chalkduster" font-size="36.0" fill="#FFFFFF" transform="matrix(1.00, 0.00, -0.00, -1.00, 791.5, 337.0)">Q</text><text xml:space="preserve" font-family="Chalkduster" font-size="36.0" fill="#FEFB00" transform="matrix(1.00, 0.00, -0.00, -1.00, 818.2, 337.0)">H</text><text xml:space="preserve" font-family="Chalkduster" font-size="36.0" fill="#FFFFFF" transform="matrix(1.00, 0.00, -0.00, -1.00, 840.4, 337.0)">L</text><text xml:space="preserve" font-family="Chalkduster" font-size="36.0" fill="#FFFFFF" transform="matrix(1.00, 0.00, -0.00, -1.00, 862.2, 337.0)">Q</text><text xml:space="preserve" font-family="Chalkduster" font-size="36.0" fill="#FFFFFF" transform="matrix(1.00, 0.00, -0.00, -1.00, 888.9, 337.0)">W</text></g></g></g></g><g><clipPath id="clip-3001"><path d="M 92.0 455.0 L 932.0 455.0 L 932.0 50.0 L 92.0 50.0 Z M 92.0 455.0 "></path></clipPath><g clip-path="url(#clip-3001)"><g><clipPath id="clip-3002"><path d="M 94.0 52.0 L 180.3 52.0 L 180.3 251.5 L 94.0 251.5 Z M 94.0 52.0 "></path></clipPath><g clip-path="url(#clip-3002)"><text xml:space="preserve" font-family="Chalkduster" font-size="36.0" fill="#FFFFFF" transform="matrix(1.00, 0.00, -0.00, -1.00, 102.0, 135.0)">B</text><text xml:space="preserve" font-family="Chalkduster" font-size="36.0" fill="#FFFFFF" transform="matrix(1.00, 0.00, -0.00, -1.00, 126.0, 135.0)">I</text><text xml:space="preserve" font-family="Chalkduster" font-size="36.0" fill="#FFFFFF" transform="matrix(1.00, 0.00, -0.00, -1.00, 147.5, 135.0)">N</text></g></g></g></g><g><clipPath id="clip-3003"><path d="M 92.0 455.0 L 932.0 455.0 L 932.0 50.0 L 92.0 50.0 Z M 92.0 455.0 "></path></clipPath><g clip-path="url(#clip-3003)"><g><clipPath id="clip-3004"><path d="M 182.3 52.0 L 287.9 52.0 L 287.9 251.5 L 182.3 251.5 Z M 182.3 52.0 "></path></clipPath><g clip-path="url(#clip-3004)"><text xml:space="preserve" font-family="Chalkduster" font-size="36.0" fill="#FFFFFF" transform="matrix(1.00, 0.00, -0.00, -1.00, 195.0, 135.0)">D</text><text xml:space="preserve" font-family="Chalkduster" font-size="36.0" fill="#FEFB00" transform="matrix(1.00, 0.00, -0.00, -1.00, 220.2, 135.0)">E</text><text xml:space="preserve" font-family="Chalkduster" font-size="36.0" fill="#FFFFFF" transform="matrix(1.00, 0.00, -0.00, -1.00, 246.8, 135.0)">R</text></g></g></g></g><g><clipPath id="clip-3005"><path d="M 92.0 455.0 L 932.0 455.0 L 932.0 50.0 L 92.0 50.0 Z M 92.0 455.0 "></path></clipPath><g clip-path="url(#clip-3005)"><g><clipPath id="clip-3006"><path d="M 289.9 52.0 L 431.9 52.0 L 431.9 251.5 L 289.9 251.5 Z M 289.9 52.0 "></path></clipPath><g clip-path="url(#clip-3006)"><text xml:space="preserve" font-family="Chalkduster" font-size="36.0" fill="#FFFFFF" transform="matrix(1.00, 0.00, -0.00, -1.00, 294.0, 135.0)">G</text><text xml:space="preserve" font-family="Chalkduster" font-size="36.0" fill="#FEFB00" transform="matrix(1.00, 0.00, -0.00, -1.00, 333.9, 135.0)">E</text><text xml:space="preserve" font-family="Chalkduster" font-size="36.0" fill="#FFFFFF" transform="matrix(1.00, 0.00, -0.00, -1.00, 360.6, 135.0)">I</text><text xml:space="preserve" font-family="Chalkduster" font-size="36.0" fill="#FFFFFF" transform="matrix(1.00, 0.00, -0.00, -1.00, 382.0, 135.0)">S</text><text xml:space="preserve" font-family="Chalkduster" font-size="36.0" fill="#FFFFFF" transform="matrix(1.00, 0.00, -0.00, -1.00, 399.9, 135.0)">T</text></g></g></g></g><g><clipPath id="clip-3007"><path d="M 92.0 455.0 L 932.0 455.0 L 932.0 50.0 L 92.0 50.0 Z M 92.0 455.0 "></path></clipPath><g clip-path="url(#clip-3007)"><g><clipPath id="clip-3008"><path d="M 433.9 52.0 L 544.7 52.0 L 544.7 251.5 L 433.9 251.5 Z M 433.9 52.0 "></path></clipPath><g clip-path="url(#clip-3008)"><text xml:space="preserve" font-family="Chalkduster" font-size="36.0" fill="#FFFFFF" transform="matrix(1.00, 0.00, -0.00, -1.00, 449.0, 135.0)">D</text><text xml:space="preserve" font-family="Chalkduster" font-size="36.0" fill="#FEFB00" transform="matrix(1.00, 0.00, -0.00, -1.00, 474.2, 135.0)">E</text><text xml:space="preserve" font-family="Chalkduster" font-size="36.0" fill="#FFFFFF" transform="matrix(1.00, 0.00, -0.00, -1.00, 500.8, 135.0)">R</text></g></g></g></g><g><clipPath id="clip-3009"><path d="M 92.0 455.0 L 932.0 455.0 L 932.0 50.0 L 92.0 50.0 Z M 92.0 455.0 "></path></clipPath><g clip-path="url(#clip-3009)"><g><clipPath id="clip-3010"><path d="M 546.7 52.0 L 699.1 52.0 L 699.1 251.5 L 546.7 251.5 Z M 546.7 52.0 "></path></clipPath><g clip-path="url(#clip-3010)"><text xml:space="preserve" font-family="Chalkduster" font-size="36.0" fill="#FFFFFF" transform="matrix(1.00, 0.00, -0.00, -1.00, 564.0, 135.0)">S</text><text xml:space="preserve" font-family="Chalkduster" font-size="36.0" fill="#FFFFFF" transform="matrix(1.00, 0.00, -0.00, -1.00, 581.9, 135.0)">T</text><text xml:space="preserve" font-family="Chalkduster" font-size="36.0" fill="#FEFB00" transform="matrix(1.00, 0.00, -0.00, -1.00, 609.5, 135.0)">E</text><text xml:space="preserve" font-family="Chalkduster" font-size="36.0" fill="#FFFFFF" transform="matrix(1.00, 0.00, -0.00, -1.00, 636.1, 135.0)">T</text><text xml:space="preserve" font-family="Chalkduster" font-size="36.0" fill="#FFFFFF" transform="matrix(1.00, 0.00, -0.00, -1.00, 663.7, 135.0)">S</text></g></g></g></g><g><clipPath id="clip-3011"><path d="M 92.0 455.0 L 932.0 455.0 L 932.0 50.0 L 92.0 50.0 Z M 92.0 455.0 "></path></clipPath><g clip-path="url(#clip-3011)"><g><clipPath id="clip-3012"><path d="M 701.1 52.0 L 930.0 52.0 L 930.0 251.5 L 701.1 251.5 Z M 701.1 52.0 "></path></clipPath><g clip-path="url(#clip-3012)"><text xml:space="preserve" font-family="Chalkduster" font-size="36.0" fill="#FFFFFF" transform="matrix(1.00, 0.00, -0.00, -1.00, 711.0, 135.0)">V</text><text xml:space="preserve" font-family="Chalkduster" font-size="36.0" fill="#FEFB00" transform="matrix(1.00, 0.00, -0.00, -1.00, 737.7, 135.0)">E</text><text xml:space="preserve" font-family="Chalkduster" font-size="36.0" fill="#FFFFFF" transform="matrix(1.00, 0.00, -0.00, -1.00, 764.3, 135.0)">R</text><text xml:space="preserve" font-family="Chalkduster" font-size="36.0" fill="#FFFFFF" transform="matrix(1.00, 0.00, -0.00, -1.00, 792.3, 135.0)">N</text><text xml:space="preserve" font-family="Chalkduster" font-size="36.0" fill="#FEFB00" transform="matrix(1.00, 0.00, -0.00, -1.00, 817.9, 135.0)">E</text><text xml:space="preserve" font-family="Chalkduster" font-size="36.0" fill="#FFFFFF" transform="matrix(1.00, 0.00, -0.00, -1.00, 844.5, 135.0)">I</text><text xml:space="preserve" font-family="Chalkduster" font-size="36.0" fill="#FFFFFF" transform="matrix(1.00, 0.00, -0.00, -1.00, 866.0, 135.0)">N</text><text xml:space="preserve" font-family="Chalkduster" font-size="36.0" fill="#FFFFFF" transform="matrix(1.00, 0.00, -0.00, -1.00, 891.6, 135.0)">T</text></g></g></g></g><g><clipPath id="clip-3013"><path d="M 92.0 455.0 L 932.0 455.0 L 932.0 50.0 L 92.0 50.0 Z M 92.0 455.0 "></path></clipPath><g clip-path="url(#clip-3013)"><path d="M 90.3 1.0 L 90.3 406.0 " fill="none" stroke="#FFFFFF" stroke-width="2.00" transform="matrix(1.00, 0.00, 0.00, -1.00, 91.0, 456.0)"></path><path d="M 197.9 1.0 L 197.9 406.0 " fill="none" stroke="#FFFFFF" stroke-width="2.00" transform="matrix(1.00, 0.00, 0.00, -1.00, 91.0, 456.0)"></path><path d="M 341.9 1.0 L 341.9 406.0 " fill="none" stroke="#FFFFFF" stroke-width="2.00" transform="matrix(1.00, 0.00, 0.00, -1.00, 91.0, 456.0)"></path><path d="M 454.7 1.0 L 454.7 406.0 " fill="none" stroke="#FFFFFF" stroke-width="2.00" transform="matrix(1.00, 0.00, 0.00, -1.00, 91.0, 456.0)"></path><path d="M 609.1 1.0 L 609.1 406.0 " fill="none" stroke="#FFFFFF" stroke-width="2.00" transform="matrix(1.00, 0.00, 0.00, -1.00, 91.0, 456.0)"></path><path d="M 1.0 203.5 L 841.0 203.5 " fill="none" stroke="#FFFFFF" stroke-width="2.00" transform="matrix(1.00, 0.00, 0.00, -1.00, 91.0, 456.0)"></path><path d="M 2.0 1.0 L 2.0 406.0 " fill="none" stroke="#FFFFFF" stroke-width="2.00" transform="matrix(1.00, 0.00, 0.00, -1.00, 91.0, 456.0)"></path><path d="M 840.0 1.0 L 840.0 406.0 " fill="none" stroke="#FFFFFF" stroke-width="2.00" transform="matrix(1.00, 0.00, 0.00, -1.00, 91.0, 456.0)"></path><path d="M 1.0 2.0 L 841.0 2.0 " fill="none" stroke="#FFFFFF" stroke-width="2.00" transform="matrix(1.00, 0.00, 0.00, -1.00, 91.0, 456.0)"></path><path d="M 1.0 405.0 L 841.0 405.0 " fill="none" stroke="#FFFFFF" stroke-width="2.00" transform="matrix(1.00, 0.00, 0.00, -1.00, 91.0, 456.0)"></path></g></g><text xml:space="preserve" font-family="Chalkduster" font-size="18.0" fill="#FFFFFF" transform="matrix(1.00, 0.00, -0.00, -1.00, 501.0, 12.0)">1</text><text xml:space="preserve" font-family="Chalkduster" font-size="18.0" fill="#FFFFFF" transform="matrix(1.00, 0.00, -0.00, -1.00, 511.0, 12.0)">6</text><text xml:space="preserve" font-family="Chalkduster" font-size="42.0" fill="#FFFFFF" transform="matrix(1.00, 0.00, -0.00, -1.00, 47.0, 568.0)">L</text><text xml:space="preserve" font-family="Chalkduster" font-size="42.0" fill="#FFFFFF" transform="matrix(1.00, 0.00, -0.00, -1.00, 73.6, 568.0)">e</text><text xml:space="preserve" font-family="Chalkduster" font-size="42.0" fill="#FFFFFF" transform="matrix(1.00, 0.00, -0.00, -1.00, 99.6, 568.0)">i</text><text xml:space="preserve" font-family="Chalkduster" font-size="42.0" fill="#FFFFFF" transform="matrix(1.00, 0.00, -0.00, -1.00, 116.6, 568.0)">c</text><text xml:space="preserve" font-family="Chalkduster" font-size="42.0" fill="#FFFFFF" transform="matrix(1.00, 0.00, -0.00, -1.00, 143.1, 568.0)">h</text><text xml:space="preserve" font-family="Chalkduster" font-size="42.0" fill="#FFFFFF" transform="matrix(1.00, 0.00, -0.00, -1.00, 167.1, 568.0)">t</text><text xml:space="preserve" font-family="Chalkduster" font-size="42.0" fill="#FFFFFF" transform="matrix(1.00, 0.00, -0.00, -1.00, 186.3, 568.0)"> </text><text xml:space="preserve" font-family="Chalkduster" font-size="42.0" fill="#FFFFFF" transform="matrix(1.00, 0.00, -0.00, -1.00, 204.3, 568.0)">A</text><text xml:space="preserve" font-family="Chalkduster" font-size="42.0" fill="#FFFFFF" transform="matrix(1.00, 0.00, -0.00, -1.00, 235.4, 568.0)">n</text><text xml:space="preserve" font-family="Chalkduster" font-size="42.0" fill="#FFFFFF" transform="matrix(1.00, 0.00, -0.00, -1.00, 264.9, 568.0)">g</text><text xml:space="preserve" font-family="Chalkduster" font-size="42.0" fill="#FFFFFF" transform="matrix(1.00, 0.00, -0.00, -1.00, 294.7, 568.0)">r</text><text xml:space="preserve" font-family="Chalkduster" font-size="42.0" fill="#FFFFFF" transform="matrix(1.00, 0.00, -0.00, -1.00, 315.9, 568.0)">e</text><text xml:space="preserve" font-family="Chalkduster" font-size="42.0" fill="#FFFFFF" transform="matrix(1.00, 0.00, -0.00, -1.00, 342.0, 568.0)">i</text><text xml:space="preserve" font-family="Chalkduster" font-size="42.0" fill="#FFFFFF" transform="matrix(1.00, 0.00, -0.00, -1.00, 356.6, 568.0)">f</text><text xml:space="preserve" font-family="Chalkduster" font-size="42.0" fill="#FFFFFF" transform="matrix(1.00, 0.00, -0.00, -1.00, 378.9, 568.0)">b</text><text xml:space="preserve" font-family="Chalkduster" font-size="42.0" fill="#FFFFFF" transform="matrix(1.00, 0.00, -0.00, -1.00, 402.4, 568.0)">a</text><text xml:space="preserve" font-family="Chalkduster" font-size="42.0" fill="#FFFFFF" transform="matrix(1.00, 0.00, -0.00, -1.00, 429.1, 568.0)">r</text><text xml:space="preserve" font-family="Chalkduster" font-size="42.0" fill="#FFFFFF" transform="matrix(1.00, 0.00, -0.00, -1.00, 446.3, 568.0)">,</text><text xml:space="preserve" font-family="Chalkduster" font-size="42.0" fill="#FFFFFF" transform="matrix(1.00, 0.00, -0.00, -1.00, 459.3, 568.0)"> </text><text xml:space="preserve" font-family="Chalkduster" font-size="42.0" fill="#FFFFFF" transform="matrix(1.00, 0.00, -0.00, -1.00, 480.2, 568.0)">d</text><text xml:space="preserve" font-family="Chalkduster" font-size="42.0" fill="#FFFFFF" transform="matrix(1.00, 0.00, -0.00, -1.00, 513.0, 568.0)">a</text><text xml:space="preserve" font-family="Chalkduster" font-size="42.0" fill="#FFFFFF" transform="matrix(1.00, 0.00, -0.00, -1.00, 541.9, 568.0)"> </text><text xml:space="preserve" font-family="Chalkduster" font-size="42.0" fill="#FFFFFF" transform="matrix(1.00, 0.00, -0.00, -1.00, 562.8, 568.0)">z</text><text xml:space="preserve" font-family="Chalkduster" font-size="42.0" fill="#FFFFFF" transform="matrix(1.00, 0.00, -0.00, -1.00, 590.1, 568.0)">.</text><text xml:space="preserve" font-family="Chalkduster" font-size="42.0" fill="#FFFFFF" transform="matrix(1.00, 0.00, -0.00, -1.00, 604.4, 568.0)">B</text><text xml:space="preserve" font-family="Chalkduster" font-size="42.0" fill="#FFFFFF" transform="matrix(1.00, 0.00, -0.00, -1.00, 629.1, 568.0)">.</text><text xml:space="preserve" font-family="Chalkduster" font-size="42.0" fill="#FFFFFF" transform="matrix(1.00, 0.00, -0.00, -1.00, 641.1, 568.0)"> </text><text xml:space="preserve" font-family="Chalkduster" font-size="42.0" fill="#FFFFFF" transform="matrix(1.00, 0.00, -0.00, -1.00, 662.0, 568.0)">i</text><text xml:space="preserve" font-family="Chalkduster" font-size="42.0" fill="#FFFFFF" transform="matrix(1.00, 0.00, -0.00, -1.00, 678.5, 568.0)">m</text><text xml:space="preserve" font-family="Chalkduster" font-size="42.0" fill="#FFFFFF" transform="matrix(1.00, 0.00, -0.00, -1.00, 721.1, 568.0)"> </text><text xml:space="preserve" font-family="Chalkduster" font-size="42.0" fill="#FFFFFF" transform="matrix(1.00, 0.00, -0.00, -1.00, 741.9, 568.0)">D</text><text xml:space="preserve" font-family="Chalkduster" font-size="42.0" fill="#FFFFFF" transform="matrix(1.00, 0.00, -0.00, -1.00, 770.9, 568.0)">e</text><text xml:space="preserve" font-family="Chalkduster" font-size="42.0" fill="#FFFFFF" transform="matrix(1.00, 0.00, -0.00, -1.00, 796.9, 568.0)">u</text><text xml:space="preserve" font-family="Chalkduster" font-size="42.0" fill="#FFFFFF" transform="matrix(1.00, 0.00, -0.00, -1.00, 825.4, 568.0)">t</text><text xml:space="preserve" font-family="Chalkduster" font-size="42.0" fill="#FFFFFF" transform="matrix(1.00, 0.00, -0.00, -1.00, 844.6, 568.0)">s</text><text xml:space="preserve" font-family="Chalkduster" font-size="42.0" fill="#FFFFFF" transform="matrix(1.00, 0.00, -0.00, -1.00, 866.7, 568.0)">c</text><text xml:space="preserve" font-family="Chalkduster" font-size="42.0" fill="#FFFFFF" transform="matrix(1.00, 0.00, -0.00, -1.00, 893.1, 568.0)">h</text><text xml:space="preserve" font-family="Chalkduster" font-size="42.0" fill="#FFFFFF" transform="matrix(1.00, 0.00, -0.00, -1.00, 919.1, 568.0)">e</text><text xml:space="preserve" font-family="Chalkduster" font-size="42.0" fill="#FFFFFF" transform="matrix(1.00, 0.00, -0.00, -1.00, 945.6, 568.0)">n</text><text xml:space="preserve" font-family="Chalkduster" font-size="42.0" fill="#FFFFFF" transform="matrix(1.00, 0.00, -0.00, -1.00, 976.4, 568.0)"> </text><text xml:space="preserve" font-family="Chalkduster" font-size="42.0" fill="#FFFFFF" transform="matrix(1.00, 0.00, -0.00, -1.00, 122.0, 514.0)">„</text><text xml:space="preserve" font-family="Chalkduster" font-size="42.0" fill="#FFFFFF" transform="matrix(1.00, 0.00, -0.00, -1.00, 146.6, 514.0)">e</text><text xml:space="preserve" font-family="Chalkduster" font-size="42.0" fill="#FFFFFF" transform="matrix(1.00, 0.00, -0.00, -1.00, 172.6, 514.0)">“</text><text xml:space="preserve" font-family="Chalkduster" font-size="42.0" fill="#FFFFFF" transform="matrix(1.00, 0.00, -0.00, -1.00, 193.0, 514.0)"> </text><text xml:space="preserve" font-family="Chalkduster" font-size="42.0" fill="#FFFFFF" transform="matrix(1.00, 0.00, -0.00, -1.00, 214.0, 514.0)">u</text><text xml:space="preserve" font-family="Chalkduster" font-size="42.0" fill="#FFFFFF" transform="matrix(1.00, 0.00, -0.00, -1.00, 243.4, 514.0)">n</text><text xml:space="preserve" font-family="Chalkduster" font-size="42.0" fill="#FFFFFF" transform="matrix(1.00, 0.00, -0.00, -1.00, 274.2, 514.0)">d</text><text xml:space="preserve" font-family="Chalkduster" font-size="42.0" fill="#FFFFFF" transform="matrix(1.00, 0.00, -0.00, -1.00, 307.1, 514.0)"> </text><text xml:space="preserve" font-family="Chalkduster" font-size="42.0" fill="#FFFFFF" transform="matrix(1.00, 0.00, -0.00, -1.00, 328.0, 514.0)">„</text><text xml:space="preserve" font-family="Chalkduster" font-size="42.0" fill="#FFFFFF" transform="matrix(1.00, 0.00, -0.00, -1.00, 352.6, 514.0)">d</text><text xml:space="preserve" font-family="Chalkduster" font-size="42.0" fill="#FFFFFF" transform="matrix(1.00, 0.00, -0.00, -1.00, 385.4, 514.0)">e</text><text xml:space="preserve" font-family="Chalkduster" font-size="42.0" fill="#FFFFFF" transform="matrix(1.00, 0.00, -0.00, -1.00, 411.0, 514.0)">r</text><text xml:space="preserve" font-family="Chalkduster" font-size="42.0" fill="#FFFFFF" transform="matrix(1.00, 0.00, -0.00, -1.00, 433.2, 514.0)">“</text><text xml:space="preserve" font-family="Chalkduster" font-size="42.0" fill="#FFFFFF" transform="matrix(1.00, 0.00, -0.00, -1.00, 453.6, 514.0)"> </text><text xml:space="preserve" font-family="Chalkduster" font-size="42.0" fill="#FFFFFF" transform="matrix(1.00, 0.00, -0.00, -1.00, 474.5, 514.0)">ö</text><text xml:space="preserve" font-family="Chalkduster" font-size="42.0" fill="#FFFFFF" transform="matrix(1.00, 0.00, -0.00, -1.00, 506.5, 514.0)">f</text><text xml:space="preserve" font-family="Chalkduster" font-size="42.0" fill="#FFFFFF" transform="matrix(1.00, 0.00, -0.00, -1.00, 527.2, 514.0)">t</text><text xml:space="preserve" font-family="Chalkduster" font-size="42.0" fill="#FFFFFF" transform="matrix(1.00, 0.00, -0.00, -1.00, 546.0, 514.0)">e</text><text xml:space="preserve" font-family="Chalkduster" font-size="42.0" fill="#FFFFFF" transform="matrix(1.00, 0.00, -0.00, -1.00, 571.6, 514.0)">r</text><text xml:space="preserve" font-family="Chalkduster" font-size="42.0" fill="#FFFFFF" transform="matrix(1.00, 0.00, -0.00, -1.00, 593.7, 514.0)"> </text><text xml:space="preserve" font-family="Chalkduster" font-size="42.0" fill="#FFFFFF" transform="matrix(1.00, 0.00, -0.00, -1.00, 614.7, 514.0)">v</text><text xml:space="preserve" font-family="Chalkduster" font-size="42.0" fill="#FFFFFF" transform="matrix(1.00, 0.00, -0.00, -1.00, 640.9, 514.0)">o</text><text xml:space="preserve" font-family="Chalkduster" font-size="42.0" fill="#FFFFFF" transform="matrix(1.00, 0.00, -0.00, -1.00, 671.5, 514.0)">r</text><text xml:space="preserve" font-family="Chalkduster" font-size="42.0" fill="#FFFFFF" transform="matrix(1.00, 0.00, -0.00, -1.00, 693.7, 514.0)">k</text><text xml:space="preserve" font-family="Chalkduster" font-size="42.0" fill="#FFFFFF" transform="matrix(1.00, 0.00, -0.00, -1.00, 725.4, 514.0)">o</text><text xml:space="preserve" font-family="Chalkduster" font-size="42.0" fill="#FFFFFF" transform="matrix(1.00, 0.00, -0.00, -1.00, 756.8, 514.0)">m</text><text xml:space="preserve" font-family="Chalkduster" font-size="42.0" fill="#FFFFFF" transform="matrix(1.00, 0.00, -0.00, -1.00, 800.7, 514.0)">m</text><text xml:space="preserve" font-family="Chalkduster" font-size="42.0" fill="#FFFFFF" transform="matrix(1.00, 0.00, -0.00, -1.00, 844.2, 514.0)">e</text><text xml:space="preserve" font-family="Chalkduster" font-size="42.0" fill="#FFFFFF" transform="matrix(1.00, 0.00, -0.00, -1.00, 870.7, 514.0)">n</text></g></svg>