<?xml version="1.0" encoding="UTF-8" standalone="no"?><svg xmlns="http://www.w3.org/2000/svg" xmlns:xlink="http://www.w3.org/1999/xlink" clip-rule="evenodd" stroke-miterlimit="4.00" viewBox="0 0 121 81"><desc>SVG generated by Keynote</desc><defs></defs><g transform="matrix(1.00, 0.00, -0.00, -1.00, 0.0, 81.0)"><text xml:space="preserve" font-family="Chalkduster" font-size="22.0" fill="#FFFFFF" transform="matrix(1.00, 0.00, -0.00, -1.00, 1.0, 53.0)">S</text><text xml:space="preserve" font-family="Chalkduster" font-size="22.0" fill="#FFFFFF" transform="matrix(1.00, 0.00, -0.00, -1.00, 11.9, 53.0)">c</text><text xml:space="preserve" font-family="Chalkduster" font-size="22.0" fill="#FFFFFF" transform="matrix(1.00, 0.00, -0.00, -1.00, 25.8, 53.0)">h</text><text xml:space="preserve" font-family="Chalkduster" font-size="22.0" fill="#FFFFFF" transform="matrix(1.00, 0.00, -0.00, -1.00, 39.4, 53.0)">l</text><text xml:space="preserve" font-family="Chalkduster" font-size="22.0" fill="#FFFFFF" transform="matrix(1.00, 0.00, -0.00, -1.00, 49.7, 53.0)">ü</text><text xml:space="preserve" font-family="Chalkduster" font-size="22.0" fill="#FFFFFF" transform="matrix(1.00, 0.00, -0.00, -1.00, 65.5, 53.0)">s</text><text xml:space="preserve" font-family="Chalkduster" font-size="22.0" fill="#FFFFFF" transform="matrix(1.00, 0.00, -0.00, -1.00, 76.6, 53.0)">s</text><text xml:space="preserve" font-family="Chalkduster" font-size="22.0" fill="#FFFFFF" transform="matrix(1.00, 0.00, -0.00, -1.00, 87.7, 53.0)">e</text><text xml:space="preserve" font-family="Chalkduster" font-size="22.0" fill="#FFFFFF" transform="matrix(1.00, 0.00, -0.00, -1.00, 101.4, 53.0)">l</text><text xml:space="preserve" font-family="Chalkduster" font-size="22.0" fill="#FFFFFF" transform="matrix(1.00, 0.00, -0.00, -1.00, 111.7, 53.0)">:</text><text xml:space="preserve" font-family="Chalkduster" font-size="22.0" fill="#FFFFFF" transform="matrix(1.00, 0.00, -0.00, -1.00, 118.9, 53.0)"> </text><g><clipPath id="clip-3128"><path d="M 0.0 48.8 L 111.7 48.8 L 111.7 51.2 L 0.0 51.2 Z M 0.0 48.8 "></path></clipPath><g clip-path="url(#clip-3128)"><path d="M 93.6 34.7 L 204.3 34.7 " fill="none" stroke="#FFFFFF" stroke-width="0.49" stroke-miterlimit="0.00" transform="matrix(1.00, 0.00, 0.00, -1.00, -92.6, 84.7)"></path></g></g><text xml:space="preserve" font-family="Chalkduster" font-size="42.0" fill="#FFFFFF" transform="matrix(1.00, 0.00, -0.00, -1.00, 12.0, 5.0)">B</text><text xml:space="preserve" font-family="Chalkduster" font-size="42.0" fill="#FFFFFF" transform="matrix(1.00, 0.00, -0.00, -1.00, 40.1, 5.0)">A</text><text xml:space="preserve" font-family="Chalkduster" font-size="42.0" fill="#FFFFFF" transform="matrix(1.00, 0.00, -0.00, -1.00, 69.9, 5.0)">W</text></g></svg>