<?xml version="1.0" encoding="UTF-8" standalone="no"?><svg xmlns="http://www.w3.org/2000/svg" xmlns:xlink="http://www.w3.org/1999/xlink" clip-rule="evenodd" stroke-miterlimit="4.00" viewBox="0 0 875 78"><desc>SVG generated by Keynote</desc><defs></defs><g transform="matrix(1.00, 0.00, -0.00, -1.00, 0.0, 78.0)"><text xml:space="preserve" font-family="Chalkduster" font-size="60.5" fill="#FFFFFF" transform="matrix(1.00, 0.00, -0.00, -1.00, 0.0, 23.0)">V</text><text xml:space="preserve" font-family="Chalkduster" font-size="60.5" fill="#FFFFFF" transform="matrix(1.00, 0.00, -0.00, -1.00, 44.9, 23.0)">i</text><text xml:space="preserve" font-family="Chalkduster" font-size="60.5" fill="#FFFFFF" transform="matrix(1.00, 0.00, -0.00, -1.00, 68.8, 23.0)">g</text><text xml:space="preserve" font-family="Chalkduster" font-size="60.5" fill="#FFFFFF" transform="matrix(1.00, 0.00, -0.00, -1.00, 111.0, 23.0)">e</text><text xml:space="preserve" font-family="Chalkduster" font-size="60.5" fill="#FFFFFF" transform="matrix(1.00, 0.00, -0.00, -1.00, 149.1, 23.0)">n</text><text xml:space="preserve" font-family="Chalkduster" font-size="60.5" fill="#FFFFFF" transform="matrix(1.00, 0.00, -0.00, -1.00, 193.5, 23.0)">è</text><text xml:space="preserve" font-family="Chalkduster" font-size="60.5" fill="#FFFFFF" transform="matrix(1.00, 0.00, -0.00, -1.00, 233.2, 23.0)">r</text><text xml:space="preserve" font-family="Chalkduster" font-size="60.5" fill="#FFFFFF" transform="matrix(1.00, 0.00, -0.00, -1.00, 263.8, 23.0)">e</text><text xml:space="preserve" font-family="Chalkduster" font-size="60.5" fill="#FFFFFF" transform="matrix(1.00, 0.00, -0.00, -1.00, 301.3, 23.0)">-</text><text xml:space="preserve" font-family="Chalkduster" font-size="60.5" fill="#FFFFFF" transform="matrix(1.00, 0.00, -0.00, -1.00, 336.2, 23.0)">V</text><text xml:space="preserve" font-family="Chalkduster" font-size="60.5" fill="#FFFFFF" transform="matrix(1.00, 0.00, -0.00, -1.00, 375.6, 23.0)">e</text><text xml:space="preserve" font-family="Chalkduster" font-size="60.5" fill="#FFFFFF" transform="matrix(1.00, 0.00, -0.00, -1.00, 412.4, 23.0)">r</text><text xml:space="preserve" font-family="Chalkduster" font-size="60.5" fill="#FFFFFF" transform="matrix(1.00, 0.00, -0.00, -1.00, 443.6, 23.0)">s</text><text xml:space="preserve" font-family="Chalkduster" font-size="60.5" fill="#FFFFFF" transform="matrix(1.00, 0.00, -0.00, -1.00, 475.5, 23.0)">c</text><text xml:space="preserve" font-family="Chalkduster" font-size="60.5" fill="#FFFFFF" transform="matrix(1.00, 0.00, -0.00, -1.00, 513.5, 23.0)">h</text><text xml:space="preserve" font-family="Chalkduster" font-size="60.5" fill="#FFFFFF" transform="matrix(1.00, 0.00, -0.00, -1.00, 550.9, 23.0)">l</text><text xml:space="preserve" font-family="Chalkduster" font-size="60.5" fill="#FFFFFF" transform="matrix(1.00, 0.00, -0.00, -1.00, 579.2, 23.0)">ü</text><text xml:space="preserve" font-family="Chalkduster" font-size="60.5" fill="#FFFFFF" transform="matrix(1.00, 0.00, -0.00, -1.00, 622.7, 23.0)">s</text><text xml:space="preserve" font-family="Chalkduster" font-size="60.5" fill="#FFFFFF" transform="matrix(1.00, 0.00, -0.00, -1.00, 653.2, 23.0)">s</text><text xml:space="preserve" font-family="Chalkduster" font-size="60.5" fill="#FFFFFF" transform="matrix(1.00, 0.00, -0.00, -1.00, 683.8, 23.0)">e</text><text xml:space="preserve" font-family="Chalkduster" font-size="60.5" fill="#FFFFFF" transform="matrix(1.00, 0.00, -0.00, -1.00, 721.3, 23.0)">l</text><text xml:space="preserve" font-family="Chalkduster" font-size="60.5" fill="#FFFFFF" transform="matrix(1.00, 0.00, -0.00, -1.00, 749.0, 23.0)">u</text><text xml:space="preserve" font-family="Chalkduster" font-size="60.5" fill="#FFFFFF" transform="matrix(1.00, 0.00, -0.00, -1.00, 791.5, 23.0)">n</text><text xml:space="preserve" font-family="Chalkduster" font-size="60.5" fill="#FFFFFF" transform="matrix(1.00, 0.00, -0.00, -1.00, 834.0, 23.0)">g</text></g></svg>