<?xml version="1.0" encoding="UTF-8" standalone="no"?><svg xmlns="http://www.w3.org/2000/svg" xmlns:xlink="http://www.w3.org/1999/xlink" clip-rule="evenodd" stroke-miterlimit="4.00" viewBox="0 0 813 79"><desc>SVG generated by Keynote</desc><defs></defs><g transform="matrix(1.00, 0.00, -0.00, -1.00, 0.0, 79.0)"><text xml:space="preserve" font-family="Chalkduster" font-size="61.2" fill="#FFFFFF" transform="matrix(1.00, 0.00, -0.00, -1.00, 0.0, 23.0)">C</text><text xml:space="preserve" font-family="Chalkduster" font-size="61.2" fill="#FFFFFF" transform="matrix(1.00, 0.00, -0.00, -1.00, 49.6, 23.0)">a</text><text xml:space="preserve" font-family="Chalkduster" font-size="61.2" fill="#FFFFFF" transform="matrix(1.00, 0.00, -0.00, -1.00, 90.5, 23.0)">e</text><text xml:space="preserve" font-family="Chalkduster" font-size="61.2" fill="#FFFFFF" transform="matrix(1.00, 0.00, -0.00, -1.00, 129.8, 23.0)">s</text><text xml:space="preserve" font-family="Chalkduster" font-size="61.2" fill="#FFFFFF" transform="matrix(1.00, 0.00, -0.00, -1.00, 160.7, 23.0)">e</text><text xml:space="preserve" font-family="Chalkduster" font-size="61.2" fill="#FFFFFF" transform="matrix(1.00, 0.00, -0.00, -1.00, 198.0, 23.0)">r</text><text xml:space="preserve" font-family="Chalkduster" font-size="61.2" fill="#FFFFFF" transform="matrix(1.00, 0.00, -0.00, -1.00, 232.5, 23.0)">-</text><text xml:space="preserve" font-family="Chalkduster" font-size="61.2" fill="#FFFFFF" transform="matrix(1.00, 0.00, -0.00, -1.00, 267.8, 23.0)">V</text><text xml:space="preserve" font-family="Chalkduster" font-size="61.2" fill="#FFFFFF" transform="matrix(1.00, 0.00, -0.00, -1.00, 307.6, 23.0)">e</text><text xml:space="preserve" font-family="Chalkduster" font-size="61.2" fill="#FFFFFF" transform="matrix(1.00, 0.00, -0.00, -1.00, 345.0, 23.0)">r</text><text xml:space="preserve" font-family="Chalkduster" font-size="61.2" fill="#FFFFFF" transform="matrix(1.00, 0.00, -0.00, -1.00, 376.5, 23.0)">s</text><text xml:space="preserve" font-family="Chalkduster" font-size="61.2" fill="#FFFFFF" transform="matrix(1.00, 0.00, -0.00, -1.00, 408.7, 23.0)">c</text><text xml:space="preserve" font-family="Chalkduster" font-size="61.2" fill="#FFFFFF" transform="matrix(1.00, 0.00, -0.00, -1.00, 447.3, 23.0)">h</text><text xml:space="preserve" font-family="Chalkduster" font-size="61.2" fill="#FFFFFF" transform="matrix(1.00, 0.00, -0.00, -1.00, 485.0, 23.0)">l</text><text xml:space="preserve" font-family="Chalkduster" font-size="61.2" fill="#FFFFFF" transform="matrix(1.00, 0.00, -0.00, -1.00, 513.8, 23.0)">ü</text><text xml:space="preserve" font-family="Chalkduster" font-size="61.2" fill="#FFFFFF" transform="matrix(1.00, 0.00, -0.00, -1.00, 557.7, 23.0)">s</text><text xml:space="preserve" font-family="Chalkduster" font-size="61.2" fill="#FFFFFF" transform="matrix(1.00, 0.00, -0.00, -1.00, 588.6, 23.0)">s</text><text xml:space="preserve" font-family="Chalkduster" font-size="61.2" fill="#FFFFFF" transform="matrix(1.00, 0.00, -0.00, -1.00, 619.5, 23.0)">e</text><text xml:space="preserve" font-family="Chalkduster" font-size="61.2" fill="#FFFFFF" transform="matrix(1.00, 0.00, -0.00, -1.00, 657.5, 23.0)">l</text><text xml:space="preserve" font-family="Chalkduster" font-size="61.2" fill="#FFFFFF" transform="matrix(1.00, 0.00, -0.00, -1.00, 685.6, 23.0)">u</text><text xml:space="preserve" font-family="Chalkduster" font-size="61.2" fill="#FFFFFF" transform="matrix(1.00, 0.00, -0.00, -1.00, 728.5, 23.0)">n</text><text xml:space="preserve" font-family="Chalkduster" font-size="61.2" fill="#FFFFFF" transform="matrix(1.00, 0.00, -0.00, -1.00, 771.5, 23.0)">g</text></g></svg>