<?xml version="1.0" encoding="UTF-8" standalone="no"?><svg xmlns="http://www.w3.org/2000/svg" xmlns:xlink="http://www.w3.org/1999/xlink" clip-rule="evenodd" stroke-miterlimit="4.00" viewBox="0 0 1024 768"><desc>SVG generated by Keynote</desc><defs></defs><g transform="matrix(1.00, 0.00, -0.00, -1.00, 0.0, 768.0)"><g><clipPath id="clip-3264"><path d="M 0.0 768.0 L 1024.0 768.0 L 1024.0 0.0 L 0.0 0.0 Z M 0.0 768.0 "></path></clipPath><g clip-path="url(#clip-3264)"><image xlink:href="../../AAFA64A7-B22F-44FA-BDCD-1B20F3A178DE/assets/DE78B55DDE70D88C6FF874E8D33A46A3.jpeg" width="1024.00" height="768.00" transform="matrix(1.00, 0.00, -0.00, -1.00, 0.0, 768.0)"></image></g></g><g><clipPath id="clip-3265"><path d="M 92.0 563.0 L 954.4 563.0 L 954.4 158.0 L 92.0 158.0 Z M 92.0 563.0 "></path></clipPath><g clip-path="url(#clip-3265)"><path d="M 192.1 562.0 L 301.4 562.0 L 301.4 461.2 L 192.1 461.2 Z M 192.1 562.0 " fill="#769EE8"></path><path d="M 447.6 562.0 L 562.2 562.0 L 562.2 461.2 L 447.6 461.2 Z M 447.6 562.0 " fill="#769EE8"></path><path d="M 192.1 461.2 L 301.4 461.2 L 301.4 360.5 L 192.1 360.5 Z M 192.1 461.2 " fill="#769EE8"></path><path d="M 447.6 461.2 L 562.2 461.2 L 562.2 360.5 L 447.6 360.5 Z M 447.6 461.2 " fill="#769EE8"></path><path d="M 192.1 360.5 L 301.4 360.5 L 301.4 259.8 L 192.1 259.8 Z M 192.1 360.5 " fill="#769EE8"></path><path d="M 447.6 360.5 L 562.2 360.5 L 562.2 259.8 L 447.6 259.8 Z M 447.6 360.5 " fill="#769EE8"></path><path d="M 192.1 259.8 L 301.4 259.8 L 301.4 159.0 L 192.1 159.0 Z M 192.1 259.8 " fill="#769EE8"></path><path d="M 447.6 259.8 L 562.2 259.8 L 562.2 159.0 L 447.6 159.0 Z M 447.6 259.8 " fill="#769EE8"></path></g></g><g><clipPath id="clip-3266"><path d="M 92.0 563.0 L 954.4 563.0 L 954.4 158.0 L 92.0 158.0 Z M 92.0 563.0 "></path></clipPath><g clip-path="url(#clip-3266)"><g><clipPath id="clip-3267"><path d="M 94.0 462.2 L 191.1 462.2 L 191.1 561.0 L 94.0 561.0 Z M 94.0 462.2 "></path></clipPath><g clip-path="url(#clip-3267)"><text xml:space="preserve" font-family="Chalkduster" font-size="36.0" fill="#FFFFFF" transform="matrix(1.00, 0.00, -0.00, -1.00, 107.0, 495.0)">B</text><text xml:space="preserve" font-family="Chalkduster" font-size="36.0" fill="#FFFFFF" transform="matrix(1.00, 0.00, -0.00, -1.00, 131.0, 495.0)">I</text><text xml:space="preserve" font-family="Chalkduster" font-size="36.0" fill="#FFFFFF" transform="matrix(1.00, 0.00, -0.00, -1.00, 152.5, 495.0)">N</text></g></g></g></g><g><clipPath id="clip-3268"><path d="M 92.0 563.0 L 954.4 563.0 L 954.4 158.0 L 92.0 158.0 Z M 92.0 563.0 "></path></clipPath><g clip-path="url(#clip-3268)"><g><clipPath id="clip-3269"><path d="M 193.1 462.2 L 300.4 462.2 L 300.4 561.0 L 193.1 561.0 Z M 193.1 462.2 "></path></clipPath><g clip-path="url(#clip-3269)"><text xml:space="preserve" font-family="Chalkduster" font-size="36.0" fill="#FFFFFF" transform="matrix(1.00, 0.00, -0.00, -1.00, 207.0, 495.0)">D</text><text xml:space="preserve" font-family="Chalkduster" font-size="36.0" fill="#FFFFFF" transform="matrix(1.00, 0.00, -0.00, -1.00, 232.2, 495.0)">E</text><text xml:space="preserve" font-family="Chalkduster" font-size="36.0" fill="#FFFFFF" transform="matrix(1.00, 0.00, -0.00, -1.00, 258.8, 495.0)">R</text></g></g></g></g><g><clipPath id="clip-3270"><path d="M 92.0 563.0 L 954.4 563.0 L 954.4 158.0 L 92.0 158.0 Z M 92.0 563.0 "></path></clipPath><g clip-path="url(#clip-3270)"><g><clipPath id="clip-3271"><path d="M 302.4 462.2 L 446.6 462.2 L 446.6 561.0 L 302.4 561.0 Z M 302.4 462.2 "></path></clipPath><g clip-path="url(#clip-3271)"><text xml:space="preserve" font-family="Chalkduster" font-size="36.0" fill="#FFFFFF" transform="matrix(1.00, 0.00, -0.00, -1.00, 308.0, 495.0)">G</text><text xml:space="preserve" font-family="Chalkduster" font-size="36.0" fill="#FFFFFF" transform="matrix(1.00, 0.00, -0.00, -1.00, 348.0, 495.0)">E</text><text xml:space="preserve" font-family="Chalkduster" font-size="36.0" fill="#FFFFFF" transform="matrix(1.00, 0.00, -0.00, -1.00, 374.6, 495.0)">I</text><text xml:space="preserve" font-family="Chalkduster" font-size="36.0" fill="#FFFFFF" transform="matrix(1.00, 0.00, -0.00, -1.00, 396.0, 495.0)">S</text><text xml:space="preserve" font-family="Chalkduster" font-size="36.0" fill="#FFFFFF" transform="matrix(1.00, 0.00, -0.00, -1.00, 413.9, 495.0)">T</text></g></g></g></g><g><clipPath id="clip-3272"><path d="M 92.0 563.0 L 954.4 563.0 L 954.4 158.0 L 92.0 158.0 Z M 92.0 563.0 "></path></clipPath><g clip-path="url(#clip-3272)"><g><clipPath id="clip-3273"><path d="M 448.6 462.2 L 561.2 462.2 L 561.2 561.0 L 448.6 561.0 Z M 448.6 462.2 "></path></clipPath><g clip-path="url(#clip-3273)"><text xml:space="preserve" font-family="Chalkduster" font-size="36.0" fill="#FFFFFF" transform="matrix(1.00, 0.00, -0.00, -1.00, 465.0, 495.0)">D</text><text xml:space="preserve" font-family="Chalkduster" font-size="36.0" fill="#FFFFFF" transform="matrix(1.00, 0.00, -0.00, -1.00, 490.2, 495.0)">E</text><text xml:space="preserve" font-family="Chalkduster" font-size="36.0" fill="#FFFFFF" transform="matrix(1.00, 0.00, -0.00, -1.00, 516.8, 495.0)">R</text></g></g></g></g><g><clipPath id="clip-3274"><path d="M 92.0 563.0 L 954.4 563.0 L 954.4 158.0 L 92.0 158.0 Z M 92.0 563.0 "></path></clipPath><g clip-path="url(#clip-3274)"><g><clipPath id="clip-3275"><path d="M 563.2 462.2 L 718.0 462.2 L 718.0 561.0 L 563.2 561.0 Z M 563.2 462.2 "></path></clipPath><g clip-path="url(#clip-3275)"><text xml:space="preserve" font-family="Chalkduster" font-size="36.0" fill="#FFFFFF" transform="matrix(1.00, 0.00, -0.00, -1.00, 582.0, 495.0)">S</text><text xml:space="preserve" font-family="Chalkduster" font-size="36.0" fill="#FFFFFF" transform="matrix(1.00, 0.00, -0.00, -1.00, 599.9, 495.0)">T</text><text xml:space="preserve" font-family="Chalkduster" font-size="36.0" fill="#FFFFFF" transform="matrix(1.00, 0.00, -0.00, -1.00, 627.5, 495.0)">E</text><text xml:space="preserve" font-family="Chalkduster" font-size="36.0" fill="#FFFFFF" transform="matrix(1.00, 0.00, -0.00, -1.00, 654.1, 495.0)">T</text><text xml:space="preserve" font-family="Chalkduster" font-size="36.0" fill="#FFFFFF" transform="matrix(1.00, 0.00, -0.00, -1.00, 681.8, 495.0)">S</text></g></g></g></g><g><clipPath id="clip-3276"><path d="M 92.0 563.0 L 954.4 563.0 L 954.4 158.0 L 92.0 158.0 Z M 92.0 563.0 "></path></clipPath><g clip-path="url(#clip-3276)"><g><clipPath id="clip-3277"><path d="M 720.0 462.2 L 952.4 462.2 L 952.4 561.0 L 720.0 561.0 Z M 720.0 462.2 "></path></clipPath><g clip-path="url(#clip-3277)"><text xml:space="preserve" font-family="Chalkduster" font-size="36.0" fill="#FFFFFF" transform="matrix(1.00, 0.00, -0.00, -1.00, 732.0, 495.0)">V</text><text xml:space="preserve" font-family="Chalkduster" font-size="36.0" fill="#FFFFFF" transform="matrix(1.00, 0.00, -0.00, -1.00, 758.7, 495.0)">E</text><text xml:space="preserve" font-family="Chalkduster" font-size="36.0" fill="#FFFFFF" transform="matrix(1.00, 0.00, -0.00, -1.00, 785.3, 495.0)">R</text><text xml:space="preserve" font-family="Chalkduster" font-size="36.0" fill="#FFFFFF" transform="matrix(1.00, 0.00, -0.00, -1.00, 813.3, 495.0)">N</text><text xml:space="preserve" font-family="Chalkduster" font-size="36.0" fill="#FFFFFF" transform="matrix(1.00, 0.00, -0.00, -1.00, 838.9, 495.0)">E</text><text xml:space="preserve" font-family="Chalkduster" font-size="36.0" fill="#FFFFFF" transform="matrix(1.00, 0.00, -0.00, -1.00, 865.6, 495.0)">I</text><text xml:space="preserve" font-family="Chalkduster" font-size="36.0" fill="#FFFFFF" transform="matrix(1.00, 0.00, -0.00, -1.00, 887.0, 495.0)">N</text><text xml:space="preserve" font-family="Chalkduster" font-size="36.0" fill="#FFFFFF" transform="matrix(1.00, 0.00, -0.00, -1.00, 912.6, 495.0)">T</text></g></g></g></g><g><clipPath id="clip-3278"><path d="M 92.0 563.0 L 954.4 563.0 L 954.4 158.0 L 92.0 158.0 Z M 92.0 563.0 "></path></clipPath><g clip-path="url(#clip-3278)"><g><clipPath id="clip-3279"><path d="M 94.0 361.5 L 191.1 361.5 L 191.1 460.2 L 94.0 460.2 Z M 94.0 361.5 "></path></clipPath><g clip-path="url(#clip-3279)"><text xml:space="preserve" font-family="Chalkduster" font-size="36.0" fill="#FFFFFF" transform="matrix(1.00, 0.00, -0.00, -1.00, 101.0, 394.0)">B</text><text xml:space="preserve" font-family="Chalkduster" font-size="36.0" fill="#FFFFFF" transform="matrix(1.00, 0.00, -0.00, -1.00, 125.1, 394.0)">A</text><text xml:space="preserve" font-family="Chalkduster" font-size="36.0" fill="#FFFFFF" transform="matrix(1.00, 0.00, -0.00, -1.00, 150.6, 394.0)">W</text></g></g></g></g><g><clipPath id="clip-3280"><path d="M 92.0 563.0 L 954.4 563.0 L 954.4 158.0 L 92.0 158.0 Z M 92.0 563.0 "></path></clipPath><g clip-path="url(#clip-3280)"><g><clipPath id="clip-3281"><path d="M 193.1 361.5 L 300.4 361.5 L 300.4 460.2 L 193.1 460.2 Z M 193.1 361.5 "></path></clipPath><g clip-path="url(#clip-3281)"><text xml:space="preserve" font-family="Chalkduster" font-size="36.0" fill="#FFFFFF" transform="matrix(1.00, 0.00, -0.00, -1.00, 206.0, 394.0)">B</text><text xml:space="preserve" font-family="Chalkduster" font-size="36.0" fill="#FFFFFF" transform="matrix(1.00, 0.00, -0.00, -1.00, 230.1, 394.0)">A</text><text xml:space="preserve" font-family="Chalkduster" font-size="36.0" fill="#FFFFFF" transform="matrix(1.00, 0.00, -0.00, -1.00, 255.6, 394.0)">W</text></g></g></g></g><g><clipPath id="clip-3282"><path d="M 92.0 563.0 L 954.4 563.0 L 954.4 158.0 L 92.0 158.0 Z M 92.0 563.0 "></path></clipPath><g clip-path="url(#clip-3282)"><g><clipPath id="clip-3283"><path d="M 302.4 361.5 L 446.6 361.5 L 446.6 460.2 L 302.4 460.2 Z M 302.4 361.5 "></path></clipPath><g clip-path="url(#clip-3283)"><text xml:space="preserve" font-family="Chalkduster" font-size="36.0" fill="#FFFFFF" transform="matrix(1.00, 0.00, -0.00, -1.00, 308.0, 394.0)">B</text><text xml:space="preserve" font-family="Chalkduster" font-size="36.0" fill="#FFFFFF" transform="matrix(1.00, 0.00, -0.00, -1.00, 332.1, 394.0)">A</text><text xml:space="preserve" font-family="Chalkduster" font-size="36.0" fill="#FFFFFF" transform="matrix(1.00, 0.00, -0.00, -1.00, 357.6, 394.0)">W</text><text xml:space="preserve" font-family="Chalkduster" font-size="36.0" fill="#FFFFFF" transform="matrix(1.00, 0.00, -0.00, -1.00, 390.3, 394.0)">B</text><text xml:space="preserve" font-family="Chalkduster" font-size="36.0" fill="#FFFFFF" transform="matrix(1.00, 0.00, -0.00, -1.00, 414.3, 394.0)">A</text></g></g></g></g><g><clipPath id="clip-3284"><path d="M 92.0 563.0 L 954.4 563.0 L 954.4 158.0 L 92.0 158.0 Z M 92.0 563.0 "></path></clipPath><g clip-path="url(#clip-3284)"><g><clipPath id="clip-3285"><path d="M 448.6 361.5 L 561.2 361.5 L 561.2 460.2 L 448.6 460.2 Z M 448.6 361.5 "></path></clipPath><g clip-path="url(#clip-3285)"><text xml:space="preserve" font-family="Chalkduster" font-size="36.0" fill="#FFFFFF" transform="matrix(1.00, 0.00, -0.00, -1.00, 463.0, 394.0)">W</text><text xml:space="preserve" font-family="Chalkduster" font-size="36.0" fill="#FFFFFF" transform="matrix(1.00, 0.00, -0.00, -1.00, 495.6, 394.0)">B</text><text xml:space="preserve" font-family="Chalkduster" font-size="36.0" fill="#FFFFFF" transform="matrix(1.00, 0.00, -0.00, -1.00, 519.7, 394.0)">A</text></g></g></g></g><g><clipPath id="clip-3286"><path d="M 92.0 563.0 L 954.4 563.0 L 954.4 158.0 L 92.0 158.0 Z M 92.0 563.0 "></path></clipPath><g clip-path="url(#clip-3286)"><g><clipPath id="clip-3287"><path d="M 563.2 361.5 L 718.0 361.5 L 718.0 460.2 L 563.2 460.2 Z M 563.2 361.5 "></path></clipPath><g clip-path="url(#clip-3287)"><text xml:space="preserve" font-family="Chalkduster" font-size="36.0" fill="#FFFFFF" transform="matrix(1.00, 0.00, -0.00, -1.00, 571.0, 394.0)">W</text><text xml:space="preserve" font-family="Chalkduster" font-size="36.0" fill="#FFFFFF" transform="matrix(1.00, 0.00, -0.00, -1.00, 603.6, 394.0)">B</text><text xml:space="preserve" font-family="Chalkduster" font-size="36.0" fill="#FFFFFF" transform="matrix(1.00, 0.00, -0.00, -1.00, 627.7, 394.0)">A</text><text xml:space="preserve" font-family="Chalkduster" font-size="36.0" fill="#FFFFFF" transform="matrix(1.00, 0.00, -0.00, -1.00, 653.2, 394.0)">W</text><text xml:space="preserve" font-family="Chalkduster" font-size="36.0" fill="#FFFFFF" transform="matrix(1.00, 0.00, -0.00, -1.00, 685.8, 394.0)">B</text></g></g></g></g><g><clipPath id="clip-3288"><path d="M 92.0 563.0 L 954.4 563.0 L 954.4 158.0 L 92.0 158.0 Z M 92.0 563.0 "></path></clipPath><g clip-path="url(#clip-3288)"><g><clipPath id="clip-3289"><path d="M 720.0 361.5 L 952.4 361.5 L 952.4 460.2 L 720.0 460.2 Z M 720.0 361.5 "></path></clipPath><g clip-path="url(#clip-3289)"><text xml:space="preserve" font-family="Chalkduster" font-size="36.0" fill="#FFFFFF" transform="matrix(1.00, 0.00, -0.00, -1.00, 725.0, 394.0)">A</text><text xml:space="preserve" font-family="Chalkduster" font-size="36.0" fill="#FFFFFF" transform="matrix(1.00, 0.00, -0.00, -1.00, 750.5, 394.0)">W</text><text xml:space="preserve" font-family="Chalkduster" font-size="36.0" fill="#FFFFFF" transform="matrix(1.00, 0.00, -0.00, -1.00, 783.2, 394.0)">B</text><text xml:space="preserve" font-family="Chalkduster" font-size="36.0" fill="#FFFFFF" transform="matrix(1.00, 0.00, -0.00, -1.00, 807.3, 394.0)">A</text><text xml:space="preserve" font-family="Chalkduster" font-size="36.0" fill="#FFFFFF" transform="matrix(1.00, 0.00, -0.00, -1.00, 832.8, 394.0)">W</text><text xml:space="preserve" font-family="Chalkduster" font-size="36.0" fill="#FFFFFF" transform="matrix(1.00, 0.00, -0.00, -1.00, 865.4, 394.0)">B</text><text xml:space="preserve" font-family="Chalkduster" font-size="36.0" fill="#FFFFFF" transform="matrix(1.00, 0.00, -0.00, -1.00, 889.5, 394.0)">A</text><text xml:space="preserve" font-family="Chalkduster" font-size="36.0" fill="#FFFFFF" transform="matrix(1.00, 0.00, -0.00, -1.00, 915.1, 394.0)">W</text></g></g></g></g><g><clipPath id="clip-3290"><path d="M 92.0 563.0 L 954.4 563.0 L 954.4 158.0 L 92.0 158.0 Z M 92.0 563.0 "></path></clipPath><g clip-path="url(#clip-3290)"><g><clipPath id="clip-3291"><path d="M 94.0 160.0 L 191.1 160.0 L 191.1 258.8 L 94.0 258.8 Z M 94.0 160.0 "></path></clipPath><g clip-path="url(#clip-3291)"><text xml:space="preserve" font-family="Chalkduster" font-size="36.0" fill="#FFFFFF" transform="matrix(1.00, 0.00, -0.00, -1.00, 107.0, 192.0)">C</text><text xml:space="preserve" font-family="Chalkduster" font-size="36.0" fill="#FFFFFF" transform="matrix(1.00, 0.00, -0.00, -1.00, 136.2, 192.0)">I</text><text xml:space="preserve" font-family="Chalkduster" font-size="36.0" fill="#FFFFFF" transform="matrix(1.00, 0.00, -0.00, -1.00, 157.6, 192.0)">J</text></g></g></g></g><g><clipPath id="clip-3292"><path d="M 92.0 563.0 L 954.4 563.0 L 954.4 158.0 L 92.0 158.0 Z M 92.0 563.0 "></path></clipPath><g clip-path="url(#clip-3292)"><g><clipPath id="clip-3293"><path d="M 193.1 160.0 L 300.4 160.0 L 300.4 258.8 L 193.1 258.8 Z M 193.1 160.0 "></path></clipPath><g clip-path="url(#clip-3293)"><text xml:space="preserve" font-family="Chalkduster" font-size="36.0" fill="#FFFFFF" transform="matrix(1.00, 0.00, -0.00, -1.00, 207.0, 192.0)">E</text><text xml:space="preserve" font-family="Chalkduster" font-size="36.0" fill="#FFFFFF" transform="matrix(1.00, 0.00, -0.00, -1.00, 233.6, 192.0)">E</text><text xml:space="preserve" font-family="Chalkduster" font-size="36.0" fill="#FFFFFF" transform="matrix(1.00, 0.00, -0.00, -1.00, 260.2, 192.0)">N</text></g></g></g></g><g><clipPath id="clip-3294"><path d="M 92.0 563.0 L 954.4 563.0 L 954.4 158.0 L 92.0 158.0 Z M 92.0 563.0 "></path></clipPath><g clip-path="url(#clip-3294)"><g><clipPath id="clip-3295"><path d="M 302.4 160.0 L 446.6 160.0 L 446.6 258.8 L 302.4 258.8 Z M 302.4 160.0 "></path></clipPath><g clip-path="url(#clip-3295)"><text xml:space="preserve" font-family="Chalkduster" font-size="36.0" fill="#FFFFFF" transform="matrix(1.00, 0.00, -0.00, -1.00, 309.0, 192.0)">H</text><text xml:space="preserve" font-family="Chalkduster" font-size="36.0" fill="#FFFFFF" transform="matrix(1.00, 0.00, -0.00, -1.00, 331.9, 192.0)">E</text><text xml:space="preserve" font-family="Chalkduster" font-size="36.0" fill="#FFFFFF" transform="matrix(1.00, 0.00, -0.00, -1.00, 358.6, 192.0)">E</text><text xml:space="preserve" font-family="Chalkduster" font-size="36.0" fill="#FFFFFF" transform="matrix(1.00, 0.00, -0.00, -1.00, 385.2, 192.0)">T</text><text xml:space="preserve" font-family="Chalkduster" font-size="36.0" fill="#FFFFFF" transform="matrix(1.00, 0.00, -0.00, -1.00, 412.8, 192.0)">T</text></g></g></g></g><g><clipPath id="clip-3296"><path d="M 92.0 563.0 L 954.4 563.0 L 954.4 158.0 L 92.0 158.0 Z M 92.0 563.0 "></path></clipPath><g clip-path="url(#clip-3296)"><g><clipPath id="clip-3297"><path d="M 448.6 160.0 L 561.2 160.0 L 561.2 258.8 L 448.6 258.8 Z M 448.6 160.0 "></path></clipPath><g clip-path="url(#clip-3297)"><text xml:space="preserve" font-family="Chalkduster" font-size="36.0" fill="#FFFFFF" transform="matrix(1.00, 0.00, -0.00, -1.00, 463.0, 192.0)">Z</text><text xml:space="preserve" font-family="Chalkduster" font-size="36.0" fill="#FFFFFF" transform="matrix(1.00, 0.00, -0.00, -1.00, 491.6, 192.0)">F</text><text xml:space="preserve" font-family="Chalkduster" font-size="36.0" fill="#FFFFFF" transform="matrix(1.00, 0.00, -0.00, -1.00, 518.4, 192.0)">R</text></g></g></g></g><g><clipPath id="clip-3298"><path d="M 92.0 563.0 L 954.4 563.0 L 954.4 158.0 L 92.0 158.0 Z M 92.0 563.0 "></path></clipPath><g clip-path="url(#clip-3298)"><g><clipPath id="clip-3299"><path d="M 563.2 160.0 L 718.0 160.0 L 718.0 258.8 L 563.2 258.8 Z M 563.2 160.0 "></path></clipPath><g clip-path="url(#clip-3299)"><text xml:space="preserve" font-family="Chalkduster" font-size="36.0" fill="#FFFFFF" transform="matrix(1.00, 0.00, -0.00, -1.00, 575.0, 192.0)">O</text><text xml:space="preserve" font-family="Chalkduster" font-size="36.0" fill="#FFFFFF" transform="matrix(1.00, 0.00, -0.00, -1.00, 600.2, 192.0)">U</text><text xml:space="preserve" font-family="Chalkduster" font-size="36.0" fill="#FFFFFF" transform="matrix(1.00, 0.00, -0.00, -1.00, 625.8, 192.0)">E</text><text xml:space="preserve" font-family="Chalkduster" font-size="36.0" fill="#FFFFFF" transform="matrix(1.00, 0.00, -0.00, -1.00, 652.4, 192.0)">P</text><text xml:space="preserve" font-family="Chalkduster" font-size="36.0" fill="#FFFFFF" transform="matrix(1.00, 0.00, -0.00, -1.00, 678.0, 192.0)">T</text></g></g></g></g><g><clipPath id="clip-3300"><path d="M 92.0 563.0 L 954.4 563.0 L 954.4 158.0 L 92.0 158.0 Z M 92.0 563.0 "></path></clipPath><g clip-path="url(#clip-3300)"><g><clipPath id="clip-3301"><path d="M 720.0 160.0 L 952.4 160.0 L 952.4 258.8 L 720.0 258.8 Z M 720.0 160.0 "></path></clipPath><g clip-path="url(#clip-3301)"><text xml:space="preserve" font-family="Chalkduster" font-size="36.0" fill="#FFFFFF" transform="matrix(1.00, 0.00, -0.00, -1.00, 739.0, 192.0)">V</text><text xml:space="preserve" font-family="Chalkduster" font-size="36.0" fill="#FFFFFF" transform="matrix(1.00, 0.00, -0.00, -1.00, 764.1, 192.0)">A</text><text xml:space="preserve" font-family="Chalkduster" font-size="36.0" fill="#FFFFFF" transform="matrix(1.00, 0.00, -0.00, -1.00, 789.2, 192.0)">S</text><text xml:space="preserve" font-family="Chalkduster" font-size="36.0" fill="#FFFFFF" transform="matrix(1.00, 0.00, -0.00, -1.00, 807.1, 192.0)">N</text><text xml:space="preserve" font-family="Chalkduster" font-size="36.0" fill="#FFFFFF" transform="matrix(1.00, 0.00, -0.00, -1.00, 832.7, 192.0)">A</text><text xml:space="preserve" font-family="Chalkduster" font-size="36.0" fill="#FFFFFF" transform="matrix(1.00, 0.00, -0.00, -1.00, 861.3, 192.0)">J</text><text xml:space="preserve" font-family="Chalkduster" font-size="36.0" fill="#FFFFFF" transform="matrix(1.00, 0.00, -0.00, -1.00, 881.9, 192.0)">N</text><text xml:space="preserve" font-family="Chalkduster" font-size="36.0" fill="#FFFFFF" transform="matrix(1.00, 0.00, -0.00, -1.00, 907.5, 192.0)">P</text></g></g></g></g><g><clipPath id="clip-3302"><path d="M 92.0 563.0 L 954.4 563.0 L 954.4 158.0 L 92.0 158.0 Z M 92.0 563.0 "></path></clipPath><g clip-path="url(#clip-3302)"><path d="M 101.1 1.0 L 101.1 406.0 " fill="none" stroke="#FFFFFF" stroke-width="2.00" transform="matrix(1.00, 0.00, 0.00, -1.00, 91.0, 564.0)"></path><path d="M 210.4 1.0 L 210.4 406.0 " fill="none" stroke="#FFFFFF" stroke-width="2.00" transform="matrix(1.00, 0.00, 0.00, -1.00, 91.0, 564.0)"></path><path d="M 356.6 1.0 L 356.6 406.0 " fill="none" stroke="#FFFFFF" stroke-width="2.00" transform="matrix(1.00, 0.00, 0.00, -1.00, 91.0, 564.0)"></path><path d="M 471.2 1.0 L 471.2 406.0 " fill="none" stroke="#FFFFFF" stroke-width="2.00" transform="matrix(1.00, 0.00, 0.00, -1.00, 91.0, 564.0)"></path><path d="M 628.0 1.0 L 628.0 406.0 " fill="none" stroke="#FFFFFF" stroke-width="2.00" transform="matrix(1.00, 0.00, 0.00, -1.00, 91.0, 564.0)"></path><path d="M 1.0 102.8 L 863.4 102.8 " fill="none" stroke="#FFFFFF" stroke-width="2.00" transform="matrix(1.00, 0.00, 0.00, -1.00, 91.0, 564.0)"></path><path d="M 1.0 203.5 L 863.4 203.5 " fill="none" stroke="#FFFFFF" stroke-width="2.00" transform="matrix(1.00, 0.00, 0.00, -1.00, 91.0, 564.0)"></path><path d="M 1.0 304.2 L 863.4 304.2 " fill="none" stroke="#FFFFFF" stroke-width="2.00" transform="matrix(1.00, 0.00, 0.00, -1.00, 91.0, 564.0)"></path><path d="M 2.0 1.0 L 2.0 406.0 " fill="none" stroke="#FFFFFF" stroke-width="2.00" transform="matrix(1.00, 0.00, 0.00, -1.00, 91.0, 564.0)"></path><path d="M 862.4 1.0 L 862.4 406.0 " fill="none" stroke="#FFFFFF" stroke-width="2.00" transform="matrix(1.00, 0.00, 0.00, -1.00, 91.0, 564.0)"></path><path d="M 1.0 2.0 L 863.4 2.0 " fill="none" stroke="#FFFFFF" stroke-width="2.00" transform="matrix(1.00, 0.00, 0.00, -1.00, 91.0, 564.0)"></path><path d="M 1.0 405.0 L 863.4 405.0 " fill="none" stroke="#FFFFFF" stroke-width="2.00" transform="matrix(1.00, 0.00, 0.00, -1.00, 91.0, 564.0)"></path></g></g><text xml:space="preserve" font-family="Chalkduster" font-size="18.0" fill="#FFFFFF" transform="matrix(1.00, 0.00, -0.00, -1.00, 501.0, 12.0)">2</text><text xml:space="preserve" font-family="Chalkduster" font-size="18.0" fill="#FFFFFF" transform="matrix(1.00, 0.00, -0.00, -1.00, 511.1, 12.0)">3</text><text xml:space="preserve" font-family="Chalkduster" font-size="60.5" fill="#FFFFFF" transform="matrix(1.00, 0.00, -0.00, -1.00, 74.0, 683.0)">V</text><text xml:space="preserve" font-family="Chalkduster" font-size="60.5" fill="#FFFFFF" transform="matrix(1.00, 0.00, -0.00, -1.00, 118.9, 683.0)">i</text><text xml:space="preserve" font-family="Chalkduster" font-size="60.5" fill="#FFFFFF" transform="matrix(1.00, 0.00, -0.00, -1.00, 142.8, 683.0)">g</text><text xml:space="preserve" font-family="Chalkduster" font-size="60.5" fill="#FFFFFF" transform="matrix(1.00, 0.00, -0.00, -1.00, 185.0, 683.0)">e</text><text xml:space="preserve" font-family="Chalkduster" font-size="60.5" fill="#FFFFFF" transform="matrix(1.00, 0.00, -0.00, -1.00, 223.1, 683.0)">n</text><text xml:space="preserve" font-family="Chalkduster" font-size="60.5" fill="#FFFFFF" transform="matrix(1.00, 0.00, -0.00, -1.00, 267.5, 683.0)">è</text><text xml:space="preserve" font-family="Chalkduster" font-size="60.5" fill="#FFFFFF" transform="matrix(1.00, 0.00, -0.00, -1.00, 307.2, 683.0)">r</text><text xml:space="preserve" font-family="Chalkduster" font-size="60.5" fill="#FFFFFF" transform="matrix(1.00, 0.00, -0.00, -1.00, 337.8, 683.0)">e</text><text xml:space="preserve" font-family="Chalkduster" font-size="60.5" fill="#FFFFFF" transform="matrix(1.00, 0.00, -0.00, -1.00, 375.3, 683.0)">-</text><text xml:space="preserve" font-family="Chalkduster" font-size="60.5" fill="#FFFFFF" transform="matrix(1.00, 0.00, -0.00, -1.00, 410.2, 683.0)">V</text><text xml:space="preserve" font-family="Chalkduster" font-size="60.5" fill="#FFFFFF" transform="matrix(1.00, 0.00, -0.00, -1.00, 449.6, 683.0)">e</text><text xml:space="preserve" font-family="Chalkduster" font-size="60.5" fill="#FFFFFF" transform="matrix(1.00, 0.00, -0.00, -1.00, 486.4, 683.0)">r</text><text xml:space="preserve" font-family="Chalkduster" font-size="60.5" fill="#FFFFFF" transform="matrix(1.00, 0.00, -0.00, -1.00, 517.6, 683.0)">s</text><text xml:space="preserve" font-family="Chalkduster" font-size="60.5" fill="#FFFFFF" transform="matrix(1.00, 0.00, -0.00, -1.00, 549.5, 683.0)">c</text><text xml:space="preserve" font-family="Chalkduster" font-size="60.5" fill="#FFFFFF" transform="matrix(1.00, 0.00, -0.00, -1.00, 587.5, 683.0)">h</text><text xml:space="preserve" font-family="Chalkduster" font-size="60.5" fill="#FFFFFF" transform="matrix(1.00, 0.00, -0.00, -1.00, 624.9, 683.0)">l</text><text xml:space="preserve" font-family="Chalkduster" font-size="60.5" fill="#FFFFFF" transform="matrix(1.00, 0.00, -0.00, -1.00, 653.2, 683.0)">ü</text><text xml:space="preserve" font-family="Chalkduster" font-size="60.5" fill="#FFFFFF" transform="matrix(1.00, 0.00, -0.00, -1.00, 696.7, 683.0)">s</text><text xml:space="preserve" font-family="Chalkduster" font-size="60.5" fill="#FFFFFF" transform="matrix(1.00, 0.00, -0.00, -1.00, 727.2, 683.0)">s</text><text xml:space="preserve" font-family="Chalkduster" font-size="60.5" fill="#FFFFFF" transform="matrix(1.00, 0.00, -0.00, -1.00, 757.8, 683.0)">e</text><text xml:space="preserve" font-family="Chalkduster" font-size="60.5" fill="#FFFFFF" transform="matrix(1.00, 0.00, -0.00, -1.00, 795.3, 683.0)">l</text><text xml:space="preserve" font-family="Chalkduster" font-size="60.5" fill="#FFFFFF" transform="matrix(1.00, 0.00, -0.00, -1.00, 823.0, 683.0)">u</text><text xml:space="preserve" font-family="Chalkduster" font-size="60.5" fill="#FFFFFF" transform="matrix(1.00, 0.00, -0.00, -1.00, 865.5, 683.0)">n</text><text xml:space="preserve" font-family="Chalkduster" font-size="60.5" fill="#FFFFFF" transform="matrix(1.00, 0.00, -0.00, -1.00, 908.0, 683.0)">g</text></g></svg>