<?xml version="1.0" encoding="UTF-8" standalone="no"?><svg xmlns="http://www.w3.org/2000/svg" xmlns:xlink="http://www.w3.org/1999/xlink" clip-rule="evenodd" stroke-miterlimit="4.00" viewBox="0 0 808 101"><desc>SVG generated by Keynote</desc><defs></defs><g transform="matrix(1.00, 0.00, -0.00, -1.00, 0.0, 101.0)"><text xml:space="preserve" font-family="Chalkduster" font-size="42.0" fill="#FFFFFF" transform="matrix(1.00, 0.00, -0.00, -1.00, 0.0, 62.0)">L</text><text xml:space="preserve" font-family="Chalkduster" font-size="42.0" fill="#FFFFFF" transform="matrix(1.00, 0.00, -0.00, -1.00, 26.6, 62.0)">F</text><text xml:space="preserve" font-family="Chalkduster" font-size="42.0" fill="#FFFFFF" transform="matrix(1.00, 0.00, -0.00, -1.00, 57.9, 62.0)">K</text><text xml:space="preserve" font-family="Chalkduster" font-size="42.0" fill="#FFFFFF" transform="matrix(1.00, 0.00, -0.00, -1.00, 85.4, 62.0)"> </text><text xml:space="preserve" font-family="Chalkduster" font-size="42.0" fill="#FFFFFF" transform="matrix(1.00, 0.00, -0.00, -1.00, 106.3, 62.0)">E</text><text xml:space="preserve" font-family="Chalkduster" font-size="42.0" fill="#FFFFFF" transform="matrix(1.00, 0.00, -0.00, -1.00, 137.3, 62.0)">L</text><text xml:space="preserve" font-family="Chalkduster" font-size="42.0" fill="#FFFFFF" transform="matrix(1.00, 0.00, -0.00, -1.00, 162.7, 62.0)">Q</text><text xml:space="preserve" font-family="Chalkduster" font-size="42.0" fill="#FFFFFF" transform="matrix(1.00, 0.00, -0.00, -1.00, 193.8, 62.0)"> </text><text xml:space="preserve" font-family="Chalkduster" font-size="42.0" fill="#FFFFFF" transform="matrix(1.00, 0.00, -0.00, -1.00, 214.7, 62.0)">G</text><text xml:space="preserve" font-family="Chalkduster" font-size="42.0" fill="#FFFFFF" transform="matrix(1.00, 0.00, -0.00, -1.00, 261.3, 62.0)">H</text><text xml:space="preserve" font-family="Chalkduster" font-size="42.0" fill="#FFFFFF" transform="matrix(1.00, 0.00, -0.00, -1.00, 287.2, 62.0)">U</text><text xml:space="preserve" font-family="Chalkduster" font-size="42.0" fill="#FFFFFF" transform="matrix(1.00, 0.00, -0.00, -1.00, 317.1, 62.0)"> </text><text xml:space="preserve" font-family="Chalkduster" font-size="42.0" fill="#FFFFFF" transform="matrix(1.00, 0.00, -0.00, -1.00, 338.0, 62.0)">J</text><text xml:space="preserve" font-family="Chalkduster" font-size="42.0" fill="#FFFFFF" transform="matrix(1.00, 0.00, -0.00, -1.00, 362.0, 62.0)">H</text><text xml:space="preserve" font-family="Chalkduster" font-size="42.0" fill="#FFFFFF" transform="matrix(1.00, 0.00, -0.00, -1.00, 387.9, 62.0)">L</text><text xml:space="preserve" font-family="Chalkduster" font-size="42.0" fill="#FFFFFF" transform="matrix(1.00, 0.00, -0.00, -1.00, 412.0, 62.0)">V</text><text xml:space="preserve" font-family="Chalkduster" font-size="42.0" fill="#FFFFFF" transform="matrix(1.00, 0.00, -0.00, -1.00, 443.2, 62.0)">W</text><text xml:space="preserve" font-family="Chalkduster" font-size="42.0" fill="#FFFFFF" transform="matrix(1.00, 0.00, -0.00, -1.00, 481.2, 62.0)"> </text><text xml:space="preserve" font-family="Chalkduster" font-size="42.0" fill="#FFFFFF" transform="matrix(1.00, 0.00, -0.00, -1.00, 502.1, 62.0)"> </text><text xml:space="preserve" font-family="Chalkduster" font-size="42.0" fill="#FFFFFF" transform="matrix(1.00, 0.00, -0.00, -1.00, 523.0, 62.0)">G</text><text xml:space="preserve" font-family="Chalkduster" font-size="42.0" fill="#FFFFFF" transform="matrix(1.00, 0.00, -0.00, -1.00, 569.6, 62.0)">H</text><text xml:space="preserve" font-family="Chalkduster" font-size="42.0" fill="#FFFFFF" transform="matrix(1.00, 0.00, -0.00, -1.00, 595.5, 62.0)">U</text><text xml:space="preserve" font-family="Chalkduster" font-size="42.0" fill="#FFFFFF" transform="matrix(1.00, 0.00, -0.00, -1.00, 625.4, 62.0)"> </text><text xml:space="preserve" font-family="Chalkduster" font-size="42.0" fill="#FFFFFF" transform="matrix(1.00, 0.00, -0.00, -1.00, 642.5, 62.0)">V</text><text xml:space="preserve" font-family="Chalkduster" font-size="42.0" fill="#FFFFFF" transform="matrix(1.00, 0.00, -0.00, -1.00, 673.7, 62.0)">W</text><text xml:space="preserve" font-family="Chalkduster" font-size="42.0" fill="#FFFFFF" transform="matrix(1.00, 0.00, -0.00, -1.00, 711.8, 62.0)">H</text><text xml:space="preserve" font-family="Chalkduster" font-size="42.0" fill="#FFFFFF" transform="matrix(1.00, 0.00, -0.00, -1.00, 737.6, 62.0)">W</text><text xml:space="preserve" font-family="Chalkduster" font-size="42.0" fill="#FFFFFF" transform="matrix(1.00, 0.00, -0.00, -1.00, 775.7, 62.0)">V</text><text xml:space="preserve" font-family="Chalkduster" font-size="42.0" fill="#FFFFFF" transform="matrix(1.00, 0.00, -0.00, -1.00, 806.8, 62.0)"> </text><text xml:space="preserve" font-family="Chalkduster" font-size="42.0" fill="#FFFFFF" transform="matrix(1.00, 0.00, -0.00, -1.00, 280.0, 8.0)">Y</text><text xml:space="preserve" font-family="Chalkduster" font-size="42.0" fill="#FFFFFF" transform="matrix(1.00, 0.00, -0.00, -1.00, 319.3, 8.0)">H</text><text xml:space="preserve" font-family="Chalkduster" font-size="42.0" fill="#FFFFFF" transform="matrix(1.00, 0.00, -0.00, -1.00, 345.2, 8.0)">U</text><text xml:space="preserve" font-family="Chalkduster" font-size="42.0" fill="#FFFFFF" transform="matrix(1.00, 0.00, -0.00, -1.00, 375.1, 8.0)">Q</text><text xml:space="preserve" font-family="Chalkduster" font-size="42.0" fill="#FFFFFF" transform="matrix(1.00, 0.00, -0.00, -1.00, 406.3, 8.0)">H</text><text xml:space="preserve" font-family="Chalkduster" font-size="42.0" fill="#FFFFFF" transform="matrix(1.00, 0.00, -0.00, -1.00, 432.2, 8.0)">L</text><text xml:space="preserve" font-family="Chalkduster" font-size="42.0" fill="#FFFFFF" transform="matrix(1.00, 0.00, -0.00, -1.00, 457.5, 8.0)">Q</text><text xml:space="preserve" font-family="Chalkduster" font-size="42.0" fill="#FFFFFF" transform="matrix(1.00, 0.00, -0.00, -1.00, 488.6, 8.0)">W</text><text xml:space="preserve" font-family="Chalkduster" font-size="42.0" fill="#FFFFFF" transform="matrix(1.00, 0.00, -0.00, -1.00, 526.7, 8.0)"> </text></g></svg>