<?xml version="1.0" encoding="UTF-8" standalone="no"?><svg xmlns="http://www.w3.org/2000/svg" xmlns:xlink="http://www.w3.org/1999/xlink" clip-rule="evenodd" stroke-miterlimit="4.00" viewBox="0 0 1024 768"><desc>SVG generated by Keynote</desc><defs></defs><g transform="matrix(1.00, 0.00, -0.00, -1.00, 0.0, 768.0)"><g><clipPath id="clip-3580"><path d="M 0.0 768.0 L 1024.0 768.0 L 1024.0 0.0 L 0.0 0.0 Z M 0.0 768.0 "></path></clipPath><g clip-path="url(#clip-3580)"><image xlink:href="../../AAFA64A7-B22F-44FA-BDCD-1B20F3A178DE/assets/DE78B55DDE70D88C6FF874E8D33A46A3.jpeg" width="1024.00" height="768.00" transform="matrix(1.00, 0.00, -0.00, -1.00, 0.0, 768.0)"></image></g></g><g><clipPath id="clip-3581"><path d="M 848.2 242.7 L 996.0 242.7 L 996.0 94.8 L 848.2 94.8 Z M 848.2 242.7 "></path></clipPath><g clip-path="url(#clip-3581)"><g><clipPath id="clip-3582"><path d="M 75.0 94.0 L 1019.0 94.0 L 1019.0 630.0 L 75.0 630.0 Z M 75.0 94.0 "></path></clipPath><g clip-path="url(#clip-3582)"><image xlink:href="../../A49548D4-82FE-4D1C-B3E6-6C2F56FCE222/assets/9EE5BA7DE83C9F6BFAD24F46305469FC.png" width="512.00" height="512.00" transform="matrix(0.29, 0.00, -0.00, -0.29, 848.2, 242.7)"></image></g></g></g></g><g><clipPath id="clip-3583"><path d="M 223.5 604.9 L 75.7 604.9 L 75.7 457.1 L 223.5 457.1 Z M 223.5 604.9 "></path></clipPath><g clip-path="url(#clip-3583)"><g><clipPath id="clip-3584"><path d="M 75.0 94.0 L 1019.0 94.0 L 1019.0 630.0 L 75.0 630.0 Z M 75.0 94.0 "></path></clipPath><g clip-path="url(#clip-3584)"><image xlink:href="../../A49548D4-82FE-4D1C-B3E6-6C2F56FCE222/assets/75588F7199E6B27B11B5E06D44B0FDC8.png" width="512.00" height="512.00" transform="matrix(-0.29, 0.00, 0.00, -0.29, 223.5, 604.9)"></image></g></g></g></g><g><clipPath id="clip-3585"><path d="M 471.2 579.1 L 563.6 579.1 L 563.6 486.6 L 471.2 486.6 Z M 471.2 579.1 "></path></clipPath><g clip-path="url(#clip-3585)"><g><clipPath id="clip-3586"><path d="M 75.0 94.0 L 1019.0 94.0 L 1019.0 630.0 L 75.0 630.0 Z M 75.0 94.0 "></path></clipPath><g clip-path="url(#clip-3586)"><image xlink:href="../../0ACC393D-F735-4394-A707-B6E2304E444F/assets/97E5EB25FF81A2D2B3812962989F1957.png" width="512.00" height="512.00" transform="matrix(0.18, 0.00, -0.00, -0.18, 471.2, 579.1)" opacity="0.32"></image></g></g></g></g><g><clipPath id="clip-3587"><path d="M 303.9 579.1 L 397.2 579.1 L 397.2 485.7 L 303.9 485.7 Z M 303.9 579.1 "></path></clipPath><g clip-path="url(#clip-3587)"><g><clipPath id="clip-3588"><path d="M 75.0 94.0 L 1019.0 94.0 L 1019.0 630.0 L 75.0 630.0 Z M 75.0 94.0 "></path></clipPath><g clip-path="url(#clip-3588)"><image xlink:href="../../0ACC393D-F735-4394-A707-B6E2304E444F/assets/E349A7005F21F88553597D74FC7134A7.png" width="512.00" height="512.00" transform="matrix(0.18, 0.00, -0.00, -0.18, 304.5, 579.1)" opacity="0.32"></image></g></g></g></g><g><clipPath id="clip-3589"><path d="M 75.0 94.0 L 1019.0 94.0 L 1019.0 630.0 L 75.0 630.0 Z M 75.0 94.0 "></path></clipPath><g clip-path="url(#clip-3589)"><text xml:space="preserve" font-family="HelveticaNeue" font-size="16.0" fill="#FFFFFF" transform="matrix(1.30, 0.00, -0.00, -1.30, 301.8, 460.3)">W</text><text xml:space="preserve" font-family="HelveticaNeue" font-size="16.0" fill="#FFFFFF" transform="matrix(1.30, 0.00, -0.00, -1.30, 321.1, 460.3)">i</text><text xml:space="preserve" font-family="HelveticaNeue" font-size="16.0" fill="#FFFFFF" transform="matrix(1.30, 0.00, -0.00, -1.30, 325.7, 460.3)">ï¬</text><text xml:space="preserve" font-family="HelveticaNeue" font-size="16.0" fill="#FFFFFF" transform="matrix(1.30, 0.00, -0.00, -1.30, 336.5, 460.3)"> </text><text xml:space="preserve" font-family="HelveticaNeue" font-size="16.0" fill="#FFFFFF" transform="matrix(1.30, 0.00, -0.00, -1.30, 342.3, 460.3)">R</text><text xml:space="preserve" font-family="HelveticaNeue" font-size="16.0" fill="#FFFFFF" transform="matrix(1.30, 0.00, -0.00, -1.30, 356.6, 460.3)">o</text><text xml:space="preserve" font-family="HelveticaNeue" font-size="16.0" fill="#FFFFFF" transform="matrix(1.30, 0.00, -0.00, -1.30, 368.6, 460.3)">u</text><text xml:space="preserve" font-family="HelveticaNeue" font-size="16.0" fill="#FFFFFF" transform="matrix(1.30, 0.00, -0.00, -1.30, 380.2, 460.3)">t</text><text xml:space="preserve" font-family="HelveticaNeue" font-size="16.0" fill="#FFFFFF" transform="matrix(1.30, 0.00, -0.00, -1.30, 386.8, 460.3)">e</text><text xml:space="preserve" font-family="HelveticaNeue" font-size="16.0" fill="#FFFFFF" transform="matrix(1.30, 0.00, -0.00, -1.30, 398.0, 460.3)">r</text><text xml:space="preserve" font-family="HelveticaNeue" font-size="16.0" fill="#FFFFFF" transform="matrix(1.30, 0.00, -0.00, -1.30, 480.8, 460.3)">P</text><text xml:space="preserve" font-family="HelveticaNeue" font-size="16.0" fill="#FFFFFF" transform="matrix(1.30, 0.00, -0.00, -1.30, 494.4, 460.3)">r</text><text xml:space="preserve" font-family="HelveticaNeue" font-size="16.0" fill="#FFFFFF" transform="matrix(1.30, 0.00, -0.00, -1.30, 500.9, 460.3)">o</text><text xml:space="preserve" font-family="HelveticaNeue" font-size="16.0" fill="#FFFFFF" transform="matrix(1.30, 0.00, -0.00, -1.30, 512.9, 460.3)">v</text><text xml:space="preserve" font-family="HelveticaNeue" font-size="16.0" fill="#FFFFFF" transform="matrix(1.30, 0.00, -0.00, -1.30, 523.3, 460.3)">i</text><text xml:space="preserve" font-family="HelveticaNeue" font-size="16.0" fill="#FFFFFF" transform="matrix(1.30, 0.00, -0.00, -1.30, 528.0, 460.3)">d</text><text xml:space="preserve" font-family="HelveticaNeue" font-size="16.0" fill="#FFFFFF" transform="matrix(1.30, 0.00, -0.00, -1.30, 540.3, 460.3)">e</text><text xml:space="preserve" font-family="HelveticaNeue" font-size="16.0" fill="#FFFFFF" transform="matrix(1.30, 0.00, -0.00, -1.30, 551.5, 460.3)">r</text></g></g><g><clipPath id="clip-3590"><path d="M 685.5 579.1 L 777.9 579.1 L 777.9 486.6 L 685.5 486.6 Z M 685.5 579.1 "></path></clipPath><g clip-path="url(#clip-3590)"><g><clipPath id="clip-3591"><path d="M 75.0 94.0 L 1019.0 94.0 L 1019.0 630.0 L 75.0 630.0 Z M 75.0 94.0 "></path></clipPath><g clip-path="url(#clip-3591)"><image xlink:href="../../A7727946-072C-4173-8D78-3505F331A698/assets/58D73EB7FEB26E4754973C323BCB4D38.png" width="512.00" height="512.00" transform="matrix(0.18, 0.00, -0.00, -0.18, 685.5, 579.1)" opacity="0.32"></image></g></g></g></g><g><clipPath id="clip-3592"><path d="M 877.7 579.1 L 970.1 579.1 L 970.1 486.6 L 877.7 486.6 Z M 877.7 579.1 "></path></clipPath><g clip-path="url(#clip-3592)"><g><clipPath id="clip-3593"><path d="M 75.0 94.0 L 1019.0 94.0 L 1019.0 630.0 L 75.0 630.0 Z M 75.0 94.0 "></path></clipPath><g clip-path="url(#clip-3593)"><image xlink:href="../../A7727946-072C-4173-8D78-3505F331A698/assets/58D73EB7FEB26E4754973C323BCB4D38.png" width="512.00" height="512.00" transform="matrix(0.18, 0.00, -0.00, -0.18, 877.7, 579.1)" opacity="0.32"></image></g></g></g></g><g><clipPath id="clip-3594"><path d="M 877.7 394.2 L 970.1 394.2 L 970.1 301.8 L 877.7 301.8 Z M 877.7 394.2 "></path></clipPath><g clip-path="url(#clip-3594)"><g><clipPath id="clip-3595"><path d="M 75.0 94.0 L 1019.0 94.0 L 1019.0 630.0 L 75.0 630.0 Z M 75.0 94.0 "></path></clipPath><g clip-path="url(#clip-3595)"><image xlink:href="../../A7727946-072C-4173-8D78-3505F331A698/assets/58D73EB7FEB26E4754973C323BCB4D38.png" width="512.00" height="512.00" transform="matrix(0.18, 0.00, -0.00, -0.18, 877.7, 394.2)" opacity="0.32"></image></g></g></g></g><g><clipPath id="clip-3596"><path d="M 75.0 94.0 L 1019.0 94.0 L 1019.0 630.0 L 75.0 630.0 Z M 75.0 94.0 "></path></clipPath><g clip-path="url(#clip-3596)"><text xml:space="preserve" font-family="HelveticaNeue" font-size="16.0" fill="#FFFFFF" transform="matrix(1.30, 0.00, -0.00, -1.30, 733.7, 601.9)">B</text><text xml:space="preserve" font-family="HelveticaNeue" font-size="16.0" fill="#FFFFFF" transform="matrix(1.30, 0.00, -0.00, -1.30, 748.0, 601.9)">a</text><text xml:space="preserve" font-family="HelveticaNeue" font-size="16.0" fill="#FFFFFF" transform="matrix(1.30, 0.00, -0.00, -1.30, 759.2, 601.9)">c</text><text xml:space="preserve" font-family="HelveticaNeue" font-size="16.0" fill="#FFFFFF" transform="matrix(1.30, 0.00, -0.00, -1.30, 770.4, 601.9)">k</text><text xml:space="preserve" font-family="HelveticaNeue" font-size="16.0" fill="#FFFFFF" transform="matrix(1.30, 0.00, -0.00, -1.30, 781.2, 601.9)">b</text><text xml:space="preserve" font-family="HelveticaNeue" font-size="16.0" fill="#FFFFFF" transform="matrix(1.30, 0.00, -0.00, -1.30, 793.6, 601.9)">o</text><text xml:space="preserve" font-family="HelveticaNeue" font-size="16.0" fill="#FFFFFF" transform="matrix(1.30, 0.00, -0.00, -1.30, 805.6, 601.9)">n</text><text xml:space="preserve" font-family="HelveticaNeue" font-size="16.0" fill="#FFFFFF" transform="matrix(1.30, 0.00, -0.00, -1.30, 817.2, 601.9)">e</text><text xml:space="preserve" font-family="HelveticaNeue" font-size="16.0" fill="#FFFFFF" transform="matrix(1.30, 0.00, -0.00, -1.30, 828.4, 601.9)"> </text><text xml:space="preserve" font-family="HelveticaNeue" font-size="16.0" fill="#FFFFFF" transform="matrix(1.30, 0.00, -0.00, -1.30, 834.2, 601.9)">P</text><text xml:space="preserve" font-family="HelveticaNeue" font-size="16.0" fill="#FFFFFF" transform="matrix(1.30, 0.00, -0.00, -1.30, 847.7, 601.9)">r</text><text xml:space="preserve" font-family="HelveticaNeue" font-size="16.0" fill="#FFFFFF" transform="matrix(1.30, 0.00, -0.00, -1.30, 854.3, 601.9)">o</text><text xml:space="preserve" font-family="HelveticaNeue" font-size="16.0" fill="#FFFFFF" transform="matrix(1.30, 0.00, -0.00, -1.30, 866.3, 601.9)">v</text><text xml:space="preserve" font-family="HelveticaNeue" font-size="16.0" fill="#FFFFFF" transform="matrix(1.30, 0.00, -0.00, -1.30, 876.7, 601.9)">i</text><text xml:space="preserve" font-family="HelveticaNeue" font-size="16.0" fill="#FFFFFF" transform="matrix(1.30, 0.00, -0.00, -1.30, 881.3, 601.9)">d</text><text xml:space="preserve" font-family="HelveticaNeue" font-size="16.0" fill="#FFFFFF" transform="matrix(1.30, 0.00, -0.00, -1.30, 893.7, 601.9)">e</text><text xml:space="preserve" font-family="HelveticaNeue" font-size="16.0" fill="#FFFFFF" transform="matrix(1.30, 0.00, -0.00, -1.30, 904.9, 601.9)">r</text><text xml:space="preserve" font-family="HelveticaNeue" font-size="16.0" fill="#FFFFFF" transform="matrix(0.00, -1.30, -1.30, 0.00, 990.8, 533.9)">B</text><text xml:space="preserve" font-family="HelveticaNeue" font-size="16.0" fill="#FFFFFF" transform="matrix(0.00, -1.30, -1.30, 0.00, 990.8, 519.6)">a</text><text xml:space="preserve" font-family="HelveticaNeue" font-size="16.0" fill="#FFFFFF" transform="matrix(0.00, -1.30, -1.30, 0.00, 990.8, 508.4)">c</text><text xml:space="preserve" font-family="HelveticaNeue" font-size="16.0" fill="#FFFFFF" transform="matrix(0.00, -1.30, -1.30, 0.00, 990.8, 497.2)">k</text><text xml:space="preserve" font-family="HelveticaNeue" font-size="16.0" fill="#FFFFFF" transform="matrix(0.00, -1.30, -1.30, 0.00, 990.8, 486.3)">b</text><text xml:space="preserve" font-family="HelveticaNeue" font-size="16.0" fill="#FFFFFF" transform="matrix(0.00, -1.30, -1.30, 0.00, 990.8, 474.0)">o</text><text xml:space="preserve" font-family="HelveticaNeue" font-size="16.0" fill="#FFFFFF" transform="matrix(0.00, -1.30, -1.30, 0.00, 990.8, 462.0)">n</text><text xml:space="preserve" font-family="HelveticaNeue" font-size="16.0" fill="#FFFFFF" transform="matrix(0.00, -1.30, -1.30, 0.00, 990.8, 450.4)">e</text><text xml:space="preserve" font-family="HelveticaNeue" font-size="16.0" fill="#FFFFFF" transform="matrix(0.00, -1.30, -1.30, 0.00, 990.8, 439.2)"> </text><text xml:space="preserve" font-family="HelveticaNeue" font-size="16.0" fill="#FFFFFF" transform="matrix(0.00, -1.30, -1.30, 0.00, 990.8, 433.4)">P</text><text xml:space="preserve" font-family="HelveticaNeue" font-size="16.0" fill="#FFFFFF" transform="matrix(0.00, -1.30, -1.30, 0.00, 990.8, 419.9)">r</text><text xml:space="preserve" font-family="HelveticaNeue" font-size="16.0" fill="#FFFFFF" transform="matrix(0.00, -1.30, -1.30, 0.00, 990.8, 413.3)">o</text><text xml:space="preserve" font-family="HelveticaNeue" font-size="16.0" fill="#FFFFFF" transform="matrix(0.00, -1.30, -1.30, 0.00, 990.8, 401.3)">v</text><text xml:space="preserve" font-family="HelveticaNeue" font-size="16.0" fill="#FFFFFF" transform="matrix(0.00, -1.30, -1.30, 0.00, 990.8, 390.9)">i</text><text xml:space="preserve" font-family="HelveticaNeue" font-size="16.0" fill="#FFFFFF" transform="matrix(0.00, -1.30, -1.30, 0.00, 990.8, 386.3)">d</text><text xml:space="preserve" font-family="HelveticaNeue" font-size="16.0" fill="#FFFFFF" transform="matrix(0.00, -1.30, -1.30, 0.00, 990.8, 373.9)">e</text><text xml:space="preserve" font-family="HelveticaNeue" font-size="16.0" fill="#FFFFFF" transform="matrix(0.00, -1.30, -1.30, 0.00, 990.8, 362.7)">r</text></g></g><g><clipPath id="clip-3597"><path d="M 271.6 298.1 L 419.4 298.1 L 419.4 150.2 L 271.6 150.2 Z M 271.6 298.1 "></path></clipPath><g clip-path="url(#clip-3597)"><g><clipPath id="clip-3598"><path d="M 75.0 94.0 L 1019.0 94.0 L 1019.0 630.0 L 75.0 630.0 Z M 75.0 94.0 "></path></clipPath><g clip-path="url(#clip-3598)"><image xlink:href="../../FB42B9DB-24C3-4BD5-BD32-C4B5653473C6/assets/3202CC6D782DA1A38A3BB18E8D19A473.png" width="512.00" height="512.00" transform="matrix(0.29, 0.00, -0.00, -0.29, 271.6, 298.1)"></image></g></g></g></g><g><clipPath id="clip-3599"><path d="M 75.0 94.0 L 1019.0 94.0 L 1019.0 630.0 L 75.0 630.0 Z M 75.0 94.0 "></path></clipPath><g clip-path="url(#clip-3599)"><text xml:space="preserve" font-family="HelveticaNeue" font-size="16.0" fill="#FFFFFF" transform="matrix(1.30, 0.00, -0.00, -1.30, 235.3, 122.8)">M</text><text xml:space="preserve" font-family="HelveticaNeue" font-size="16.0" fill="#FFFFFF" transform="matrix(1.30, 0.00, -0.00, -1.30, 253.5, 122.8)">a</text><text xml:space="preserve" font-family="HelveticaNeue" font-size="16.0" fill="#FFFFFF" transform="matrix(1.30, 0.00, -0.00, -1.30, 264.7, 122.8)">n</text><text xml:space="preserve" font-family="HelveticaNeue" font-size="16.0" fill="#FFFFFF" transform="matrix(1.30, 0.00, -0.00, -1.30, 276.3, 122.8)"> </text><text xml:space="preserve" font-family="HelveticaNeue" font-size="16.0" fill="#FFFFFF" transform="matrix(1.30, 0.00, -0.00, -1.30, 282.1, 122.8)">i</text><text xml:space="preserve" font-family="HelveticaNeue" font-size="16.0" fill="#FFFFFF" transform="matrix(1.30, 0.00, -0.00, -1.30, 286.7, 122.8)">n</text><text xml:space="preserve" font-family="HelveticaNeue" font-size="16.0" fill="#FFFFFF" transform="matrix(1.30, 0.00, -0.00, -1.30, 298.3, 122.8)"> </text><text xml:space="preserve" font-family="HelveticaNeue" font-size="16.0" fill="#FFFFFF" transform="matrix(1.30, 0.00, -0.00, -1.30, 304.1, 122.8)">t</text><text xml:space="preserve" font-family="HelveticaNeue" font-size="16.0" fill="#FFFFFF" transform="matrix(1.30, 0.00, -0.00, -1.30, 310.7, 122.8)">h</text><text xml:space="preserve" font-family="HelveticaNeue" font-size="16.0" fill="#FFFFFF" transform="matrix(1.30, 0.00, -0.00, -1.30, 322.3, 122.8)">e</text><text xml:space="preserve" font-family="HelveticaNeue" font-size="16.0" fill="#FFFFFF" transform="matrix(1.30, 0.00, -0.00, -1.30, 333.5, 122.8)"> </text><text xml:space="preserve" font-family="HelveticaNeue" font-size="16.0" fill="#FFFFFF" transform="matrix(1.30, 0.00, -0.00, -1.30, 339.3, 122.8)">m</text><text xml:space="preserve" font-family="HelveticaNeue" font-size="16.0" fill="#FFFFFF" transform="matrix(1.30, 0.00, -0.00, -1.30, 357.1, 122.8)">i</text><text xml:space="preserve" font-family="HelveticaNeue" font-size="16.0" fill="#FFFFFF" transform="matrix(1.30, 0.00, -0.00, -1.30, 361.7, 122.8)">d</text><text xml:space="preserve" font-family="HelveticaNeue" font-size="16.0" fill="#FFFFFF" transform="matrix(1.30, 0.00, -0.00, -1.30, 374.1, 122.8)">d</text><text xml:space="preserve" font-family="HelveticaNeue" font-size="16.0" fill="#FFFFFF" transform="matrix(1.30, 0.00, -0.00, -1.30, 386.4, 122.8)">l</text><text xml:space="preserve" font-family="HelveticaNeue" font-size="16.0" fill="#FFFFFF" transform="matrix(1.30, 0.00, -0.00, -1.30, 391.1, 122.8)">e</text><text xml:space="preserve" font-family="HelveticaNeue" font-size="16.0" fill="#FFFFFF" transform="matrix(1.30, 0.00, -0.00, -1.30, 402.3, 122.8)"> </text><text xml:space="preserve" font-family="HelveticaNeue" font-size="16.0" fill="#FFFFFF" transform="matrix(1.30, 0.00, -0.00, -1.30, 408.1, 122.8)">a</text><text xml:space="preserve" font-family="HelveticaNeue" font-size="16.0" fill="#FFFFFF" transform="matrix(1.30, 0.00, -0.00, -1.30, 419.3, 122.8)">t</text><text xml:space="preserve" font-family="HelveticaNeue" font-size="16.0" fill="#FFFFFF" transform="matrix(1.30, 0.00, -0.00, -1.30, 425.8, 122.8)">t</text><text xml:space="preserve" font-family="HelveticaNeue" font-size="16.0" fill="#FFFFFF" transform="matrix(1.30, 0.00, -0.00, -1.30, 432.4, 122.8)">a</text><text xml:space="preserve" font-family="HelveticaNeue" font-size="16.0" fill="#FFFFFF" transform="matrix(1.30, 0.00, -0.00, -1.30, 443.6, 122.8)">c</text><text xml:space="preserve" font-family="HelveticaNeue" font-size="16.0" fill="#FFFFFF" transform="matrix(1.30, 0.00, -0.00, -1.30, 454.8, 122.8)">k</text><path d="M 248.7 351.5 L 232.2 298.6 " fill="none" stroke="#C01A24" stroke-width="3.00" stroke-miterlimit="0.00" stroke-linecap="round" stroke-linejoin="round" transform="matrix(1.30, 0.00, 0.00, -1.30, -1.9, 756.5)"></path><path d="M 296.5 381.0 L 295.6 365.4 L 306.1 368.7 Z M 296.5 381.0 " fill="#C01A24"></path><path d="M 228.9 288.0 L 228.2 299.9 L 236.2 297.4 Z M 228.9 288.0 " fill="none" stroke="#C01A24" stroke-width="3.00" stroke-miterlimit="0.00" transform="matrix(1.30, 0.00, 0.00, -1.30, -1.9, 756.5)"></path><path d="M 296.1 351.5 L 324.3 297.6 " fill="none" stroke="#C01A24" stroke-width="3.00" stroke-miterlimit="0.00" stroke-linecap="round" stroke-linejoin="round" transform="matrix(1.30, 0.00, 0.00, -1.30, -1.9, 756.5)"></path><path d="M 427.7 381.4 L 416.0 371.0 L 425.8 365.9 Z M 427.7 381.4 " fill="#C01A24"></path><path d="M 329.5 287.6 L 320.6 295.6 L 328.0 299.5 Z M 329.5 287.6 " fill="none" stroke="#C01A24" stroke-width="3.00" stroke-miterlimit="0.00" transform="matrix(1.30, 0.00, 0.00, -1.30, -1.9, 756.5)"></path><path d="M 323.1 371.5 L 454.4 286.4 " fill="none" stroke="#C01A24" stroke-width="3.00" stroke-miterlimit="0.00" stroke-linecap="round" stroke-linejoin="round" transform="matrix(1.30, 0.00, 0.00, -1.30, -1.9, 756.5)"></path><path d="M 602.8 390.9 L 587.5 387.5 L 593.5 378.3 Z M 602.8 390.9 " fill="#C01A24"></path><path d="M 463.8 280.4 L 452.1 282.9 L 456.7 290.0 Z M 463.8 280.4 " fill="none" stroke="#C01A24" stroke-width="3.00" stroke-miterlimit="0.00" transform="matrix(1.30, 0.00, 0.00, -1.30, -1.9, 756.5)"></path><path d="M 323.1 383.6 L 572.2 275.6 " fill="none" stroke="#C01A24" stroke-width="3.00" stroke-miterlimit="0.00" stroke-linecap="round" stroke-linejoin="round" transform="matrix(1.30, 0.00, 0.00, -1.30, -1.9, 756.5)"></path><path d="M 757.5 402.9 L 741.9 402.1 L 746.3 392.0 Z M 757.5 402.9 " fill="#C01A24"></path><path d="M 582.5 271.2 L 570.5 271.8 L 573.9 279.5 Z M 582.5 271.2 " fill="none" stroke="#C01A24" stroke-width="3.00" stroke-miterlimit="0.00" transform="matrix(1.30, 0.00, 0.00, -1.30, -1.9, 756.5)"></path><path d="M 323.1 391.4 L 574.4 317.0 " fill="none" stroke="#C01A24" stroke-width="3.00" stroke-miterlimit="0.00" stroke-linecap="round" stroke-linejoin="round" transform="matrix(1.30, 0.00, 0.00, -1.30, -1.9, 756.5)"></path><path d="M 761.0 347.2 L 745.4 348.3 L 748.5 337.8 Z M 761.0 347.2 " fill="#C01A24"></path><path d="M 585.1 313.8 L 573.2 313.0 L 575.6 321.0 Z M 585.1 313.8 " fill="none" stroke="#C01A24" stroke-width="3.00" stroke-miterlimit="0.00" transform="matrix(1.30, 0.00, 0.00, -1.30, -1.9, 756.5)"></path><path d="M 323.1 402.3 L 579.5 375.8 " fill="none" stroke="#C01A24" stroke-width="3.00" stroke-miterlimit="0.00" stroke-linecap="round" stroke-linejoin="round" transform="matrix(1.30, 0.00, 0.00, -1.30, -1.9, 756.5)"></path><path d="M 768.1 267.9 L 753.0 271.8 L 754.2 260.9 Z M 768.1 267.9 " fill="#C01A24"></path><path d="M 590.6 374.7 L 579.0 371.6 L 579.9 380.0 Z M 590.6 374.7 " fill="none" stroke="#C01A24" stroke-width="3.00" stroke-miterlimit="0.00" transform="matrix(1.30, 0.00, 0.00, -1.30, -1.9, 756.5)"></path></g></g><g><clipPath id="clip-3600"><path d="M 260.5 453.4 L 315.9 453.4 L 315.9 397.9 L 260.5 397.9 Z M 260.5 453.4 "></path></clipPath><g clip-path="url(#clip-3600)"><g><clipPath id="clip-3601"><path d="M 75.0 94.0 L 1019.0 94.0 L 1019.0 630.0 L 75.0 630.0 Z M 75.0 94.0 "></path></clipPath><g clip-path="url(#clip-3601)"><image xlink:href="../../C634BD4A-7660-431A-86B0-EF9245494059/assets/A43D2703763DCA29D9F523EA056B62BD.png" width="512.00" height="512.00" transform="matrix(0.11, 0.00, -0.00, -0.11, 260.5, 453.4)"></image></g></g></g></g><g><clipPath id="clip-3602"><path d="M 412.0 453.4 L 467.5 453.4 L 467.5 397.9 L 412.0 397.9 Z M 412.0 453.4 "></path></clipPath><g clip-path="url(#clip-3602)"><g><clipPath id="clip-3603"><path d="M 75.0 94.0 L 1019.0 94.0 L 1019.0 630.0 L 75.0 630.0 Z M 75.0 94.0 "></path></clipPath><g clip-path="url(#clip-3603)"><image xlink:href="../../C634BD4A-7660-431A-86B0-EF9245494059/assets/A43D2703763DCA29D9F523EA056B62BD.png" width="512.00" height="512.00" transform="matrix(0.11, 0.00, -0.00, -0.11, 412.0, 453.4)"></image></g></g></g></g><g><clipPath id="clip-3604"><path d="M 600.5 453.4 L 656.0 453.4 L 656.0 397.9 L 600.5 397.9 Z M 600.5 453.4 "></path></clipPath><g clip-path="url(#clip-3604)"><g><clipPath id="clip-3605"><path d="M 75.0 94.0 L 1019.0 94.0 L 1019.0 630.0 L 75.0 630.0 Z M 75.0 94.0 "></path></clipPath><g clip-path="url(#clip-3605)"><image xlink:href="../../C634BD4A-7660-431A-86B0-EF9245494059/assets/A43D2703763DCA29D9F523EA056B62BD.png" width="512.00" height="512.00" transform="matrix(0.11, 0.00, -0.00, -0.11, 600.5, 453.4)"></image></g></g></g></g><g><clipPath id="clip-3606"><path d="M 774.2 453.4 L 829.7 453.4 L 829.7 397.9 L 774.2 397.9 Z M 774.2 453.4 "></path></clipPath><g clip-path="url(#clip-3606)"><g><clipPath id="clip-3607"><path d="M 75.0 94.0 L 1019.0 94.0 L 1019.0 630.0 L 75.0 630.0 Z M 75.0 94.0 "></path></clipPath><g clip-path="url(#clip-3607)"><image xlink:href="../../C634BD4A-7660-431A-86B0-EF9245494059/assets/A43D2703763DCA29D9F523EA056B62BD.png" width="512.00" height="512.00" transform="matrix(0.11, 0.00, -0.00, -0.11, 774.2, 453.4)"></image></g></g></g></g><g><clipPath id="clip-3608"><path d="M 774.2 379.4 L 829.7 379.4 L 829.7 324.0 L 774.2 324.0 Z M 774.2 379.4 "></path></clipPath><g clip-path="url(#clip-3608)"><g><clipPath id="clip-3609"><path d="M 75.0 94.0 L 1019.0 94.0 L 1019.0 630.0 L 75.0 630.0 Z M 75.0 94.0 "></path></clipPath><g clip-path="url(#clip-3609)"><image xlink:href="../../C634BD4A-7660-431A-86B0-EF9245494059/assets/A43D2703763DCA29D9F523EA056B62BD.png" width="512.00" height="512.00" transform="matrix(0.11, 0.00, -0.00, -0.11, 774.2, 379.4)"></image></g></g></g></g><g><clipPath id="clip-3610"><path d="M 774.2 298.1 L 829.7 298.1 L 829.7 242.7 L 774.2 242.7 Z M 774.2 298.1 "></path></clipPath><g clip-path="url(#clip-3610)"><g><clipPath id="clip-3611"><path d="M 75.0 94.0 L 1019.0 94.0 L 1019.0 630.0 L 75.0 630.0 Z M 75.0 94.0 "></path></clipPath><g clip-path="url(#clip-3611)"><image xlink:href="../../C634BD4A-7660-431A-86B0-EF9245494059/assets/A43D2703763DCA29D9F523EA056B62BD.png" width="512.00" height="512.00" transform="matrix(0.11, 0.00, -0.00, -0.11, 774.2, 298.1)"></image></g></g></g></g><g><clipPath id="clip-3612"><path d="M 75.0 94.0 L 1019.0 94.0 L 1019.0 630.0 L 75.0 630.0 Z M 75.0 94.0 "></path></clipPath><g clip-path="url(#clip-3612)"><path d="M 172.9 173.0 L 711.0 173.0 L 711.0 192.8 L 711.0 369.1 " fill="none" stroke="#4E8F00" stroke-width="6.00" stroke-miterlimit="0.00" stroke-linecap="round" transform="matrix(1.30, 0.00, 0.00, -1.30, -1.9, 756.5)"></path><path d="M 925.1 254.3 L 932.9 275.1 L 917.3 275.1 Z M 925.1 254.3 " fill="#4E8F00"></path><path d="M 711.0 385.1 L 717.0 369.1 L 705.0 369.1 Z M 711.0 385.1 " fill="none" stroke="#4E8F00" stroke-width="6.00" stroke-miterlimit="0.00" transform="matrix(1.30, 0.00, 0.00, -1.30, -1.9, 756.5)"></path></g></g><text xml:space="preserve" font-family="Chalkduster" font-size="68.4" fill="#FFFFFF" transform="matrix(1.00, 0.00, -0.00, -1.00, 164.0, 680.0)">H</text><text xml:space="preserve" font-family="Chalkduster" font-size="68.4" fill="#FFFFFF" transform="matrix(1.00, 0.00, -0.00, -1.00, 206.1, 680.0)">T</text><text xml:space="preserve" font-family="Chalkduster" font-size="68.4" fill="#FFFFFF" transform="matrix(1.00, 0.00, -0.00, -1.00, 258.6, 680.0)">T</text><text xml:space="preserve" font-family="Chalkduster" font-size="68.4" fill="#FFFFFF" transform="matrix(1.00, 0.00, -0.00, -1.00, 311.0, 680.0)">P</text><text xml:space="preserve" font-family="Chalkduster" font-size="68.4" fill="#FFFFFF" transform="matrix(1.00, 0.00, -0.00, -1.00, 359.6, 680.0)">S</text><text xml:space="preserve" font-family="Chalkduster" font-size="68.4" fill="#FFFFFF" transform="matrix(1.00, 0.00, -0.00, -1.00, 393.7, 680.0)"> </text><text xml:space="preserve" font-family="Chalkduster" font-size="68.4" fill="#FFFFFF" transform="matrix(1.00, 0.00, -0.00, -1.00, 427.7, 680.0)">/</text><text xml:space="preserve" font-family="Chalkduster" font-size="68.4" fill="#FFFFFF" transform="matrix(1.00, 0.00, -0.00, -1.00, 474.2, 680.0)"> </text><text xml:space="preserve" font-family="Chalkduster" font-size="68.4" fill="#FFFFFF" transform="matrix(1.00, 0.00, -0.00, -1.00, 508.2, 680.0)">S</text><text xml:space="preserve" font-family="Chalkduster" font-size="68.4" fill="#FFFFFF" transform="matrix(1.00, 0.00, -0.00, -1.00, 542.3, 680.0)">S</text><text xml:space="preserve" font-family="Chalkduster" font-size="68.4" fill="#FFFFFF" transform="matrix(1.00, 0.00, -0.00, -1.00, 578.5, 680.0)">L</text><text xml:space="preserve" font-family="Chalkduster" font-size="68.4" fill="#FFFFFF" transform="matrix(1.00, 0.00, -0.00, -1.00, 621.8, 680.0)"> </text><text xml:space="preserve" font-family="Chalkduster" font-size="68.4" fill="#FFFFFF" transform="matrix(1.00, 0.00, -0.00, -1.00, 655.9, 680.0)">/</text><text xml:space="preserve" font-family="Chalkduster" font-size="68.4" fill="#FFFFFF" transform="matrix(1.00, 0.00, -0.00, -1.00, 702.3, 680.0)"> </text><text xml:space="preserve" font-family="Chalkduster" font-size="68.4" fill="#FFFFFF" transform="matrix(1.00, 0.00, -0.00, -1.00, 730.6, 680.0)">T</text><text xml:space="preserve" font-family="Chalkduster" font-size="68.4" fill="#FFFFFF" transform="matrix(1.00, 0.00, -0.00, -1.00, 783.1, 680.0)">L</text><text xml:space="preserve" font-family="Chalkduster" font-size="68.4" fill="#FFFFFF" transform="matrix(1.00, 0.00, -0.00, -1.00, 826.4, 680.0)">S</text></g></svg>