<?xml version="1.0" encoding="UTF-8" standalone="no"?><svg xmlns="http://www.w3.org/2000/svg" xmlns:xlink="http://www.w3.org/1999/xlink" clip-rule="evenodd" stroke-miterlimit="4.00" viewBox="0 0 1024 768"><desc>SVG generated by Keynote</desc><defs></defs><g transform="matrix(1.00, 0.00, -0.00, -1.00, 0.0, 768.0)"><g><clipPath id="clip-3645"><path d="M 0.0 768.0 L 1024.0 768.0 L 1024.0 0.0 L 0.0 0.0 Z M 0.0 768.0 "></path></clipPath><g clip-path="url(#clip-3645)"><image xlink:href="../../AAFA64A7-B22F-44FA-BDCD-1B20F3A178DE/assets/DE78B55DDE70D88C6FF874E8D33A46A3.jpeg" width="1024.00" height="768.00" transform="matrix(1.00, 0.00, -0.00, -1.00, 0.0, 768.0)"></image></g></g><text xml:space="preserve" font-family="Chalkduster" font-size="68.4" fill="#FFFFFF" transform="matrix(1.00, 0.00, -0.00, -1.00, 174.0, 680.0)">A</text><text xml:space="preserve" font-family="Chalkduster" font-size="68.4" fill="#FFFFFF" transform="matrix(1.00, 0.00, -0.00, -1.00, 224.7, 680.0)">u</text><text xml:space="preserve" font-family="Chalkduster" font-size="68.4" fill="#FFFFFF" transform="matrix(1.00, 0.00, -0.00, -1.00, 271.0, 680.0)">t</text><text xml:space="preserve" font-family="Chalkduster" font-size="68.4" fill="#FFFFFF" transform="matrix(1.00, 0.00, -0.00, -1.00, 303.7, 680.0)">h</text><text xml:space="preserve" font-family="Chalkduster" font-size="68.4" fill="#FFFFFF" transform="matrix(1.00, 0.00, -0.00, -1.00, 345.9, 680.0)">e</text><text xml:space="preserve" font-family="Chalkduster" font-size="68.4" fill="#FFFFFF" transform="matrix(1.00, 0.00, -0.00, -1.00, 389.0, 680.0)">n</text><text xml:space="preserve" font-family="Chalkduster" font-size="68.4" fill="#FFFFFF" transform="matrix(1.00, 0.00, -0.00, -1.00, 436.7, 680.0)">t</text><text xml:space="preserve" font-family="Chalkduster" font-size="68.4" fill="#FFFFFF" transform="matrix(1.00, 0.00, -0.00, -1.00, 468.3, 680.0)">i</text><text xml:space="preserve" font-family="Chalkduster" font-size="68.4" fill="#FFFFFF" transform="matrix(1.00, 0.00, -0.00, -1.00, 492.1, 680.0)">f</text><text xml:space="preserve" font-family="Chalkduster" font-size="68.4" fill="#FFFFFF" transform="matrix(1.00, 0.00, -0.00, -1.00, 528.5, 680.0)">i</text><text xml:space="preserve" font-family="Chalkduster" font-size="68.4" fill="#FFFFFF" transform="matrix(1.00, 0.00, -0.00, -1.00, 555.5, 680.0)">z</text><text xml:space="preserve" font-family="Chalkduster" font-size="68.4" fill="#FFFFFF" transform="matrix(1.00, 0.00, -0.00, -1.00, 599.9, 680.0)">i</text><text xml:space="preserve" font-family="Chalkduster" font-size="68.4" fill="#FFFFFF" transform="matrix(1.00, 0.00, -0.00, -1.00, 626.9, 680.0)">e</text><text xml:space="preserve" font-family="Chalkduster" font-size="68.4" fill="#FFFFFF" transform="matrix(1.00, 0.00, -0.00, -1.00, 668.7, 680.0)">r</text><text xml:space="preserve" font-family="Chalkduster" font-size="68.4" fill="#FFFFFF" transform="matrix(1.00, 0.00, -0.00, -1.00, 706.6, 680.0)">u</text><text xml:space="preserve" font-family="Chalkduster" font-size="68.4" fill="#FFFFFF" transform="matrix(1.00, 0.00, -0.00, -1.00, 754.6, 680.0)">n</text><text xml:space="preserve" font-family="Chalkduster" font-size="68.4" fill="#FFFFFF" transform="matrix(1.00, 0.00, -0.00, -1.00, 802.6, 680.0)">g</text><g><clipPath id="clip-3646"><path d="M 37.0 74.0 L 987.0 74.0 L 987.0 549.0 L 37.0 549.0 Z M 37.0 74.0 "></path></clipPath><g clip-path="url(#clip-3646)"><path d="M 37.0 549.0 L 987.0 549.0 L 987.0 74.0 L 37.0 74.0 Z M 37.0 549.0 " fill="#FEFFFF" fill-opacity="0.00"></path></g></g><g><clipPath id="clip-3647"><path d="M 37.3 548.4 L 588.0 548.4 L 588.0 481.0 L 37.3 481.0 Z M 37.3 548.4 "></path></clipPath><g clip-path="url(#clip-3647)"><g><clipPath id="clip-3648"><path d="M 37.3 481.0 L 588.0 481.0 L 588.0 548.4 L 37.3 548.4 Z M 37.3 481.0 "></path></clipPath><g clip-path="url(#clip-3648)"><image xlink:href="3BDA1F25F1B342303E1ABB3067A6F46D.png" width="335.00" height="41.00" transform="matrix(1.64, 0.00, -0.00, -1.64, 37.3, 548.4)"></image></g></g></g></g><g><clipPath id="clip-3649"><path d="M 37.3 349.1 L 589.5 349.1 L 589.5 254.2 L 37.3 254.2 Z M 37.3 349.1 "></path></clipPath><g clip-path="url(#clip-3649)"><g><clipPath id="clip-3650"><path d="M 37.3 254.2 L 589.5 254.2 L 589.5 349.1 L 37.3 349.1 Z M 37.3 254.2 "></path></clipPath><g clip-path="url(#clip-3650)"><image xlink:href="BAC3312E30D5B376266F37D210BA3B21.png" width="227.00" height="39.00" transform="matrix(2.43, 0.00, -0.00, -2.43, 37.3, 349.1)"></image></g></g></g></g><g><clipPath id="clip-3651"><path d="M 37.3 150.8 L 986.0 150.8 L 986.0 74.2 L 37.3 74.2 Z M 37.3 150.8 "></path></clipPath><g clip-path="url(#clip-3651)"><g><clipPath id="clip-3652"><path d="M 37.3 74.2 L 986.0 74.2 L 986.0 150.8 L 37.3 150.8 Z M 37.3 74.2 "></path></clipPath><g clip-path="url(#clip-3652)"><image xlink:href="E8DA9CA757F618EBA8E65525E4E1D133.png" width="483.00" height="39.00" transform="matrix(1.96, 0.00, -0.00, -1.96, 37.3, 150.8)"></image></g></g></g></g><text xml:space="preserve" font-family="Chalkduster" font-size="42.0" fill="#FFFFFF" transform="matrix(1.00, 0.00, -0.00, -1.00, 36.0, 561.0)">H</text><text xml:space="preserve" font-family="Chalkduster" font-size="42.0" fill="#FFFFFF" transform="matrix(1.00, 0.00, -0.00, -1.00, 61.9, 561.0)">T</text><text xml:space="preserve" font-family="Chalkduster" font-size="42.0" fill="#FFFFFF" transform="matrix(1.00, 0.00, -0.00, -1.00, 94.1, 561.0)">T</text><text xml:space="preserve" font-family="Chalkduster" font-size="42.0" fill="#FFFFFF" transform="matrix(1.00, 0.00, -0.00, -1.00, 126.3, 561.0)">P</text><text xml:space="preserve" font-family="Chalkduster" font-size="42.0" fill="#FFFFFF" transform="matrix(1.00, 0.00, -0.00, -1.00, 156.1, 561.0)">:</text><text xml:space="preserve" font-family="Chalkduster" font-size="42.0" fill="#FFFFFF" transform="matrix(1.00, 0.00, -0.00, -1.00, 170.0, 561.0)"> </text><text xml:space="preserve" font-family="Chalkduster" font-size="42.0" fill="#FFFFFF" transform="matrix(1.00, 0.00, -0.00, -1.00, 42.0, 369.0)">H</text><text xml:space="preserve" font-family="Chalkduster" font-size="42.0" fill="#FFFFFF" transform="matrix(1.00, 0.00, -0.00, -1.00, 67.9, 369.0)">T</text><text xml:space="preserve" font-family="Chalkduster" font-size="42.0" fill="#FFFFFF" transform="matrix(1.00, 0.00, -0.00, -1.00, 100.1, 369.0)">T</text><text xml:space="preserve" font-family="Chalkduster" font-size="42.0" fill="#FFFFFF" transform="matrix(1.00, 0.00, -0.00, -1.00, 132.3, 369.0)">P</text><text xml:space="preserve" font-family="Chalkduster" font-size="42.0" fill="#FFFFFF" transform="matrix(1.00, 0.00, -0.00, -1.00, 162.1, 369.0)">S</text><text xml:space="preserve" font-family="Chalkduster" font-size="42.0" fill="#FFFFFF" transform="matrix(1.00, 0.00, -0.00, -1.00, 183.0, 369.0)">:</text><text xml:space="preserve" font-family="Chalkduster" font-size="42.0" fill="#FFFFFF" transform="matrix(1.00, 0.00, -0.00, -1.00, 39.0, 165.0)">H</text><text xml:space="preserve" font-family="Chalkduster" font-size="42.0" fill="#FFFFFF" transform="matrix(1.00, 0.00, -0.00, -1.00, 64.9, 165.0)">T</text><text xml:space="preserve" font-family="Chalkduster" font-size="42.0" fill="#FFFFFF" transform="matrix(1.00, 0.00, -0.00, -1.00, 97.1, 165.0)">T</text><text xml:space="preserve" font-family="Chalkduster" font-size="42.0" fill="#FFFFFF" transform="matrix(1.00, 0.00, -0.00, -1.00, 129.3, 165.0)">P</text><text xml:space="preserve" font-family="Chalkduster" font-size="42.0" fill="#FFFFFF" transform="matrix(1.00, 0.00, -0.00, -1.00, 159.1, 165.0)">S</text><text xml:space="preserve" font-family="Chalkduster" font-size="42.0" fill="#FFFFFF" transform="matrix(1.00, 0.00, -0.00, -1.00, 180.0, 165.0)"> </text><text xml:space="preserve" font-family="Chalkduster" font-size="42.0" fill="#FFFFFF" transform="matrix(1.00, 0.00, -0.00, -1.00, 200.9, 165.0)">u</text><text xml:space="preserve" font-family="Chalkduster" font-size="42.0" fill="#FFFFFF" transform="matrix(1.00, 0.00, -0.00, -1.00, 230.4, 165.0)">n</text><text xml:space="preserve" font-family="Chalkduster" font-size="42.0" fill="#FFFFFF" transform="matrix(1.00, 0.00, -0.00, -1.00, 261.2, 165.0)">d</text><text xml:space="preserve" font-family="Chalkduster" font-size="42.0" fill="#FFFFFF" transform="matrix(1.00, 0.00, -0.00, -1.00, 294.1, 165.0)"> </text><text xml:space="preserve" font-family="Chalkduster" font-size="42.0" fill="#FFFFFF" transform="matrix(1.00, 0.00, -0.00, -1.00, 315.0, 165.0)">E</text><text xml:space="preserve" font-family="Chalkduster" font-size="42.0" fill="#FFFFFF" transform="matrix(1.00, 0.00, -0.00, -1.00, 346.0, 165.0)">V</text><text xml:space="preserve" font-family="Chalkduster" font-size="42.0" fill="#FFFFFF" transform="matrix(1.00, 0.00, -0.00, -1.00, 377.2, 165.0)"> </text><text xml:space="preserve" font-family="Chalkduster" font-size="42.0" fill="#FFFFFF" transform="matrix(1.00, 0.00, -0.00, -1.00, 398.1, 165.0)">(</text><text xml:space="preserve" font-family="Chalkduster" font-size="42.0" fill="#FFFFFF" transform="matrix(1.00, 0.00, -0.00, -1.00, 414.8, 165.0)">e</text><text xml:space="preserve" font-family="Chalkduster" font-size="42.0" fill="#FFFFFF" transform="matrix(1.00, 0.00, -0.00, -1.00, 439.6, 165.0)">x</text><text xml:space="preserve" font-family="Chalkduster" font-size="42.0" fill="#FFFFFF" transform="matrix(1.00, 0.00, -0.00, -1.00, 466.3, 165.0)">t</text><text xml:space="preserve" font-family="Chalkduster" font-size="42.0" fill="#FFFFFF" transform="matrix(1.00, 0.00, -0.00, -1.00, 485.0, 165.0)">e</text><text xml:space="preserve" font-family="Chalkduster" font-size="42.0" fill="#FFFFFF" transform="matrix(1.00, 0.00, -0.00, -1.00, 511.5, 165.0)">n</text><text xml:space="preserve" font-family="Chalkduster" font-size="42.0" fill="#FFFFFF" transform="matrix(1.00, 0.00, -0.00, -1.00, 542.3, 165.0)">d</text><text xml:space="preserve" font-family="Chalkduster" font-size="42.0" fill="#FFFFFF" transform="matrix(1.00, 0.00, -0.00, -1.00, 575.2, 165.0)">e</text><text xml:space="preserve" font-family="Chalkduster" font-size="42.0" fill="#FFFFFF" transform="matrix(1.00, 0.00, -0.00, -1.00, 602.5, 165.0)">d</text><text xml:space="preserve" font-family="Chalkduster" font-size="42.0" fill="#FFFFFF" transform="matrix(1.00, 0.00, -0.00, -1.00, 635.3, 165.0)"> </text><text xml:space="preserve" font-family="Chalkduster" font-size="42.0" fill="#FFFFFF" transform="matrix(1.00, 0.00, -0.00, -1.00, 652.4, 165.0)">V</text><text xml:space="preserve" font-family="Chalkduster" font-size="42.0" fill="#FFFFFF" transform="matrix(1.00, 0.00, -0.00, -1.00, 679.3, 165.0)">a</text><text xml:space="preserve" font-family="Chalkduster" font-size="42.0" fill="#FFFFFF" transform="matrix(1.00, 0.00, -0.00, -1.00, 706.6, 165.0)">l</text><text xml:space="preserve" font-family="Chalkduster" font-size="42.0" fill="#FFFFFF" transform="matrix(1.00, 0.00, -0.00, -1.00, 726.7, 165.0)">i</text><text xml:space="preserve" font-family="Chalkduster" font-size="42.0" fill="#FFFFFF" transform="matrix(1.00, 0.00, -0.00, -1.00, 744.8, 165.0)">d</text><text xml:space="preserve" font-family="Chalkduster" font-size="42.0" fill="#FFFFFF" transform="matrix(1.00, 0.00, -0.00, -1.00, 777.6, 165.0)">a</text><text xml:space="preserve" font-family="Chalkduster" font-size="42.0" fill="#FFFFFF" transform="matrix(1.00, 0.00, -0.00, -1.00, 803.7, 165.0)">t</text><text xml:space="preserve" font-family="Chalkduster" font-size="42.0" fill="#FFFFFF" transform="matrix(1.00, 0.00, -0.00, -1.00, 823.1, 165.0)">i</text><text xml:space="preserve" font-family="Chalkduster" font-size="42.0" fill="#FFFFFF" transform="matrix(1.00, 0.00, -0.00, -1.00, 839.7, 165.0)">o</text><text xml:space="preserve" font-family="Chalkduster" font-size="42.0" fill="#FFFFFF" transform="matrix(1.00, 0.00, -0.00, -1.00, 870.9, 165.0)">n</text><text xml:space="preserve" font-family="Chalkduster" font-size="42.0" fill="#FFFFFF" transform="matrix(1.00, 0.00, -0.00, -1.00, 900.1, 165.0)">)</text></g></svg>