<?xml version="1.0" encoding="UTF-8" standalone="no"?><svg xmlns="http://www.w3.org/2000/svg" xmlns:xlink="http://www.w3.org/1999/xlink" clip-rule="evenodd" stroke-miterlimit="4.00" viewBox="0 0 936 208"><desc>SVG generated by Keynote</desc><defs></defs><g transform="matrix(1.00, 0.00, -0.00, -1.00, 0.0, 208.0)"><g><clipPath id="clip-2561"><path d="M 2.0 206.6 L 934.3 206.6 L 934.3 1.3 L 2.0 1.3 Z M 2.0 206.6 "></path></clipPath><g clip-path="url(#clip-2561)"><g><clipPath id="clip-2562"><path d="M 4.0 105.0 L 86.1 105.0 L 86.1 204.6 L 4.0 204.6 Z M 4.0 105.0 "></path></clipPath><g clip-path="url(#clip-2562)"><text xml:space="preserve" font-family="Chalkduster" font-size="36.0" fill="#FFFFFF" transform="matrix(1.00, 0.00, -0.00, -1.00, 9.0, 138.0)">I</text><text xml:space="preserve" font-family="Chalkduster" font-size="36.0" fill="#FFFFFF" transform="matrix(1.00, 0.00, -0.00, -1.00, 30.4, 138.0)">C</text><text xml:space="preserve" font-family="Chalkduster" font-size="36.0" fill="#FFFFFF" transform="matrix(1.00, 0.00, -0.00, -1.00, 59.6, 138.0)">H</text></g></g></g></g><g><clipPath id="clip-2563"><path d="M 2.0 206.6 L 934.3 206.6 L 934.3 1.3 L 2.0 1.3 Z M 2.0 206.6 "></path></clipPath><g clip-path="url(#clip-2563)"><g><clipPath id="clip-2564"><path d="M 88.1 105.0 L 175.0 105.0 L 175.0 204.6 L 88.1 204.6 Z M 88.1 105.0 "></path></clipPath><g clip-path="url(#clip-2564)"><text xml:space="preserve" font-family="Chalkduster" font-size="36.0" fill="#FFFFFF" transform="matrix(1.00, 0.00, -0.00, -1.00, 96.0, 138.0)">B</text><text xml:space="preserve" font-family="Chalkduster" font-size="36.0" fill="#FFFFFF" transform="matrix(1.00, 0.00, -0.00, -1.00, 120.0, 138.0)">I</text><text xml:space="preserve" font-family="Chalkduster" font-size="36.0" fill="#FFFFFF" transform="matrix(1.00, 0.00, -0.00, -1.00, 141.5, 138.0)">N</text></g></g></g></g><g><clipPath id="clip-2565"><path d="M 2.0 206.6 L 934.3 206.6 L 934.3 1.3 L 2.0 1.3 Z M 2.0 206.6 "></path></clipPath><g clip-path="url(#clip-2565)"><g><clipPath id="clip-2566"><path d="M 177.0 105.0 L 276.9 105.0 L 276.9 204.6 L 177.0 204.6 Z M 177.0 105.0 "></path></clipPath><g clip-path="url(#clip-2566)"><text xml:space="preserve" font-family="Chalkduster" font-size="36.0" fill="#FFFFFF" transform="matrix(1.00, 0.00, -0.00, -1.00, 187.0, 138.0)">D</text><text xml:space="preserve" font-family="Chalkduster" font-size="36.0" fill="#FFFFFF" transform="matrix(1.00, 0.00, -0.00, -1.00, 212.2, 138.0)">E</text><text xml:space="preserve" font-family="Chalkduster" font-size="36.0" fill="#FFFFFF" transform="matrix(1.00, 0.00, -0.00, -1.00, 238.8, 138.0)">R</text></g></g></g></g><g><clipPath id="clip-2567"><path d="M 2.0 206.6 L 934.3 206.6 L 934.3 1.3 L 2.0 1.3 Z M 2.0 206.6 "></path></clipPath><g clip-path="url(#clip-2567)"><g><clipPath id="clip-2568"><path d="M 278.9 105.0 L 429.0 105.0 L 429.0 204.6 L 278.9 204.6 Z M 278.9 105.0 "></path></clipPath><g clip-path="url(#clip-2568)"><text xml:space="preserve" font-family="Chalkduster" font-size="36.0" fill="#FFFFFF" transform="matrix(1.00, 0.00, -0.00, -1.00, 287.0, 138.0)">G</text><text xml:space="preserve" font-family="Chalkduster" font-size="36.0" fill="#FFFFFF" transform="matrix(1.00, 0.00, -0.00, -1.00, 327.0, 138.0)">E</text><text xml:space="preserve" font-family="Chalkduster" font-size="36.0" fill="#FFFFFF" transform="matrix(1.00, 0.00, -0.00, -1.00, 353.6, 138.0)">I</text><text xml:space="preserve" font-family="Chalkduster" font-size="36.0" fill="#FFFFFF" transform="matrix(1.00, 0.00, -0.00, -1.00, 375.0, 138.0)">S</text><text xml:space="preserve" font-family="Chalkduster" font-size="36.0" fill="#FFFFFF" transform="matrix(1.00, 0.00, -0.00, -1.00, 392.9, 138.0)">T</text></g></g></g></g><g><clipPath id="clip-2569"><path d="M 2.0 206.6 L 934.3 206.6 L 934.3 1.3 L 2.0 1.3 Z M 2.0 206.6 "></path></clipPath><g clip-path="url(#clip-2569)"><g><clipPath id="clip-2570"><path d="M 431.0 105.0 L 536.6 105.0 L 536.6 204.6 L 431.0 204.6 Z M 431.0 105.0 "></path></clipPath><g clip-path="url(#clip-2570)"><text xml:space="preserve" font-family="Chalkduster" font-size="36.0" fill="#FFFFFF" transform="matrix(1.00, 0.00, -0.00, -1.00, 444.0, 138.0)">D</text><text xml:space="preserve" font-family="Chalkduster" font-size="36.0" fill="#FFFFFF" transform="matrix(1.00, 0.00, -0.00, -1.00, 469.2, 138.0)">E</text><text xml:space="preserve" font-family="Chalkduster" font-size="36.0" fill="#FFFFFF" transform="matrix(1.00, 0.00, -0.00, -1.00, 495.8, 138.0)">R</text></g></g></g></g><g><clipPath id="clip-2571"><path d="M 2.0 206.6 L 934.3 206.6 L 934.3 1.3 L 2.0 1.3 Z M 2.0 206.6 "></path></clipPath><g clip-path="url(#clip-2571)"><g><clipPath id="clip-2572"><path d="M 538.6 105.0 L 702.8 105.0 L 702.8 204.6 L 538.6 204.6 Z M 538.6 105.0 "></path></clipPath><g clip-path="url(#clip-2572)"><text xml:space="preserve" font-family="Chalkduster" font-size="36.0" fill="#FFFFFF" transform="matrix(1.00, 0.00, -0.00, -1.00, 562.0, 138.0)">S</text><text xml:space="preserve" font-family="Chalkduster" font-size="36.0" fill="#FFFFFF" transform="matrix(1.00, 0.00, -0.00, -1.00, 579.9, 138.0)">T</text><text xml:space="preserve" font-family="Chalkduster" font-size="36.0" fill="#FFFFFF" transform="matrix(1.00, 0.00, -0.00, -1.00, 607.5, 138.0)">E</text><text xml:space="preserve" font-family="Chalkduster" font-size="36.0" fill="#FFFFFF" transform="matrix(1.00, 0.00, -0.00, -1.00, 634.1, 138.0)">T</text><text xml:space="preserve" font-family="Chalkduster" font-size="36.0" fill="#FFFFFF" transform="matrix(1.00, 0.00, -0.00, -1.00, 661.8, 138.0)">S</text></g></g></g></g><g><clipPath id="clip-2573"><path d="M 2.0 206.6 L 934.3 206.6 L 934.3 1.3 L 2.0 1.3 Z M 2.0 206.6 "></path></clipPath><g clip-path="url(#clip-2573)"><g><clipPath id="clip-2574"><path d="M 704.8 105.0 L 932.3 105.0 L 932.3 204.6 L 704.8 204.6 Z M 704.8 105.0 "></path></clipPath><g clip-path="url(#clip-2574)"><text xml:space="preserve" font-family="Chalkduster" font-size="36.0" fill="#FFFFFF" transform="matrix(1.00, 0.00, -0.00, -1.00, 714.0, 138.0)">V</text><text xml:space="preserve" font-family="Chalkduster" font-size="36.0" fill="#FFFFFF" transform="matrix(1.00, 0.00, -0.00, -1.00, 740.7, 138.0)">E</text><text xml:space="preserve" font-family="Chalkduster" font-size="36.0" fill="#FFFFFF" transform="matrix(1.00, 0.00, -0.00, -1.00, 767.3, 138.0)">R</text><text xml:space="preserve" font-family="Chalkduster" font-size="36.0" fill="#FFFFFF" transform="matrix(1.00, 0.00, -0.00, -1.00, 795.3, 138.0)">N</text><text xml:space="preserve" font-family="Chalkduster" font-size="36.0" fill="#FFFFFF" transform="matrix(1.00, 0.00, -0.00, -1.00, 820.9, 138.0)">E</text><text xml:space="preserve" font-family="Chalkduster" font-size="36.0" fill="#FFFFFF" transform="matrix(1.00, 0.00, -0.00, -1.00, 847.6, 138.0)">I</text><text xml:space="preserve" font-family="Chalkduster" font-size="36.0" fill="#FFFFFF" transform="matrix(1.00, 0.00, -0.00, -1.00, 869.0, 138.0)">N</text><text xml:space="preserve" font-family="Chalkduster" font-size="36.0" fill="#FFFFFF" transform="matrix(1.00, 0.00, -0.00, -1.00, 894.6, 138.0)">T</text></g></g></g></g><g><clipPath id="clip-2575"><path d="M 2.0 206.6 L 934.3 206.6 L 934.3 1.3 L 2.0 1.3 Z M 2.0 206.6 "></path></clipPath><g clip-path="url(#clip-2575)"><g><clipPath id="clip-2576"><path d="M 4.0 3.3 L 86.1 3.3 L 86.1 103.0 L 4.0 103.0 Z M 4.0 3.3 "></path></clipPath><g clip-path="url(#clip-2576)"><text xml:space="preserve" font-family="Chalkduster" font-size="36.0" fill="#FFFFFF" transform="matrix(1.00, 0.00, -0.00, -1.00, 8.0, 37.0)">L</text><text xml:space="preserve" font-family="Chalkduster" font-size="36.0" fill="#FFFFFF" transform="matrix(1.00, 0.00, -0.00, -1.00, 30.8, 37.0)">F</text><text xml:space="preserve" font-family="Chalkduster" font-size="36.0" fill="#FFFFFF" transform="matrix(1.00, 0.00, -0.00, -1.00, 57.6, 37.0)">K</text></g></g></g></g><g><clipPath id="clip-2577"><path d="M 2.0 206.6 L 934.3 206.6 L 934.3 1.3 L 2.0 1.3 Z M 2.0 206.6 "></path></clipPath><g clip-path="url(#clip-2577)"><g><clipPath id="clip-2578"><path d="M 88.1 3.3 L 175.0 3.3 L 175.0 103.0 L 88.1 103.0 Z M 88.1 3.3 "></path></clipPath><g clip-path="url(#clip-2578)"><text xml:space="preserve" font-family="Chalkduster" font-size="36.0" fill="#FFFFFF" transform="matrix(1.00, 0.00, -0.00, -1.00, 94.0, 37.0)">E</text><text xml:space="preserve" font-family="Chalkduster" font-size="36.0" fill="#FFFFFF" transform="matrix(1.00, 0.00, -0.00, -1.00, 120.6, 37.0)">L</text><text xml:space="preserve" font-family="Chalkduster" font-size="36.0" fill="#FFFFFF" transform="matrix(1.00, 0.00, -0.00, -1.00, 142.3, 37.0)">Q</text></g></g></g></g><g><clipPath id="clip-2579"><path d="M 2.0 206.6 L 934.3 206.6 L 934.3 1.3 L 2.0 1.3 Z M 2.0 206.6 "></path></clipPath><g clip-path="url(#clip-2579)"><g><clipPath id="clip-2580"><path d="M 177.0 3.3 L 276.9 3.3 L 276.9 103.0 L 177.0 103.0 Z M 177.0 3.3 "></path></clipPath><g clip-path="url(#clip-2580)"><text xml:space="preserve" font-family="Chalkduster" font-size="36.0" fill="#FFFFFF" transform="matrix(1.00, 0.00, -0.00, -1.00, 183.0, 37.0)">G</text><text xml:space="preserve" font-family="Chalkduster" font-size="36.0" fill="#FFFFFF" transform="matrix(1.00, 0.00, -0.00, -1.00, 223.0, 37.0)">H</text><text xml:space="preserve" font-family="Chalkduster" font-size="36.0" fill="#FFFFFF" transform="matrix(1.00, 0.00, -0.00, -1.00, 245.1, 37.0)">U</text></g></g></g></g><g><clipPath id="clip-2581"><path d="M 2.0 206.6 L 934.3 206.6 L 934.3 1.3 L 2.0 1.3 Z M 2.0 206.6 "></path></clipPath><g clip-path="url(#clip-2581)"><g><clipPath id="clip-2582"><path d="M 278.9 3.3 L 429.0 3.3 L 429.0 103.0 L 278.9 103.0 Z M 278.9 3.3 "></path></clipPath><g clip-path="url(#clip-2582)"><text xml:space="preserve" font-family="Chalkduster" font-size="36.0" fill="#FFFFFF" transform="matrix(1.00, 0.00, -0.00, -1.00, 292.0, 37.0)">J</text><text xml:space="preserve" font-family="Chalkduster" font-size="36.0" fill="#FFFFFF" transform="matrix(1.00, 0.00, -0.00, -1.00, 312.6, 37.0)">H</text><text xml:space="preserve" font-family="Chalkduster" font-size="36.0" fill="#FFFFFF" transform="matrix(1.00, 0.00, -0.00, -1.00, 334.8, 37.0)">L</text><text xml:space="preserve" font-family="Chalkduster" font-size="36.0" fill="#FFFFFF" transform="matrix(1.00, 0.00, -0.00, -1.00, 355.5, 37.0)">V</text><text xml:space="preserve" font-family="Chalkduster" font-size="36.0" fill="#FFFFFF" transform="matrix(1.00, 0.00, -0.00, -1.00, 382.2, 37.0)">W</text></g></g></g></g><g><clipPath id="clip-2583"><path d="M 2.0 206.6 L 934.3 206.6 L 934.3 1.3 L 2.0 1.3 Z M 2.0 206.6 "></path></clipPath><g clip-path="url(#clip-2583)"><g><clipPath id="clip-2584"><path d="M 431.0 3.3 L 536.6 3.3 L 536.6 103.0 L 431.0 103.0 Z M 431.0 3.3 "></path></clipPath><g clip-path="url(#clip-2584)"><text xml:space="preserve" font-family="Chalkduster" font-size="36.0" fill="#FFFFFF" transform="matrix(1.00, 0.00, -0.00, -1.00, 440.0, 37.0)">G</text><text xml:space="preserve" font-family="Chalkduster" font-size="36.0" fill="#FFFFFF" transform="matrix(1.00, 0.00, -0.00, -1.00, 480.0, 37.0)">H</text><text xml:space="preserve" font-family="Chalkduster" font-size="36.0" fill="#FFFFFF" transform="matrix(1.00, 0.00, -0.00, -1.00, 502.1, 37.0)">U</text></g></g></g></g><g><clipPath id="clip-2585"><path d="M 2.0 206.6 L 934.3 206.6 L 934.3 1.3 L 2.0 1.3 Z M 2.0 206.6 "></path></clipPath><g clip-path="url(#clip-2585)"><g><clipPath id="clip-2586"><path d="M 538.6 3.3 L 702.8 3.3 L 702.8 103.0 L 538.6 103.0 Z M 538.6 3.3 "></path></clipPath><g clip-path="url(#clip-2586)"><text xml:space="preserve" font-family="Chalkduster" font-size="36.0" fill="#FFFFFF" transform="matrix(1.00, 0.00, -0.00, -1.00, 550.0, 37.0)">V</text><text xml:space="preserve" font-family="Chalkduster" font-size="36.0" fill="#FFFFFF" transform="matrix(1.00, 0.00, -0.00, -1.00, 576.7, 37.0)">W</text><text xml:space="preserve" font-family="Chalkduster" font-size="36.0" fill="#FFFFFF" transform="matrix(1.00, 0.00, -0.00, -1.00, 609.4, 37.0)">H</text><text xml:space="preserve" font-family="Chalkduster" font-size="36.0" fill="#FFFFFF" transform="matrix(1.00, 0.00, -0.00, -1.00, 631.5, 37.0)">W</text><text xml:space="preserve" font-family="Chalkduster" font-size="36.0" fill="#FFFFFF" transform="matrix(1.00, 0.00, -0.00, -1.00, 664.2, 37.0)">V</text></g></g></g></g><g><clipPath id="clip-2587"><path d="M 2.0 206.6 L 934.3 206.6 L 934.3 1.3 L 2.0 1.3 Z M 2.0 206.6 "></path></clipPath><g clip-path="url(#clip-2587)"><g><clipPath id="clip-2588"><path d="M 704.8 3.3 L 932.3 3.3 L 932.3 103.0 L 704.8 103.0 Z M 704.8 3.3 "></path></clipPath><g clip-path="url(#clip-2588)"><text xml:space="preserve" font-family="Chalkduster" font-size="36.0" fill="#FFFFFF" transform="matrix(1.00, 0.00, -0.00, -1.00, 713.0, 37.0)">Y</text><text xml:space="preserve" font-family="Chalkduster" font-size="36.0" fill="#FFFFFF" transform="matrix(1.00, 0.00, -0.00, -1.00, 746.7, 37.0)">H</text><text xml:space="preserve" font-family="Chalkduster" font-size="36.0" fill="#FFFFFF" transform="matrix(1.00, 0.00, -0.00, -1.00, 768.9, 37.0)">U</text><text xml:space="preserve" font-family="Chalkduster" font-size="36.0" fill="#FFFFFF" transform="matrix(1.00, 0.00, -0.00, -1.00, 794.5, 37.0)">Q</text><text xml:space="preserve" font-family="Chalkduster" font-size="36.0" fill="#FFFFFF" transform="matrix(1.00, 0.00, -0.00, -1.00, 821.2, 37.0)">H</text><text xml:space="preserve" font-family="Chalkduster" font-size="36.0" fill="#FFFFFF" transform="matrix(1.00, 0.00, -0.00, -1.00, 843.4, 37.0)">L</text><text xml:space="preserve" font-family="Chalkduster" font-size="36.0" fill="#FFFFFF" transform="matrix(1.00, 0.00, -0.00, -1.00, 865.1, 37.0)">Q</text><text xml:space="preserve" font-family="Chalkduster" font-size="36.0" fill="#FFFFFF" transform="matrix(1.00, 0.00, -0.00, -1.00, 891.8, 37.0)">W</text></g></g></g></g><g><clipPath id="clip-2589"><path d="M 2.0 206.6 L 934.3 206.6 L 934.3 1.3 L 2.0 1.3 Z M 2.0 206.6 "></path></clipPath><g clip-path="url(#clip-2589)"><path d="M 86.1 1.0 L 86.1 206.3 " fill="none" stroke="#FFFFFF" stroke-width="2.00" transform="matrix(1.00, 0.00, 0.00, -1.00, 1.0, 207.6)"></path><path d="M 175.0 1.0 L 175.0 206.3 " fill="none" stroke="#FFFFFF" stroke-width="2.00" transform="matrix(1.00, 0.00, 0.00, -1.00, 1.0, 207.6)"></path><path d="M 276.9 1.0 L 276.9 206.3 " fill="none" stroke="#FFFFFF" stroke-width="2.00" transform="matrix(1.00, 0.00, 0.00, -1.00, 1.0, 207.6)"></path><path d="M 429.0 1.0 L 429.0 206.3 " fill="none" stroke="#FFFFFF" stroke-width="2.00" transform="matrix(1.00, 0.00, 0.00, -1.00, 1.0, 207.6)"></path><path d="M 536.6 1.0 L 536.6 206.3 " fill="none" stroke="#FFFFFF" stroke-width="2.00" transform="matrix(1.00, 0.00, 0.00, -1.00, 1.0, 207.6)"></path><path d="M 702.8 1.0 L 702.8 206.3 " fill="none" stroke="#FFFFFF" stroke-width="2.00" transform="matrix(1.00, 0.00, 0.00, -1.00, 1.0, 207.6)"></path><path d="M 1.0 103.7 L 933.3 103.7 " fill="none" stroke="#FFFFFF" stroke-width="2.00" transform="matrix(1.00, 0.00, 0.00, -1.00, 1.0, 207.6)"></path><path d="M 2.0 1.0 L 2.0 206.3 " fill="none" stroke="#FFFFFF" stroke-width="2.00" transform="matrix(1.00, 0.00, 0.00, -1.00, 1.0, 207.6)"></path><path d="M 932.3 1.0 L 932.3 206.3 " fill="none" stroke="#FFFFFF" stroke-width="2.00" transform="matrix(1.00, 0.00, 0.00, -1.00, 1.0, 207.6)"></path><path d="M 1.0 2.0 L 933.3 2.0 " fill="none" stroke="#FFFFFF" stroke-width="2.00" transform="matrix(1.00, 0.00, 0.00, -1.00, 1.0, 207.6)"></path><path d="M 1.0 205.3 L 933.3 205.3 " fill="none" stroke="#FFFFFF" stroke-width="2.00" transform="matrix(1.00, 0.00, 0.00, -1.00, 1.0, 207.6)"></path></g></g></g></svg>