<?xml version="1.0" encoding="UTF-8" standalone="no"?><svg xmlns="http://www.w3.org/2000/svg" xmlns:xlink="http://www.w3.org/1999/xlink" clip-rule="evenodd" stroke-miterlimit="4.00" viewBox="0 0 1024 768"><desc>SVG generated by Keynote</desc><defs></defs><g transform="matrix(1.00, 0.00, -0.00, -1.00, 0.0, 768.0)"><g><clipPath id="clip-3396"><path d="M 0.0 768.0 L 1024.0 768.0 L 1024.0 0.0 L 0.0 0.0 Z M 0.0 768.0 "></path></clipPath><g clip-path="url(#clip-3396)"><image xlink:href="../../AAFA64A7-B22F-44FA-BDCD-1B20F3A178DE/assets/DE78B55DDE70D88C6FF874E8D33A46A3.jpeg" width="1024.00" height="768.00" transform="matrix(1.00, 0.00, -0.00, -1.00, 0.0, 768.0)"></image></g></g><image xlink:href="../../FE0907D7-1E80-4CCC-A76A-5988AA7E84A2/assets/4C697F44666DA982F350C66853D0EC34.png" width="22.00" height="20.00" transform="matrix(0.96, 0.00, -0.00, -0.98, 140.0, 397.0)"></image><text xml:space="preserve" font-family="Chalkduster" font-size="36.0" fill="#FFFFFF" transform="matrix(1.00, 0.00, -0.00, -1.00, 174.0, 378.0)">T</text><text xml:space="preserve" font-family="Chalkduster" font-size="36.0" fill="#FFFFFF" transform="matrix(1.00, 0.00, -0.00, -1.00, 198.7, 378.0)">r</text><text xml:space="preserve" font-family="Chalkduster" font-size="36.0" fill="#FFFFFF" transform="matrix(1.00, 0.00, -0.00, -1.00, 217.7, 378.0)">a</text><text xml:space="preserve" font-family="Chalkduster" font-size="36.0" fill="#FFFFFF" transform="matrix(1.00, 0.00, -0.00, -1.00, 242.5, 378.0)">n</text><text xml:space="preserve" font-family="Chalkduster" font-size="36.0" fill="#FFFFFF" transform="matrix(1.00, 0.00, -0.00, -1.00, 268.9, 378.0)">s</text><text xml:space="preserve" font-family="Chalkduster" font-size="36.0" fill="#FFFFFF" transform="matrix(1.00, 0.00, -0.00, -1.00, 287.1, 378.0)">p</text><text xml:space="preserve" font-family="Chalkduster" font-size="36.0" fill="#FFFFFF" transform="matrix(1.00, 0.00, -0.00, -1.00, 309.8, 378.0)">o</text><text xml:space="preserve" font-family="Chalkduster" font-size="36.0" fill="#FFFFFF" transform="matrix(1.00, 0.00, -0.00, -1.00, 336.0, 378.0)">r</text><text xml:space="preserve" font-family="Chalkduster" font-size="36.0" fill="#FFFFFF" transform="matrix(1.00, 0.00, -0.00, -1.00, 355.0, 378.0)">t</text><text xml:space="preserve" font-family="Chalkduster" font-size="36.0" fill="#FFFFFF" transform="matrix(1.00, 0.00, -0.00, -1.00, 368.4, 378.0)">-</text><text xml:space="preserve" font-family="Chalkduster" font-size="36.0" fill="#FFFFFF" transform="matrix(1.00, 0.00, -0.00, -1.00, 389.2, 378.0)">V</text><text xml:space="preserve" font-family="Chalkduster" font-size="36.0" fill="#FFFFFF" transform="matrix(1.00, 0.00, -0.00, -1.00, 412.6, 378.0)">e</text><text xml:space="preserve" font-family="Chalkduster" font-size="36.0" fill="#FFFFFF" transform="matrix(1.00, 0.00, -0.00, -1.00, 434.6, 378.0)">r</text><text xml:space="preserve" font-family="Chalkduster" font-size="36.0" fill="#FFFFFF" transform="matrix(1.00, 0.00, -0.00, -1.00, 453.1, 378.0)">s</text><text xml:space="preserve" font-family="Chalkduster" font-size="36.0" fill="#FFFFFF" transform="matrix(1.00, 0.00, -0.00, -1.00, 472.1, 378.0)">c</text><text xml:space="preserve" font-family="Chalkduster" font-size="36.0" fill="#FFFFFF" transform="matrix(1.00, 0.00, -0.00, -1.00, 494.7, 378.0)">h</text><text xml:space="preserve" font-family="Chalkduster" font-size="36.0" fill="#FFFFFF" transform="matrix(1.00, 0.00, -0.00, -1.00, 517.0, 378.0)">l</text><text xml:space="preserve" font-family="Chalkduster" font-size="36.0" fill="#FFFFFF" transform="matrix(1.00, 0.00, -0.00, -1.00, 533.9, 378.0)">ü</text><text xml:space="preserve" font-family="Chalkduster" font-size="36.0" fill="#FFFFFF" transform="matrix(1.00, 0.00, -0.00, -1.00, 559.7, 378.0)">s</text><text xml:space="preserve" font-family="Chalkduster" font-size="36.0" fill="#FFFFFF" transform="matrix(1.00, 0.00, -0.00, -1.00, 577.9, 378.0)">s</text><text xml:space="preserve" font-family="Chalkduster" font-size="36.0" fill="#FFFFFF" transform="matrix(1.00, 0.00, -0.00, -1.00, 596.1, 378.0)">e</text><text xml:space="preserve" font-family="Chalkduster" font-size="36.0" fill="#FFFFFF" transform="matrix(1.00, 0.00, -0.00, -1.00, 618.4, 378.0)">l</text><text xml:space="preserve" font-family="Chalkduster" font-size="36.0" fill="#FFFFFF" transform="matrix(1.00, 0.00, -0.00, -1.00, 634.9, 378.0)">u</text><text xml:space="preserve" font-family="Chalkduster" font-size="36.0" fill="#FFFFFF" transform="matrix(1.00, 0.00, -0.00, -1.00, 660.2, 378.0)">n</text><text xml:space="preserve" font-family="Chalkduster" font-size="36.0" fill="#FFFFFF" transform="matrix(1.00, 0.00, -0.00, -1.00, 685.5, 378.0)">g</text><text xml:space="preserve" font-family="Chalkduster" font-size="36.0" fill="#FFFFFF" transform="matrix(1.00, 0.00, -0.00, -1.00, 710.1, 378.0)"> </text><image xlink:href="../../FE0907D7-1E80-4CCC-A76A-5988AA7E84A2/assets/4C697F44666DA982F350C66853D0EC34.png" width="22.00" height="20.00" transform="matrix(0.96, 0.00, -0.00, -0.98, 140.0, 229.0)"></image><text xml:space="preserve" font-family="Chalkduster" font-size="36.0" fill="#FFFFFF" transform="matrix(1.00, 0.00, -0.00, -1.00, 174.0, 210.0)">A</text><text xml:space="preserve" font-family="Chalkduster" font-size="36.0" fill="#FFFFFF" transform="matrix(1.00, 0.00, -0.00, -1.00, 200.7, 210.0)">u</text><text xml:space="preserve" font-family="Chalkduster" font-size="36.0" fill="#FFFFFF" transform="matrix(1.00, 0.00, -0.00, -1.00, 225.1, 210.0)">t</text><text xml:space="preserve" font-family="Chalkduster" font-size="36.0" fill="#FFFFFF" transform="matrix(1.00, 0.00, -0.00, -1.00, 242.2, 210.0)">h</text><text xml:space="preserve" font-family="Chalkduster" font-size="36.0" fill="#FFFFFF" transform="matrix(1.00, 0.00, -0.00, -1.00, 264.5, 210.0)">e</text><text xml:space="preserve" font-family="Chalkduster" font-size="36.0" fill="#FFFFFF" transform="matrix(1.00, 0.00, -0.00, -1.00, 287.2, 210.0)">n</text><text xml:space="preserve" font-family="Chalkduster" font-size="36.0" fill="#FFFFFF" transform="matrix(1.00, 0.00, -0.00, -1.00, 312.2, 210.0)">t</text><text xml:space="preserve" font-family="Chalkduster" font-size="36.0" fill="#FFFFFF" transform="matrix(1.00, 0.00, -0.00, -1.00, 328.9, 210.0)">i</text><text xml:space="preserve" font-family="Chalkduster" font-size="36.0" fill="#FFFFFF" transform="matrix(1.00, 0.00, -0.00, -1.00, 341.4, 210.0)">f</text><text xml:space="preserve" font-family="Chalkduster" font-size="36.0" fill="#FFFFFF" transform="matrix(1.00, 0.00, -0.00, -1.00, 360.6, 210.0)">i</text><text xml:space="preserve" font-family="Chalkduster" font-size="36.0" fill="#FFFFFF" transform="matrix(1.00, 0.00, -0.00, -1.00, 374.8, 210.0)">z</text><text xml:space="preserve" font-family="Chalkduster" font-size="36.0" fill="#FFFFFF" transform="matrix(1.00, 0.00, -0.00, -1.00, 398.2, 210.0)">i</text><text xml:space="preserve" font-family="Chalkduster" font-size="36.0" fill="#FFFFFF" transform="matrix(1.00, 0.00, -0.00, -1.00, 412.4, 210.0)">e</text><text xml:space="preserve" font-family="Chalkduster" font-size="36.0" fill="#FFFFFF" transform="matrix(1.00, 0.00, -0.00, -1.00, 434.3, 210.0)">r</text><text xml:space="preserve" font-family="Chalkduster" font-size="36.0" fill="#FFFFFF" transform="matrix(1.00, 0.00, -0.00, -1.00, 454.3, 210.0)">u</text><text xml:space="preserve" font-family="Chalkduster" font-size="36.0" fill="#FFFFFF" transform="matrix(1.00, 0.00, -0.00, -1.00, 479.6, 210.0)">n</text><text xml:space="preserve" font-family="Chalkduster" font-size="36.0" fill="#FFFFFF" transform="matrix(1.00, 0.00, -0.00, -1.00, 504.8, 210.0)">g</text><text xml:space="preserve" font-family="Chalkduster" font-size="68.4" fill="#FFFFFF" transform="matrix(1.00, 0.00, -0.00, -1.00, 178.0, 680.0)">Z</text><text xml:space="preserve" font-family="Chalkduster" font-size="68.4" fill="#FFFFFF" transform="matrix(1.00, 0.00, -0.00, -1.00, 231.2, 680.0)">w</text><text xml:space="preserve" font-family="Chalkduster" font-size="68.4" fill="#FFFFFF" transform="matrix(1.00, 0.00, -0.00, -1.00, 287.1, 680.0)">e</text><text xml:space="preserve" font-family="Chalkduster" font-size="68.4" fill="#FFFFFF" transform="matrix(1.00, 0.00, -0.00, -1.00, 329.5, 680.0)">i</text><text xml:space="preserve" font-family="Chalkduster" font-size="68.4" fill="#FFFFFF" transform="matrix(1.00, 0.00, -0.00, -1.00, 356.5, 680.0)"> </text><text xml:space="preserve" font-family="Chalkduster" font-size="68.4" fill="#FFFFFF" transform="matrix(1.00, 0.00, -0.00, -1.00, 390.5, 680.0)">F</text><text xml:space="preserve" font-family="Chalkduster" font-size="68.4" fill="#FFFFFF" transform="matrix(1.00, 0.00, -0.00, -1.00, 441.5, 680.0)">u</text><text xml:space="preserve" font-family="Chalkduster" font-size="68.4" fill="#FFFFFF" transform="matrix(1.00, 0.00, -0.00, -1.00, 489.5, 680.0)">n</text><text xml:space="preserve" font-family="Chalkduster" font-size="68.4" fill="#FFFFFF" transform="matrix(1.00, 0.00, -0.00, -1.00, 539.7, 680.0)">k</text><text xml:space="preserve" font-family="Chalkduster" font-size="68.4" fill="#FFFFFF" transform="matrix(1.00, 0.00, -0.00, -1.00, 592.9, 680.0)">t</text><text xml:space="preserve" font-family="Chalkduster" font-size="68.4" fill="#FFFFFF" transform="matrix(1.00, 0.00, -0.00, -1.00, 624.5, 680.0)">i</text><text xml:space="preserve" font-family="Chalkduster" font-size="68.4" fill="#FFFFFF" transform="matrix(1.00, 0.00, -0.00, -1.00, 651.5, 680.0)">o</text><text xml:space="preserve" font-family="Chalkduster" font-size="68.4" fill="#FFFFFF" transform="matrix(1.00, 0.00, -0.00, -1.00, 702.4, 680.0)">n</text><text xml:space="preserve" font-family="Chalkduster" font-size="68.4" fill="#FFFFFF" transform="matrix(1.00, 0.00, -0.00, -1.00, 753.6, 680.0)">e</text><text xml:space="preserve" font-family="Chalkduster" font-size="68.4" fill="#FFFFFF" transform="matrix(1.00, 0.00, -0.00, -1.00, 796.8, 680.0)">n</text></g></svg>