<?xml version="1.0" encoding="UTF-8" standalone="no"?><svg xmlns="http://www.w3.org/2000/svg" xmlns:xlink="http://www.w3.org/1999/xlink" clip-rule="evenodd" stroke-miterlimit="4.00" viewBox="0 0 876 78"><desc>SVG generated by Keynote</desc><defs></defs><g transform="matrix(1.00, 0.00, -0.00, -1.00, 0.0, 78.0)"><text xml:space="preserve" font-family="Chalkduster" font-size="60.5" fill="#FFFFFF" transform="matrix(1.00, 0.00, -0.00, -1.00, 1.0, 23.0)">V</text><text xml:space="preserve" font-family="Chalkduster" font-size="60.5" fill="#FFFFFF" transform="matrix(1.00, 0.00, -0.00, -1.00, 45.9, 23.0)">i</text><text xml:space="preserve" font-family="Chalkduster" font-size="60.5" fill="#FFFFFF" transform="matrix(1.00, 0.00, -0.00, -1.00, 69.8, 23.0)">g</text><text xml:space="preserve" font-family="Chalkduster" font-size="60.5" fill="#FFFFFF" transform="matrix(1.00, 0.00, -0.00, -1.00, 112.0, 23.0)">e</text><text xml:space="preserve" font-family="Chalkduster" font-size="60.5" fill="#FFFFFF" transform="matrix(1.00, 0.00, -0.00, -1.00, 150.1, 23.0)">n</text><text xml:space="preserve" font-family="Chalkduster" font-size="60.5" fill="#FFFFFF" transform="matrix(1.00, 0.00, -0.00, -1.00, 194.5, 23.0)">è</text><text xml:space="preserve" font-family="Chalkduster" font-size="60.5" fill="#FFFFFF" transform="matrix(1.00, 0.00, -0.00, -1.00, 234.2, 23.0)">r</text><text xml:space="preserve" font-family="Chalkduster" font-size="60.5" fill="#FFFFFF" transform="matrix(1.00, 0.00, -0.00, -1.00, 264.8, 23.0)">e</text><text xml:space="preserve" font-family="Chalkduster" font-size="60.5" fill="#FFFFFF" transform="matrix(1.00, 0.00, -0.00, -1.00, 302.3, 23.0)">-</text><text xml:space="preserve" font-family="Chalkduster" font-size="60.5" fill="#FFFFFF" transform="matrix(1.00, 0.00, -0.00, -1.00, 337.2, 23.0)">V</text><text xml:space="preserve" font-family="Chalkduster" font-size="60.5" fill="#FFFFFF" transform="matrix(1.00, 0.00, -0.00, -1.00, 376.6, 23.0)">e</text><text xml:space="preserve" font-family="Chalkduster" font-size="60.5" fill="#FFFFFF" transform="matrix(1.00, 0.00, -0.00, -1.00, 413.4, 23.0)">r</text><text xml:space="preserve" font-family="Chalkduster" font-size="60.5" fill="#FFFFFF" transform="matrix(1.00, 0.00, -0.00, -1.00, 444.6, 23.0)">s</text><text xml:space="preserve" font-family="Chalkduster" font-size="60.5" fill="#FFFFFF" transform="matrix(1.00, 0.00, -0.00, -1.00, 476.5, 23.0)">c</text><text xml:space="preserve" font-family="Chalkduster" font-size="60.5" fill="#FFFFFF" transform="matrix(1.00, 0.00, -0.00, -1.00, 514.5, 23.0)">h</text><text xml:space="preserve" font-family="Chalkduster" font-size="60.5" fill="#FFFFFF" transform="matrix(1.00, 0.00, -0.00, -1.00, 551.9, 23.0)">l</text><text xml:space="preserve" font-family="Chalkduster" font-size="60.5" fill="#FFFFFF" transform="matrix(1.00, 0.00, -0.00, -1.00, 580.2, 23.0)">ü</text><text xml:space="preserve" font-family="Chalkduster" font-size="60.5" fill="#FFFFFF" transform="matrix(1.00, 0.00, -0.00, -1.00, 623.7, 23.0)">s</text><text xml:space="preserve" font-family="Chalkduster" font-size="60.5" fill="#FFFFFF" transform="matrix(1.00, 0.00, -0.00, -1.00, 654.2, 23.0)">s</text><text xml:space="preserve" font-family="Chalkduster" font-size="60.5" fill="#FFFFFF" transform="matrix(1.00, 0.00, -0.00, -1.00, 684.8, 23.0)">e</text><text xml:space="preserve" font-family="Chalkduster" font-size="60.5" fill="#FFFFFF" transform="matrix(1.00, 0.00, -0.00, -1.00, 722.3, 23.0)">l</text><text xml:space="preserve" font-family="Chalkduster" font-size="60.5" fill="#FFFFFF" transform="matrix(1.00, 0.00, -0.00, -1.00, 750.0, 23.0)">u</text><text xml:space="preserve" font-family="Chalkduster" font-size="60.5" fill="#FFFFFF" transform="matrix(1.00, 0.00, -0.00, -1.00, 792.5, 23.0)">n</text><text xml:space="preserve" font-family="Chalkduster" font-size="60.5" fill="#FFFFFF" transform="matrix(1.00, 0.00, -0.00, -1.00, 835.0, 23.0)">g</text></g></svg>