<?xml version="1.0" encoding="UTF-8" standalone="no"?><svg xmlns="http://www.w3.org/2000/svg" xmlns:xlink="http://www.w3.org/1999/xlink" clip-rule="evenodd" stroke-miterlimit="4.00" viewBox="0 0 1024 768"><desc>SVG generated by Keynote</desc><defs></defs><g transform="matrix(1.00, 0.00, -0.00, -1.00, 0.0, 768.0)"><g><clipPath id="clip-3121"><path d="M 0.0 768.0 L 1024.0 768.0 L 1024.0 0.0 L 0.0 0.0 Z M 0.0 768.0 "></path></clipPath><g clip-path="url(#clip-3121)"><image xlink:href="../../AAFA64A7-B22F-44FA-BDCD-1B20F3A178DE/assets/DE78B55DDE70D88C6FF874E8D33A46A3.jpeg" width="1024.00" height="768.00" transform="matrix(1.00, 0.00, -0.00, -1.00, 0.0, 768.0)"></image></g></g><text xml:space="preserve" font-family="Chalkduster" font-size="60.5" fill="#FFFFFF" transform="matrix(1.00, 0.00, -0.00, -1.00, 74.0, 683.0)">V</text><text xml:space="preserve" font-family="Chalkduster" font-size="60.5" fill="#FFFFFF" transform="matrix(1.00, 0.00, -0.00, -1.00, 118.9, 683.0)">i</text><text xml:space="preserve" font-family="Chalkduster" font-size="60.5" fill="#FFFFFF" transform="matrix(1.00, 0.00, -0.00, -1.00, 142.8, 683.0)">g</text><text xml:space="preserve" font-family="Chalkduster" font-size="60.5" fill="#FFFFFF" transform="matrix(1.00, 0.00, -0.00, -1.00, 185.0, 683.0)">e</text><text xml:space="preserve" font-family="Chalkduster" font-size="60.5" fill="#FFFFFF" transform="matrix(1.00, 0.00, -0.00, -1.00, 223.1, 683.0)">n</text><text xml:space="preserve" font-family="Chalkduster" font-size="60.5" fill="#FFFFFF" transform="matrix(1.00, 0.00, -0.00, -1.00, 267.5, 683.0)">è</text><text xml:space="preserve" font-family="Chalkduster" font-size="60.5" fill="#FFFFFF" transform="matrix(1.00, 0.00, -0.00, -1.00, 307.2, 683.0)">r</text><text xml:space="preserve" font-family="Chalkduster" font-size="60.5" fill="#FFFFFF" transform="matrix(1.00, 0.00, -0.00, -1.00, 337.8, 683.0)">e</text><text xml:space="preserve" font-family="Chalkduster" font-size="60.5" fill="#FFFFFF" transform="matrix(1.00, 0.00, -0.00, -1.00, 375.3, 683.0)">-</text><text xml:space="preserve" font-family="Chalkduster" font-size="60.5" fill="#FFFFFF" transform="matrix(1.00, 0.00, -0.00, -1.00, 410.2, 683.0)">V</text><text xml:space="preserve" font-family="Chalkduster" font-size="60.5" fill="#FFFFFF" transform="matrix(1.00, 0.00, -0.00, -1.00, 449.6, 683.0)">e</text><text xml:space="preserve" font-family="Chalkduster" font-size="60.5" fill="#FFFFFF" transform="matrix(1.00, 0.00, -0.00, -1.00, 486.4, 683.0)">r</text><text xml:space="preserve" font-family="Chalkduster" font-size="60.5" fill="#FFFFFF" transform="matrix(1.00, 0.00, -0.00, -1.00, 517.6, 683.0)">s</text><text xml:space="preserve" font-family="Chalkduster" font-size="60.5" fill="#FFFFFF" transform="matrix(1.00, 0.00, -0.00, -1.00, 549.5, 683.0)">c</text><text xml:space="preserve" font-family="Chalkduster" font-size="60.5" fill="#FFFFFF" transform="matrix(1.00, 0.00, -0.00, -1.00, 587.5, 683.0)">h</text><text xml:space="preserve" font-family="Chalkduster" font-size="60.5" fill="#FFFFFF" transform="matrix(1.00, 0.00, -0.00, -1.00, 624.9, 683.0)">l</text><text xml:space="preserve" font-family="Chalkduster" font-size="60.5" fill="#FFFFFF" transform="matrix(1.00, 0.00, -0.00, -1.00, 653.2, 683.0)">ü</text><text xml:space="preserve" font-family="Chalkduster" font-size="60.5" fill="#FFFFFF" transform="matrix(1.00, 0.00, -0.00, -1.00, 696.7, 683.0)">s</text><text xml:space="preserve" font-family="Chalkduster" font-size="60.5" fill="#FFFFFF" transform="matrix(1.00, 0.00, -0.00, -1.00, 727.2, 683.0)">s</text><text xml:space="preserve" font-family="Chalkduster" font-size="60.5" fill="#FFFFFF" transform="matrix(1.00, 0.00, -0.00, -1.00, 757.8, 683.0)">e</text><text xml:space="preserve" font-family="Chalkduster" font-size="60.5" fill="#FFFFFF" transform="matrix(1.00, 0.00, -0.00, -1.00, 795.3, 683.0)">l</text><text xml:space="preserve" font-family="Chalkduster" font-size="60.5" fill="#FFFFFF" transform="matrix(1.00, 0.00, -0.00, -1.00, 823.0, 683.0)">u</text><text xml:space="preserve" font-family="Chalkduster" font-size="60.5" fill="#FFFFFF" transform="matrix(1.00, 0.00, -0.00, -1.00, 865.5, 683.0)">n</text><text xml:space="preserve" font-family="Chalkduster" font-size="60.5" fill="#FFFFFF" transform="matrix(1.00, 0.00, -0.00, -1.00, 908.0, 683.0)">g</text><text xml:space="preserve" font-family="Chalkduster" font-size="18.0" fill="#FFFFFF" transform="matrix(1.00, 0.00, -0.00, -1.00, 499.0, 12.0)">1</text><text xml:space="preserve" font-family="Chalkduster" font-size="18.0" fill="#FFFFFF" transform="matrix(1.00, 0.00, -0.00, -1.00, 509.9, 12.0)">8</text></g></svg>