<?xml version="1.0" encoding="UTF-8" standalone="no"?><svg xmlns="http://www.w3.org/2000/svg" xmlns:xlink="http://www.w3.org/1999/xlink" clip-rule="evenodd" stroke-miterlimit="4.00" viewBox="0 0 1024 768"><desc>SVG generated by Keynote</desc><defs></defs><g transform="matrix(1.00, 0.00, -0.00, -1.00, 0.0, 768.0)"><g><clipPath id="clip-2935"><path d="M 0.0 768.0 L 1024.0 768.0 L 1024.0 0.0 L 0.0 0.0 Z M 0.0 768.0 "></path></clipPath><g clip-path="url(#clip-2935)"><image xlink:href="../../AAFA64A7-B22F-44FA-BDCD-1B20F3A178DE/assets/DE78B55DDE70D88C6FF874E8D33A46A3.jpeg" width="1024.00" height="768.00" transform="matrix(1.00, 0.00, -0.00, -1.00, 0.0, 768.0)"></image></g></g><text xml:space="preserve" font-family="Chalkduster" font-size="68.4" fill="#FFFFFF" transform="matrix(1.00, 0.00, -0.00, -1.00, 57.0, 677.0)">C</text><text xml:space="preserve" font-family="Chalkduster" font-size="68.4" fill="#FFFFFF" transform="matrix(1.00, 0.00, -0.00, -1.00, 112.5, 677.0)">a</text><text xml:space="preserve" font-family="Chalkduster" font-size="68.4" fill="#FFFFFF" transform="matrix(1.00, 0.00, -0.00, -1.00, 158.1, 677.0)">e</text><text xml:space="preserve" font-family="Chalkduster" font-size="68.4" fill="#FFFFFF" transform="matrix(1.00, 0.00, -0.00, -1.00, 202.1, 677.0)">s</text><text xml:space="preserve" font-family="Chalkduster" font-size="68.4" fill="#FFFFFF" transform="matrix(1.00, 0.00, -0.00, -1.00, 236.6, 677.0)">e</text><text xml:space="preserve" font-family="Chalkduster" font-size="68.4" fill="#FFFFFF" transform="matrix(1.00, 0.00, -0.00, -1.00, 278.3, 677.0)">r</text><text xml:space="preserve" font-family="Chalkduster" font-size="68.4" fill="#FFFFFF" transform="matrix(1.00, 0.00, -0.00, -1.00, 316.9, 677.0)">-</text><text xml:space="preserve" font-family="Chalkduster" font-size="68.4" fill="#FFFFFF" transform="matrix(1.00, 0.00, -0.00, -1.00, 356.3, 677.0)">V</text><text xml:space="preserve" font-family="Chalkduster" font-size="68.4" fill="#FFFFFF" transform="matrix(1.00, 0.00, -0.00, -1.00, 400.8, 677.0)">e</text><text xml:space="preserve" font-family="Chalkduster" font-size="68.4" fill="#FFFFFF" transform="matrix(1.00, 0.00, -0.00, -1.00, 442.5, 677.0)">r</text><text xml:space="preserve" font-family="Chalkduster" font-size="68.4" fill="#FFFFFF" transform="matrix(1.00, 0.00, -0.00, -1.00, 477.8, 677.0)">s</text><text xml:space="preserve" font-family="Chalkduster" font-size="68.4" fill="#FFFFFF" transform="matrix(1.00, 0.00, -0.00, -1.00, 513.8, 677.0)">c</text><text xml:space="preserve" font-family="Chalkduster" font-size="68.4" fill="#FFFFFF" transform="matrix(1.00, 0.00, -0.00, -1.00, 556.9, 677.0)">h</text><text xml:space="preserve" font-family="Chalkduster" font-size="68.4" fill="#FFFFFF" transform="matrix(1.00, 0.00, -0.00, -1.00, 599.1, 677.0)">l</text><text xml:space="preserve" font-family="Chalkduster" font-size="68.4" fill="#FFFFFF" transform="matrix(1.00, 0.00, -0.00, -1.00, 631.2, 677.0)">ü</text><text xml:space="preserve" font-family="Chalkduster" font-size="68.4" fill="#FFFFFF" transform="matrix(1.00, 0.00, -0.00, -1.00, 680.3, 677.0)">s</text><text xml:space="preserve" font-family="Chalkduster" font-size="68.4" fill="#FFFFFF" transform="matrix(1.00, 0.00, -0.00, -1.00, 714.9, 677.0)">s</text><text xml:space="preserve" font-family="Chalkduster" font-size="68.4" fill="#FFFFFF" transform="matrix(1.00, 0.00, -0.00, -1.00, 749.4, 677.0)">e</text><text xml:space="preserve" font-family="Chalkduster" font-size="68.4" fill="#FFFFFF" transform="matrix(1.00, 0.00, -0.00, -1.00, 791.8, 677.0)">l</text><text xml:space="preserve" font-family="Chalkduster" font-size="68.4" fill="#FFFFFF" transform="matrix(1.00, 0.00, -0.00, -1.00, 823.2, 677.0)">u</text><text xml:space="preserve" font-family="Chalkduster" font-size="68.4" fill="#FFFFFF" transform="matrix(1.00, 0.00, -0.00, -1.00, 871.3, 677.0)">n</text><text xml:space="preserve" font-family="Chalkduster" font-size="68.4" fill="#FFFFFF" transform="matrix(1.00, 0.00, -0.00, -1.00, 919.3, 677.0)">g</text><text xml:space="preserve" font-family="Chalkduster" font-size="18.0" fill="#FFFFFF" transform="matrix(1.00, 0.00, -0.00, -1.00, 498.0, 12.0)">1</text><text xml:space="preserve" font-family="Chalkduster" font-size="18.0" fill="#FFFFFF" transform="matrix(1.00, 0.00, -0.00, -1.00, 508.9, 12.0)">4</text><text xml:space="preserve" font-family="Chalkduster" font-size="68.4" fill="#FFFFFF" transform="matrix(0.97, 0.23, 0.23, -0.97, 201.0, 276.9)">E</text><text xml:space="preserve" font-family="Chalkduster" font-size="68.4" fill="#FFFFFF" transform="matrix(0.97, 0.23, 0.23, -0.97, 250.2, 288.7)">i</text><text xml:space="preserve" font-family="Chalkduster" font-size="68.4" fill="#FFFFFF" transform="matrix(0.97, 0.23, 0.23, -0.97, 276.4, 295.0)">n</text><text xml:space="preserve" font-family="Chalkduster" font-size="68.4" fill="#FFFFFF" transform="matrix(0.97, 0.23, 0.23, -0.97, 325.2, 306.7)"> </text><text xml:space="preserve" font-family="Chalkduster" font-size="68.4" fill="#FFFFFF" transform="matrix(0.97, 0.23, 0.23, -0.97, 358.3, 314.7)">k</text><text xml:space="preserve" font-family="Chalkduster" font-size="68.4" fill="#FFFFFF" transform="matrix(0.97, 0.23, 0.23, -0.97, 412.1, 327.6)">l</text><text xml:space="preserve" font-family="Chalkduster" font-size="68.4" fill="#FFFFFF" transform="matrix(0.97, 0.23, 0.23, -0.97, 439.6, 334.2)">e</text><text xml:space="preserve" font-family="Chalkduster" font-size="68.4" fill="#FFFFFF" transform="matrix(0.97, 0.23, 0.23, -0.97, 480.8, 344.1)">i</text><text xml:space="preserve" font-family="Chalkduster" font-size="68.4" fill="#FFFFFF" transform="matrix(0.97, 0.23, 0.23, -0.97, 507.1, 350.4)">n</text><text xml:space="preserve" font-family="Chalkduster" font-size="68.4" fill="#FFFFFF" transform="matrix(0.97, 0.23, 0.23, -0.97, 556.9, 362.4)">e</text><text xml:space="preserve" font-family="Chalkduster" font-size="68.4" fill="#FFFFFF" transform="matrix(0.97, 0.23, 0.23, -0.97, 597.5, 372.1)">r</text><text xml:space="preserve" font-family="Chalkduster" font-size="68.4" fill="#FFFFFF" transform="matrix(0.97, 0.23, 0.23, -0.97, 632.6, 380.5)"> </text><text xml:space="preserve" font-family="Chalkduster" font-size="68.4" fill="#FFFFFF" transform="matrix(0.97, 0.23, 0.23, -0.97, 660.1, 387.1)">T</text><text xml:space="preserve" font-family="Chalkduster" font-size="68.4" fill="#FFFFFF" transform="matrix(0.97, 0.23, 0.23, -0.97, 702.3, 397.3)">e</text><text xml:space="preserve" font-family="Chalkduster" font-size="68.4" fill="#FFFFFF" transform="matrix(0.97, 0.23, 0.23, -0.97, 745.1, 407.5)">s</text><text xml:space="preserve" font-family="Chalkduster" font-size="68.4" fill="#FFFFFF" transform="matrix(0.97, 0.23, 0.23, -0.97, 780.7, 416.1)">t</text></g></svg>