<?xml version="1.0" encoding="UTF-8" standalone="no"?><svg xmlns="http://www.w3.org/2000/svg" xmlns:xlink="http://www.w3.org/1999/xlink" clip-rule="evenodd" stroke-miterlimit="4.00" viewBox="0 0 1024 768"><desc>SVG generated by Keynote</desc><defs></defs><g transform="matrix(1.00, 0.00, -0.00, -1.00, 0.0, 768.0)"><g><clipPath id="clip-3728"><path d="M 0.0 768.0 L 1024.0 768.0 L 1024.0 0.0 L 0.0 0.0 Z M 0.0 768.0 "></path></clipPath><g clip-path="url(#clip-3728)"><image xlink:href="../../AAFA64A7-B22F-44FA-BDCD-1B20F3A178DE/assets/DE78B55DDE70D88C6FF874E8D33A46A3.jpeg" width="1024.00" height="768.00" transform="matrix(1.00, 0.00, -0.00, -1.00, 0.0, 768.0)"></image></g></g><text xml:space="preserve" font-family="Chalkduster" font-size="36.0" fill="#FFFFFF" transform="matrix(1.00, 0.00, -0.00, -1.00, 242.0, 478.0)">A</text><text xml:space="preserve" font-family="Chalkduster" font-size="36.0" fill="#FFFFFF" transform="matrix(1.00, 0.00, -0.00, -1.00, 268.7, 478.0)">u</text><text xml:space="preserve" font-family="Chalkduster" font-size="36.0" fill="#FFFFFF" transform="matrix(1.00, 0.00, -0.00, -1.00, 292.2, 478.0)">f</text><text xml:space="preserve" font-family="Chalkduster" font-size="36.0" fill="#FFFFFF" transform="matrix(1.00, 0.00, -0.00, -1.00, 310.0, 478.0)">t</text><text xml:space="preserve" font-family="Chalkduster" font-size="36.0" fill="#FFFFFF" transform="matrix(1.00, 0.00, -0.00, -1.00, 326.5, 478.0)">r</text><text xml:space="preserve" font-family="Chalkduster" font-size="36.0" fill="#FFFFFF" transform="matrix(1.00, 0.00, -0.00, -1.00, 345.4, 478.0)">a</text><text xml:space="preserve" font-family="Chalkduster" font-size="36.0" fill="#FFFFFF" transform="matrix(1.00, 0.00, -0.00, -1.00, 368.4, 478.0)">g</text><text xml:space="preserve" font-family="Chalkduster" font-size="36.0" fill="#FFFFFF" transform="matrix(1.00, 0.00, -0.00, -1.00, 394.0, 478.0)">s</text><text xml:space="preserve" font-family="Chalkduster" font-size="36.0" fill="#FFFFFF" transform="matrix(1.00, 0.00, -0.00, -1.00, 412.2, 478.0)">d</text><text xml:space="preserve" font-family="Chalkduster" font-size="36.0" fill="#FFFFFF" transform="matrix(1.00, 0.00, -0.00, -1.00, 440.3, 478.0)">a</text><text xml:space="preserve" font-family="Chalkduster" font-size="36.0" fill="#FFFFFF" transform="matrix(1.00, 0.00, -0.00, -1.00, 462.6, 478.0)">t</text><text xml:space="preserve" font-family="Chalkduster" font-size="36.0" fill="#FFFFFF" transform="matrix(1.00, 0.00, -0.00, -1.00, 478.7, 478.0)">e</text><text xml:space="preserve" font-family="Chalkduster" font-size="36.0" fill="#FFFFFF" transform="matrix(1.00, 0.00, -0.00, -1.00, 501.4, 478.0)">n</text><text xml:space="preserve" font-family="Chalkduster" font-size="36.0" fill="#FFFFFF" transform="matrix(1.00, 0.00, -0.00, -1.00, 527.9, 478.0)">v</text><text xml:space="preserve" font-family="Chalkduster" font-size="36.0" fill="#FFFFFF" transform="matrix(1.00, 0.00, -0.00, -1.00, 550.0, 478.0)">e</text><text xml:space="preserve" font-family="Chalkduster" font-size="36.0" fill="#FFFFFF" transform="matrix(1.00, 0.00, -0.00, -1.00, 571.9, 478.0)">r</text><text xml:space="preserve" font-family="Chalkduster" font-size="36.0" fill="#FFFFFF" transform="matrix(1.00, 0.00, -0.00, -1.00, 590.9, 478.0)">a</text><text xml:space="preserve" font-family="Chalkduster" font-size="36.0" fill="#FFFFFF" transform="matrix(1.00, 0.00, -0.00, -1.00, 613.9, 478.0)">r</text><text xml:space="preserve" font-family="Chalkduster" font-size="36.0" fill="#FFFFFF" transform="matrix(1.00, 0.00, -0.00, -1.00, 632.8, 478.0)">b</text><text xml:space="preserve" font-family="Chalkduster" font-size="36.0" fill="#FFFFFF" transform="matrix(1.00, 0.00, -0.00, -1.00, 653.8, 478.0)">e</text><text xml:space="preserve" font-family="Chalkduster" font-size="36.0" fill="#FFFFFF" transform="matrix(1.00, 0.00, -0.00, -1.00, 676.1, 478.0)">i</text><text xml:space="preserve" font-family="Chalkduster" font-size="36.0" fill="#FFFFFF" transform="matrix(1.00, 0.00, -0.00, -1.00, 690.7, 478.0)">t</text><text xml:space="preserve" font-family="Chalkduster" font-size="36.0" fill="#FFFFFF" transform="matrix(1.00, 0.00, -0.00, -1.00, 707.1, 478.0)">u</text><text xml:space="preserve" font-family="Chalkduster" font-size="36.0" fill="#FFFFFF" transform="matrix(1.00, 0.00, -0.00, -1.00, 732.4, 478.0)">n</text><text xml:space="preserve" font-family="Chalkduster" font-size="36.0" fill="#FFFFFF" transform="matrix(1.00, 0.00, -0.00, -1.00, 757.7, 478.0)">g</text><text xml:space="preserve" font-family="Chalkduster" font-size="36.0" fill="#FFFFFF" transform="matrix(1.00, 0.00, -0.00, -1.00, 782.2, 478.0)"> </text><text xml:space="preserve" font-family="Chalkduster" font-size="36.0" fill="#FFFFFF" transform="matrix(1.00, 0.00, -0.00, -1.00, 221.0, 370.0)">z</text><text xml:space="preserve" font-family="Chalkduster" font-size="36.0" fill="#FFFFFF" transform="matrix(1.00, 0.00, -0.00, -1.00, 244.4, 370.0)">.</text><text xml:space="preserve" font-family="Chalkduster" font-size="36.0" fill="#FFFFFF" transform="matrix(1.00, 0.00, -0.00, -1.00, 256.6, 370.0)">B</text><text xml:space="preserve" font-family="Chalkduster" font-size="36.0" fill="#FFFFFF" transform="matrix(1.00, 0.00, -0.00, -1.00, 277.8, 370.0)">.</text><text xml:space="preserve" font-family="Chalkduster" font-size="36.0" fill="#FFFFFF" transform="matrix(1.00, 0.00, -0.00, -1.00, 288.0, 370.0)"> </text><text xml:space="preserve" font-family="Chalkduster" font-size="36.0" fill="#FFFFFF" transform="matrix(1.00, 0.00, -0.00, -1.00, 306.0, 370.0)">e</text><text xml:space="preserve" font-family="Chalkduster" font-size="36.0" fill="#FFFFFF" transform="matrix(1.00, 0.00, -0.00, -1.00, 328.3, 370.0)">i</text><text xml:space="preserve" font-family="Chalkduster" font-size="36.0" fill="#FFFFFF" transform="matrix(1.00, 0.00, -0.00, -1.00, 342.5, 370.0)">n</text><text xml:space="preserve" font-family="Chalkduster" font-size="36.0" fill="#FFFFFF" transform="matrix(1.00, 0.00, -0.00, -1.00, 369.5, 370.0)">e</text><text xml:space="preserve" font-family="Chalkduster" font-size="36.0" fill="#FFFFFF" transform="matrix(1.00, 0.00, -0.00, -1.00, 391.8, 370.0)"> </text><text xml:space="preserve" font-family="Chalkduster" font-size="36.0" fill="#FFFFFF" transform="matrix(1.00, 0.00, -0.00, -1.00, 407.2, 370.0)">A</text><text xml:space="preserve" font-family="Chalkduster" font-size="36.0" fill="#FFFFFF" transform="matrix(1.00, 0.00, -0.00, -1.00, 433.9, 370.0)">g</text><text xml:space="preserve" font-family="Chalkduster" font-size="36.0" fill="#FFFFFF" transform="matrix(1.00, 0.00, -0.00, -1.00, 459.0, 370.0)">e</text><text xml:space="preserve" font-family="Chalkduster" font-size="36.0" fill="#FFFFFF" transform="matrix(1.00, 0.00, -0.00, -1.00, 481.7, 370.0)">n</text><text xml:space="preserve" font-family="Chalkduster" font-size="36.0" fill="#FFFFFF" transform="matrix(1.00, 0.00, -0.00, -1.00, 506.7, 370.0)">t</text><text xml:space="preserve" font-family="Chalkduster" font-size="36.0" fill="#FFFFFF" transform="matrix(1.00, 0.00, -0.00, -1.00, 523.2, 370.0)">u</text><text xml:space="preserve" font-family="Chalkduster" font-size="36.0" fill="#FFFFFF" transform="matrix(1.00, 0.00, -0.00, -1.00, 548.5, 370.0)">r</text><text xml:space="preserve" font-family="Chalkduster" font-size="36.0" fill="#FFFFFF" transform="matrix(1.00, 0.00, -0.00, -1.00, 567.4, 370.0)"> </text><text xml:space="preserve" font-family="Chalkduster" font-size="36.0" fill="#FFFFFF" transform="matrix(1.00, 0.00, -0.00, -1.00, 585.4, 370.0)">v</text><text xml:space="preserve" font-family="Chalkduster" font-size="36.0" fill="#FFFFFF" transform="matrix(1.00, 0.00, -0.00, -1.00, 607.5, 370.0)">e</text><text xml:space="preserve" font-family="Chalkduster" font-size="36.0" fill="#FFFFFF" transform="matrix(1.00, 0.00, -0.00, -1.00, 629.4, 370.0)">r</text><text xml:space="preserve" font-family="Chalkduster" font-size="36.0" fill="#FFFFFF" transform="matrix(1.00, 0.00, -0.00, -1.00, 648.4, 370.0)">a</text><text xml:space="preserve" font-family="Chalkduster" font-size="36.0" fill="#FFFFFF" transform="matrix(1.00, 0.00, -0.00, -1.00, 671.3, 370.0)">r</text><text xml:space="preserve" font-family="Chalkduster" font-size="36.0" fill="#FFFFFF" transform="matrix(1.00, 0.00, -0.00, -1.00, 690.3, 370.0)">b</text><text xml:space="preserve" font-family="Chalkduster" font-size="36.0" fill="#FFFFFF" transform="matrix(1.00, 0.00, -0.00, -1.00, 711.3, 370.0)">e</text><text xml:space="preserve" font-family="Chalkduster" font-size="36.0" fill="#FFFFFF" transform="matrix(1.00, 0.00, -0.00, -1.00, 733.6, 370.0)">i</text><text xml:space="preserve" font-family="Chalkduster" font-size="36.0" fill="#FFFFFF" transform="matrix(1.00, 0.00, -0.00, -1.00, 748.2, 370.0)">t</text><text xml:space="preserve" font-family="Chalkduster" font-size="36.0" fill="#FFFFFF" transform="matrix(1.00, 0.00, -0.00, -1.00, 764.3, 370.0)">e</text><text xml:space="preserve" font-family="Chalkduster" font-size="36.0" fill="#FFFFFF" transform="matrix(1.00, 0.00, -0.00, -1.00, 786.2, 370.0)">t</text><text xml:space="preserve" font-family="Chalkduster" font-size="36.0" fill="#FFFFFF" transform="matrix(1.00, 0.00, -0.00, -1.00, 802.7, 370.0)"> </text><text xml:space="preserve" font-family="Chalkduster" font-size="36.0" fill="#FFFFFF" transform="matrix(1.00, 0.00, -0.00, -1.00, 126.0, 316.0)">N</text><text xml:space="preserve" font-family="Chalkduster" font-size="36.0" fill="#FFFFFF" transform="matrix(1.00, 0.00, -0.00, -1.00, 151.6, 316.0)">u</text><text xml:space="preserve" font-family="Chalkduster" font-size="36.0" fill="#FFFFFF" transform="matrix(1.00, 0.00, -0.00, -1.00, 176.0, 316.0)">t</text><text xml:space="preserve" font-family="Chalkduster" font-size="36.0" fill="#FFFFFF" transform="matrix(1.00, 0.00, -0.00, -1.00, 192.4, 316.0)">z</text><text xml:space="preserve" font-family="Chalkduster" font-size="36.0" fill="#FFFFFF" transform="matrix(1.00, 0.00, -0.00, -1.00, 214.1, 316.0)">e</text><text xml:space="preserve" font-family="Chalkduster" font-size="36.0" fill="#FFFFFF" transform="matrix(1.00, 0.00, -0.00, -1.00, 236.1, 316.0)">r</text><text xml:space="preserve" font-family="Chalkduster" font-size="36.0" fill="#FFFFFF" transform="matrix(1.00, 0.00, -0.00, -1.00, 255.3, 316.0)">d</text><text xml:space="preserve" font-family="Chalkduster" font-size="36.0" fill="#FFFFFF" transform="matrix(1.00, 0.00, -0.00, -1.00, 283.4, 316.0)">a</text><text xml:space="preserve" font-family="Chalkduster" font-size="36.0" fill="#FFFFFF" transform="matrix(1.00, 0.00, -0.00, -1.00, 305.7, 316.0)">t</text><text xml:space="preserve" font-family="Chalkduster" font-size="36.0" fill="#FFFFFF" transform="matrix(1.00, 0.00, -0.00, -1.00, 321.8, 316.0)">e</text><text xml:space="preserve" font-family="Chalkduster" font-size="36.0" fill="#FFFFFF" transform="matrix(1.00, 0.00, -0.00, -1.00, 344.5, 316.0)">n</text><text xml:space="preserve" font-family="Chalkduster" font-size="36.0" fill="#FFFFFF" transform="matrix(1.00, 0.00, -0.00, -1.00, 370.9, 316.0)"> </text><text xml:space="preserve" font-family="Chalkduster" font-size="36.0" fill="#FFFFFF" transform="matrix(1.00, 0.00, -0.00, -1.00, 388.8, 316.0)">i</text><text xml:space="preserve" font-family="Chalkduster" font-size="36.0" fill="#FFFFFF" transform="matrix(1.00, 0.00, -0.00, -1.00, 403.1, 316.0)">m</text><text xml:space="preserve" font-family="Chalkduster" font-size="36.0" fill="#FFFFFF" transform="matrix(1.00, 0.00, -0.00, -1.00, 439.5, 316.0)"> </text><text xml:space="preserve" font-family="Chalkduster" font-size="36.0" fill="#FFFFFF" transform="matrix(1.00, 0.00, -0.00, -1.00, 454.9, 316.0)">A</text><text xml:space="preserve" font-family="Chalkduster" font-size="36.0" fill="#FFFFFF" transform="matrix(1.00, 0.00, -0.00, -1.00, 481.6, 316.0)">u</text><text xml:space="preserve" font-family="Chalkduster" font-size="36.0" fill="#FFFFFF" transform="matrix(1.00, 0.00, -0.00, -1.00, 505.2, 316.0)">f</text><text xml:space="preserve" font-family="Chalkduster" font-size="36.0" fill="#FFFFFF" transform="matrix(1.00, 0.00, -0.00, -1.00, 523.0, 316.0)">t</text><text xml:space="preserve" font-family="Chalkduster" font-size="36.0" fill="#FFFFFF" transform="matrix(1.00, 0.00, -0.00, -1.00, 539.4, 316.0)">r</text><text xml:space="preserve" font-family="Chalkduster" font-size="36.0" fill="#FFFFFF" transform="matrix(1.00, 0.00, -0.00, -1.00, 558.4, 316.0)">a</text><text xml:space="preserve" font-family="Chalkduster" font-size="36.0" fill="#FFFFFF" transform="matrix(1.00, 0.00, -0.00, -1.00, 581.3, 316.0)">g</text><text xml:space="preserve" font-family="Chalkduster" font-size="36.0" fill="#FFFFFF" transform="matrix(1.00, 0.00, -0.00, -1.00, 605.9, 316.0)"> </text><text xml:space="preserve" font-family="Chalkduster" font-size="36.0" fill="#FFFFFF" transform="matrix(1.00, 0.00, -0.00, -1.00, 623.8, 316.0)">e</text><text xml:space="preserve" font-family="Chalkduster" font-size="36.0" fill="#FFFFFF" transform="matrix(1.00, 0.00, -0.00, -1.00, 646.1, 316.0)">i</text><text xml:space="preserve" font-family="Chalkduster" font-size="36.0" fill="#FFFFFF" transform="matrix(1.00, 0.00, -0.00, -1.00, 660.3, 316.0)">n</text><text xml:space="preserve" font-family="Chalkduster" font-size="36.0" fill="#FFFFFF" transform="matrix(1.00, 0.00, -0.00, -1.00, 687.3, 316.0)">e</text><text xml:space="preserve" font-family="Chalkduster" font-size="36.0" fill="#FFFFFF" transform="matrix(1.00, 0.00, -0.00, -1.00, 710.4, 316.0)">s</text><text xml:space="preserve" font-family="Chalkduster" font-size="36.0" fill="#FFFFFF" transform="matrix(1.00, 0.00, -0.00, -1.00, 728.6, 316.0)"> </text><text xml:space="preserve" font-family="Chalkduster" font-size="36.0" fill="#FFFFFF" transform="matrix(1.00, 0.00, -0.00, -1.00, 746.5, 316.0)">K</text><text xml:space="preserve" font-family="Chalkduster" font-size="36.0" fill="#FFFFFF" transform="matrix(1.00, 0.00, -0.00, -1.00, 769.5, 316.0)">u</text><text xml:space="preserve" font-family="Chalkduster" font-size="36.0" fill="#FFFFFF" transform="matrix(1.00, 0.00, -0.00, -1.00, 794.8, 316.0)">n</text><text xml:space="preserve" font-family="Chalkduster" font-size="36.0" fill="#FFFFFF" transform="matrix(1.00, 0.00, -0.00, -1.00, 821.2, 316.0)">d</text><text xml:space="preserve" font-family="Chalkduster" font-size="36.0" fill="#FFFFFF" transform="matrix(1.00, 0.00, -0.00, -1.00, 849.3, 316.0)">e</text><text xml:space="preserve" font-family="Chalkduster" font-size="36.0" fill="#FFFFFF" transform="matrix(1.00, 0.00, -0.00, -1.00, 872.0, 316.0)">n</text><text xml:space="preserve" font-family="Chalkduster" font-size="72.0" fill="#FFFFFF" transform="matrix(1.00, 0.00, -0.00, -1.00, 434.0, 669.0)">A</text><text xml:space="preserve" font-family="Chalkduster" font-size="72.0" fill="#FFFFFF" transform="matrix(1.00, 0.00, -0.00, -1.00, 487.2, 669.0)">D</text><text xml:space="preserve" font-family="Chalkduster" font-size="72.0" fill="#FFFFFF" transform="matrix(1.00, 0.00, -0.00, -1.00, 536.2, 669.0)">V</text></g></svg>