<?xml version="1.0" encoding="UTF-8" standalone="no"?><svg xmlns="http://www.w3.org/2000/svg" xmlns:xlink="http://www.w3.org/1999/xlink" clip-rule="evenodd" stroke-miterlimit="4.00" viewBox="0 0 1024 768"><desc>SVG generated by Keynote</desc><defs></defs><g transform="matrix(1.00, 0.00, -0.00, -1.00, 0.0, 768.0)"><g><clipPath id="clip-3692"><path d="M 0.0 768.0 L 1024.0 768.0 L 1024.0 0.0 L 0.0 0.0 Z M 0.0 768.0 "></path></clipPath><g clip-path="url(#clip-3692)"><image xlink:href="../../AAFA64A7-B22F-44FA-BDCD-1B20F3A178DE/assets/DE78B55DDE70D88C6FF874E8D33A46A3.jpeg" width="1024.00" height="768.00" transform="matrix(1.00, 0.00, -0.00, -1.00, 0.0, 768.0)"></image></g></g><text xml:space="preserve" font-family="Chalkduster" font-size="72.0" fill="#FFFFFF" transform="matrix(1.00, 0.00, -0.00, -1.00, 343.0, 669.0)">B</text><text xml:space="preserve" font-family="Chalkduster" font-size="72.0" fill="#FFFFFF" transform="matrix(1.00, 0.00, -0.00, -1.00, 391.1, 669.0)">u</text><text xml:space="preserve" font-family="Chalkduster" font-size="72.0" fill="#FFFFFF" transform="matrix(1.00, 0.00, -0.00, -1.00, 442.7, 669.0)">s</text><text xml:space="preserve" font-family="Chalkduster" font-size="72.0" fill="#FFFFFF" transform="matrix(1.00, 0.00, -0.00, -1.00, 479.0, 669.0)">i</text><text xml:space="preserve" font-family="Chalkduster" font-size="72.0" fill="#FFFFFF" transform="matrix(1.00, 0.00, -0.00, -1.00, 507.5, 669.0)">n</text><text xml:space="preserve" font-family="Chalkduster" font-size="72.0" fill="#FFFFFF" transform="matrix(1.00, 0.00, -0.00, -1.00, 561.4, 669.0)">e</text><text xml:space="preserve" font-family="Chalkduster" font-size="72.0" fill="#FFFFFF" transform="matrix(1.00, 0.00, -0.00, -1.00, 607.7, 669.0)">s</text><text xml:space="preserve" font-family="Chalkduster" font-size="72.0" fill="#FFFFFF" transform="matrix(1.00, 0.00, -0.00, -1.00, 644.0, 669.0)">s</text><image xlink:href="../../FE0907D7-1E80-4CCC-A76A-5988AA7E84A2/assets/4C697F44666DA982F350C66853D0EC34.png" width="22.00" height="20.00" transform="matrix(0.83, 0.00, -0.00, -0.84, 140.0, 595.1)"></image><text xml:space="preserve" font-family="Chalkduster" font-size="31.0" fill="#FFFFFF" transform="matrix(1.00, 0.00, -0.00, -1.00, 170.0, 579.0)">W</text><text xml:space="preserve" font-family="Chalkduster" font-size="31.0" fill="#FFFFFF" transform="matrix(1.00, 0.00, -0.00, -1.00, 196.0, 579.0)">a</text><text xml:space="preserve" font-family="Chalkduster" font-size="31.0" fill="#FFFFFF" transform="matrix(1.00, 0.00, -0.00, -1.00, 217.7, 579.0)">s</text><text xml:space="preserve" font-family="Chalkduster" font-size="31.0" fill="#FFFFFF" transform="matrix(1.00, 0.00, -0.00, -1.00, 233.3, 579.0)"> </text><text xml:space="preserve" font-family="Chalkduster" font-size="31.0" fill="#FFFFFF" transform="matrix(1.00, 0.00, -0.00, -1.00, 248.7, 579.0)">k</text><text xml:space="preserve" font-family="Chalkduster" font-size="31.0" fill="#FFFFFF" transform="matrix(1.00, 0.00, -0.00, -1.00, 272.1, 579.0)">o</text><text xml:space="preserve" font-family="Chalkduster" font-size="31.0" fill="#FFFFFF" transform="matrix(1.00, 0.00, -0.00, -1.00, 294.7, 579.0)">s</text><text xml:space="preserve" font-family="Chalkduster" font-size="31.0" fill="#FFFFFF" transform="matrix(1.00, 0.00, -0.00, -1.00, 311.3, 579.0)">t</text><text xml:space="preserve" font-family="Chalkduster" font-size="31.0" fill="#FFFFFF" transform="matrix(1.00, 0.00, -0.00, -1.00, 325.1, 579.0)">e</text><text xml:space="preserve" font-family="Chalkduster" font-size="31.0" fill="#FFFFFF" transform="matrix(1.00, 0.00, -0.00, -1.00, 344.0, 579.0)">t</text><text xml:space="preserve" font-family="Chalkduster" font-size="31.0" fill="#FFFFFF" transform="matrix(1.00, 0.00, -0.00, -1.00, 358.1, 579.0)"> </text><text xml:space="preserve" font-family="Chalkduster" font-size="31.0" fill="#FFFFFF" transform="matrix(1.00, 0.00, -0.00, -1.00, 373.5, 579.0)">d</text><text xml:space="preserve" font-family="Chalkduster" font-size="31.0" fill="#FFFFFF" transform="matrix(1.00, 0.00, -0.00, -1.00, 399.0, 579.0)">i</text><text xml:space="preserve" font-family="Chalkduster" font-size="31.0" fill="#FFFFFF" transform="matrix(1.00, 0.00, -0.00, -1.00, 411.2, 579.0)">e</text><text xml:space="preserve" font-family="Chalkduster" font-size="31.0" fill="#FFFFFF" transform="matrix(1.00, 0.00, -0.00, -1.00, 430.4, 579.0)"> </text><text xml:space="preserve" font-family="Chalkduster" font-size="31.0" fill="#FFFFFF" transform="matrix(1.00, 0.00, -0.00, -1.00, 445.8, 579.0)">P</text><text xml:space="preserve" font-family="Chalkduster" font-size="31.0" fill="#FFFFFF" transform="matrix(1.00, 0.00, -0.00, -1.00, 467.8, 579.0)">R</text><text xml:space="preserve" font-family="Chalkduster" font-size="31.0" fill="#FFFFFF" transform="matrix(1.00, 0.00, -0.00, -1.00, 491.9, 579.0)"> </text><text xml:space="preserve" font-family="Chalkduster" font-size="31.0" fill="#FFFFFF" transform="matrix(1.00, 0.00, -0.00, -1.00, 507.3, 579.0)">f</text><text xml:space="preserve" font-family="Chalkduster" font-size="31.0" fill="#FFFFFF" transform="matrix(1.00, 0.00, -0.00, -1.00, 523.7, 579.0)">ü</text><text xml:space="preserve" font-family="Chalkduster" font-size="31.0" fill="#FFFFFF" transform="matrix(1.00, 0.00, -0.00, -1.00, 546.0, 579.0)">r</text><text xml:space="preserve" font-family="Chalkduster" font-size="31.0" fill="#FFFFFF" transform="matrix(1.00, 0.00, -0.00, -1.00, 562.3, 579.0)"> </text><text xml:space="preserve" font-family="Chalkduster" font-size="31.0" fill="#FFFFFF" transform="matrix(1.00, 0.00, -0.00, -1.00, 577.7, 579.0)">s</text><text xml:space="preserve" font-family="Chalkduster" font-size="31.0" fill="#FFFFFF" transform="matrix(1.00, 0.00, -0.00, -1.00, 593.3, 579.0)">o</text><text xml:space="preserve" font-family="Chalkduster" font-size="31.0" fill="#FFFFFF" transform="matrix(1.00, 0.00, -0.00, -1.00, 615.6, 579.0)"> </text><text xml:space="preserve" font-family="Chalkduster" font-size="31.0" fill="#FFFFFF" transform="matrix(1.00, 0.00, -0.00, -1.00, 631.0, 579.0)">e</text><text xml:space="preserve" font-family="Chalkduster" font-size="31.0" fill="#FFFFFF" transform="matrix(1.00, 0.00, -0.00, -1.00, 650.2, 579.0)">i</text><text xml:space="preserve" font-family="Chalkduster" font-size="31.0" fill="#FFFFFF" transform="matrix(1.00, 0.00, -0.00, -1.00, 662.4, 579.0)">n</text><text xml:space="preserve" font-family="Chalkduster" font-size="31.0" fill="#FFFFFF" transform="matrix(1.00, 0.00, -0.00, -1.00, 685.1, 579.0)"> </text><text xml:space="preserve" font-family="Chalkduster" font-size="31.0" fill="#FFFFFF" transform="matrix(1.00, 0.00, -0.00, -1.00, 700.5, 579.0)">v</text><text xml:space="preserve" font-family="Chalkduster" font-size="31.0" fill="#FFFFFF" transform="matrix(1.00, 0.00, -0.00, -1.00, 719.5, 579.0)">e</text><text xml:space="preserve" font-family="Chalkduster" font-size="31.0" fill="#FFFFFF" transform="matrix(1.00, 0.00, -0.00, -1.00, 738.4, 579.0)">r</text><text xml:space="preserve" font-family="Chalkduster" font-size="31.0" fill="#FFFFFF" transform="matrix(1.00, 0.00, -0.00, -1.00, 754.4, 579.0)">s</text><text xml:space="preserve" font-family="Chalkduster" font-size="31.0" fill="#FFFFFF" transform="matrix(1.00, 0.00, -0.00, -1.00, 770.0, 579.0)">a</text><text xml:space="preserve" font-family="Chalkduster" font-size="31.0" fill="#FFFFFF" transform="matrix(1.00, 0.00, -0.00, -1.00, 789.8, 579.0)">g</text><text xml:space="preserve" font-family="Chalkduster" font-size="31.0" fill="#FFFFFF" transform="matrix(1.00, 0.00, -0.00, -1.00, 811.3, 579.0)">e</text><text xml:space="preserve" font-family="Chalkduster" font-size="31.0" fill="#FFFFFF" transform="matrix(1.00, 0.00, -0.00, -1.00, 830.9, 579.0)">n</text><text xml:space="preserve" font-family="Chalkduster" font-size="31.0" fill="#FFFFFF" transform="matrix(1.00, 0.00, -0.00, -1.00, 853.6, 579.0)">?</text><text xml:space="preserve" font-family="Chalkduster" font-size="31.0" fill="#FFFFFF" transform="matrix(1.00, 0.00, -0.00, -1.00, 868.9, 579.0)"> </text><image xlink:href="../../FE0907D7-1E80-4CCC-A76A-5988AA7E84A2/assets/4C697F44666DA982F350C66853D0EC34.png" width="22.00" height="20.00" transform="matrix(0.83, 0.00, -0.00, -0.84, 140.0, 522.3)"></image><text xml:space="preserve" font-family="Chalkduster" font-size="31.0" fill="#FFFFFF" transform="matrix(1.00, 0.00, -0.00, -1.00, 170.0, 506.0)">W</text><text xml:space="preserve" font-family="Chalkduster" font-size="31.0" fill="#FFFFFF" transform="matrix(1.00, 0.00, -0.00, -1.00, 198.1, 506.0)">i</text><text xml:space="preserve" font-family="Chalkduster" font-size="31.0" fill="#FFFFFF" transform="matrix(1.00, 0.00, -0.00, -1.00, 210.3, 506.0)">e</text><text xml:space="preserve" font-family="Chalkduster" font-size="31.0" fill="#FFFFFF" transform="matrix(1.00, 0.00, -0.00, -1.00, 229.5, 506.0)"> </text><text xml:space="preserve" font-family="Chalkduster" font-size="31.0" fill="#FFFFFF" transform="matrix(1.00, 0.00, -0.00, -1.00, 244.9, 506.0)">g</text><text xml:space="preserve" font-family="Chalkduster" font-size="31.0" fill="#FFFFFF" transform="matrix(1.00, 0.00, -0.00, -1.00, 266.5, 506.0)">e</text><text xml:space="preserve" font-family="Chalkduster" font-size="31.0" fill="#FFFFFF" transform="matrix(1.00, 0.00, -0.00, -1.00, 285.7, 506.0)">w</text><text xml:space="preserve" font-family="Chalkduster" font-size="31.0" fill="#FFFFFF" transform="matrix(1.00, 0.00, -0.00, -1.00, 312.1, 506.0)">i</text><text xml:space="preserve" font-family="Chalkduster" font-size="31.0" fill="#FFFFFF" transform="matrix(1.00, 0.00, -0.00, -1.00, 324.4, 506.0)">n</text><text xml:space="preserve" font-family="Chalkduster" font-size="31.0" fill="#FFFFFF" transform="matrix(1.00, 0.00, -0.00, -1.00, 347.1, 506.0)">n</text><text xml:space="preserve" font-family="Chalkduster" font-size="31.0" fill="#FFFFFF" transform="matrix(1.00, 0.00, -0.00, -1.00, 370.3, 506.0)">e</text><text xml:space="preserve" font-family="Chalkduster" font-size="31.0" fill="#FFFFFF" transform="matrix(1.00, 0.00, -0.00, -1.00, 389.8, 506.0)">n</text><text xml:space="preserve" font-family="Chalkduster" font-size="31.0" fill="#FFFFFF" transform="matrix(1.00, 0.00, -0.00, -1.00, 412.5, 506.0)"> </text><text xml:space="preserve" font-family="Chalkduster" font-size="31.0" fill="#FFFFFF" transform="matrix(1.00, 0.00, -0.00, -1.00, 427.9, 506.0)">S</text><text xml:space="preserve" font-family="Chalkduster" font-size="31.0" fill="#FFFFFF" transform="matrix(1.00, 0.00, -0.00, -1.00, 443.3, 506.0)">i</text><text xml:space="preserve" font-family="Chalkduster" font-size="31.0" fill="#FFFFFF" transform="matrix(1.00, 0.00, -0.00, -1.00, 455.5, 506.0)">e</text><text xml:space="preserve" font-family="Chalkduster" font-size="31.0" fill="#FFFFFF" transform="matrix(1.00, 0.00, -0.00, -1.00, 474.7, 506.0)"> </text><text xml:space="preserve" font-family="Chalkduster" font-size="31.0" fill="#FFFFFF" transform="matrix(1.00, 0.00, -0.00, -1.00, 490.1, 506.0)">d</text><text xml:space="preserve" font-family="Chalkduster" font-size="31.0" fill="#FFFFFF" transform="matrix(1.00, 0.00, -0.00, -1.00, 514.3, 506.0)">a</text><text xml:space="preserve" font-family="Chalkduster" font-size="31.0" fill="#FFFFFF" transform="matrix(1.00, 0.00, -0.00, -1.00, 536.0, 506.0)">s</text><text xml:space="preserve" font-family="Chalkduster" font-size="31.0" fill="#FFFFFF" transform="matrix(1.00, 0.00, -0.00, -1.00, 551.6, 506.0)"> </text><text xml:space="preserve" font-family="Chalkduster" font-size="31.0" fill="#FFFFFF" transform="matrix(1.00, 0.00, -0.00, -1.00, 564.3, 506.0)">V</text><text xml:space="preserve" font-family="Chalkduster" font-size="31.0" fill="#FFFFFF" transform="matrix(1.00, 0.00, -0.00, -1.00, 584.4, 506.0)">e</text><text xml:space="preserve" font-family="Chalkduster" font-size="31.0" fill="#FFFFFF" transform="matrix(1.00, 0.00, -0.00, -1.00, 603.3, 506.0)">r</text><text xml:space="preserve" font-family="Chalkduster" font-size="31.0" fill="#FFFFFF" transform="matrix(1.00, 0.00, -0.00, -1.00, 619.7, 506.0)">t</text><text xml:space="preserve" font-family="Chalkduster" font-size="31.0" fill="#FFFFFF" transform="matrix(1.00, 0.00, -0.00, -1.00, 633.8, 506.0)">r</text><text xml:space="preserve" font-family="Chalkduster" font-size="31.0" fill="#FFFFFF" transform="matrix(1.00, 0.00, -0.00, -1.00, 650.1, 506.0)">a</text><text xml:space="preserve" font-family="Chalkduster" font-size="31.0" fill="#FFFFFF" transform="matrix(1.00, 0.00, -0.00, -1.00, 671.5, 506.0)">u</text><text xml:space="preserve" font-family="Chalkduster" font-size="31.0" fill="#FFFFFF" transform="matrix(1.00, 0.00, -0.00, -1.00, 692.8, 506.0)">e</text><text xml:space="preserve" font-family="Chalkduster" font-size="31.0" fill="#FFFFFF" transform="matrix(1.00, 0.00, -0.00, -1.00, 712.3, 506.0)">n</text><text xml:space="preserve" font-family="Chalkduster" font-size="31.0" fill="#FFFFFF" transform="matrix(1.00, 0.00, -0.00, -1.00, 735.0, 506.0)"> </text><text xml:space="preserve" font-family="Chalkduster" font-size="31.0" fill="#FFFFFF" transform="matrix(1.00, 0.00, -0.00, -1.00, 750.4, 506.0)">d</text><text xml:space="preserve" font-family="Chalkduster" font-size="31.0" fill="#FFFFFF" transform="matrix(1.00, 0.00, -0.00, -1.00, 774.6, 506.0)">e</text><text xml:space="preserve" font-family="Chalkduster" font-size="31.0" fill="#FFFFFF" transform="matrix(1.00, 0.00, -0.00, -1.00, 793.5, 506.0)">r</text><text xml:space="preserve" font-family="Chalkduster" font-size="31.0" fill="#FFFFFF" transform="matrix(1.00, 0.00, -0.00, -1.00, 809.8, 506.0)"> </text><text xml:space="preserve" font-family="Chalkduster" font-size="31.0" fill="#FFFFFF" transform="matrix(1.00, 0.00, -0.00, -1.00, 170.0, 459.0)">K</text><text xml:space="preserve" font-family="Chalkduster" font-size="31.0" fill="#FFFFFF" transform="matrix(1.00, 0.00, -0.00, -1.00, 189.6, 459.0)">o</text><text xml:space="preserve" font-family="Chalkduster" font-size="31.0" fill="#FFFFFF" transform="matrix(1.00, 0.00, -0.00, -1.00, 212.6, 459.0)">n</text><text xml:space="preserve" font-family="Chalkduster" font-size="31.0" fill="#FFFFFF" transform="matrix(1.00, 0.00, -0.00, -1.00, 235.3, 459.0)">s</text><text xml:space="preserve" font-family="Chalkduster" font-size="31.0" fill="#FFFFFF" transform="matrix(1.00, 0.00, -0.00, -1.00, 250.9, 459.0)">u</text><text xml:space="preserve" font-family="Chalkduster" font-size="31.0" fill="#FFFFFF" transform="matrix(1.00, 0.00, -0.00, -1.00, 271.6, 459.0)">m</text><text xml:space="preserve" font-family="Chalkduster" font-size="31.0" fill="#FFFFFF" transform="matrix(1.00, 0.00, -0.00, -1.00, 303.7, 459.0)">e</text><text xml:space="preserve" font-family="Chalkduster" font-size="31.0" fill="#FFFFFF" transform="matrix(1.00, 0.00, -0.00, -1.00, 323.2, 459.0)">n</text><text xml:space="preserve" font-family="Chalkduster" font-size="31.0" fill="#FFFFFF" transform="matrix(1.00, 0.00, -0.00, -1.00, 344.7, 459.0)">t</text><text xml:space="preserve" font-family="Chalkduster" font-size="31.0" fill="#FFFFFF" transform="matrix(1.00, 0.00, -0.00, -1.00, 358.6, 459.0)">e</text><text xml:space="preserve" font-family="Chalkduster" font-size="31.0" fill="#FFFFFF" transform="matrix(1.00, 0.00, -0.00, -1.00, 378.1, 459.0)">n</text><text xml:space="preserve" font-family="Chalkduster" font-size="31.0" fill="#FFFFFF" transform="matrix(1.00, 0.00, -0.00, -1.00, 400.8, 459.0)"> </text><text xml:space="preserve" font-family="Chalkduster" font-size="31.0" fill="#FFFFFF" transform="matrix(1.00, 0.00, -0.00, -1.00, 416.2, 459.0)">w</text><text xml:space="preserve" font-family="Chalkduster" font-size="31.0" fill="#FFFFFF" transform="matrix(1.00, 0.00, -0.00, -1.00, 442.7, 459.0)">i</text><text xml:space="preserve" font-family="Chalkduster" font-size="31.0" fill="#FFFFFF" transform="matrix(1.00, 0.00, -0.00, -1.00, 454.9, 459.0)">e</text><text xml:space="preserve" font-family="Chalkduster" font-size="31.0" fill="#FFFFFF" transform="matrix(1.00, 0.00, -0.00, -1.00, 475.1, 459.0)">d</text><text xml:space="preserve" font-family="Chalkduster" font-size="31.0" fill="#FFFFFF" transform="matrix(1.00, 0.00, -0.00, -1.00, 499.2, 459.0)">e</text><text xml:space="preserve" font-family="Chalkduster" font-size="31.0" fill="#FFFFFF" transform="matrix(1.00, 0.00, -0.00, -1.00, 518.1, 459.0)">r</text><text xml:space="preserve" font-family="Chalkduster" font-size="31.0" fill="#FFFFFF" transform="matrix(1.00, 0.00, -0.00, -1.00, 534.4, 459.0)"> </text><text xml:space="preserve" font-family="Chalkduster" font-size="31.0" fill="#FFFFFF" transform="matrix(1.00, 0.00, -0.00, -1.00, 549.8, 459.0)">z</text><text xml:space="preserve" font-family="Chalkduster" font-size="31.0" fill="#FFFFFF" transform="matrix(1.00, 0.00, -0.00, -1.00, 570.0, 459.0)">u</text><text xml:space="preserve" font-family="Chalkduster" font-size="31.0" fill="#FFFFFF" transform="matrix(1.00, 0.00, -0.00, -1.00, 591.7, 459.0)">r</text><text xml:space="preserve" font-family="Chalkduster" font-size="31.0" fill="#FFFFFF" transform="matrix(1.00, 0.00, -0.00, -1.00, 608.0, 459.0)">ü</text><text xml:space="preserve" font-family="Chalkduster" font-size="31.0" fill="#FFFFFF" transform="matrix(1.00, 0.00, -0.00, -1.00, 630.3, 459.0)">c</text><text xml:space="preserve" font-family="Chalkduster" font-size="31.0" fill="#FFFFFF" transform="matrix(1.00, 0.00, -0.00, -1.00, 648.4, 459.0)">k</text><text xml:space="preserve" font-family="Chalkduster" font-size="31.0" fill="#FFFFFF" transform="matrix(1.00, 0.00, -0.00, -1.00, 672.5, 459.0)">?</text><text xml:space="preserve" font-family="Chalkduster" font-size="31.0" fill="#FFFFFF" transform="matrix(1.00, 0.00, -0.00, -1.00, 687.8, 459.0)"> </text><image xlink:href="../../FE0907D7-1E80-4CCC-A76A-5988AA7E84A2/assets/4C697F44666DA982F350C66853D0EC34.png" width="22.00" height="20.00" transform="matrix(0.83, 0.00, -0.00, -0.84, 140.0, 402.5)"></image><text xml:space="preserve" font-family="Chalkduster" font-size="31.0" fill="#FFFFFF" transform="matrix(1.00, 0.00, -0.00, -1.00, 170.0, 386.0)">W</text><text xml:space="preserve" font-family="Chalkduster" font-size="31.0" fill="#FFFFFF" transform="matrix(1.00, 0.00, -0.00, -1.00, 196.0, 386.0)">a</text><text xml:space="preserve" font-family="Chalkduster" font-size="31.0" fill="#FFFFFF" transform="matrix(1.00, 0.00, -0.00, -1.00, 217.7, 386.0)">s</text><text xml:space="preserve" font-family="Chalkduster" font-size="31.0" fill="#FFFFFF" transform="matrix(1.00, 0.00, -0.00, -1.00, 233.3, 386.0)"> </text><text xml:space="preserve" font-family="Chalkduster" font-size="31.0" fill="#FFFFFF" transform="matrix(1.00, 0.00, -0.00, -1.00, 248.7, 386.0)">b</text><text xml:space="preserve" font-family="Chalkduster" font-size="31.0" fill="#FFFFFF" transform="matrix(1.00, 0.00, -0.00, -1.00, 266.7, 386.0)">e</text><text xml:space="preserve" font-family="Chalkduster" font-size="31.0" fill="#FFFFFF" transform="matrix(1.00, 0.00, -0.00, -1.00, 286.9, 386.0)">d</text><text xml:space="preserve" font-family="Chalkduster" font-size="31.0" fill="#FFFFFF" transform="matrix(1.00, 0.00, -0.00, -1.00, 311.1, 386.0)">e</text><text xml:space="preserve" font-family="Chalkduster" font-size="31.0" fill="#FFFFFF" transform="matrix(1.00, 0.00, -0.00, -1.00, 330.3, 386.0)">u</text><text xml:space="preserve" font-family="Chalkduster" font-size="31.0" fill="#FFFFFF" transform="matrix(1.00, 0.00, -0.00, -1.00, 351.3, 386.0)">t</text><text xml:space="preserve" font-family="Chalkduster" font-size="31.0" fill="#FFFFFF" transform="matrix(1.00, 0.00, -0.00, -1.00, 365.1, 386.0)">e</text><text xml:space="preserve" font-family="Chalkduster" font-size="31.0" fill="#FFFFFF" transform="matrix(1.00, 0.00, -0.00, -1.00, 384.0, 386.0)">t</text><text xml:space="preserve" font-family="Chalkduster" font-size="31.0" fill="#FFFFFF" transform="matrix(1.00, 0.00, -0.00, -1.00, 398.1, 386.0)"> </text><text xml:space="preserve" font-family="Chalkduster" font-size="31.0" fill="#FFFFFF" transform="matrix(1.00, 0.00, -0.00, -1.00, 413.5, 386.0)">s</text><text xml:space="preserve" font-family="Chalkduster" font-size="31.0" fill="#FFFFFF" transform="matrix(1.00, 0.00, -0.00, -1.00, 429.1, 386.0)">o</text><text xml:space="preserve" font-family="Chalkduster" font-size="31.0" fill="#FFFFFF" transform="matrix(1.00, 0.00, -0.00, -1.00, 451.4, 386.0)"> </text><text xml:space="preserve" font-family="Chalkduster" font-size="31.0" fill="#FFFFFF" transform="matrix(1.00, 0.00, -0.00, -1.00, 466.8, 386.0)">e</text><text xml:space="preserve" font-family="Chalkduster" font-size="31.0" fill="#FFFFFF" transform="matrix(1.00, 0.00, -0.00, -1.00, 485.7, 386.0)">t</text><text xml:space="preserve" font-family="Chalkduster" font-size="31.0" fill="#FFFFFF" transform="matrix(1.00, 0.00, -0.00, -1.00, 499.8, 386.0)">w</text><text xml:space="preserve" font-family="Chalkduster" font-size="31.0" fill="#FFFFFF" transform="matrix(1.00, 0.00, -0.00, -1.00, 525.1, 386.0)">a</text><text xml:space="preserve" font-family="Chalkduster" font-size="31.0" fill="#FFFFFF" transform="matrix(1.00, 0.00, -0.00, -1.00, 546.8, 386.0)">s</text><text xml:space="preserve" font-family="Chalkduster" font-size="31.0" fill="#FFFFFF" transform="matrix(1.00, 0.00, -0.00, -1.00, 562.4, 386.0)"> </text><text xml:space="preserve" font-family="Chalkduster" font-size="31.0" fill="#FFFFFF" transform="matrix(1.00, 0.00, -0.00, -1.00, 577.8, 386.0)">f</text><text xml:space="preserve" font-family="Chalkduster" font-size="31.0" fill="#FFFFFF" transform="matrix(1.00, 0.00, -0.00, -1.00, 594.3, 386.0)">ü</text><text xml:space="preserve" font-family="Chalkduster" font-size="31.0" fill="#FFFFFF" transform="matrix(1.00, 0.00, -0.00, -1.00, 616.5, 386.0)">r</text><text xml:space="preserve" font-family="Chalkduster" font-size="31.0" fill="#FFFFFF" transform="matrix(1.00, 0.00, -0.00, -1.00, 632.8, 386.0)"> </text><text xml:space="preserve" font-family="Chalkduster" font-size="31.0" fill="#FFFFFF" transform="matrix(1.00, 0.00, -0.00, -1.00, 648.2, 386.0)">d</text><text xml:space="preserve" font-family="Chalkduster" font-size="31.0" fill="#FFFFFF" transform="matrix(1.00, 0.00, -0.00, -1.00, 673.7, 386.0)">i</text><text xml:space="preserve" font-family="Chalkduster" font-size="31.0" fill="#FFFFFF" transform="matrix(1.00, 0.00, -0.00, -1.00, 685.9, 386.0)">e</text><text xml:space="preserve" font-family="Chalkduster" font-size="31.0" fill="#FFFFFF" transform="matrix(1.00, 0.00, -0.00, -1.00, 705.1, 386.0)"> </text><text xml:space="preserve" font-family="Chalkduster" font-size="31.0" fill="#FFFFFF" transform="matrix(1.00, 0.00, -0.00, -1.00, 720.5, 386.0)">M</text><text xml:space="preserve" font-family="Chalkduster" font-size="31.0" fill="#FFFFFF" transform="matrix(1.00, 0.00, -0.00, -1.00, 746.6, 386.0)">a</text><text xml:space="preserve" font-family="Chalkduster" font-size="31.0" fill="#FFFFFF" transform="matrix(1.00, 0.00, -0.00, -1.00, 766.3, 386.0)">r</text><text xml:space="preserve" font-family="Chalkduster" font-size="31.0" fill="#FFFFFF" transform="matrix(1.00, 0.00, -0.00, -1.00, 782.6, 386.0)">k</text><text xml:space="preserve" font-family="Chalkduster" font-size="31.0" fill="#FFFFFF" transform="matrix(1.00, 0.00, -0.00, -1.00, 806.1, 386.0)">e</text><text xml:space="preserve" font-family="Chalkduster" font-size="31.0" fill="#FFFFFF" transform="matrix(1.00, 0.00, -0.00, -1.00, 825.3, 386.0)">?</text><text xml:space="preserve" font-family="Chalkduster" font-size="31.0" fill="#FFFFFF" transform="matrix(1.00, 0.00, -0.00, -1.00, 840.5, 386.0)"> </text><image xlink:href="../../FE0907D7-1E80-4CCC-A76A-5988AA7E84A2/assets/4C697F44666DA982F350C66853D0EC34.png" width="22.00" height="20.00" transform="matrix(0.83, 0.00, -0.00, -0.84, 140.0, 329.7)"></image><text xml:space="preserve" font-family="Chalkduster" font-size="31.0" fill="#FFFFFF" transform="matrix(1.00, 0.00, -0.00, -1.00, 170.0, 313.0)">W</text><text xml:space="preserve" font-family="Chalkduster" font-size="31.0" fill="#FFFFFF" transform="matrix(1.00, 0.00, -0.00, -1.00, 196.0, 313.0)">a</text><text xml:space="preserve" font-family="Chalkduster" font-size="31.0" fill="#FFFFFF" transform="matrix(1.00, 0.00, -0.00, -1.00, 217.7, 313.0)">s</text><text xml:space="preserve" font-family="Chalkduster" font-size="31.0" fill="#FFFFFF" transform="matrix(1.00, 0.00, -0.00, -1.00, 233.3, 313.0)"> </text><text xml:space="preserve" font-family="Chalkduster" font-size="31.0" fill="#FFFFFF" transform="matrix(1.00, 0.00, -0.00, -1.00, 248.7, 313.0)">e</text><text xml:space="preserve" font-family="Chalkduster" font-size="31.0" fill="#FFFFFF" transform="matrix(1.00, 0.00, -0.00, -1.00, 267.6, 313.0)">r</text><text xml:space="preserve" font-family="Chalkduster" font-size="31.0" fill="#FFFFFF" transform="matrix(1.00, 0.00, -0.00, -1.00, 283.9, 313.0)">z</text><text xml:space="preserve" font-family="Chalkduster" font-size="31.0" fill="#FFFFFF" transform="matrix(1.00, 0.00, -0.00, -1.00, 304.1, 313.0)">ä</text><text xml:space="preserve" font-family="Chalkduster" font-size="31.0" fill="#FFFFFF" transform="matrix(1.00, 0.00, -0.00, -1.00, 323.7, 313.0)">h</text><text xml:space="preserve" font-family="Chalkduster" font-size="31.0" fill="#FFFFFF" transform="matrix(1.00, 0.00, -0.00, -1.00, 342.9, 313.0)">l</text><text xml:space="preserve" font-family="Chalkduster" font-size="31.0" fill="#FFFFFF" transform="matrix(1.00, 0.00, -0.00, -1.00, 355.7, 313.0)">e</text><text xml:space="preserve" font-family="Chalkduster" font-size="31.0" fill="#FFFFFF" transform="matrix(1.00, 0.00, -0.00, -1.00, 375.2, 313.0)">n</text><text xml:space="preserve" font-family="Chalkduster" font-size="31.0" fill="#FFFFFF" transform="matrix(1.00, 0.00, -0.00, -1.00, 397.9, 313.0)"> </text><text xml:space="preserve" font-family="Chalkduster" font-size="31.0" fill="#FFFFFF" transform="matrix(1.00, 0.00, -0.00, -1.00, 413.3, 313.0)">S</text><text xml:space="preserve" font-family="Chalkduster" font-size="31.0" fill="#FFFFFF" transform="matrix(1.00, 0.00, -0.00, -1.00, 428.7, 313.0)">i</text><text xml:space="preserve" font-family="Chalkduster" font-size="31.0" fill="#FFFFFF" transform="matrix(1.00, 0.00, -0.00, -1.00, 440.9, 313.0)">e</text><text xml:space="preserve" font-family="Chalkduster" font-size="31.0" fill="#FFFFFF" transform="matrix(1.00, 0.00, -0.00, -1.00, 460.1, 313.0)"> </text><text xml:space="preserve" font-family="Chalkduster" font-size="31.0" fill="#FFFFFF" transform="matrix(1.00, 0.00, -0.00, -1.00, 475.5, 313.0)">g</text><text xml:space="preserve" font-family="Chalkduster" font-size="31.0" fill="#FFFFFF" transform="matrix(1.00, 0.00, -0.00, -1.00, 497.1, 313.0)">e</text><text xml:space="preserve" font-family="Chalkduster" font-size="31.0" fill="#FFFFFF" transform="matrix(1.00, 0.00, -0.00, -1.00, 517.0, 313.0)">s</text><text xml:space="preserve" font-family="Chalkduster" font-size="31.0" fill="#FFFFFF" transform="matrix(1.00, 0.00, -0.00, -1.00, 533.3, 313.0)">c</text><text xml:space="preserve" font-family="Chalkduster" font-size="31.0" fill="#FFFFFF" transform="matrix(1.00, 0.00, -0.00, -1.00, 552.8, 313.0)">h</text><text xml:space="preserve" font-family="Chalkduster" font-size="31.0" fill="#FFFFFF" transform="matrix(1.00, 0.00, -0.00, -1.00, 571.9, 313.0)">ä</text><text xml:space="preserve" font-family="Chalkduster" font-size="31.0" fill="#FFFFFF" transform="matrix(1.00, 0.00, -0.00, -1.00, 591.6, 313.0)">d</text><text xml:space="preserve" font-family="Chalkduster" font-size="31.0" fill="#FFFFFF" transform="matrix(1.00, 0.00, -0.00, -1.00, 617.0, 313.0)">i</text><text xml:space="preserve" font-family="Chalkduster" font-size="31.0" fill="#FFFFFF" transform="matrix(1.00, 0.00, -0.00, -1.00, 629.3, 313.0)">g</text><text xml:space="preserve" font-family="Chalkduster" font-size="31.0" fill="#FFFFFF" transform="matrix(1.00, 0.00, -0.00, -1.00, 650.4, 313.0)">t</text><text xml:space="preserve" font-family="Chalkduster" font-size="31.0" fill="#FFFFFF" transform="matrix(1.00, 0.00, -0.00, -1.00, 664.2, 313.0)">e</text><text xml:space="preserve" font-family="Chalkduster" font-size="31.0" fill="#FFFFFF" transform="matrix(1.00, 0.00, -0.00, -1.00, 683.7, 313.0)">n</text><text xml:space="preserve" font-family="Chalkduster" font-size="31.0" fill="#FFFFFF" transform="matrix(1.00, 0.00, -0.00, -1.00, 705.5, 313.0)">,</text><text xml:space="preserve" font-family="Chalkduster" font-size="31.0" fill="#FFFFFF" transform="matrix(1.00, 0.00, -0.00, -1.00, 715.1, 313.0)"> </text><text xml:space="preserve" font-family="Chalkduster" font-size="31.0" fill="#FFFFFF" transform="matrix(1.00, 0.00, -0.00, -1.00, 730.5, 313.0)">d</text><text xml:space="preserve" font-family="Chalkduster" font-size="31.0" fill="#FFFFFF" transform="matrix(1.00, 0.00, -0.00, -1.00, 755.9, 313.0)">i</text><text xml:space="preserve" font-family="Chalkduster" font-size="31.0" fill="#FFFFFF" transform="matrix(1.00, 0.00, -0.00, -1.00, 768.2, 313.0)">e</text><text xml:space="preserve" font-family="Chalkduster" font-size="31.0" fill="#FFFFFF" transform="matrix(1.00, 0.00, -0.00, -1.00, 787.3, 313.0)"> </text><text xml:space="preserve" font-family="Chalkduster" font-size="31.0" fill="#FFFFFF" transform="matrix(1.00, 0.00, -0.00, -1.00, 170.0, 266.0)">m</text><text xml:space="preserve" font-family="Chalkduster" font-size="31.0" fill="#FFFFFF" transform="matrix(1.00, 0.00, -0.00, -1.00, 201.3, 266.0)">o</text><text xml:space="preserve" font-family="Chalkduster" font-size="31.0" fill="#FFFFFF" transform="matrix(1.00, 0.00, -0.00, -1.00, 224.4, 266.0)">n</text><text xml:space="preserve" font-family="Chalkduster" font-size="31.0" fill="#FFFFFF" transform="matrix(1.00, 0.00, -0.00, -1.00, 247.5, 266.0)">e</text><text xml:space="preserve" font-family="Chalkduster" font-size="31.0" fill="#FFFFFF" transform="matrix(1.00, 0.00, -0.00, -1.00, 266.4, 266.0)">t</text><text xml:space="preserve" font-family="Chalkduster" font-size="31.0" fill="#FFFFFF" transform="matrix(1.00, 0.00, -0.00, -1.00, 280.6, 266.0)">ä</text><text xml:space="preserve" font-family="Chalkduster" font-size="31.0" fill="#FFFFFF" transform="matrix(1.00, 0.00, -0.00, -1.00, 300.2, 266.0)">r</text><text xml:space="preserve" font-family="Chalkduster" font-size="31.0" fill="#FFFFFF" transform="matrix(1.00, 0.00, -0.00, -1.00, 315.9, 266.0)">e</text><text xml:space="preserve" font-family="Chalkduster" font-size="31.0" fill="#FFFFFF" transform="matrix(1.00, 0.00, -0.00, -1.00, 335.1, 266.0)"> </text><text xml:space="preserve" font-family="Chalkduster" font-size="31.0" fill="#FFFFFF" transform="matrix(1.00, 0.00, -0.00, -1.00, 350.5, 266.0)">S</text><text xml:space="preserve" font-family="Chalkduster" font-size="31.0" fill="#FFFFFF" transform="matrix(1.00, 0.00, -0.00, -1.00, 365.9, 266.0)">c</text><text xml:space="preserve" font-family="Chalkduster" font-size="31.0" fill="#FFFFFF" transform="matrix(1.00, 0.00, -0.00, -1.00, 385.4, 266.0)">h</text><text xml:space="preserve" font-family="Chalkduster" font-size="31.0" fill="#FFFFFF" transform="matrix(1.00, 0.00, -0.00, -1.00, 404.5, 266.0)">ä</text><text xml:space="preserve" font-family="Chalkduster" font-size="31.0" fill="#FFFFFF" transform="matrix(1.00, 0.00, -0.00, -1.00, 424.2, 266.0)">d</text><text xml:space="preserve" font-family="Chalkduster" font-size="31.0" fill="#FFFFFF" transform="matrix(1.00, 0.00, -0.00, -1.00, 448.4, 266.0)">e</text><text xml:space="preserve" font-family="Chalkduster" font-size="31.0" fill="#FFFFFF" transform="matrix(1.00, 0.00, -0.00, -1.00, 467.9, 266.0)">n</text><text xml:space="preserve" font-family="Chalkduster" font-size="31.0" fill="#FFFFFF" transform="matrix(1.00, 0.00, -0.00, -1.00, 490.6, 266.0)"> </text><text xml:space="preserve" font-family="Chalkduster" font-size="31.0" fill="#FFFFFF" transform="matrix(1.00, 0.00, -0.00, -1.00, 506.0, 266.0)">z</text><text xml:space="preserve" font-family="Chalkduster" font-size="31.0" fill="#FFFFFF" transform="matrix(1.00, 0.00, -0.00, -1.00, 526.1, 266.0)">u</text><text xml:space="preserve" font-family="Chalkduster" font-size="31.0" fill="#FFFFFF" transform="matrix(1.00, 0.00, -0.00, -1.00, 547.4, 266.0)"> </text><text xml:space="preserve" font-family="Chalkduster" font-size="31.0" fill="#FFFFFF" transform="matrix(1.00, 0.00, -0.00, -1.00, 562.8, 266.0)">b</text><text xml:space="preserve" font-family="Chalkduster" font-size="31.0" fill="#FFFFFF" transform="matrix(1.00, 0.00, -0.00, -1.00, 580.8, 266.0)">e</text><text xml:space="preserve" font-family="Chalkduster" font-size="31.0" fill="#FFFFFF" transform="matrix(1.00, 0.00, -0.00, -1.00, 600.0, 266.0)">k</text><text xml:space="preserve" font-family="Chalkduster" font-size="31.0" fill="#FFFFFF" transform="matrix(1.00, 0.00, -0.00, -1.00, 625.0, 266.0)">l</text><text xml:space="preserve" font-family="Chalkduster" font-size="31.0" fill="#FFFFFF" transform="matrix(1.00, 0.00, -0.00, -1.00, 638.9, 266.0)">a</text><text xml:space="preserve" font-family="Chalkduster" font-size="31.0" fill="#FFFFFF" transform="matrix(1.00, 0.00, -0.00, -1.00, 658.6, 266.0)">g</text><text xml:space="preserve" font-family="Chalkduster" font-size="31.0" fill="#FFFFFF" transform="matrix(1.00, 0.00, -0.00, -1.00, 680.2, 266.0)">e</text><text xml:space="preserve" font-family="Chalkduster" font-size="31.0" fill="#FFFFFF" transform="matrix(1.00, 0.00, -0.00, -1.00, 699.7, 266.0)">n</text><text xml:space="preserve" font-family="Chalkduster" font-size="31.0" fill="#FFFFFF" transform="matrix(1.00, 0.00, -0.00, -1.00, 722.4, 266.0)"> </text><text xml:space="preserve" font-family="Chalkduster" font-size="31.0" fill="#FFFFFF" transform="matrix(1.00, 0.00, -0.00, -1.00, 737.8, 266.0)">h</text><text xml:space="preserve" font-family="Chalkduster" font-size="31.0" fill="#FFFFFF" transform="matrix(1.00, 0.00, -0.00, -1.00, 756.9, 266.0)">a</text><text xml:space="preserve" font-family="Chalkduster" font-size="31.0" fill="#FFFFFF" transform="matrix(1.00, 0.00, -0.00, -1.00, 778.3, 266.0)">b</text><text xml:space="preserve" font-family="Chalkduster" font-size="31.0" fill="#FFFFFF" transform="matrix(1.00, 0.00, -0.00, -1.00, 796.3, 266.0)">e</text><text xml:space="preserve" font-family="Chalkduster" font-size="31.0" fill="#FFFFFF" transform="matrix(1.00, 0.00, -0.00, -1.00, 815.8, 266.0)">n</text><text xml:space="preserve" font-family="Chalkduster" font-size="31.0" fill="#FFFFFF" transform="matrix(1.00, 0.00, -0.00, -1.00, 838.5, 266.0)"> </text><image xlink:href="../../FE0907D7-1E80-4CCC-A76A-5988AA7E84A2/assets/4C697F44666DA982F350C66853D0EC34.png" width="22.00" height="20.00" transform="matrix(0.83, 0.00, -0.00, -0.84, 140.0, 209.9)"></image><text xml:space="preserve" font-family="Chalkduster" font-size="31.0" fill="#FFFFFF" transform="matrix(1.00, 0.00, -0.00, -1.00, 170.0, 194.0)">W</text><text xml:space="preserve" font-family="Chalkduster" font-size="31.0" fill="#FFFFFF" transform="matrix(1.00, 0.00, -0.00, -1.00, 198.1, 194.0)">i</text><text xml:space="preserve" font-family="Chalkduster" font-size="31.0" fill="#FFFFFF" transform="matrix(1.00, 0.00, -0.00, -1.00, 210.3, 194.0)">e</text><text xml:space="preserve" font-family="Chalkduster" font-size="31.0" fill="#FFFFFF" transform="matrix(1.00, 0.00, -0.00, -1.00, 229.5, 194.0)"> </text><text xml:space="preserve" font-family="Chalkduster" font-size="31.0" fill="#FFFFFF" transform="matrix(1.00, 0.00, -0.00, -1.00, 244.9, 194.0)">k</text><text xml:space="preserve" font-family="Chalkduster" font-size="31.0" fill="#FFFFFF" transform="matrix(1.00, 0.00, -0.00, -1.00, 268.3, 194.0)">o</text><text xml:space="preserve" font-family="Chalkduster" font-size="31.0" fill="#FFFFFF" transform="matrix(1.00, 0.00, -0.00, -1.00, 291.3, 194.0)">n</text><text xml:space="preserve" font-family="Chalkduster" font-size="31.0" fill="#FFFFFF" transform="matrix(1.00, 0.00, -0.00, -1.00, 314.0, 194.0)">n</text><text xml:space="preserve" font-family="Chalkduster" font-size="31.0" fill="#FFFFFF" transform="matrix(1.00, 0.00, -0.00, -1.00, 335.5, 194.0)">t</text><text xml:space="preserve" font-family="Chalkduster" font-size="31.0" fill="#FFFFFF" transform="matrix(1.00, 0.00, -0.00, -1.00, 349.3, 194.0)">e</text><text xml:space="preserve" font-family="Chalkduster" font-size="31.0" fill="#FFFFFF" transform="matrix(1.00, 0.00, -0.00, -1.00, 368.5, 194.0)"> </text><text xml:space="preserve" font-family="Chalkduster" font-size="31.0" fill="#FFFFFF" transform="matrix(1.00, 0.00, -0.00, -1.00, 383.9, 194.0)">d</text><text xml:space="preserve" font-family="Chalkduster" font-size="31.0" fill="#FFFFFF" transform="matrix(1.00, 0.00, -0.00, -1.00, 408.1, 194.0)">e</text><text xml:space="preserve" font-family="Chalkduster" font-size="31.0" fill="#FFFFFF" transform="matrix(1.00, 0.00, -0.00, -1.00, 427.0, 194.0)">r</text><text xml:space="preserve" font-family="Chalkduster" font-size="31.0" fill="#FFFFFF" transform="matrix(1.00, 0.00, -0.00, -1.00, 443.3, 194.0)"> </text><text xml:space="preserve" font-family="Chalkduster" font-size="31.0" fill="#FFFFFF" transform="matrix(1.00, 0.00, -0.00, -1.00, 458.7, 194.0)">M</text><text xml:space="preserve" font-family="Chalkduster" font-size="31.0" fill="#FFFFFF" transform="matrix(1.00, 0.00, -0.00, -1.00, 484.8, 194.0)">i</text><text xml:space="preserve" font-family="Chalkduster" font-size="31.0" fill="#FFFFFF" transform="matrix(1.00, 0.00, -0.00, -1.00, 497.3, 194.0)">t</text><text xml:space="preserve" font-family="Chalkduster" font-size="31.0" fill="#FFFFFF" transform="matrix(1.00, 0.00, -0.00, -1.00, 511.5, 194.0)">b</text><text xml:space="preserve" font-family="Chalkduster" font-size="31.0" fill="#FFFFFF" transform="matrix(1.00, 0.00, -0.00, -1.00, 529.5, 194.0)">e</text><text xml:space="preserve" font-family="Chalkduster" font-size="31.0" fill="#FFFFFF" transform="matrix(1.00, 0.00, -0.00, -1.00, 548.7, 194.0)">w</text><text xml:space="preserve" font-family="Chalkduster" font-size="31.0" fill="#FFFFFF" transform="matrix(1.00, 0.00, -0.00, -1.00, 573.9, 194.0)">e</text><text xml:space="preserve" font-family="Chalkduster" font-size="31.0" fill="#FFFFFF" transform="matrix(1.00, 0.00, -0.00, -1.00, 592.8, 194.0)">r</text><text xml:space="preserve" font-family="Chalkduster" font-size="31.0" fill="#FFFFFF" transform="matrix(1.00, 0.00, -0.00, -1.00, 609.1, 194.0)">b</text><text xml:space="preserve" font-family="Chalkduster" font-size="31.0" fill="#FFFFFF" transform="matrix(1.00, 0.00, -0.00, -1.00, 627.1, 194.0)">e</text><text xml:space="preserve" font-family="Chalkduster" font-size="31.0" fill="#FFFFFF" transform="matrix(1.00, 0.00, -0.00, -1.00, 646.0, 194.0)">r</text><text xml:space="preserve" font-family="Chalkduster" font-size="31.0" fill="#FFFFFF" transform="matrix(1.00, 0.00, -0.00, -1.00, 662.4, 194.0)"> </text><text xml:space="preserve" font-family="Chalkduster" font-size="31.0" fill="#FFFFFF" transform="matrix(1.00, 0.00, -0.00, -1.00, 677.8, 194.0)">d</text><text xml:space="preserve" font-family="Chalkduster" font-size="31.0" fill="#FFFFFF" transform="matrix(1.00, 0.00, -0.00, -1.00, 701.9, 194.0)">e</text><text xml:space="preserve" font-family="Chalkduster" font-size="31.0" fill="#FFFFFF" transform="matrix(1.00, 0.00, -0.00, -1.00, 721.5, 194.0)">n</text><text xml:space="preserve" font-family="Chalkduster" font-size="31.0" fill="#FFFFFF" transform="matrix(1.00, 0.00, -0.00, -1.00, 744.2, 194.0)"> </text><text xml:space="preserve" font-family="Chalkduster" font-size="31.0" fill="#FFFFFF" transform="matrix(1.00, 0.00, -0.00, -1.00, 759.6, 194.0)">P</text><text xml:space="preserve" font-family="Chalkduster" font-size="31.0" fill="#FFFFFF" transform="matrix(1.00, 0.00, -0.00, -1.00, 781.6, 194.0)">i</text><text xml:space="preserve" font-family="Chalkduster" font-size="31.0" fill="#FFFFFF" transform="matrix(1.00, 0.00, -0.00, -1.00, 794.1, 194.0)">t</text><text xml:space="preserve" font-family="Chalkduster" font-size="31.0" fill="#FFFFFF" transform="matrix(1.00, 0.00, -0.00, -1.00, 807.3, 194.0)">c</text><text xml:space="preserve" font-family="Chalkduster" font-size="31.0" fill="#FFFFFF" transform="matrix(1.00, 0.00, -0.00, -1.00, 826.8, 194.0)">h</text><text xml:space="preserve" font-family="Chalkduster" font-size="31.0" fill="#FFFFFF" transform="matrix(1.00, 0.00, -0.00, -1.00, 845.9, 194.0)"> </text><text xml:space="preserve" font-family="Chalkduster" font-size="31.0" fill="#FFFFFF" transform="matrix(1.00, 0.00, -0.00, -1.00, 861.3, 194.0)">m</text><text xml:space="preserve" font-family="Chalkduster" font-size="31.0" fill="#FFFFFF" transform="matrix(1.00, 0.00, -0.00, -1.00, 893.1, 194.0)">i</text><text xml:space="preserve" font-family="Chalkduster" font-size="31.0" fill="#FFFFFF" transform="matrix(1.00, 0.00, -0.00, -1.00, 905.6, 194.0)">t</text><text xml:space="preserve" font-family="Chalkduster" font-size="31.0" fill="#FFFFFF" transform="matrix(1.00, 0.00, -0.00, -1.00, 919.8, 194.0)"> </text><text xml:space="preserve" font-family="Chalkduster" font-size="31.0" fill="#FFFFFF" transform="matrix(1.00, 0.00, -0.00, -1.00, 170.0, 147.0)">I</text><text xml:space="preserve" font-family="Chalkduster" font-size="31.0" fill="#FFFFFF" transform="matrix(1.00, 0.00, -0.00, -1.00, 188.4, 147.0)">h</text><text xml:space="preserve" font-family="Chalkduster" font-size="31.0" fill="#FFFFFF" transform="matrix(1.00, 0.00, -0.00, -1.00, 207.5, 147.0)">r</text><text xml:space="preserve" font-family="Chalkduster" font-size="31.0" fill="#FFFFFF" transform="matrix(1.00, 0.00, -0.00, -1.00, 223.2, 147.0)">e</text><text xml:space="preserve" font-family="Chalkduster" font-size="31.0" fill="#FFFFFF" transform="matrix(1.00, 0.00, -0.00, -1.00, 242.1, 147.0)">r</text><text xml:space="preserve" font-family="Chalkduster" font-size="31.0" fill="#FFFFFF" transform="matrix(1.00, 0.00, -0.00, -1.00, 258.4, 147.0)"> </text><text xml:space="preserve" font-family="Chalkduster" font-size="31.0" fill="#FFFFFF" transform="matrix(1.00, 0.00, -0.00, -1.00, 273.8, 147.0)">I</text><text xml:space="preserve" font-family="Chalkduster" font-size="31.0" fill="#FFFFFF" transform="matrix(1.00, 0.00, -0.00, -1.00, 291.9, 147.0)">d</text><text xml:space="preserve" font-family="Chalkduster" font-size="31.0" fill="#FFFFFF" transform="matrix(1.00, 0.00, -0.00, -1.00, 316.1, 147.0)">e</text><text xml:space="preserve" font-family="Chalkduster" font-size="31.0" fill="#FFFFFF" transform="matrix(1.00, 0.00, -0.00, -1.00, 335.3, 147.0)">e</text><text xml:space="preserve" font-family="Chalkduster" font-size="31.0" fill="#FFFFFF" transform="matrix(1.00, 0.00, -0.00, -1.00, 354.5, 147.0)"> </text><text xml:space="preserve" font-family="Chalkduster" font-size="31.0" fill="#FFFFFF" transform="matrix(1.00, 0.00, -0.00, -1.00, 369.9, 147.0)">e</text><text xml:space="preserve" font-family="Chalkduster" font-size="31.0" fill="#FFFFFF" transform="matrix(1.00, 0.00, -0.00, -1.00, 389.1, 147.0)">i</text><text xml:space="preserve" font-family="Chalkduster" font-size="31.0" fill="#FFFFFF" transform="matrix(1.00, 0.00, -0.00, -1.00, 401.3, 147.0)">n</text><text xml:space="preserve" font-family="Chalkduster" font-size="31.0" fill="#FFFFFF" transform="matrix(1.00, 0.00, -0.00, -1.00, 424.5, 147.0)">e</text><text xml:space="preserve" font-family="Chalkduster" font-size="31.0" fill="#FFFFFF" transform="matrix(1.00, 0.00, -0.00, -1.00, 444.0, 147.0)">n</text><text xml:space="preserve" font-family="Chalkduster" font-size="31.0" fill="#FFFFFF" transform="matrix(1.00, 0.00, -0.00, -1.00, 466.7, 147.0)"> </text><text xml:space="preserve" font-family="Chalkduster" font-size="31.0" fill="#FFFFFF" transform="matrix(1.00, 0.00, -0.00, -1.00, 482.2, 147.0)">t</text><text xml:space="preserve" font-family="Chalkduster" font-size="31.0" fill="#FFFFFF" transform="matrix(1.00, 0.00, -0.00, -1.00, 496.5, 147.0)">i</text><text xml:space="preserve" font-family="Chalkduster" font-size="31.0" fill="#FFFFFF" transform="matrix(1.00, 0.00, -0.00, -1.00, 509.0, 147.0)">c</text><text xml:space="preserve" font-family="Chalkduster" font-size="31.0" fill="#FFFFFF" transform="matrix(1.00, 0.00, -0.00, -1.00, 527.1, 147.0)">k</text><text xml:space="preserve" font-family="Chalkduster" font-size="31.0" fill="#FFFFFF" transform="matrix(1.00, 0.00, -0.00, -1.00, 550.6, 147.0)">e</text><text xml:space="preserve" font-family="Chalkduster" font-size="31.0" fill="#FFFFFF" transform="matrix(1.00, 0.00, -0.00, -1.00, 570.1, 147.0)">n</text><text xml:space="preserve" font-family="Chalkduster" font-size="31.0" fill="#FFFFFF" transform="matrix(1.00, 0.00, -0.00, -1.00, 592.8, 147.0)"> </text><text xml:space="preserve" font-family="Chalkduster" font-size="31.0" fill="#FFFFFF" transform="matrix(1.00, 0.00, -0.00, -1.00, 608.2, 147.0)">g</text><text xml:space="preserve" font-family="Chalkduster" font-size="31.0" fill="#FFFFFF" transform="matrix(1.00, 0.00, -0.00, -1.00, 629.3, 147.0)">ü</text><text xml:space="preserve" font-family="Chalkduster" font-size="31.0" fill="#FFFFFF" transform="matrix(1.00, 0.00, -0.00, -1.00, 651.6, 147.0)">n</text><text xml:space="preserve" font-family="Chalkduster" font-size="31.0" fill="#FFFFFF" transform="matrix(1.00, 0.00, -0.00, -1.00, 674.3, 147.0)">s</text><text xml:space="preserve" font-family="Chalkduster" font-size="31.0" fill="#FFFFFF" transform="matrix(1.00, 0.00, -0.00, -1.00, 690.8, 147.0)">t</text><text xml:space="preserve" font-family="Chalkduster" font-size="31.0" fill="#FFFFFF" transform="matrix(1.00, 0.00, -0.00, -1.00, 705.1, 147.0)">i</text><text xml:space="preserve" font-family="Chalkduster" font-size="31.0" fill="#FFFFFF" transform="matrix(1.00, 0.00, -0.00, -1.00, 717.4, 147.0)">g</text><text xml:space="preserve" font-family="Chalkduster" font-size="31.0" fill="#FFFFFF" transform="matrix(1.00, 0.00, -0.00, -1.00, 739.0, 147.0)">e</text><text xml:space="preserve" font-family="Chalkduster" font-size="31.0" fill="#FFFFFF" transform="matrix(1.00, 0.00, -0.00, -1.00, 757.8, 147.0)">r</text><text xml:space="preserve" font-family="Chalkduster" font-size="31.0" fill="#FFFFFF" transform="matrix(1.00, 0.00, -0.00, -1.00, 774.2, 147.0)"> </text><text xml:space="preserve" font-family="Chalkduster" font-size="31.0" fill="#FFFFFF" transform="matrix(1.00, 0.00, -0.00, -1.00, 170.0, 100.0)">g</text><text xml:space="preserve" font-family="Chalkduster" font-size="31.0" fill="#FFFFFF" transform="matrix(1.00, 0.00, -0.00, -1.00, 191.6, 100.0)">e</text><text xml:space="preserve" font-family="Chalkduster" font-size="31.0" fill="#FFFFFF" transform="matrix(1.00, 0.00, -0.00, -1.00, 210.8, 100.0)">w</text><text xml:space="preserve" font-family="Chalkduster" font-size="31.0" fill="#FFFFFF" transform="matrix(1.00, 0.00, -0.00, -1.00, 237.2, 100.0)">i</text><text xml:space="preserve" font-family="Chalkduster" font-size="31.0" fill="#FFFFFF" transform="matrix(1.00, 0.00, -0.00, -1.00, 249.5, 100.0)">n</text><text xml:space="preserve" font-family="Chalkduster" font-size="31.0" fill="#FFFFFF" transform="matrix(1.00, 0.00, -0.00, -1.00, 272.1, 100.0)">n</text><text xml:space="preserve" font-family="Chalkduster" font-size="31.0" fill="#FFFFFF" transform="matrix(1.00, 0.00, -0.00, -1.00, 295.3, 100.0)">e</text><text xml:space="preserve" font-family="Chalkduster" font-size="31.0" fill="#FFFFFF" transform="matrix(1.00, 0.00, -0.00, -1.00, 314.9, 100.0)">n</text><text xml:space="preserve" font-family="Chalkduster" font-size="31.0" fill="#FFFFFF" transform="matrix(1.00, 0.00, -0.00, -1.00, 337.6, 100.0)">?</text></g></svg>