<?xml version="1.0" encoding="UTF-8" standalone="no"?><svg xmlns="http://www.w3.org/2000/svg" xmlns:xlink="http://www.w3.org/1999/xlink" clip-rule="evenodd" stroke-miterlimit="4.00" viewBox="0 0 1024 768"><desc>SVG generated by Keynote</desc><defs></defs><g transform="matrix(1.00, 0.00, -0.00, -1.00, 0.0, 768.0)"><g><clipPath id="clip-3687"><path d="M 0.0 768.0 L 1024.0 768.0 L 1024.0 0.0 L 0.0 0.0 Z M 0.0 768.0 "></path></clipPath><g clip-path="url(#clip-3687)"><image xlink:href="../../AAFA64A7-B22F-44FA-BDCD-1B20F3A178DE/assets/DE78B55DDE70D88C6FF874E8D33A46A3.jpeg" width="1024.00" height="768.00" transform="matrix(1.00, 0.00, -0.00, -1.00, 0.0, 768.0)"></image></g></g><text xml:space="preserve" font-family="Chalkduster" font-size="30.0" fill="#FFFFFF" transform="matrix(1.00, 0.00, -0.00, -1.00, 55.0, 549.0)">„</text><text xml:space="preserve" font-family="Chalkduster" font-size="30.0" fill="#FFFFFF" transform="matrix(1.00, 0.00, -0.00, -1.00, 70.6, 549.0)">C</text><text xml:space="preserve" font-family="Chalkduster" font-size="30.0" fill="#FFFFFF" transform="matrix(1.00, 0.00, -0.00, -1.00, 94.9, 549.0)">o</text><text xml:space="preserve" font-family="Chalkduster" font-size="30.0" fill="#FFFFFF" transform="matrix(1.00, 0.00, -0.00, -1.00, 117.4, 549.0)">u</text><text xml:space="preserve" font-family="Chalkduster" font-size="30.0" fill="#FFFFFF" transform="matrix(1.00, 0.00, -0.00, -1.00, 138.8, 549.0)">l</text><text xml:space="preserve" font-family="Chalkduster" font-size="30.0" fill="#FFFFFF" transform="matrix(1.00, 0.00, -0.00, -1.00, 152.9, 549.0)">d</text><text xml:space="preserve" font-family="Chalkduster" font-size="30.0" fill="#FFFFFF" transform="matrix(1.00, 0.00, -0.00, -1.00, 176.4, 549.0)"> </text><text xml:space="preserve" font-family="Chalkduster" font-size="30.0" fill="#FFFFFF" transform="matrix(1.00, 0.00, -0.00, -1.00, 191.3, 549.0)">y</text><text xml:space="preserve" font-family="Chalkduster" font-size="30.0" fill="#FFFFFF" transform="matrix(1.00, 0.00, -0.00, -1.00, 208.7, 549.0)">o</text><text xml:space="preserve" font-family="Chalkduster" font-size="30.0" fill="#FFFFFF" transform="matrix(1.00, 0.00, -0.00, -1.00, 231.2, 549.0)">u</text><text xml:space="preserve" font-family="Chalkduster" font-size="30.0" fill="#FFFFFF" transform="matrix(1.00, 0.00, -0.00, -1.00, 251.8, 549.0)"> </text><text xml:space="preserve" font-family="Chalkduster" font-size="30.0" fill="#FFFFFF" transform="matrix(1.00, 0.00, -0.00, -1.00, 266.7, 549.0)">f</text><text xml:space="preserve" font-family="Chalkduster" font-size="30.0" fill="#FFFFFF" transform="matrix(1.00, 0.00, -0.00, -1.00, 281.8, 549.0)">a</text><text xml:space="preserve" font-family="Chalkduster" font-size="30.0" fill="#FFFFFF" transform="matrix(1.00, 0.00, -0.00, -1.00, 301.8, 549.0)">x</text><text xml:space="preserve" font-family="Chalkduster" font-size="30.0" fill="#FFFFFF" transform="matrix(1.00, 0.00, -0.00, -1.00, 320.9, 549.0)"> </text><text xml:space="preserve" font-family="Chalkduster" font-size="30.0" fill="#FFFFFF" transform="matrix(1.00, 0.00, -0.00, -1.00, 335.8, 549.0)">o</text><text xml:space="preserve" font-family="Chalkduster" font-size="30.0" fill="#FFFFFF" transform="matrix(1.00, 0.00, -0.00, -1.00, 358.3, 549.0)">v</text><text xml:space="preserve" font-family="Chalkduster" font-size="30.0" fill="#FFFFFF" transform="matrix(1.00, 0.00, -0.00, -1.00, 376.7, 549.0)">e</text><text xml:space="preserve" font-family="Chalkduster" font-size="30.0" fill="#FFFFFF" transform="matrix(1.00, 0.00, -0.00, -1.00, 395.0, 549.0)">r</text><text xml:space="preserve" font-family="Chalkduster" font-size="30.0" fill="#FFFFFF" transform="matrix(1.00, 0.00, -0.00, -1.00, 410.8, 549.0)"> </text><text xml:space="preserve" font-family="Chalkduster" font-size="30.0" fill="#FFFFFF" transform="matrix(1.00, 0.00, -0.00, -1.00, 425.8, 549.0)">a</text><text xml:space="preserve" font-family="Chalkduster" font-size="30.0" fill="#FFFFFF" transform="matrix(1.00, 0.00, -0.00, -1.00, 446.4, 549.0)"> </text><text xml:space="preserve" font-family="Chalkduster" font-size="30.0" fill="#FFFFFF" transform="matrix(1.00, 0.00, -0.00, -1.00, 461.4, 549.0)">c</text><text xml:space="preserve" font-family="Chalkduster" font-size="30.0" fill="#FFFFFF" transform="matrix(1.00, 0.00, -0.00, -1.00, 479.3, 549.0)">o</text><text xml:space="preserve" font-family="Chalkduster" font-size="30.0" fill="#FFFFFF" transform="matrix(1.00, 0.00, -0.00, -1.00, 501.1, 549.0)">p</text><text xml:space="preserve" font-family="Chalkduster" font-size="30.0" fill="#FFFFFF" transform="matrix(1.00, 0.00, -0.00, -1.00, 519.7, 549.0)">y</text><text xml:space="preserve" font-family="Chalkduster" font-size="30.0" fill="#FFFFFF" transform="matrix(1.00, 0.00, -0.00, -1.00, 538.1, 549.0)">?</text><text xml:space="preserve" font-family="Chalkduster" font-size="30.0" fill="#FFFFFF" transform="matrix(1.00, 0.00, -0.00, -1.00, 552.9, 549.0)">“</text><text xml:space="preserve" font-family="Chalkduster" font-size="72.0" fill="#FFFFFF" transform="matrix(1.00, 0.00, -0.00, -1.00, 343.0, 669.0)">B</text><text xml:space="preserve" font-family="Chalkduster" font-size="72.0" fill="#FFFFFF" transform="matrix(1.00, 0.00, -0.00, -1.00, 391.1, 669.0)">u</text><text xml:space="preserve" font-family="Chalkduster" font-size="72.0" fill="#FFFFFF" transform="matrix(1.00, 0.00, -0.00, -1.00, 442.7, 669.0)">s</text><text xml:space="preserve" font-family="Chalkduster" font-size="72.0" fill="#FFFFFF" transform="matrix(1.00, 0.00, -0.00, -1.00, 479.0, 669.0)">i</text><text xml:space="preserve" font-family="Chalkduster" font-size="72.0" fill="#FFFFFF" transform="matrix(1.00, 0.00, -0.00, -1.00, 507.5, 669.0)">n</text><text xml:space="preserve" font-family="Chalkduster" font-size="72.0" fill="#FFFFFF" transform="matrix(1.00, 0.00, -0.00, -1.00, 561.4, 669.0)">e</text><text xml:space="preserve" font-family="Chalkduster" font-size="72.0" fill="#FFFFFF" transform="matrix(1.00, 0.00, -0.00, -1.00, 607.7, 669.0)">s</text><text xml:space="preserve" font-family="Chalkduster" font-size="72.0" fill="#FFFFFF" transform="matrix(1.00, 0.00, -0.00, -1.00, 644.0, 669.0)">s</text><text xml:space="preserve" font-family="Chalkduster" font-size="30.0" fill="#FFFFFF" transform="matrix(1.00, 0.00, -0.00, -1.00, 258.0, 402.0)">„</text><text xml:space="preserve" font-family="Chalkduster" font-size="30.0" fill="#FFFFFF" transform="matrix(1.00, 0.00, -0.00, -1.00, 274.2, 402.0)">N</text><text xml:space="preserve" font-family="Chalkduster" font-size="30.0" fill="#FFFFFF" transform="matrix(1.00, 0.00, -0.00, -1.00, 296.5, 402.0)">o</text><text xml:space="preserve" font-family="Chalkduster" font-size="30.0" fill="#FFFFFF" transform="matrix(1.00, 0.00, -0.00, -1.00, 315.6, 402.0)">,</text><text xml:space="preserve" font-family="Chalkduster" font-size="30.0" fill="#FFFFFF" transform="matrix(1.00, 0.00, -0.00, -1.00, 324.9, 402.0)"> </text><text xml:space="preserve" font-family="Chalkduster" font-size="30.0" fill="#FFFFFF" transform="matrix(1.00, 0.00, -0.00, -1.00, 339.8, 402.0)">I</text><text xml:space="preserve" font-family="Chalkduster" font-size="30.0" fill="#FFFFFF" transform="matrix(1.00, 0.00, -0.00, -1.00, 357.7, 402.0)"> </text><text xml:space="preserve" font-family="Chalkduster" font-size="30.0" fill="#FFFFFF" transform="matrix(1.00, 0.00, -0.00, -1.00, 372.6, 402.0)">c</text><text xml:space="preserve" font-family="Chalkduster" font-size="30.0" fill="#FFFFFF" transform="matrix(1.00, 0.00, -0.00, -1.00, 390.3, 402.0)">a</text><text xml:space="preserve" font-family="Chalkduster" font-size="30.0" fill="#FFFFFF" transform="matrix(1.00, 0.00, -0.00, -1.00, 411.0, 402.0)">n</text><text xml:space="preserve" font-family="Chalkduster" font-size="30.0" fill="#FFFFFF" transform="matrix(1.00, 0.00, -0.00, -1.00, 430.5, 402.0)">'</text><text xml:space="preserve" font-family="Chalkduster" font-size="30.0" fill="#FFFFFF" transform="matrix(1.00, 0.00, -0.00, -1.00, 436.8, 402.0)">t</text><text xml:space="preserve" font-family="Chalkduster" font-size="30.0" fill="#FFFFFF" transform="matrix(1.00, 0.00, -0.00, -1.00, 450.5, 402.0)"> </text><text xml:space="preserve" font-family="Chalkduster" font-size="30.0" fill="#FFFFFF" transform="matrix(1.00, 0.00, -0.00, -1.00, 465.4, 402.0)">f</text><text xml:space="preserve" font-family="Chalkduster" font-size="30.0" fill="#FFFFFF" transform="matrix(1.00, 0.00, -0.00, -1.00, 480.5, 402.0)">a</text><text xml:space="preserve" font-family="Chalkduster" font-size="30.0" fill="#FFFFFF" transform="matrix(1.00, 0.00, -0.00, -1.00, 500.5, 402.0)">x</text><text xml:space="preserve" font-family="Chalkduster" font-size="30.0" fill="#FFFFFF" transform="matrix(1.00, 0.00, -0.00, -1.00, 519.6, 402.0)"> </text><text xml:space="preserve" font-family="Chalkduster" font-size="30.0" fill="#FFFFFF" transform="matrix(1.00, 0.00, -0.00, -1.00, 534.5, 402.0)">b</text><text xml:space="preserve" font-family="Chalkduster" font-size="30.0" fill="#FFFFFF" transform="matrix(1.00, 0.00, -0.00, -1.00, 551.9, 402.0)">e</text><text xml:space="preserve" font-family="Chalkduster" font-size="30.0" fill="#FFFFFF" transform="matrix(1.00, 0.00, -0.00, -1.00, 571.0, 402.0)">c</text><text xml:space="preserve" font-family="Chalkduster" font-size="30.0" fill="#FFFFFF" transform="matrix(1.00, 0.00, -0.00, -1.00, 588.8, 402.0)">a</text><text xml:space="preserve" font-family="Chalkduster" font-size="30.0" fill="#FFFFFF" transform="matrix(1.00, 0.00, -0.00, -1.00, 609.4, 402.0)">u</text><text xml:space="preserve" font-family="Chalkduster" font-size="30.0" fill="#FFFFFF" transform="matrix(1.00, 0.00, -0.00, -1.00, 630.9, 402.0)">s</text><text xml:space="preserve" font-family="Chalkduster" font-size="30.0" fill="#FFFFFF" transform="matrix(1.00, 0.00, -0.00, -1.00, 646.1, 402.0)">e</text><text xml:space="preserve" font-family="Chalkduster" font-size="30.0" fill="#FFFFFF" transform="matrix(1.00, 0.00, -0.00, -1.00, 664.7, 402.0)"> </text><text xml:space="preserve" font-family="Chalkduster" font-size="30.0" fill="#FFFFFF" transform="matrix(1.00, 0.00, -0.00, -1.00, 679.6, 402.0)">o</text><text xml:space="preserve" font-family="Chalkduster" font-size="30.0" fill="#FFFFFF" transform="matrix(1.00, 0.00, -0.00, -1.00, 701.1, 402.0)">f</text><text xml:space="preserve" font-family="Chalkduster" font-size="30.0" fill="#FFFFFF" transform="matrix(1.00, 0.00, -0.00, -1.00, 717.1, 402.0)"> </text><text xml:space="preserve" font-family="Chalkduster" font-size="30.0" fill="#FFFFFF" transform="matrix(1.00, 0.00, -0.00, -1.00, 732.0, 402.0)">w</text><text xml:space="preserve" font-family="Chalkduster" font-size="30.0" fill="#FFFFFF" transform="matrix(1.00, 0.00, -0.00, -1.00, 757.2, 402.0)">h</text><text xml:space="preserve" font-family="Chalkduster" font-size="30.0" fill="#FFFFFF" transform="matrix(1.00, 0.00, -0.00, -1.00, 775.7, 402.0)">e</text><text xml:space="preserve" font-family="Chalkduster" font-size="30.0" fill="#FFFFFF" transform="matrix(1.00, 0.00, -0.00, -1.00, 794.0, 402.0)">r</text><text xml:space="preserve" font-family="Chalkduster" font-size="30.0" fill="#FFFFFF" transform="matrix(1.00, 0.00, -0.00, -1.00, 809.2, 402.0)">e</text><text xml:space="preserve" font-family="Chalkduster" font-size="30.0" fill="#FFFFFF" transform="matrix(1.00, 0.00, -0.00, -1.00, 827.8, 402.0)"> </text><text xml:space="preserve" font-family="Chalkduster" font-size="30.0" fill="#FFFFFF" transform="matrix(1.00, 0.00, -0.00, -1.00, 842.7, 402.0)">I</text><text xml:space="preserve" font-family="Chalkduster" font-size="30.0" fill="#FFFFFF" transform="matrix(1.00, 0.00, -0.00, -1.00, 860.6, 402.0)"> </text><text xml:space="preserve" font-family="Chalkduster" font-size="30.0" fill="#FFFFFF" transform="matrix(1.00, 0.00, -0.00, -1.00, 875.5, 402.0)">l</text><text xml:space="preserve" font-family="Chalkduster" font-size="30.0" fill="#FFFFFF" transform="matrix(1.00, 0.00, -0.00, -1.00, 889.9, 402.0)">i</text><text xml:space="preserve" font-family="Chalkduster" font-size="30.0" fill="#FFFFFF" transform="matrix(1.00, 0.00, -0.00, -1.00, 901.8, 402.0)">v</text><text xml:space="preserve" font-family="Chalkduster" font-size="30.0" fill="#FFFFFF" transform="matrix(1.00, 0.00, -0.00, -1.00, 920.2, 402.0)">e</text><text xml:space="preserve" font-family="Chalkduster" font-size="30.0" fill="#FFFFFF" transform="matrix(1.00, 0.00, -0.00, -1.00, 938.8, 402.0)">“</text><text xml:space="preserve" font-family="Chalkduster" font-size="30.0" fill="#FFFFFF" transform="matrix(1.00, 0.00, -0.00, -1.00, 55.0, 254.0)">„</text><text xml:space="preserve" font-family="Chalkduster" font-size="30.0" fill="#FFFFFF" transform="matrix(1.00, 0.00, -0.00, -1.00, 70.6, 254.0)">W</text><text xml:space="preserve" font-family="Chalkduster" font-size="30.0" fill="#FFFFFF" transform="matrix(1.00, 0.00, -0.00, -1.00, 98.7, 254.0)">h</text><text xml:space="preserve" font-family="Chalkduster" font-size="30.0" fill="#FFFFFF" transform="matrix(1.00, 0.00, -0.00, -1.00, 117.2, 254.0)">e</text><text xml:space="preserve" font-family="Chalkduster" font-size="30.0" fill="#FFFFFF" transform="matrix(1.00, 0.00, -0.00, -1.00, 135.5, 254.0)">r</text><text xml:space="preserve" font-family="Chalkduster" font-size="30.0" fill="#FFFFFF" transform="matrix(1.00, 0.00, -0.00, -1.00, 150.7, 254.0)">e</text><text xml:space="preserve" font-family="Chalkduster" font-size="30.0" fill="#FFFFFF" transform="matrix(1.00, 0.00, -0.00, -1.00, 169.3, 254.0)"> </text><text xml:space="preserve" font-family="Chalkduster" font-size="30.0" fill="#FFFFFF" transform="matrix(1.00, 0.00, -0.00, -1.00, 184.2, 254.0)">d</text><text xml:space="preserve" font-family="Chalkduster" font-size="30.0" fill="#FFFFFF" transform="matrix(1.00, 0.00, -0.00, -1.00, 207.7, 254.0)">o</text><text xml:space="preserve" font-family="Chalkduster" font-size="30.0" fill="#FFFFFF" transform="matrix(1.00, 0.00, -0.00, -1.00, 229.3, 254.0)"> </text><text xml:space="preserve" font-family="Chalkduster" font-size="30.0" fill="#FFFFFF" transform="matrix(1.00, 0.00, -0.00, -1.00, 244.2, 254.0)">y</text><text xml:space="preserve" font-family="Chalkduster" font-size="30.0" fill="#FFFFFF" transform="matrix(1.00, 0.00, -0.00, -1.00, 261.6, 254.0)">o</text><text xml:space="preserve" font-family="Chalkduster" font-size="30.0" fill="#FFFFFF" transform="matrix(1.00, 0.00, -0.00, -1.00, 284.1, 254.0)">u</text><text xml:space="preserve" font-family="Chalkduster" font-size="30.0" fill="#FFFFFF" transform="matrix(1.00, 0.00, -0.00, -1.00, 304.7, 254.0)"> </text><text xml:space="preserve" font-family="Chalkduster" font-size="30.0" fill="#FFFFFF" transform="matrix(1.00, 0.00, -0.00, -1.00, 319.7, 254.0)">l</text><text xml:space="preserve" font-family="Chalkduster" font-size="30.0" fill="#FFFFFF" transform="matrix(1.00, 0.00, -0.00, -1.00, 334.1, 254.0)">i</text><text xml:space="preserve" font-family="Chalkduster" font-size="30.0" fill="#FFFFFF" transform="matrix(1.00, 0.00, -0.00, -1.00, 345.9, 254.0)">v</text><text xml:space="preserve" font-family="Chalkduster" font-size="30.0" fill="#FFFFFF" transform="matrix(1.00, 0.00, -0.00, -1.00, 364.4, 254.0)">e</text><text xml:space="preserve" font-family="Chalkduster" font-size="30.0" fill="#FFFFFF" transform="matrix(1.00, 0.00, -0.00, -1.00, 383.0, 254.0)">?</text><text xml:space="preserve" font-family="Chalkduster" font-size="30.0" fill="#FFFFFF" transform="matrix(1.00, 0.00, -0.00, -1.00, 397.7, 254.0)">“</text><text xml:space="preserve" font-family="Chalkduster" font-size="40.0" fill="#FFFFFF" transform="matrix(1.00, 0.00, -0.00, -1.00, 258.0, 103.0)">„</text><text xml:space="preserve" font-family="Chalkduster" font-size="40.0" fill="#FFFFFF" transform="matrix(1.00, 0.00, -0.00, -1.00, 277.4, 103.0)">T</text><text xml:space="preserve" font-family="Chalkduster" font-size="40.0" fill="#FFFFFF" transform="matrix(1.00, 0.00, -0.00, -1.00, 308.1, 103.0)">h</text><text xml:space="preserve" font-family="Chalkduster" font-size="40.0" fill="#FFFFFF" transform="matrix(1.00, 0.00, -0.00, -1.00, 332.8, 103.0)">e</text><text xml:space="preserve" font-family="Chalkduster" font-size="40.0" fill="#FFFFFF" transform="matrix(1.00, 0.00, -0.00, -1.00, 357.6, 103.0)"> </text><text xml:space="preserve" font-family="Chalkduster" font-size="40.0" fill="#FFFFFF" transform="matrix(1.00, 0.00, -0.00, -1.00, 377.5, 103.0)">2</text><text xml:space="preserve" font-family="Chalkduster" font-size="40.0" fill="#FFFFFF" transform="matrix(1.00, 0.00, -0.00, -1.00, 400.0, 103.0)">1</text><text xml:space="preserve" font-family="Chalkduster" font-size="40.0" fill="#FFFFFF" transform="matrix(1.00, 0.00, -0.00, -1.00, 424.2, 103.0)">s</text><text xml:space="preserve" font-family="Chalkduster" font-size="40.0" fill="#FFFFFF" transform="matrix(1.00, 0.00, -0.00, -1.00, 445.6, 103.0)">t</text><text xml:space="preserve" font-family="Chalkduster" font-size="40.0" fill="#FFFFFF" transform="matrix(1.00, 0.00, -0.00, -1.00, 463.9, 103.0)"> </text><text xml:space="preserve" font-family="Chalkduster" font-size="40.0" fill="#FFFFFF" transform="matrix(1.00, 0.00, -0.00, -1.00, 483.8, 103.0)">c</text><text xml:space="preserve" font-family="Chalkduster" font-size="40.0" fill="#FFFFFF" transform="matrix(1.00, 0.00, -0.00, -1.00, 508.0, 103.0)">e</text><text xml:space="preserve" font-family="Chalkduster" font-size="40.0" fill="#FFFFFF" transform="matrix(1.00, 0.00, -0.00, -1.00, 533.2, 103.0)">n</text><text xml:space="preserve" font-family="Chalkduster" font-size="40.0" fill="#FFFFFF" transform="matrix(1.00, 0.00, -0.00, -1.00, 561.1, 103.0)">t</text><text xml:space="preserve" font-family="Chalkduster" font-size="40.0" fill="#FFFFFF" transform="matrix(1.00, 0.00, -0.00, -1.00, 579.3, 103.0)">u</text><text xml:space="preserve" font-family="Chalkduster" font-size="40.0" fill="#FFFFFF" transform="matrix(1.00, 0.00, -0.00, -1.00, 607.4, 103.0)">r</text><text xml:space="preserve" font-family="Chalkduster" font-size="40.0" fill="#FFFFFF" transform="matrix(1.00, 0.00, -0.00, -1.00, 630.0, 103.0)">y</text><text xml:space="preserve" font-family="Chalkduster" font-size="40.0" fill="#FFFFFF" transform="matrix(1.00, 0.00, -0.00, -1.00, 654.3, 103.0)">“</text></g></svg>