<?xml version="1.0" encoding="UTF-8" standalone="no"?><svg xmlns="http://www.w3.org/2000/svg" xmlns:xlink="http://www.w3.org/1999/xlink" clip-rule="evenodd" stroke-miterlimit="4.00" viewBox="0 0 1024 768"><desc>SVG generated by Keynote</desc><defs></defs><g transform="matrix(1.00, 0.00, -0.00, -1.00, 0.0, 768.0)"><g><clipPath id="clip-3726"><path d="M 0.0 768.0 L 1024.0 768.0 L 1024.0 0.0 L 0.0 0.0 Z M 0.0 768.0 "></path></clipPath><g clip-path="url(#clip-3726)"><image xlink:href="../../AAFA64A7-B22F-44FA-BDCD-1B20F3A178DE/assets/DE78B55DDE70D88C6FF874E8D33A46A3.jpeg" width="1024.00" height="768.00" transform="matrix(1.00, 0.00, -0.00, -1.00, 0.0, 768.0)"></image></g></g><text xml:space="preserve" font-family="Chalkduster" font-size="51.1" fill="#FFFFFF" transform="matrix(1.00, 0.00, -0.00, -1.00, 106.0, 449.0)">A</text><text xml:space="preserve" font-family="Chalkduster" font-size="51.1" fill="#FFFFFF" transform="matrix(1.00, 0.00, -0.00, -1.00, 143.9, 449.0)">u</text><text xml:space="preserve" font-family="Chalkduster" font-size="51.1" fill="#FFFFFF" transform="matrix(1.00, 0.00, -0.00, -1.00, 177.3, 449.0)">f</text><text xml:space="preserve" font-family="Chalkduster" font-size="51.1" fill="#FFFFFF" transform="matrix(1.00, 0.00, -0.00, -1.00, 202.6, 449.0)">t</text><text xml:space="preserve" font-family="Chalkduster" font-size="51.1" fill="#FFFFFF" transform="matrix(1.00, 0.00, -0.00, -1.00, 225.9, 449.0)">r</text><text xml:space="preserve" font-family="Chalkduster" font-size="51.1" fill="#FFFFFF" transform="matrix(1.00, 0.00, -0.00, -1.00, 252.9, 449.0)">a</text><text xml:space="preserve" font-family="Chalkduster" font-size="51.1" fill="#FFFFFF" transform="matrix(1.00, 0.00, -0.00, -1.00, 285.4, 449.0)">g</text><text xml:space="preserve" font-family="Chalkduster" font-size="51.1" fill="#FFFFFF" transform="matrix(1.00, 0.00, -0.00, -1.00, 321.8, 449.0)">s</text><text xml:space="preserve" font-family="Chalkduster" font-size="51.1" fill="#FFFFFF" transform="matrix(1.00, 0.00, -0.00, -1.00, 347.6, 449.0)"> </text><text xml:space="preserve" font-family="Chalkduster" font-size="51.1" fill="#FFFFFF" transform="matrix(1.00, 0.00, -0.00, -1.00, 373.1, 449.0)">D</text><text xml:space="preserve" font-family="Chalkduster" font-size="51.1" fill="#FFFFFF" transform="matrix(1.00, 0.00, -0.00, -1.00, 408.8, 449.0)">a</text><text xml:space="preserve" font-family="Chalkduster" font-size="51.1" fill="#FFFFFF" transform="matrix(1.00, 0.00, -0.00, -1.00, 440.6, 449.0)">t</text><text xml:space="preserve" font-family="Chalkduster" font-size="51.1" fill="#FFFFFF" transform="matrix(1.00, 0.00, -0.00, -1.00, 463.4, 449.0)">e</text><text xml:space="preserve" font-family="Chalkduster" font-size="51.1" fill="#FFFFFF" transform="matrix(1.00, 0.00, -0.00, -1.00, 495.6, 449.0)">n</text><text xml:space="preserve" font-family="Chalkduster" font-size="51.1" fill="#FFFFFF" transform="matrix(1.00, 0.00, -0.00, -1.00, 533.1, 449.0)"> </text><text xml:space="preserve" font-family="Chalkduster" font-size="51.1" fill="#FFFFFF" transform="matrix(1.00, 0.00, -0.00, -1.00, 554.0, 449.0)">V</text><text xml:space="preserve" font-family="Chalkduster" font-size="51.1" fill="#FFFFFF" transform="matrix(1.00, 0.00, -0.00, -1.00, 587.3, 449.0)">e</text><text xml:space="preserve" font-family="Chalkduster" font-size="51.1" fill="#FFFFFF" transform="matrix(1.00, 0.00, -0.00, -1.00, 618.5, 449.0)">r</text><text xml:space="preserve" font-family="Chalkduster" font-size="51.1" fill="#FFFFFF" transform="matrix(1.00, 0.00, -0.00, -1.00, 645.4, 449.0)">a</text><text xml:space="preserve" font-family="Chalkduster" font-size="51.1" fill="#FFFFFF" transform="matrix(1.00, 0.00, -0.00, -1.00, 678.0, 449.0)">r</text><text xml:space="preserve" font-family="Chalkduster" font-size="51.1" fill="#FFFFFF" transform="matrix(1.00, 0.00, -0.00, -1.00, 704.9, 449.0)">b</text><text xml:space="preserve" font-family="Chalkduster" font-size="51.1" fill="#FFFFFF" transform="matrix(1.00, 0.00, -0.00, -1.00, 734.6, 449.0)">e</text><text xml:space="preserve" font-family="Chalkduster" font-size="51.1" fill="#FFFFFF" transform="matrix(1.00, 0.00, -0.00, -1.00, 766.3, 449.0)">i</text><text xml:space="preserve" font-family="Chalkduster" font-size="51.1" fill="#FFFFFF" transform="matrix(1.00, 0.00, -0.00, -1.00, 787.1, 449.0)">t</text><text xml:space="preserve" font-family="Chalkduster" font-size="51.1" fill="#FFFFFF" transform="matrix(1.00, 0.00, -0.00, -1.00, 810.4, 449.0)">u</text><text xml:space="preserve" font-family="Chalkduster" font-size="51.1" fill="#FFFFFF" transform="matrix(1.00, 0.00, -0.00, -1.00, 846.3, 449.0)">n</text><text xml:space="preserve" font-family="Chalkduster" font-size="51.1" fill="#FFFFFF" transform="matrix(1.00, 0.00, -0.00, -1.00, 882.2, 449.0)">g</text><text xml:space="preserve" font-family="Chalkduster" font-size="51.1" fill="#FFFFFF" transform="matrix(1.00, 0.00, -0.00, -1.00, 917.1, 449.0)"> </text><text xml:space="preserve" font-family="Chalkduster" font-size="51.1" fill="#FFFFFF" transform="matrix(1.00, 0.00, -0.00, -1.00, 429.0, 384.0)">(</text><text xml:space="preserve" font-family="Chalkduster" font-size="51.1" fill="#FFFFFF" transform="matrix(1.00, 0.00, -0.00, -1.00, 455.9, 384.0)">A</text><text xml:space="preserve" font-family="Chalkduster" font-size="51.1" fill="#FFFFFF" transform="matrix(1.00, 0.00, -0.00, -1.00, 493.7, 384.0)">D</text><text xml:space="preserve" font-family="Chalkduster" font-size="51.1" fill="#FFFFFF" transform="matrix(1.00, 0.00, -0.00, -1.00, 528.5, 384.0)">V</text><text xml:space="preserve" font-family="Chalkduster" font-size="51.1" fill="#FFFFFF" transform="matrix(1.00, 0.00, -0.00, -1.00, 569.9, 384.0)">)</text><text xml:space="preserve" font-family="Chalkduster" font-size="18.0" fill="#FFFFFF" transform="matrix(1.00, 0.00, -0.00, -1.00, 501.0, 12.0)">7</text><text xml:space="preserve" font-family="Chalkduster" font-size="18.0" fill="#FFFFFF" transform="matrix(1.00, 0.00, -0.00, -1.00, 511.1, 12.0)">0</text></g></svg>