<?xml version="1.0" encoding="UTF-8" standalone="no"?><svg xmlns="http://www.w3.org/2000/svg" xmlns:xlink="http://www.w3.org/1999/xlink" clip-rule="evenodd" stroke-miterlimit="4.00" viewBox="0 0 46 121"><desc>SVG generated by Keynote</desc><defs></defs><g transform="matrix(1.00, 0.00, -0.00, -1.00, 0.0, 121.0)"><path d="M 15.0 115.0 C 14.7 115.2 14.0 115.0 13.8 115.1 M 15.0 115.0 C 14.0 113.9 12.7 113.8 11.1 113.6 C 9.3 113.6 11.3 114.7 11.2 115.1 C 8.8 115.6 8.7 114.8 8.9 113.6 C 8.2 114.4 5.4 113.0 6.0 114.4 C 9.8 114.4 3.3 114.8 6.6 115.7 C 7.0 115.9 6.0 116.3 5.6 116.3 C 6.8 116.9 4.9 117.6 6.7 118.1 C 7.0 119.0 6.7 118.6 7.9 119.3 C 8.5 119.4 8.2 119.1 8.1 118.9 C 8.2 117.8 9.7 119.5 10.6 118.8 C 11.7 120.2 12.4 118.5 11.5 117.9 C 12.4 118.1 13.8 119.6 14.5 118.6 C 15.2 119.3 17.5 118.8 15.8 117.9 C 14.6 117.3 15.6 116.9 15.6 116.6 C 15.2 116.3 13.9 116.7 13.7 116.4 C 14.0 116.2 15.6 115.7 13.8 115.7 C 14.2 115.3 13.3 115.0 15.0 115.0 C 15.0 115.0 15.0 115.0 15.0 115.0 Z M 8.4 114.2 C 8.3 113.8 9.0 114.2 8.4 114.2 C 8.4 114.2 8.4 114.2 8.4 114.2 Z M 13.9 119.3 C 13.8 118.9 14.6 119.3 13.9 119.3 C 13.9 119.3 13.9 119.3 13.9 119.3 Z M 8.5 118.9 C 8.4 118.5 9.2 118.9 8.5 118.9 C 8.5 118.9 8.5 118.9 8.5 118.9 Z M 10.1 114.5 C 11.1 114.8 9.3 115.0 9.1 114.6 C 9.3 114.7 9.8 114.1 10.1 114.5 C 10.1 114.5 10.1 114.5 10.1 114.5 Z M 10.5 116.7 C 10.6 116.5 11.0 116.5 11.0 116.9 C 10.8 117.0 10.5 116.8 10.5 116.7 C 10.5 116.7 10.5 116.7 10.5 116.7 Z M 5.2 115.1 C 5.3 115.0 5.7 114.9 5.7 115.3 C 5.4 115.4 5.1 115.2 5.2 115.1 C 5.2 115.1 5.2 115.1 5.2 115.1 Z M 11.4 115.5 C 11.7 115.5 11.8 115.9 11.5 115.9 C 11.3 115.8 10.6 115.7 11.4 115.5 C 11.4 115.5 11.4 115.5 11.4 115.5 Z M 12.7 114.2 C 13.6 114.4 12.0 115.0 12.0 114.8 C 11.7 114.5 12.2 113.9 12.7 114.2 C 12.7 114.2 12.7 114.2 12.7 114.2 Z M 12.0 116.0 C 12.8 116.2 11.7 116.3 12.0 116.0 C 12.0 116.0 12.0 116.0 12.0 116.0 Z M 6.0 117.9 C 6.8 118.1 5.7 118.2 6.0 117.9 C 6.0 117.9 6.0 117.9 6.0 117.9 Z M 10.2 119.1 C 11.0 119.3 9.9 119.4 10.2 119.1 C 10.2 119.1 10.2 119.1 10.2 119.1 Z M 8.3 115.2 C 7.0 115.2 8.0 114.2 8.3 115.2 C 8.3 115.2 8.3 115.2 8.3 115.2 Z M 14.6 114.1 C 13.4 114.1 14.2 113.1 14.6 114.1 C 14.6 114.1 14.6 114.1 14.6 114.1 Z M 7.0 114.8 C 7.2 116.0 8.5 111.5 7.0 113.2 C 5.7 113.6 5.9 110.5 7.0 111.4 C 7.1 110.5 7.2 110.5 6.6 109.9 C 7.5 109.9 8.0 107.8 7.5 107.0 C 6.7 106.5 7.4 108.4 6.6 107.1 C 6.4 104.4 5.7 107.2 4.7 106.1 C 4.7 106.0 5.2 106.0 4.9 105.7 C 4.0 105.5 3.3 107.0 2.6 106.3 C 2.8 106.7 1.7 108.6 2.6 107.8 C 3.4 107.6 1.5 110.0 2.9 109.9 C 2.3 110.5 3.2 111.2 2.4 111.8 C 2.2 112.3 3.0 112.4 3.2 112.3 C 3.9 112.3 1.6 112.8 2.8 113.7 C 2.5 113.7 2.6 116.0 3.2 114.3 C 3.1 114.8 2.7 117.3 4.1 116.0 C 4.7 114.2 5.4 117.8 5.5 115.7 C 5.6 114.2 5.4 113.9 6.1 115.0 C 6.0 115.4 6.1 117.2 6.7 115.7 C 6.5 115.3 6.7 114.6 7.0 114.8 C 7.0 114.8 7.0 114.8 7.0 114.8 Z M 5.1 115.1 C 5.0 114.2 5.6 115.1 5.1 115.1 C 5.1 115.1 5.1 115.1 5.1 115.1 Z M 2.1 111.7 C 2.0 110.8 2.6 111.6 2.1 111.7 C 2.1 111.7 2.1 111.7 2.1 111.7 Z M 7.4 112.0 C 6.9 111.6 8.3 111.5 7.4 112.0 C 7.4 112.0 7.4 112.0 7.4 112.0 Z M 3.2 113.3 C 3.2 113.2 3.3 113.5 3.4 113.6 C 3.4 113.6 3.2 113.4 3.2 113.3 C 3.2 113.3 3.2 113.3 3.2 113.3 Z M 7.3 110.5 C 6.7 109.2 8.4 110.3 7.3 110.5 C 7.3 110.5 7.3 110.5 7.3 110.5 Z M 6.0 107.7 C 4.7 107.5 6.3 106.4 6.0 107.7 C 6.0 107.7 6.0 107.7 6.0 107.7 Z M 3.0 109.4 C 3.3 109.7 2.9 109.7 3.0 109.4 C 3.0 109.4 3.0 109.4 3.0 109.4 Z M 2.8 115.5 C 3.1 115.7 2.7 115.7 2.8 115.5 C 2.8 115.5 2.8 115.5 2.8 115.5 Z M 3.2 107.7 C 3.7 107.9 2.9 108.2 3.2 107.7 C 3.2 107.7 3.2 107.7 3.2 107.7 Z M 6.8 111.8 C 7.9 113.0 5.2 113.2 6.8 111.8 C 6.8 111.8 6.8 111.8 6.8 111.8 Z M 6.9 114.0 C 7.1 114.8 6.2 113.8 6.4 113.4 C 6.5 113.5 6.8 113.8 6.9 114.0 C 6.9 114.0 6.9 114.0 6.9 114.0 Z M 6.7 110.5 C 7.2 111.3 6.4 111.2 6.7 110.5 C 6.7 110.5 6.7 110.5 6.7 110.5 Z M 7.3 112.6 C 7.1 113.0 7.1 112.3 7.3 112.6 C 7.3 112.6 7.3 112.6 7.3 112.6 Z M 7.8 108.9 C 7.7 109.3 7.7 108.5 7.8 108.9 C 7.8 108.9 7.8 108.9 7.8 108.9 Z M 7.5 115.0 C 7.3 115.4 7.3 114.6 7.5 115.0 C 7.5 115.0 7.5 115.0 7.5 115.0 Z M 7.1 109.2 C 6.6 109.0 5.5 110.1 6.4 108.1 C 6.8 107.7 7.5 108.7 7.1 109.2 C 7.1 109.2 7.1 109.2 7.1 109.2 Z M 18.5 115.1 C 13.0 113.5 15.0 116.2 14.9 116.7 C 14.3 117.4 15.2 117.9 16.4 118.4 C 18.2 120.1 17.6 116.7 19.0 118.4 C 21.5 120.6 19.9 116.4 21.6 118.8 C 21.6 119.4 23.6 118.9 23.3 118.7 C 25.0 119.9 25.5 117.8 25.4 117.6 C 26.3 117.9 27.6 120.1 29.0 118.5 C 30.3 117.9 32.6 120.0 31.1 118.6 C 33.6 120.2 31.6 118.1 33.3 118.6 C 34.9 119.5 32.3 117.2 35.2 119.0 C 34.9 117.6 35.2 119.9 38.8 118.9 C 36.6 118.8 39.9 117.8 39.9 118.7 C 39.3 119.6 41.2 118.6 43.4 118.8 C 43.4 118.6 43.4 118.5 43.5 118.3 C 43.0 117.3 41.8 113.8 43.1 115.5 C 44.7 114.9 42.2 112.6 43.4 112.9 C 44.0 112.7 42.8 111.4 42.9 111.0 C 43.9 111.2 43.2 109.9 43.5 107.7 C 44.0 102.5 41.0 104.9 40.7 102.6 C 40.2 101.9 37.0 102.2 39.4 103.0 C 38.8 102.9 41.2 109.2 38.6 104.8 C 39.7 107.3 37.5 103.6 38.8 107.8 C 40.6 105.0 39.5 113.5 38.6 108.4 C 38.1 108.6 38.2 110.4 38.6 109.6 C 40.3 110.7 37.9 111.8 39.9 112.1 C 39.4 114.2 41.2 115.3 39.9 114.8 C 38.2 113.6 39.4 114.5 39.8 115.3 C 39.8 115.4 39.7 115.5 39.2 115.3 C 36.0 115.3 36.0 112.7 35.7 114.4 C 31.8 113.3 35.9 115.4 35.1 115.7 C 36.1 117.2 31.0 114.5 33.1 114.3 C 32.6 115.1 32.3 113.6 31.7 114.5 C 33.9 115.9 28.8 113.0 30.1 114.2 C 29.1 114.5 30.4 115.4 30.0 115.4 C 28.1 115.4 27.7 114.0 28.1 115.1 C 28.0 115.6 26.0 113.8 26.0 114.2 C 27.9 114.3 25.3 115.8 24.7 115.0 C 25.8 114.9 23.0 113.1 22.9 114.2 C 25.6 117.3 20.9 113.4 20.6 114.5 C 22.2 116.3 16.5 114.7 18.1 113.9 C 18.0 114.1 18.6 115.1 18.5 115.1 M 25.6 114.5 C 27.3 114.6 24.1 114.8 25.6 114.5 M 25.3 114.0 C 26.3 114.6 23.6 113.6 25.2 113.9 C 25.3 113.9 25.2 114.0 25.3 114.0 M 31.6 114.0 C 31.8 114.5 30.5 113.7 31.6 114.0 M 33.7 115.1 C 35.1 115.5 32.3 115.1 33.7 115.1 M 39.2 106.0 C 41.8 109.7 37.8 106.3 39.2 106.0 M 37.8 114.2 C 36.4 114.5 37.3 113.1 37.8 114.2 M 37.9 114.8 C 37.4 115.2 37.1 114.2 37.9 114.8 M 39.2 108.8 C 39.3 108.7 39.3 108.7 39.2 108.8 C 39.2 108.8 39.2 108.8 39.2 108.8 Z M 39.3 104.5 C 39.3 104.5 39.3 104.5 39.3 104.5 C 39.3 104.5 39.3 104.5 39.3 104.5 Z M 39.5 113.3 C 38.9 114.0 39.3 110.9 39.5 113.3 C 39.5 113.3 39.5 113.3 39.5 113.3 Z M 43.2 109.9 C 43.3 110.0 43.3 110.0 43.2 109.9 C 43.2 109.9 43.2 109.9 43.2 109.9 Z M 25.0 115.7 C 25.0 115.7 25.0 115.7 25.0 115.7 C 25.0 115.7 25.0 115.7 25.0 115.7 Z M 19.7 114.7 C 19.9 115.0 18.7 114.4 19.7 114.7 C 19.7 114.7 19.7 114.7 19.7 114.7 Z M 16.7 117.6 C 16.6 117.7 16.6 117.7 16.7 117.6 C 16.7 117.6 16.7 117.6 16.7 117.6 Z M 24.1 117.0 C 24.0 117.1 24.0 117.1 24.1 117.0 C 24.1 117.0 24.1 117.0 24.1 117.0 Z M 23.8 115.1 C 22.3 113.7 25.9 115.5 23.8 115.1 C 23.8 115.1 23.8 115.1 23.8 115.1 Z M 43.1 118.5 C 42.4 117.8 43.3 117.5 43.1 118.5 C 43.1 118.5 43.1 118.5 43.1 118.5 Z M 34.4 115.6 C 34.3 115.3 35.2 115.8 34.4 115.6 C 34.4 115.6 34.4 115.6 34.4 115.6 Z M 30.2 113.7 C 30.1 113.4 31.0 113.9 30.2 113.7 C 30.2 113.7 30.2 113.7 30.2 113.7 Z M 19.6 114.3 C 19.6 114.2 19.6 114.2 19.6 114.3 C 19.6 114.3 19.6 114.3 19.6 114.3 Z M 21.8 115.4 C 20.0 114.1 24.1 116.1 21.8 115.4 C 21.8 115.4 21.8 115.4 21.8 115.4 Z M 19.9 115.8 C 20.7 116.3 18.2 115.5 19.9 115.8 M 22.0 117.8 C 23.3 117.2 21.5 120.2 22.0 117.8 C 22.0 117.8 22.0 117.8 22.0 117.8 Z M 30.5 118.3 C 30.6 118.4 30.6 118.4 30.5 118.3 C 30.5 118.3 30.5 118.3 30.5 118.3 Z M 27.1 114.5 C 28.4 114.5 26.5 114.8 27.1 114.5 C 27.1 114.5 27.1 114.5 27.1 114.5 Z M 15.9 114.2 C 17.2 114.2 15.1 114.5 15.9 114.2 C 15.9 114.2 15.9 114.2 15.9 114.2 Z M 34.2 117.0 C 36.3 116.8 33.4 117.7 34.2 117.0 C 34.2 117.0 34.2 117.0 34.2 117.0 Z M 40.0 114.5 C 40.1 114.5 40.1 114.5 40.0 114.5 C 40.0 114.5 40.0 114.5 40.0 114.5 Z M 39.5 112.5 C 39.5 112.5 39.5 112.5 39.5 112.5 C 39.5 112.5 39.5 112.5 39.5 112.5 Z M 40.8 107.5 C 40.9 107.4 40.9 107.4 40.8 107.5 C 40.8 107.5 40.8 107.5 40.8 107.5 Z M 38.8 110.6 C 38.9 110.6 38.9 110.6 38.8 110.6 C 38.8 110.6 38.8 110.6 38.8 110.6 Z M 39.2 106.7 C 39.2 106.6 39.2 106.6 39.2 106.7 C 39.2 106.7 39.2 106.7 39.2 106.7 Z M 38.0 106.3 C 38.1 106.2 38.1 106.2 38.0 106.3 C 38.0 106.3 38.0 106.3 38.0 106.3 Z M 41.6 119.3 C 41.7 119.3 41.7 119.3 41.6 119.3 C 41.6 119.3 41.6 119.3 41.6 119.3 Z M 21.6 113.9 C 21.8 114.0 21.8 114.0 21.6 113.9 C 21.6 113.9 21.6 113.9 21.6 113.9 Z M 39.7 107.4 C 39.7 107.4 39.7 107.4 39.7 107.4 C 39.7 107.4 39.7 107.4 39.7 107.4 Z M 38.0 116.2 C 39.1 117.4 35.7 114.7 38.2 116.2 C 38.2 116.2 37.7 116.0 38.0 116.2 M 41.2 118.1 C 41.2 118.1 41.2 118.1 41.2 118.1 C 41.2 118.1 41.2 118.1 41.2 118.1 Z M 36.7 118.8 C 36.7 118.8 36.7 118.8 36.7 118.8 C 36.7 118.8 36.7 118.8 36.7 118.8 Z M 38.6 111.1 C 38.0 110.7 39.1 110.4 38.7 111.3 M 42.8 109.1 C 42.2 108.8 43.3 108.3 42.9 109.3 M 14.5 114.6 C 14.5 115.1 13.6 114.3 14.5 114.6 M 36.0 119.4 C 36.2 119.9 34.8 119.1 36.0 119.4 M 37.2 118.0 C 36.5 117.3 38.9 118.4 37.1 118.0 M 42.8 112.5 C 42.8 112.5 42.8 112.5 42.8 112.5 C 42.8 112.5 42.8 112.5 42.8 112.5 Z M 29.1 114.6 C 29.2 114.6 29.2 114.6 29.1 114.6 C 29.1 114.6 29.1 114.6 29.1 114.6 Z M 35.9 115.9 C 34.4 115.1 37.5 116.5 35.9 115.9 M 28.5 116.1 C 26.7 115.0 30.6 116.4 28.5 116.1 M 43.1 106.7 C 41.8 107.0 43.8 106.3 43.1 106.7 M 39.8 110.5 C 38.5 110.6 40.5 110.2 39.8 110.5 M 30.7 115.1 C 30.1 114.5 32.3 115.5 30.7 115.1 M 17.4 114.5 C 16.2 114.4 18.8 114.0 17.4 114.5 M 42.8 115.9 C 42.9 115.9 42.9 115.9 42.8 115.9 C 42.8 115.9 42.8 115.9 42.8 115.9 Z M 23.6 119.4 C 23.7 119.5 23.7 119.5 23.6 119.4 C 23.6 119.4 23.6 119.4 23.6 119.4 Z M 38.8 101.7 C 38.9 101.7 38.9 101.7 38.8 101.7 C 38.8 101.7 38.8 101.7 38.8 101.7 Z M 40.4 111.9 C 40.5 111.9 40.5 111.9 40.4 111.9 C 40.4 111.9 40.4 111.9 40.4 111.9 Z M 38.7 104.0 C 38.7 104.0 38.7 104.0 38.7 104.0 C 38.7 104.0 38.7 104.0 38.7 104.0 Z M 41.4 116.9 C 41.5 116.9 41.5 116.9 41.4 116.9 C 41.4 116.9 41.4 116.9 41.4 116.9 Z M 37.4 113.6 C 37.4 113.6 37.4 113.6 37.4 113.6 C 37.4 113.6 37.4 113.6 37.4 113.6 Z M 34.4 115.0 C 34.5 115.0 34.5 115.0 34.4 115.0 C 34.4 115.0 34.4 115.0 34.4 115.0 Z M 38.4 112.7 C 38.2 110.0 39.5 115.1 38.4 112.7 C 38.4 112.7 38.4 112.7 38.4 112.7 Z M 38.2 117.2 C 38.2 117.2 38.2 117.2 38.2 117.2 C 38.2 117.2 38.2 117.2 38.2 117.2 Z M 35.7 114.8 C 36.4 113.9 38.0 116.4 35.7 114.8 M 28.0 114.1 C 28.2 113.6 28.8 114.8 28.0 114.1 M 27.9 118.4 C 27.9 118.4 27.9 118.4 27.9 118.4 C 27.9 118.4 27.9 118.4 27.9 118.4 Z M 28.5 118.1 C 28.6 118.1 28.6 118.1 28.5 118.1 C 28.5 118.1 28.5 118.1 28.5 118.1 Z M 26.2 113.9 C 26.3 113.9 26.3 113.9 26.2 113.9 C 26.2 113.9 26.2 113.9 26.2 113.9 Z M 29.4 119.3 C 29.5 119.3 29.5 119.3 29.4 119.3 C 29.4 119.3 29.4 119.3 29.4 119.3 Z M 36.5 113.7 C 36.5 113.7 36.5 113.7 36.5 113.7 C 36.5 113.7 36.5 113.7 36.5 113.7 Z M 38.2 102.4 C 38.2 102.4 38.2 102.4 38.2 102.4 C 38.2 102.4 38.2 102.4 38.2 102.4 Z M 19.1 117.9 C 19.2 118.0 19.2 118.0 19.1 117.9 C 19.1 117.9 19.1 117.9 19.1 117.9 Z M 39.1 115.0 C 39.2 115.0 39.2 115.0 39.1 115.0 C 39.1 115.0 39.1 115.0 39.1 115.0 Z M 25.7 118.2 C 25.8 118.2 25.8 118.2 25.7 118.2 C 25.7 118.2 25.7 118.2 25.7 118.2 Z M 38.0 114.7 C 38.0 114.7 38.0 114.7 38.0 114.7 C 38.0 114.7 38.0 114.7 38.0 114.7 Z M 43.1 116.6 C 43.1 116.6 43.1 116.6 43.1 116.6 C 43.1 116.6 43.1 116.6 43.1 116.6 Z M 43.8 114.2 C 43.9 114.2 43.9 114.2 43.8 114.2 C 43.8 114.2 43.8 114.2 43.8 114.2 Z M 40.8 114.6 C 40.8 114.6 40.8 114.6 40.8 114.6 C 40.8 114.6 40.8 114.6 40.8 114.6 Z M 24.0 116.8 C 18.1 115.6 28.0 116.3 24.0 116.8 M 41.1 113.9 C 40.8 117.5 39.8 109.7 41.1 113.9 C 40.7 113.2 41.0 113.8 41.1 113.9 M 38.3 100.0 C 39.5 102.4 40.7 103.3 41.9 103.6 C 42.6 103.3 40.1 101.5 42.2 103.0 C 42.6 105.1 45.3 104.5 42.6 102.6 C 42.2 99.9 44.3 103.4 43.3 101.2 C 43.0 98.4 43.8 100.3 43.6 98.2 C 42.2 96.1 44.3 97.4 43.0 96.1 C 44.5 98.0 42.5 93.7 43.2 94.0 C 44.1 96.4 43.2 87.1 42.8 91.6 C 42.1 89.4 43.3 90.4 43.5 89.8 C 42.6 88.5 44.2 86.9 43.3 85.3 C 43.1 85.5 43.1 86.0 42.8 86.1 C 42.2 86.2 42.9 84.8 42.9 84.9 C 42.6 84.0 41.7 80.6 43.2 84.5 C 43.9 85.0 42.9 81.7 43.5 82.0 C 43.6 79.1 42.1 80.8 43.2 79.9 C 43.2 77.8 43.2 76.3 43.0 76.3 C 43.2 75.1 44.0 75.0 43.2 73.7 C 44.8 71.4 40.2 71.3 43.3 70.9 C 42.5 70.1 44.6 69.7 42.7 69.5 C 43.5 70.5 44.1 65.3 42.8 67.5 C 42.3 66.8 44.7 63.7 42.8 64.1 C 41.4 62.9 40.0 63.0 38.6 65.3 C 39.7 65.1 37.5 67.6 39.3 66.1 C 40.0 64.1 40.0 70.0 39.3 68.6 C 37.1 68.0 40.7 71.7 39.1 72.6 C 40.0 71.8 40.5 76.7 38.8 74.8 C 38.7 75.7 39.5 76.1 38.5 76.8 C 38.6 74.0 40.2 78.4 39.2 77.9 C 38.6 77.2 38.1 81.2 39.0 81.1 C 41.4 80.5 38.5 82.0 39.5 83.1 C 40.0 85.6 37.5 81.9 39.2 84.3 C 38.9 84.7 38.9 87.7 38.4 85.6 C 38.6 84.9 41.0 88.6 39.0 88.0 C 37.8 84.2 38.3 91.4 39.0 90.6 C 40.0 86.1 40.2 96.8 39.1 92.1 C 38.0 93.7 38.7 91.2 39.2 94.3 C 39.8 94.3 40.4 96.9 39.1 95.5 C 37.2 94.7 41.6 98.0 39.1 98.0 C 38.0 97.4 39.9 102.0 38.6 99.8 C 38.5 99.6 38.3 99.9 38.3 100.0 M 38.5 99.2 C 38.9 99.9 38.0 99.4 38.5 99.2 M 38.9 99.9 C 38.9 99.9 38.9 99.9 38.9 99.9 C 38.9 99.9 38.9 99.9 38.9 99.9 Z M 39.2 94.7 C 39.2 94.7 39.2 94.7 39.2 94.7 C 39.2 94.7 39.2 94.7 39.2 94.7 Z M 44.0 93.1 C 43.9 93.1 43.9 93.1 44.0 93.1 C 44.0 93.1 44.0 93.1 44.0 93.1 Z M 39.3 91.2 C 39.3 91.2 39.3 91.2 39.3 91.2 C 39.3 91.2 39.3 91.2 39.3 91.2 Z M 39.5 96.8 C 39.5 96.9 39.5 96.9 39.5 96.8 C 39.5 96.8 39.5 96.8 39.5 96.8 Z M 38.6 91.1 C 39.4 91.2 38.1 92.0 38.5 91.0 C 38.6 91.0 38.6 91.2 38.6 91.1 M 38.4 86.3 C 38.4 86.3 38.4 86.3 38.4 86.3 M 43.9 77.7 C 44.0 77.7 44.0 77.7 43.9 77.7 M 38.3 75.3 C 38.4 75.2 38.4 75.2 38.3 75.3 M 39.1 82.0 C 39.0 80.5 39.4 81.8 39.1 82.0 M 38.7 71.6 C 38.2 73.3 38.3 69.6 38.7 71.6 M 38.3 69.8 C 38.4 69.7 38.4 69.7 38.3 69.8 M 38.6 77.9 C 38.6 78.0 38.6 78.0 38.6 77.9 C 38.6 77.9 38.6 77.9 38.6 77.9 Z M 38.8 82.5 C 38.4 84.2 38.1 80.4 38.8 82.5 M 38.5 93.7 C 38.2 92.4 39.5 94.2 38.5 93.7 M 38.9 96.0 C 39.0 96.1 39.0 96.1 38.9 96.0 C 38.9 96.0 38.9 96.0 38.9 96.0 Z M 38.7 74.5 C 38.7 74.6 38.7 74.6 38.7 74.5 C 38.7 74.5 38.7 74.5 38.7 74.5 Z M 38.5 72.4 C 38.6 72.5 38.6 72.5 38.5 72.4 C 38.5 72.4 38.5 72.4 38.5 72.4 Z M 43.7 69.8 C 43.8 69.9 43.8 69.9 43.7 69.8 C 43.7 69.8 43.7 69.8 43.7 69.8 Z M 41.1 95.8 C 40.7 97.0 39.4 93.3 40.7 94.4 C 41.2 94.5 41.0 95.6 41.1 95.8 M 40.4 84.5 C 42.1 84.9 38.0 84.8 40.4 84.5 M 39.5 69.8 C 41.6 68.7 38.0 71.2 39.5 69.8 M 39.1 66.9 C 39.5 66.1 39.3 72.2 38.8 67.8 C 38.4 67.4 38.9 67.1 39.1 66.9 M 39.2 86.7 C 40.2 86.7 38.8 88.7 39.2 86.7 M 42.2 79.0 C 41.5 78.1 41.0 76.0 42.1 77.2 C 43.4 77.6 42.7 80.0 42.2 79.0 M 39.5 99.5 C 37.9 97.3 40.9 100.5 39.5 99.5 M 39.7 94.1 C 39.6 94.0 39.6 94.0 39.7 94.1 C 39.7 94.1 39.7 94.1 39.7 94.1 Z M 39.4 91.8 C 39.5 91.7 39.5 91.7 39.4 91.8 M 38.1 97.6 C 38.3 97.6 38.3 97.6 38.1 97.6 M 40.5 78.5 C 40.7 78.4 40.7 78.4 40.5 78.5 M 39.5 82.6 C 41.0 81.0 39.8 83.9 39.5 82.6 M 42.5 89.3 C 43.2 88.9 42.5 90.7 42.5 89.3 M 38.9 78.9 C 40.4 77.9 40.3 81.5 38.9 78.9 M 39.3 83.6 C 39.3 83.5 39.3 83.5 39.3 83.6 C 39.3 83.6 39.3 83.6 39.3 83.6 Z M 42.3 78.4 C 42.3 78.5 42.3 78.5 42.3 78.4 C 42.3 78.4 42.3 78.4 42.3 78.4 Z M 42.2 77.7 C 42.3 77.8 42.3 77.8 42.2 77.7 C 42.2 77.7 42.2 77.7 42.2 77.7 Z M 38.7 77.0 C 38.8 77.1 38.8 77.1 38.7 77.0 C 38.7 77.0 38.7 77.0 38.7 77.0 Z M 43.0 98.8 C 43.1 97.3 43.2 100.3 43.0 98.8 C 43.0 98.8 43.0 98.8 43.0 98.8 Z M 38.7 89.4 C 39.8 87.6 39.8 91.8 38.7 89.4 C 38.7 89.4 38.7 89.4 38.7 89.4 Z M 40.6 87.6 C 40.7 87.6 40.7 87.6 40.6 87.6 C 40.6 87.6 40.6 87.6 40.6 87.6 Z M 38.0 79.5 C 38.1 79.6 38.1 79.6 38.0 79.5 C 38.0 79.5 38.0 79.5 38.0 79.5 Z M 43.2 98.2 C 43.3 98.2 43.3 98.2 43.2 98.2 C 43.2 98.2 43.2 98.2 43.2 98.2 Z M 39.5 73.0 C 39.6 73.0 39.6 73.0 39.5 73.0 C 39.5 73.0 39.5 73.0 39.5 73.0 Z M 42.5 82.8 C 42.0 82.0 43.0 82.9 42.5 82.8 C 42.5 82.8 42.5 82.8 42.5 82.8 Z M 42.6 80.4 C 42.6 80.4 42.6 80.4 42.6 80.4 C 42.6 80.4 42.6 80.4 42.6 80.4 Z M 38.2 69.3 C 38.2 69.2 38.2 69.2 38.2 69.3 C 38.2 69.3 38.2 69.3 38.2 69.3 Z M 44.0 74.7 C 43.9 74.7 43.9 74.7 44.0 74.7 C 44.0 74.7 44.0 74.7 44.0 74.7 Z M 42.2 72.3 C 42.2 72.4 42.2 72.4 42.2 72.3 C 42.2 72.3 42.2 72.3 42.2 72.3 Z M 39.1 77.5 C 38.8 75.2 39.7 78.3 39.1 77.5 C 39.1 77.5 39.1 77.5 39.1 77.5 Z M 41.7 66.5 C 41.8 66.4 41.8 66.4 41.7 66.5 C 41.7 66.5 41.7 66.5 41.7 66.5 Z M 39.7 65.1 C 39.8 65.1 39.8 65.1 39.7 65.1 C 39.7 65.1 39.7 65.1 39.7 65.1 Z M 38.7 64.5 C 38.8 64.4 38.8 64.4 38.7 64.5 C 38.7 64.5 38.7 64.5 38.7 64.5 Z M 41.6 93.0 C 41.5 93.1 41.5 93.1 41.6 93.0 C 41.6 93.0 41.6 93.0 41.6 93.0 Z M 38.3 92.0 C 38.3 92.0 38.3 92.0 38.3 92.0 C 38.3 92.0 38.3 92.0 38.3 92.0 Z M 38.1 89.0 C 38.1 89.0 38.1 89.0 38.1 89.0 C 38.1 89.0 38.1 89.0 38.1 89.0 Z M 43.6 94.8 C 43.5 94.8 43.5 94.8 43.6 94.8 C 43.6 94.8 43.6 94.8 43.6 94.8 Z M 40.8 81.5 C 40.7 81.5 40.7 81.5 40.8 81.5 C 40.8 81.5 40.8 81.5 40.8 81.5 Z M 42.1 80.9 C 42.0 80.9 42.0 80.9 42.1 80.9 C 42.1 80.9 42.1 80.9 42.1 80.9 Z M 43.9 84.3 C 43.8 84.3 43.8 84.3 43.9 84.3 C 43.9 84.3 43.9 84.3 43.9 84.3 Z M 43.2 80.4 C 43.2 80.4 43.2 80.4 43.2 80.4 C 43.2 80.4 43.2 80.4 43.2 80.4 Z M 43.0 102.5 C 43.0 102.6 43.0 102.6 43.0 102.5 C 43.0 102.5 43.0 102.5 43.0 102.5 Z M 40.4 100.9 C 40.5 101.1 40.5 101.1 40.4 100.9 C 40.4 100.9 40.4 100.9 40.4 100.9 Z M 38.9 80.5 C 38.4 79.8 39.7 79.7 38.9 80.5 M 39.3 84.9 C 39.3 84.9 39.3 84.9 39.3 84.9 C 39.3 84.9 39.3 84.9 39.3 84.9 Z M 39.0 73.3 C 40.0 72.9 38.5 75.1 39.0 73.3 C 39.0 73.3 39.0 73.3 39.0 73.3 Z M 43.2 76.7 C 43.3 76.7 43.3 76.7 43.2 76.7 C 43.2 76.7 43.2 76.7 43.2 76.7 Z M 42.8 75.4 C 42.9 75.3 42.9 75.3 42.8 75.4 C 42.8 75.4 42.8 75.4 42.8 75.4 Z M 40.1 68.3 C 40.2 68.2 40.2 68.2 40.1 68.3 M 38.4 85.0 C 38.8 84.6 38.7 84.7 38.4 85.0 M 39.1 71.8 C 39.1 71.9 39.1 71.9 39.1 71.8 C 39.1 71.8 39.1 71.8 39.1 71.8 Z M 39.5 66.9 C 39.6 66.9 39.6 66.9 39.5 66.9 C 39.5 66.9 39.5 66.9 39.5 66.9 Z M 39.0 88.4 C 40.3 88.9 40.0 89.4 39.0 88.4 M 39.4 97.2 C 39.5 97.3 39.5 97.3 39.4 97.2 C 39.4 97.2 39.4 97.2 39.4 97.2 Z M 38.7 60.0 C 37.3 62.3 39.2 62.3 39.3 62.3 C 36.7 62.0 40.3 64.5 40.8 64.1 C 41.1 64.2 45.6 62.4 42.9 60.6 C 42.5 60.1 43.3 59.8 43.4 59.5 C 43.3 56.4 42.0 61.6 42.0 57.9 C 42.4 57.2 44.5 57.9 43.0 55.8 C 43.2 55.7 44.0 53.0 43.0 54.1 C 44.0 52.8 42.8 52.2 42.6 51.1 C 43.2 50.0 44.1 51.7 43.0 48.3 C 44.7 46.3 41.7 46.5 43.6 44.6 C 43.7 43.7 40.5 43.3 42.3 44.8 C 42.1 44.6 40.6 46.2 41.1 43.4 C 41.5 43.6 44.7 44.3 43.2 40.2 C 43.3 39.4 42.5 38.1 42.8 37.5 C 43.2 39.7 44.2 33.8 43.3 34.7 C 43.9 30.8 42.5 33.6 43.5 30.5 C 43.6 28.3 42.1 31.9 42.9 28.9 C 42.8 27.0 43.6 27.9 43.5 28.1 C 43.7 26.3 43.1 26.0 43.1 25.4 C 43.3 24.9 44.0 23.7 43.2 23.8 C 41.7 22.9 40.2 25.5 38.8 25.7 C 38.1 27.4 39.9 25.5 38.8 27.0 C 39.7 27.1 38.7 27.2 38.9 30.4 C 39.1 30.2 39.8 29.0 39.9 29.8 C 39.8 31.2 37.3 31.6 39.0 32.8 C 39.6 30.0 39.8 36.1 40.3 33.4 C 40.6 36.3 40.1 34.4 39.5 36.8 C 41.2 36.0 37.8 37.8 39.1 38.0 C 38.4 38.5 38.7 41.7 39.7 38.9 C 40.2 42.3 39.2 40.4 38.3 41.9 C 38.2 43.6 41.1 41.1 39.0 42.8 C 38.1 45.2 40.0 42.6 38.4 44.6 C 39.8 43.5 38.4 46.2 39.9 45.2 C 40.1 48.8 38.3 45.2 39.4 47.4 C 39.4 46.6 37.3 47.4 38.7 48.6 C 41.2 47.4 36.5 51.1 39.8 49.3 C 40.7 54.3 38.4 50.4 38.4 53.2 C 38.4 53.8 39.5 52.2 39.5 52.9 C 39.1 56.5 38.2 53.6 39.8 55.3 C 40.2 58.9 38.4 56.5 38.3 58.2 C 39.1 58.3 40.4 59.6 38.7 60.0 M 39.5 56.8 C 38.9 56.2 40.0 56.3 39.5 56.8 M 38.7 63.9 C 38.2 63.1 39.2 63.5 38.7 63.9 M 39.0 54.0 C 38.5 53.1 39.8 53.6 39.0 54.0 M 39.8 34.7 C 39.8 36.1 39.3 34.3 39.8 34.7 M 38.6 61.1 C 38.0 60.1 39.5 60.8 38.6 61.1 M 39.9 62.4 C 39.9 62.4 39.9 62.4 39.9 62.4 M 38.5 33.5 C 38.5 33.4 38.5 33.4 38.5 33.5 M 38.4 38.5 C 38.5 37.4 38.8 39.0 38.4 38.5 M 43.8 36.5 C 43.8 35.3 44.1 37.0 43.8 36.5 M 38.4 30.8 C 38.0 30.0 39.0 30.1 38.4 30.8 M 39.6 27.3 C 39.1 26.6 40.1 26.3 39.6 27.3 M 41.3 57.4 C 41.4 57.4 41.4 57.4 41.3 57.4 C 41.3 57.4 41.3 57.4 41.3 57.4 Z M 42.7 47.4 C 42.1 48.7 43.3 45.8 42.7 47.4 M 39.1 49.9 C 40.2 48.9 39.1 51.4 39.1 49.9 C 39.1 49.9 39.1 49.9 39.1 49.9 Z M 39.6 51.5 C 39.7 51.5 39.7 51.5 39.6 51.5 C 39.6 51.5 39.6 51.5 39.6 51.5 Z M 39.7 46.1 C 39.7 46.2 39.7 46.2 39.7 46.1 C 39.7 46.1 39.7 46.1 39.7 46.1 Z M 39.8 47.2 C 40.0 47.6 39.6 47.9 39.8 47.2 C 39.8 47.2 39.8 47.2 39.8 47.2 Z M 43.3 38.1 C 43.5 38.5 43.0 38.8 43.3 38.1 C 43.3 38.1 43.3 38.1 43.3 38.1 Z M 40.2 48.8 C 41.3 48.7 39.5 49.7 40.2 48.8 C 40.2 48.8 40.2 48.8 40.2 48.8 Z M 42.8 42.2 C 42.5 41.8 43.8 40.8 42.8 42.2 M 38.6 32.3 C 38.4 32.0 39.7 30.8 38.6 32.3 M 38.3 43.5 C 38.0 43.1 39.4 42.1 38.3 43.5 M 39.0 56.3 C 39.1 56.1 39.1 56.1 39.0 56.3 M 43.7 49.2 C 43.3 48.5 44.2 48.7 43.7 49.2 M 43.3 60.6 C 42.9 59.8 43.8 60.2 43.3 60.6 M 43.7 31.4 C 43.4 31.6 43.8 30.1 43.7 31.4 M 40.1 41.6 C 40.2 40.5 40.8 39.3 40.7 41.4 C 40.5 41.6 40.3 41.0 40.1 41.6 C 40.1 41.6 40.1 41.6 40.1 41.6 Z M 42.6 37.0 C 42.7 36.8 42.7 36.8 42.6 37.0 M 39.1 40.2 C 39.2 40.0 39.2 40.0 39.1 40.2 M 39.2 34.4 C 39.3 34.2 39.3 34.2 39.2 34.4 M 38.9 33.9 C 38.9 33.9 38.9 33.9 38.9 33.9 C 38.9 33.9 38.9 33.9 38.9 33.9 Z M 38.4 27.9 C 38.5 27.9 38.5 27.9 38.4 27.9 C 38.4 27.9 38.4 27.9 38.4 27.9 Z M 39.3 36.2 C 39.4 36.2 39.4 36.2 39.3 36.2 C 39.3 36.2 39.3 36.2 39.3 36.2 Z M 43.5 28.8 C 43.5 28.7 43.5 28.7 43.5 28.8 C 43.5 28.8 43.5 28.8 43.5 28.8 Z M 42.8 29.8 C 42.9 29.8 42.9 29.8 42.8 29.8 C 42.8 29.8 42.8 29.8 42.8 29.8 Z M 38.7 59.5 C 37.9 58.7 40.6 59.0 38.7 59.5 M 42.8 26.8 C 43.6 25.5 43.0 28.3 42.8 26.8 C 42.8 26.8 42.8 26.8 42.8 26.8 Z M 40.2 36.5 C 40.4 36.3 40.4 36.3 40.2 36.5 M 39.0 33.5 C 39.1 33.3 39.1 33.3 39.0 33.5 M 38.1 50.1 C 38.3 50.0 38.3 50.0 38.1 50.1 M 39.2 29.0 C 39.4 26.2 40.7 29.3 39.2 29.0 M 39.2 51.2 C 39.1 51.2 39.1 51.2 39.2 51.2 M 41.2 44.6 C 41.2 42.8 41.8 45.1 41.2 44.6 M 39.8 40.4 C 39.9 40.4 39.9 40.4 39.8 40.4 C 39.8 40.4 39.8 40.4 39.8 40.4 Z M 39.8 43.1 C 40.0 44.3 39.5 43.5 39.8 43.1 C 39.8 43.1 39.8 43.1 39.8 43.1 Z M 39.7 58.2 C 39.8 56.5 40.0 60.0 39.7 58.2 C 39.7 58.2 39.7 58.2 39.7 58.2 Z M 41.7 28.8 C 41.8 28.8 41.8 28.8 41.7 28.8 C 41.7 28.8 41.7 28.8 41.7 28.8 Z M 38.6 36.9 C 38.8 37.5 38.2 37.4 38.6 36.9 C 38.6 36.9 38.6 36.9 38.6 36.9 Z M 38.4 27.0 C 38.7 27.6 38.1 27.6 38.4 27.0 C 38.4 27.0 38.4 27.0 38.4 27.0 Z M 39.5 60.3 C 41.3 53.8 39.0 68.5 39.5 60.3 C 39.5 60.3 39.5 60.3 39.5 60.3 Z M 39.1 42.3 C 39.2 42.3 39.2 42.3 39.1 42.3 C 39.1 42.3 39.1 42.3 39.1 42.3 Z M 38.3 53.7 C 38.4 53.7 38.4 53.7 38.3 53.7 C 38.3 53.7 38.3 53.7 38.3 53.7 Z M 39.4 55.5 C 39.4 55.6 39.4 55.6 39.4 55.5 C 39.4 55.5 39.4 55.5 39.4 55.5 Z M 43.6 54.5 C 43.7 54.6 43.7 54.6 43.6 54.5 C 43.6 54.5 43.6 54.5 43.6 54.5 Z M 41.7 54.0 C 41.8 54.1 41.8 54.1 41.7 54.0 C 41.7 54.0 41.7 54.0 41.7 54.0 Z M 42.4 58.2 C 42.5 58.2 42.5 58.2 42.4 58.2 C 42.4 58.2 42.4 58.2 42.4 58.2 Z M 43.0 58.1 C 43.0 58.1 43.0 58.1 43.0 58.1 C 43.0 58.1 43.0 58.1 43.0 58.1 Z M 40.2 32.9 C 40.3 32.9 40.3 32.9 40.2 32.9 C 40.2 32.9 40.2 32.9 40.2 32.9 Z M 42.0 34.2 C 41.3 33.0 42.9 34.2 42.0 34.2 C 42.0 34.2 42.0 34.2 42.0 34.2 Z M 41.1 47.8 C 40.9 46.5 41.6 48.5 41.1 47.8 C 41.1 47.8 41.1 47.8 41.1 47.8 Z M 43.4 45.7 C 43.4 45.7 43.4 45.7 43.4 45.7 C 43.4 45.7 43.4 45.7 43.4 45.7 Z M 38.3 55.6 C 38.4 55.7 38.4 55.7 38.3 55.6 C 38.3 55.6 38.3 55.6 38.3 55.6 Z M 39.0 58.0 C 40.0 58.0 38.6 58.7 39.0 58.0 M 38.5 45.9 C 38.6 45.9 38.6 45.9 38.5 45.9 C 38.5 45.9 38.5 45.9 38.5 45.9 Z M 39.9 37.7 C 40.0 37.7 40.0 37.7 39.9 37.7 C 39.9 37.7 39.9 37.7 39.9 37.7 Z M 39.4 30.3 C 39.5 30.2 39.5 30.2 39.4 30.3 C 39.4 30.3 39.4 30.3 39.4 30.3 Z M 38.6 41.2 C 38.8 41.1 38.8 41.1 38.6 41.2 C 38.6 41.2 38.6 41.2 38.6 41.2 Z M 39.5 44.5 C 39.6 44.5 39.6 44.5 39.5 44.5 C 39.5 44.5 39.5 44.5 39.5 44.5 Z M 40.6 27.8 C 40.7 27.9 40.7 27.9 40.6 27.8 C 40.6 27.8 40.6 27.8 40.6 27.8 Z M 38.5 40.4 C 38.5 40.4 38.5 40.4 38.5 40.4 C 38.5 40.4 38.5 40.4 38.5 40.4 Z M 41.4 37.0 C 41.4 37.0 41.4 37.0 41.4 37.0 C 41.4 37.0 41.4 37.0 41.4 37.0 Z M 37.8 57.7 C 37.8 57.7 37.8 57.7 37.8 57.7 C 37.8 57.7 37.8 57.7 37.8 57.7 Z M 39.4 28.5 C 39.5 28.5 39.5 28.5 39.4 28.5 C 39.4 28.5 39.4 28.5 39.4 28.5 Z M 38.6 28.5 C 38.7 28.5 38.7 28.5 38.6 28.5 C 38.6 28.5 38.6 28.5 38.6 28.5 Z M 42.9 31.7 C 42.4 34.8 42.7 29.2 41.7 31.8 C 41.5 27.9 42.9 31.1 42.9 31.7 C 42.9 31.7 42.9 31.7 42.9 31.7 Z M 38.3 25.1 C 39.5 25.8 40.7 25.1 41.9 23.6 C 42.6 22.4 40.1 24.0 42.2 22.6 C 42.6 24.2 45.3 19.7 42.6 21.6 C 42.2 19.4 44.3 20.0 43.3 19.3 C 43.0 16.9 43.8 17.6 43.6 15.8 C 42.2 15.7 44.3 14.0 43.0 14.6 C 44.5 14.4 42.5 12.8 43.2 12.2 C 44.1 13.3 43.2 5.2 42.8 10.4 C 42.1 9.1 43.3 8.3 43.5 7.5 C 42.6 7.5 44.2 3.6 43.3 3.3 C 43.1 3.7 43.1 4.4 42.8 4.8 C 42.2 5.7 42.9 3.4 42.9 3.6 C 42.8 3.5 42.7 3.3 42.7 3.2 C 42.3 2.4 42.0 1.3 43.2 2.6 C 43.2 2.6 43.2 2.6 43.2 2.7 C 43.3 2.6 43.4 2.5 43.4 2.4 C 43.2 2.1 40.2 2.8 40.7 2.3 C 37.6 2.2 38.8 3.7 38.3 2.6 C 36.1 2.6 34.5 2.6 34.4 2.8 C 33.1 2.6 33.2 1.8 31.6 2.6 C 29.3 1.0 28.7 5.6 28.7 2.5 C 27.7 3.3 27.4 1.2 27.1 3.2 C 28.2 2.3 22.5 1.7 24.9 3.1 C 24.3 3.5 20.6 1.1 21.3 3.0 C 20.3 4.4 20.7 5.9 23.0 7.2 C 22.8 6.1 25.1 8.4 23.7 6.5 C 21.7 5.8 27.4 5.8 26.1 6.5 C 25.4 8.7 29.2 5.1 29.7 6.7 C 29.1 5.8 34.0 5.3 31.7 7.0 C 32.4 7.2 33.1 6.4 33.3 7.3 C 30.9 7.2 35.6 5.6 34.6 6.6 C 33.8 7.2 37.0 7.8 37.5 6.8 C 38.1 4.6 38.1 6.9 39.3 6.5 C 39.3 6.5 39.4 6.6 39.5 6.6 C 40.0 8.4 37.5 8.2 39.2 8.2 C 38.9 8.9 38.9 12.0 38.4 10.5 C 38.6 9.6 41.0 10.0 39.0 12.1 C 37.8 9.9 38.3 16.4 39.0 14.8 C 40.0 8.7 40.2 19.2 39.1 16.0 C 38.0 19.2 38.7 15.7 39.2 18.1 C 39.8 17.3 40.4 19.0 39.1 19.4 C 37.2 21.3 41.6 18.3 39.1 22.0 C 38.0 23.0 39.9 24.8 38.6 24.4 C 38.5 24.4 38.3 25.0 38.3 25.1 M 38.5 24.0 C 38.9 24.1 38.0 24.9 38.5 24.0 M 38.9 24.1 C 38.9 24.2 38.9 24.2 38.9 24.1 C 38.9 24.1 38.9 24.1 38.9 24.1 Z M 39.2 18.5 C 39.2 18.6 39.2 18.6 39.2 18.5 C 39.2 18.5 39.2 18.5 39.2 18.5 Z M 44.0 10.1 C 43.9 10.2 43.9 10.2 44.0 10.1 C 44.0 10.1 44.0 10.1 44.0 10.1 Z M 39.3 14.8 C 39.3 14.8 39.3 14.8 39.3 14.8 C 39.3 14.8 39.3 14.8 39.3 14.8 Z M 39.5 20.2 C 39.5 20.2 39.5 20.2 39.5 20.2 C 39.5 20.2 39.5 20.2 39.5 20.2 Z M 38.6 15.7 C 39.4 14.8 38.1 17.4 38.5 15.7 C 38.6 15.7 38.6 15.9 38.6 15.7 M 38.4 11.3 C 38.4 11.2 38.4 11.2 38.4 11.3 M 36.2 1.9 C 36.2 1.8 36.2 1.8 36.2 1.9 M 31.9 7.5 C 31.9 7.4 31.9 7.4 31.9 7.5 M 38.4 6.7 C 37.0 6.8 38.4 6.4 38.4 6.7 M 28.8 7.1 C 30.2 7.6 26.9 7.5 28.8 7.1 M 27.1 7.5 C 26.9 7.5 26.9 7.5 27.1 7.5 M 34.4 7.3 C 34.5 7.2 34.5 7.2 34.4 7.3 C 34.4 7.3 34.4 7.3 34.4 7.3 Z M 38.7 7.0 C 38.7 7.0 38.7 7.0 38.8 7.1 C 38.6 7.9 38.5 7.7 38.4 7.4 C 37.9 7.5 37.4 7.4 38.7 7.0 M 38.5 18.4 C 38.2 17.7 39.5 17.7 38.5 18.4 M 38.9 20.2 C 39.0 20.2 39.0 20.2 38.9 20.2 C 38.9 20.2 38.9 20.2 38.9 20.2 Z M 31.3 7.2 C 31.4 7.1 31.4 7.1 31.3 7.2 C 31.3 7.2 31.3 7.2 31.3 7.2 Z M 29.4 7.3 C 29.5 7.3 29.5 7.3 29.4 7.3 C 29.4 7.3 29.4 7.3 29.4 7.3 Z M 27.4 2.1 C 27.5 2.0 27.5 2.0 27.4 2.1 C 27.4 2.1 27.4 2.1 27.4 2.1 Z M 41.1 16.9 C 40.7 18.6 39.4 16.8 40.7 16.1 C 41.2 15.5 41.0 16.9 41.1 16.9 M 40.4 6.7 C 42.1 4.6 38.0 10.4 40.4 6.7 M 27.1 6.4 C 26.2 4.2 28.3 7.8 27.1 6.4 M 24.4 6.7 C 23.7 6.3 29.4 6.5 25.3 7.0 C 24.9 7.4 24.7 7.0 24.4 6.7 M 39.2 10.5 C 40.2 9.1 38.8 13.1 39.2 10.5 M 36.9 3.7 C 35.7 4.3 33.5 4.8 35.0 3.8 C 35.9 2.4 38.2 3.1 36.9 3.7 M 39.5 22.9 C 37.9 22.8 40.9 22.0 39.5 22.9 M 39.7 17.2 C 39.6 17.3 39.6 17.3 39.7 17.2 C 39.7 17.2 39.7 17.2 39.7 17.2 Z M 39.4 15.3 C 39.5 15.1 39.5 15.1 39.4 15.3 M 38.1 23.0 C 38.3 22.8 38.3 22.8 38.1 23.0 M 35.8 5.3 C 35.8 5.2 35.8 5.2 35.8 5.3 M 39.2 6.3 C 38.5 4.8 40.6 6.0 39.2 6.3 M 42.5 8.4 C 43.2 7.1 42.5 9.8 42.5 8.4 M 35.4 6.9 C 35.1 5.4 38.6 5.5 35.4 6.9 M 39.3 7.2 C 39.3 7.1 39.3 7.1 39.3 7.2 C 39.3 7.2 39.3 7.2 39.3 7.2 Z M 36.4 3.5 C 36.5 3.5 36.5 3.5 36.4 3.5 C 36.4 3.5 36.4 3.5 36.4 3.5 Z M 35.7 3.6 C 35.8 3.5 35.8 3.5 35.7 3.6 C 35.7 3.6 35.7 3.6 35.7 3.6 Z M 33.7 7.1 C 33.7 7.0 33.7 7.0 33.7 7.1 C 33.7 7.1 33.7 7.1 33.7 7.1 Z M 43.0 17.3 C 43.1 15.6 43.2 18.4 43.0 17.3 C 43.0 17.3 43.0 17.3 43.0 17.3 Z M 38.7 14.0 C 39.8 10.5 39.8 14.8 38.7 14.0 C 38.7 14.0 38.7 14.0 38.7 14.0 Z M 40.6 9.5 C 40.7 9.4 40.7 9.4 40.6 9.5 C 40.6 9.5 40.6 9.5 40.6 9.5 Z M 35.5 7.8 C 35.6 7.7 35.6 7.7 35.5 7.8 C 35.5 7.8 35.5 7.8 35.5 7.8 Z M 43.2 16.3 C 43.3 16.3 43.3 16.3 43.2 16.3 C 43.2 16.3 43.2 16.3 43.2 16.3 Z M 30.2 6.3 C 30.2 6.2 30.2 6.2 30.2 6.3 C 30.2 6.3 30.2 6.3 30.2 6.3 Z M 41.1 3.3 C 40.0 3.8 41.4 2.8 41.1 3.3 C 41.1 3.3 41.1 3.3 41.1 3.3 Z M 38.6 3.2 C 38.6 3.3 38.6 3.3 38.6 3.2 C 38.6 3.2 38.6 3.2 38.6 3.2 Z M 26.5 7.6 C 26.5 7.6 26.5 7.6 26.5 7.6 C 26.5 7.6 26.5 7.6 26.5 7.6 Z M 32.9 1.9 C 32.8 1.9 32.8 1.9 32.9 1.9 C 32.9 1.9 32.9 1.9 32.9 1.9 Z M 30.0 3.6 C 30.1 3.6 30.1 3.6 30.0 3.6 C 30.0 3.6 30.0 3.6 30.0 3.6 Z M 34.3 6.7 C 32.1 7.0 35.2 6.1 34.3 6.7 C 34.3 6.7 34.3 6.7 34.3 6.7 Z M 23.9 4.1 C 23.9 4.0 23.9 4.0 23.9 4.1 C 23.9 4.1 23.9 4.1 23.9 4.1 Z M 22.7 6.1 C 22.7 6.0 22.7 6.0 22.7 6.1 C 22.7 6.1 22.7 6.1 22.7 6.1 Z M 22.3 7.2 C 22.2 7.1 22.2 7.1 22.3 7.2 C 22.3 7.2 22.3 7.2 22.3 7.2 Z M 41.6 13.5 C 41.5 13.6 41.5 13.6 41.6 13.5 C 41.6 13.5 41.6 13.5 41.6 13.5 Z M 38.3 17.1 C 38.3 17.2 38.3 17.2 38.3 17.1 C 38.3 17.1 38.3 17.1 38.3 17.1 Z M 38.1 14.3 C 38.1 14.3 38.1 14.3 38.1 14.3 C 38.1 14.3 38.1 14.3 38.1 14.3 Z M 43.6 12.4 C 43.5 12.5 43.5 12.5 43.6 12.4 C 43.6 12.4 43.6 12.4 43.6 12.4 Z M 38.8 5.0 C 38.8 5.1 38.8 5.1 38.8 5.0 C 38.8 5.0 38.8 5.0 38.8 5.0 Z M 38.9 3.7 C 38.9 3.8 38.9 3.8 38.9 3.7 C 38.9 3.7 38.9 3.7 38.9 3.7 Z M 43.5 1.9 C 43.5 2.0 43.5 2.0 43.5 1.9 C 43.5 1.9 43.5 1.9 43.5 1.9 Z M 38.9 2.6 C 38.9 2.6 38.9 2.6 38.9 2.6 C 38.9 2.6 38.9 2.6 38.9 2.6 Z M 43.0 21.0 C 43.0 21.0 43.0 21.0 43.0 21.0 C 43.0 21.0 43.0 21.0 43.0 21.0 Z M 40.4 23.0 C 40.5 23.0 40.5 23.0 40.4 23.0 C 40.4 23.0 40.4 23.0 40.4 23.0 Z M 36.9 6.9 C 36.0 7.4 36.5 6.1 36.9 6.9 M 39.3 8.6 C 39.3 8.6 39.3 8.6 39.3 8.6 C 39.3 8.6 39.3 8.6 39.3 8.6 Z M 30.3 6.8 C 30.2 5.8 31.9 7.3 30.3 6.8 C 30.3 6.8 30.3 6.8 30.3 6.8 Z M 34.9 2.6 C 34.8 2.6 34.8 2.6 34.9 2.6 C 34.9 2.6 34.9 2.6 34.9 2.6 Z M 33.3 3.0 C 33.3 2.9 33.3 2.9 33.3 3.0 C 33.3 3.0 33.3 3.0 33.3 3.0 Z M 25.8 5.7 C 25.7 5.6 25.7 5.6 25.8 5.7 M 38.4 10.0 C 38.8 9.0 38.7 9.2 38.4 10.0 M 29.0 6.7 C 29.1 6.7 29.1 6.7 29.0 6.7 C 29.0 6.7 29.0 6.7 29.0 6.7 Z M 24.4 6.3 C 24.5 6.2 24.5 6.2 24.4 6.3 C 24.4 6.3 24.4 6.3 24.4 6.3 Z M 39.0 12.4 C 40.3 11.2 40.0 12.1 39.0 12.4 M 39.4 20.7 C 39.5 20.6 39.5 20.6 39.4 20.7 C 39.4 20.7 39.4 20.7 39.4 20.7 Z M 18.2 7.1 C 20.5 8.5 20.2 6.6 20.2 6.5 C 20.4 9.1 22.1 5.5 21.6 5.0 C 21.7 4.7 19.0 0.2 17.6 2.9 C 17.2 3.3 16.6 2.5 16.2 2.4 C 13.0 2.5 18.9 3.8 15.0 3.8 C 14.2 3.4 14.1 1.3 12.4 2.8 C 12.2 2.6 8.9 1.8 10.6 2.8 C 8.7 1.8 8.6 3.0 7.6 3.2 C 6.1 2.6 7.4 1.7 4.4 2.8 C 3.3 2.2 2.8 2.2 2.5 2.3 C 2.8 3.3 3.7 4.7 2.4 4.4 C 2.3 5.2 5.5 9.6 3.7 5.9 C 3.9 6.3 5.4 6.6 4.9 8.8 C 4.5 8.0 1.3 3.3 2.8 9.2 C 2.7 9.9 3.5 12.3 3.2 12.4 C 2.8 9.8 1.8 14.2 2.7 14.5 C 2.1 17.5 3.5 16.7 2.5 18.3 C 2.4 20.4 3.9 18.9 3.1 20.7 C 3.2 22.8 2.4 20.8 2.5 20.7 C 2.3 22.2 2.9 23.3 2.9 23.9 C 2.7 24.1 2.0 24.4 2.8 25.4 C 4.3 28.3 5.8 27.9 7.2 29.8 C 7.9 29.1 6.1 28.4 7.2 28.4 C 6.3 27.0 7.3 28.4 7.1 24.8 C 6.9 24.7 6.2 25.0 6.1 24.1 C 6.2 22.8 8.7 25.9 7.0 22.2 C 6.5 24.3 6.2 17.8 5.7 19.8 C 5.4 16.5 5.9 19.1 6.5 17.4 C 4.8 16.0 8.2 18.9 6.9 16.8 C 7.6 17.3 7.3 13.6 6.3 15.1 C 5.8 11.1 6.8 14.2 7.7 13.8 C 7.8 12.2 4.9 11.1 7.0 12.0 C 7.9 10.8 6.0 10.9 7.6 10.9 C 6.2 10.2 7.6 9.4 6.1 8.4 C 5.9 4.6 7.7 10.5 6.6 6.9 C 6.6 7.5 8.0 8.8 7.7 7.5 C 7.8 7.4 7.9 7.3 7.9 7.1 C 4.8 4.7 11.6 9.3 7.7 6.0 C 12.0 5.1 9.7 7.4 12.1 7.4 C 12.8 7.4 10.7 6.3 11.2 6.3 C 14.8 6.8 12.7 7.6 13.4 6.0 C 16.7 5.6 15.1 7.4 16.7 7.5 C 16.5 6.7 17.4 5.4 18.2 7.1 M 15.0 6.4 C 14.6 6.9 14.3 5.8 15.0 6.4 M 21.7 7.1 C 21.1 7.6 21.3 6.6 21.7 7.1 M 12.6 6.8 C 12.1 7.4 11.7 6.0 12.6 6.8 M 6.2 19.2 C 6.2 17.9 6.7 20.2 6.2 19.2 M 19.2 7.2 C 18.5 7.8 18.7 6.3 19.2 7.2 M 20.2 6.0 C 20.1 5.9 20.1 5.9 20.2 6.0 M 7.5 22.3 C 7.5 22.3 7.5 22.3 7.5 22.3 M 7.6 17.2 C 7.5 18.2 7.2 16.3 7.6 17.2 M 2.2 12.1 C 2.2 13.2 1.9 11.1 2.2 12.1 M 7.6 25.1 C 8.0 26.6 7.0 25.0 7.6 25.1 M 6.4 27.1 C 6.9 28.4 5.9 27.3 6.4 27.1 M 14.8 4.5 C 14.7 4.4 14.7 4.4 14.8 4.5 C 14.8 4.5 14.8 4.5 14.8 4.5 Z M 3.7 3.1 C 4.7 3.5 3.7 3.1 3.2 3.0 C 3.1 3.1 3.1 3.1 3.2 3.0 C 3.3 3.0 3.5 3.1 3.7 3.1 M 8.7 6.7 C 7.0 5.6 10.1 6.7 8.7 6.7 C 8.7 6.7 8.7 6.7 8.7 6.7 Z M 9.8 6.2 C 9.8 6.1 9.8 6.1 9.8 6.2 C 9.8 6.2 9.8 6.2 9.8 6.2 Z M 6.3 7.8 C 6.3 7.7 6.3 7.7 6.3 7.8 C 6.3 7.8 6.3 7.8 6.3 7.8 Z M 6.2 6.6 C 6.0 5.9 6.4 6.2 6.2 6.6 C 6.2 6.6 6.2 6.6 6.2 6.6 Z M 2.7 11.2 C 2.5 10.5 3.0 10.8 2.7 11.2 C 2.7 11.2 2.7 11.2 2.7 11.2 Z M 6.9 5.6 C 6.0 4.5 8.3 6.4 6.9 5.6 C 6.9 5.6 6.9 5.6 6.9 5.6 Z M 3.2 7.8 C 3.5 8.6 2.2 7.8 3.2 7.8 M 7.4 23.2 C 7.6 23.9 6.3 23.3 7.4 23.2 M 7.7 12.2 C 8.0 13.0 6.6 12.2 7.7 12.2 M 14.7 6.8 C 14.5 6.7 14.5 6.7 14.7 6.8 M 4.9 2.1 C 4.4 2.5 4.0 1.6 4.9 2.1 M 17.4 2.5 C 16.7 2.9 16.9 2.0 17.4 2.5 M 2.3 17.2 C 2.6 17.4 2.2 18.3 2.3 17.2 M 5.9 11.9 C 5.8 12.8 5.2 13.3 5.3 11.2 C 5.5 11.3 5.7 12.1 5.9 11.9 C 5.9 11.9 5.9 11.9 5.9 11.9 Z M 3.4 13.2 C 3.3 13.3 3.3 13.3 3.4 13.2 M 6.9 14.6 C 6.8 14.7 6.8 14.7 6.9 14.6 M 6.8 20.3 C 6.7 20.3 6.7 20.3 6.8 20.3 M 7.1 21.3 C 7.1 21.2 7.1 21.2 7.1 21.3 C 7.1 21.3 7.1 21.3 7.1 21.3 Z M 7.6 28.0 C 7.5 27.9 7.5 27.9 7.6 28.0 C 7.6 28.0 7.6 28.0 7.6 28.0 Z M 6.7 18.3 C 6.6 18.3 6.6 18.3 6.7 18.3 C 6.7 18.3 6.7 18.3 6.7 18.3 Z M 2.5 20.1 C 2.5 20.0 2.5 20.0 2.5 20.1 C 2.5 20.1 2.5 20.1 2.5 20.1 Z M 3.2 19.9 C 3.1 19.9 3.1 19.9 3.2 19.9 C 3.2 19.9 3.2 19.9 3.2 19.9 Z M 17.7 7.1 C 17.3 7.9 16.6 5.2 17.7 7.1 M 3.2 22.9 C 2.4 23.1 3.0 21.2 3.2 22.9 C 3.2 22.9 3.2 22.9 3.2 22.9 Z M 5.8 16.8 C 5.6 16.8 5.6 16.8 5.8 16.8 M 7.0 21.6 C 6.9 21.5 6.9 21.5 7.0 21.6 M 9.6 7.7 C 9.4 7.5 9.4 7.5 9.6 7.7 M 6.8 25.9 C 6.6 28.4 5.3 23.3 6.8 25.9 M 9.8 6.6 C 10.0 6.7 10.0 6.7 9.8 6.6 M 4.8 7.4 C 4.8 9.3 4.2 6.1 4.8 7.4 M 6.2 13.4 C 6.1 13.3 6.1 13.3 6.2 13.4 C 6.2 13.4 6.2 13.4 6.2 13.4 Z M 6.2 10.7 C 6.0 9.2 6.5 10.6 6.2 10.7 C 6.2 10.7 6.2 10.7 6.2 10.7 Z M 16.2 6.1 C 14.5 6.0 17.8 5.8 16.2 6.1 C 16.2 6.1 16.2 6.1 16.2 6.1 Z M 4.3 22.5 C 4.2 22.4 4.2 22.4 4.3 22.5 C 4.3 22.5 4.3 22.5 4.3 22.5 Z M 7.4 18.7 C 7.2 17.7 7.8 18.6 7.4 18.7 C 7.4 18.7 7.4 18.7 7.4 18.7 Z M 7.6 28.9 C 7.3 27.9 7.9 28.8 7.6 28.9 C 7.6 28.9 7.6 28.9 7.6 28.9 Z M 18.2 6.3 C 11.2 4.5 25.9 6.8 18.2 6.3 C 18.2 6.3 18.2 6.3 18.2 6.3 Z M 6.9 12.5 C 6.8 12.4 6.8 12.4 6.9 12.5 C 6.9 12.5 6.9 12.5 6.9 12.5 Z M 12.7 7.5 C 12.7 7.4 12.7 7.4 12.7 7.5 C 12.7 7.5 12.7 7.5 12.7 7.5 Z M 13.8 6.5 C 13.8 6.4 13.8 6.4 13.8 6.5 C 13.8 6.5 13.8 6.5 13.8 6.5 Z M 10.8 2.2 C 10.8 2.1 10.8 2.1 10.8 2.2 C 10.8 2.2 10.8 2.2 10.8 2.2 Z M 11.2 4.2 C 11.2 4.0 11.2 4.0 11.2 4.2 C 11.2 4.2 11.2 4.2 11.2 4.2 Z M 15.2 3.4 C 15.2 3.3 15.2 3.3 15.2 3.4 C 15.2 3.4 15.2 3.4 15.2 3.4 Z M 14.9 2.8 C 14.9 2.8 14.9 2.8 14.9 2.8 C 14.9 2.8 14.9 2.8 14.9 2.8 Z M 5.8 20.5 C 5.7 20.4 5.7 20.4 5.8 20.5 C 5.8 20.5 5.8 20.5 5.8 20.5 Z M 4.0 16.8 C 4.7 18.8 3.1 15.5 4.0 16.8 C 4.0 16.8 4.0 16.8 4.0 16.8 Z M 5.2 4.7 C 5.1 4.7 5.0 4.8 5.0 4.8 C 5.0 5.0 4.9 4.9 4.9 4.7 C 5.0 4.5 5.5 4.4 5.2 4.7 C 5.2 4.7 5.2 4.7 5.2 4.7 Z M 2.6 3.6 C 2.6 3.6 2.6 3.6 2.6 3.6 C 2.6 3.6 2.6 3.6 2.6 3.6 Z M 14.4 7.5 C 14.4 7.4 14.4 7.4 14.4 7.5 C 14.4 7.5 14.4 7.5 14.4 7.5 Z M 16.2 6.8 C 15.9 5.9 17.1 7.2 16.2 6.8 M 7.5 9.4 C 7.4 9.3 7.4 9.3 7.5 9.4 C 7.5 9.4 7.5 9.4 7.5 9.4 Z M 6.1 16.0 C 6.0 15.9 6.0 15.9 6.1 16.0 C 6.1 16.0 6.1 16.0 6.1 16.0 Z M 6.6 24.3 C 6.5 24.2 6.5 24.2 6.6 24.3 C 6.6 24.3 6.6 24.3 6.6 24.3 Z M 7.4 14.2 C 7.2 14.0 7.2 14.0 7.4 14.2 C 7.4 14.2 7.4 14.2 7.4 14.2 Z M 6.5 9.7 C 6.4 9.5 6.4 9.5 6.5 9.7 C 6.5 9.7 6.5 9.7 6.5 9.7 Z M 5.4 25.0 C 5.3 24.9 5.3 24.9 5.4 25.0 C 5.4 25.0 5.4 25.0 5.4 25.0 Z M 7.5 15.2 C 7.5 15.1 7.5 15.1 7.5 15.2 C 7.5 15.2 7.5 15.2 7.5 15.2 Z M 4.6 14.8 C 4.6 14.7 4.6 14.7 4.6 14.8 C 4.6 14.8 4.6 14.8 4.6 14.8 Z M 16.5 8.0 C 16.5 8.0 16.5 8.0 16.5 8.0 C 16.5 8.0 16.5 8.0 16.5 8.0 Z M 6.6 26.0 C 6.5 26.0 6.5 26.0 6.6 26.0 C 6.6 26.0 6.6 26.0 6.6 26.0 Z M 7.4 27.2 C 7.3 27.1 7.3 27.1 7.4 27.2 C 7.4 27.2 7.4 27.2 7.4 27.2 Z M 3.1 18.0 C 3.6 15.6 3.3 20.7 4.3 19.5 C 4.5 23.7 3.1 18.5 3.1 18.0 C 3.1 18.0 3.1 18.0 3.1 18.0 Z M 7.7 31.1 C 6.5 28.6 5.3 27.7 4.1 27.4 C 3.4 27.6 5.9 29.5 3.8 27.9 C 3.4 25.8 0.7 26.3 3.4 28.3 C 3.8 31.0 1.7 27.4 2.7 29.7 C 3.0 32.4 2.2 30.5 2.4 32.6 C 3.8 34.8 1.7 33.2 3.0 34.7 C 1.5 32.7 3.5 37.1 2.8 36.7 C 1.9 34.2 2.8 43.5 3.2 39.1 C 3.9 41.5 2.7 40.3 2.5 40.8 C 3.4 42.2 1.8 43.5 2.7 45.2 C 2.9 45.1 2.9 44.6 3.2 44.6 C 3.8 44.6 3.1 45.8 3.1 45.7 C 3.4 46.7 4.3 50.3 2.8 46.0 C 2.1 45.4 3.1 48.9 2.5 48.4 C 2.4 51.3 3.9 50.0 2.8 50.6 C 2.8 52.6 2.8 54.1 3.0 54.2 C 2.8 55.3 2.0 55.1 2.8 56.7 C 1.2 58.4 5.8 60.0 2.7 59.3 C 3.5 60.4 1.4 60.1 3.3 61.0 C 2.5 59.7 1.9 64.5 3.2 62.9 C 3.7 63.7 1.3 65.8 3.2 66.2 C 4.6 68.0 6.0 68.4 7.4 66.6 C 6.3 66.4 8.5 64.6 6.7 65.5 C 6.0 67.3 6.0 61.4 6.7 63.0 C 8.9 64.4 5.3 59.4 6.9 59.0 C 6.0 59.5 5.5 54.5 7.2 56.8 C 7.3 56.0 6.5 55.3 7.5 54.9 C 7.4 57.7 5.8 52.8 6.8 53.6 C 7.4 54.4 7.9 50.5 7.0 50.4 C 4.6 50.5 7.5 49.5 6.5 48.2 C 6.0 45.6 8.5 49.8 6.8 47.0 C 7.1 46.8 7.1 43.6 7.6 45.9 C 7.4 46.5 5.0 42.4 7.0 43.4 C 8.2 47.4 7.7 40.0 7.0 40.7 C 6.0 45.1 5.8 34.3 6.9 39.1 C 8.0 37.6 7.3 40.1 6.8 36.9 C 6.2 36.9 5.6 34.2 6.9 35.6 C 8.8 36.6 4.4 33.0 6.9 33.2 C 8.0 33.8 6.1 29.1 7.4 31.3 C 7.5 31.5 7.7 31.2 7.7 31.1 M 7.5 31.9 C 7.1 31.2 8.0 31.7 7.5 31.9 M 7.1 31.2 C 7.1 31.2 7.1 31.2 7.1 31.2 C 7.1 31.2 7.1 31.2 7.1 31.2 Z M 6.8 36.5 C 6.8 36.5 6.8 36.5 6.8 36.5 C 6.8 36.5 6.8 36.5 6.8 36.5 Z M 2.0 37.5 C 2.1 37.5 2.1 37.5 2.0 37.5 C 2.0 37.5 2.0 37.5 2.0 37.5 Z M 6.7 40.1 C 6.7 40.0 6.7 40.0 6.7 40.1 C 6.7 40.1 6.7 40.1 6.7 40.1 Z M 6.5 34.3 C 6.5 34.2 6.5 34.2 6.5 34.3 C 6.5 34.3 6.5 34.3 6.5 34.3 Z M 7.4 40.2 C 6.6 40.0 7.9 39.3 7.5 40.3 C 7.4 40.4 7.4 40.1 7.4 40.2 M 7.6 45.1 C 7.6 45.1 7.6 45.1 7.6 45.1 M 2.1 52.5 C 2.0 52.5 2.0 52.5 2.1 52.5 M 7.7 56.5 C 7.6 56.6 7.6 56.6 7.7 56.5 M 6.9 49.4 C 7.0 50.9 6.6 49.6 6.9 49.4 M 7.3 60.1 C 7.8 58.5 7.7 62.3 7.3 60.1 M 7.7 62.1 C 7.6 62.2 7.6 62.2 7.7 62.1 M 7.4 53.7 C 7.4 53.6 7.4 53.6 7.4 53.7 C 7.4 53.7 7.4 53.7 7.4 53.7 Z M 7.2 49.0 C 7.6 47.3 7.9 51.3 7.2 49.0 M 7.5 37.6 C 7.8 38.9 6.5 36.9 7.5 37.6 M 7.1 35.2 C 7.0 35.1 7.0 35.1 7.1 35.2 C 7.1 35.2 7.1 35.2 7.1 35.2 Z M 7.3 57.2 C 7.3 57.1 7.3 57.1 7.3 57.2 C 7.3 57.2 7.3 57.2 7.3 57.2 Z M 7.5 59.4 C 7.4 59.3 7.4 59.3 7.5 59.4 C 7.5 59.4 7.5 59.4 7.5 59.4 Z M 2.3 60.3 C 2.2 60.2 2.2 60.2 2.3 60.3 C 2.3 60.3 2.3 60.3 2.3 60.3 Z M 4.9 35.2 C 5.3 34.0 6.6 37.9 5.3 36.7 C 4.8 36.5 5.0 35.4 4.9 35.2 M 5.6 46.6 C 3.9 45.9 8.0 46.7 5.6 46.6 M 6.5 61.8 C 4.4 62.2 8.0 60.7 6.5 61.8 M 6.9 64.8 C 6.5 65.5 6.7 59.3 7.2 64.0 C 7.6 64.6 7.1 64.7 6.9 64.8 M 6.8 44.7 C 5.8 44.4 7.2 42.7 6.8 44.7 M 3.8 51.8 C 4.5 52.8 5.0 55.0 3.9 53.6 C 2.6 52.8 3.3 50.6 3.8 51.8 M 6.5 31.6 C 8.1 34.0 5.1 30.5 6.5 31.6 M 6.3 37.1 C 6.4 37.1 6.4 37.1 6.3 37.1 C 6.3 37.1 6.3 37.1 6.3 37.1 Z M 6.6 39.5 C 6.5 39.5 6.5 39.5 6.6 39.5 M 7.9 33.5 C 7.7 33.6 7.7 33.6 7.9 33.5 M 5.5 52.6 C 5.3 52.7 5.3 52.7 5.5 52.6 M 6.5 48.8 C 5.0 50.0 6.2 47.4 6.5 48.8 M 3.5 41.5 C 2.8 41.7 3.5 40.1 3.5 41.5 M 7.1 52.6 C 5.6 53.3 5.7 49.7 7.1 52.6 M 6.7 47.8 C 6.7 47.9 6.7 47.9 6.7 47.8 C 6.7 47.8 6.7 47.8 6.7 47.8 Z M 3.7 52.2 C 3.7 52.2 3.7 52.2 3.7 52.2 C 3.7 52.2 3.7 52.2 3.7 52.2 Z M 3.8 53.0 C 3.7 52.9 3.7 52.9 3.8 53.0 C 3.8 53.0 3.8 53.0 3.8 53.0 Z M 7.3 54.6 C 7.2 54.5 7.2 54.5 7.3 54.6 C 7.3 54.6 7.3 54.6 7.3 54.6 Z M 3.0 32.0 C 2.9 33.5 2.8 30.6 3.0 32.0 C 3.0 32.0 3.0 32.0 3.0 32.0 Z M 7.3 41.9 C 6.2 43.7 6.2 39.4 7.3 41.9 C 7.3 41.9 7.3 41.9 7.3 41.9 Z M 5.4 43.5 C 5.3 43.4 5.3 43.4 5.4 43.5 C 5.4 43.5 5.4 43.5 5.4 43.5 Z M 8.0 52.2 C 7.9 52.1 7.9 52.1 8.0 52.2 C 8.0 52.2 8.0 52.2 8.0 52.2 Z M 2.8 32.6 C 2.7 32.6 2.7 32.6 2.8 32.6 C 2.8 32.6 2.8 32.6 2.8 32.6 Z M 6.5 58.5 C 6.4 58.4 6.4 58.4 6.5 58.5 C 6.5 58.5 6.5 58.5 6.5 58.5 Z M 3.5 47.9 C 4.0 48.8 3.0 47.7 3.5 47.9 C 3.5 47.9 3.5 47.9 3.5 47.9 Z M 3.4 50.2 C 3.4 50.3 3.4 50.3 3.4 50.2 C 3.4 50.2 3.4 50.2 3.4 50.2 Z M 7.8 62.7 C 7.8 62.8 7.8 62.8 7.8 62.7 C 7.8 62.7 7.8 62.7 7.8 62.7 Z M 2.0 55.4 C 2.1 55.5 2.1 55.5 2.0 55.4 C 2.0 55.4 2.0 55.4 2.0 55.4 Z M 3.8 58.3 C 3.8 58.3 3.8 58.3 3.8 58.3 C 3.8 58.3 3.8 58.3 3.8 58.3 Z M 6.9 54.0 C 7.2 56.4 6.3 53.1 6.9 54.0 C 6.9 54.0 6.9 54.0 6.9 54.0 Z M 4.3 64.3 C 4.2 64.3 4.2 64.3 4.3 64.3 C 4.3 64.3 4.3 64.3 4.3 64.3 Z M 6.3 66.4 C 6.2 66.4 6.2 66.4 6.3 66.4 C 6.3 66.4 6.3 66.4 6.3 66.4 Z M 7.3 67.4 C 7.2 67.5 7.2 67.5 7.3 67.4 C 7.3 67.4 7.3 67.4 7.3 67.4 Z M 4.4 37.9 C 4.5 37.9 4.5 37.9 4.4 37.9 C 4.4 37.9 4.4 37.9 4.4 37.9 Z M 7.7 39.3 C 7.7 39.3 7.7 39.3 7.7 39.3 C 7.7 39.3 7.7 39.3 7.7 39.3 Z M 7.9 42.5 C 7.9 42.5 7.9 42.5 7.9 42.5 C 7.9 42.5 7.9 42.5 7.9 42.5 Z M 2.4 35.9 C 2.5 35.9 2.5 35.9 2.4 35.9 C 2.4 35.9 2.4 35.9 2.4 35.9 Z M 5.2 49.6 C 5.3 49.6 5.3 49.6 5.2 49.6 C 5.2 49.6 5.2 49.6 5.2 49.6 Z M 3.9 49.9 C 4.0 49.9 4.0 49.9 3.9 49.9 C 3.9 49.9 3.9 49.9 3.9 49.9 Z M 2.1 46.1 C 2.2 46.1 2.2 46.1 2.1 46.1 C 2.1 46.1 2.1 46.1 2.1 46.1 Z M 2.8 50.1 C 2.8 50.1 2.8 50.1 2.8 50.1 C 2.8 50.1 2.8 50.1 2.8 50.1 Z M 3.0 28.4 C 3.0 28.3 3.0 28.3 3.0 28.4 C 3.0 28.4 3.0 28.4 3.0 28.4 Z M 5.6 30.1 C 5.5 30.0 5.5 30.0 5.6 30.1 C 5.6 30.1 5.6 30.1 5.6 30.1 Z M 7.1 51.0 C 7.6 51.9 6.3 51.7 7.1 51.0 M 6.7 46.4 C 6.7 46.4 6.7 46.4 6.7 46.4 C 6.7 46.4 6.7 46.4 6.7 46.4 Z M 7.0 58.3 C 6.0 58.4 7.5 56.6 7.0 58.3 C 7.0 58.3 7.0 58.3 7.0 58.3 Z M 2.8 53.7 C 2.7 53.7 2.7 53.7 2.8 53.7 C 2.8 53.7 2.8 53.7 2.8 53.7 Z M 3.2 55.1 C 3.1 55.2 3.1 55.2 3.2 55.1 C 3.2 55.1 3.2 55.1 3.2 55.1 Z M 5.9 63.0 C 5.8 63.1 5.8 63.1 5.9 63.0 M 7.6 46.5 C 7.2 46.8 7.3 46.8 7.6 46.5 M 6.9 59.8 C 6.9 59.7 6.9 59.7 6.9 59.8 C 6.9 59.8 6.9 59.8 6.9 59.8 Z M 6.5 64.7 C 6.4 64.6 6.4 64.6 6.5 64.7 C 6.5 64.7 6.5 64.7 6.5 64.7 Z M 7.0 42.9 C 5.7 42.2 6.0 41.8 7.0 42.9 M 6.6 33.9 C 6.5 33.9 6.5 33.9 6.6 33.9 C 6.6 33.9 6.6 33.9 6.6 33.9 Z M 6.4 71.9 C 7.9 67.3 5.2 67.4 4.7 67.0 C 4.0 65.9 3.6 66.4 3.1 67.3 C 1.4 67.7 4.8 69.7 3.1 69.8 C 0.8 70.4 5.1 72.3 2.7 71.9 C 2.1 71.5 2.6 73.8 2.7 73.7 C 1.6 74.3 3.6 76.6 3.8 76.6 C 3.5 77.2 1.4 76.6 3.0 79.3 C 3.5 81.2 1.4 81.3 2.9 81.3 C 1.2 82.0 3.4 82.3 2.8 83.3 C 1.9 84.0 4.2 83.8 2.5 84.8 C 3.8 85.9 1.6 83.9 2.6 88.4 C 2.7 86.4 3.6 90.6 2.7 89.6 C 1.7 87.9 3.1 91.6 2.5 93.4 C 3.0 94.0 4.2 96.5 2.9 95.9 C 1.3 97.6 3.8 98.1 2.6 98.7 C 2.0 99.3 3.2 99.7 3.1 100.1 C 2.1 100.7 2.8 101.4 2.5 103.8 C 2.0 109.2 5.0 104.9 5.3 107.0 C 5.8 107.3 9.0 104.8 6.6 105.6 C 7.2 105.3 4.8 100.8 7.4 103.2 C 6.3 101.5 8.5 103.7 7.2 100.3 C 5.4 104.6 6.5 95.2 7.4 99.6 C 7.9 99.0 7.8 97.2 7.4 98.4 C 5.7 98.6 8.1 95.5 6.1 96.9 C 6.6 94.2 4.8 94.6 6.1 94.1 C 8.3 93.9 5.5 94.1 6.2 92.8 C 6.2 89.6 8.7 92.7 7.0 90.4 C 8.1 87.5 6.1 89.4 5.8 88.3 C 4.3 87.6 7.0 85.3 7.2 87.8 C 6.4 86.3 7.9 87.8 6.9 86.1 C 5.5 86.7 8.4 84.6 7.3 84.7 C 6.9 83.4 6.1 83.8 6.1 83.4 C 6.0 81.4 7.4 82.4 6.4 81.7 C 5.8 81.1 7.7 80.8 7.2 80.4 C 7.1 82.3 5.7 78.3 6.5 78.3 C 6.6 79.6 8.3 78.3 7.2 77.2 C 4.1 77.1 8.0 75.8 6.9 74.5 C 5.2 74.7 6.7 70.1 7.5 72.3 C 7.4 72.2 6.4 72.0 6.4 71.9 M 7.0 79.7 C 6.8 81.3 6.6 77.9 7.0 79.7 M 7.4 79.8 C 6.8 80.3 7.8 78.4 7.6 80.0 C 7.6 80.0 7.5 79.7 7.4 79.8 M 7.5 86.5 C 7.0 86.2 7.8 85.7 7.5 86.5 M 6.4 87.5 C 6.0 88.5 6.3 86.1 6.4 87.5 M 6.8 102.5 C 4.2 100.6 8.2 101.1 6.8 102.5 M 7.3 92.8 C 6.9 90.9 8.4 93.6 7.3 92.8 M 6.6 92.1 C 6.2 91.2 7.2 92.0 6.6 92.1 M 6.8 99.7 C 6.7 99.8 6.7 99.8 6.8 99.7 C 6.8 99.7 6.8 99.7 6.8 99.7 Z M 6.7 104.1 C 6.7 104.1 6.7 104.1 6.7 104.1 C 6.7 104.1 6.7 104.1 6.7 104.1 Z M 6.5 95.3 C 7.1 94.1 6.7 97.6 6.5 95.3 C 6.5 95.3 6.5 95.3 6.5 95.3 Z M 2.8 101.4 C 2.7 101.4 2.7 101.4 2.8 101.4 C 2.8 101.4 2.8 101.4 2.8 101.4 Z M 5.8 78.1 C 5.8 78.0 5.8 78.0 5.8 78.1 C 5.8 78.1 5.8 78.1 5.8 78.1 Z M 6.8 73.4 C 6.4 73.3 7.0 72.6 6.8 73.4 C 6.8 73.4 6.8 73.4 6.8 73.4 Z M 3.8 68.1 C 3.8 68.0 3.8 68.0 3.8 68.1 C 3.8 68.1 3.8 68.1 3.8 68.1 Z M 4.4 75.9 C 4.4 75.8 4.4 75.8 4.4 75.9 C 4.4 75.9 4.4 75.9 4.4 75.9 Z M 6.3 77.3 C 7.8 77.0 6.0 79.1 6.3 77.3 C 6.3 77.3 6.3 77.3 6.3 77.3 Z M 2.9 92.9 C 3.6 93.1 2.7 94.1 2.9 92.9 C 2.9 92.9 2.9 92.9 2.9 92.9 Z M 5.8 87.6 C 6.2 87.9 5.7 88.3 5.8 87.6 C 5.8 87.6 5.8 87.6 5.8 87.6 Z M 7.8 85.3 C 8.1 85.6 7.6 86.0 7.8 85.3 C 7.8 85.3 7.8 85.3 7.8 85.3 Z M 7.2 73.6 C 7.2 73.8 7.2 73.8 7.2 73.6 C 7.2 73.6 7.2 73.6 7.2 73.6 Z M 6.1 75.0 C 7.4 74.3 5.4 76.7 6.1 75.0 C 6.1 75.0 6.1 75.0 6.1 75.0 Z M 5.7 72.7 C 5.2 73.2 5.9 71.2 5.7 72.7 M 3.7 73.2 C 4.2 74.9 1.3 70.8 3.7 73.2 C 3.7 73.2 3.7 73.2 3.7 73.2 Z M 3.1 80.9 C 3.1 81.0 3.1 81.0 3.1 80.9 C 3.1 80.9 3.1 80.9 3.1 80.9 Z M 7.0 81.3 C 7.0 82.7 6.7 80.4 7.0 81.3 C 7.0 81.3 7.0 81.3 7.0 81.3 Z M 7.3 69.9 C 7.3 71.2 7.0 68.9 7.3 69.9 C 7.3 69.9 7.3 69.9 7.3 69.9 Z M 4.4 85.9 C 4.6 88.2 3.7 84.4 4.4 85.9 C 4.4 85.9 4.4 85.9 4.4 85.9 Z M 6.0 94.5 C 5.9 94.5 5.9 94.5 6.0 94.5 C 6.0 94.5 6.0 94.5 6.0 94.5 Z M 6.5 96.1 C 6.5 96.1 6.5 96.1 6.5 96.1 C 6.5 96.1 6.5 96.1 6.5 96.1 Z M 5.2 102.2 C 5.1 102.2 5.1 102.2 5.2 102.2 C 5.2 102.2 5.2 102.2 5.2 102.2 Z M 7.2 97.5 C 7.1 97.6 7.1 97.6 7.2 97.5 C 7.2 97.5 7.2 97.5 7.2 97.5 Z M 6.8 101.8 C 6.8 101.9 6.8 101.9 6.8 101.8 C 6.8 101.8 6.8 101.8 6.8 101.8 Z M 8.0 101.4 C 7.9 101.4 7.9 101.4 8.0 101.4 C 8.0 101.4 8.0 101.4 8.0 101.4 Z M 2.2 90.5 C 2.1 90.6 2.1 90.6 2.2 90.5 C 2.2 90.5 2.2 90.5 2.2 90.5 Z M 7.6 76.1 C 7.5 76.2 7.5 76.2 7.6 76.1 C 7.6 76.1 7.6 76.1 7.6 76.1 Z M 6.3 101.4 C 6.3 101.4 6.3 101.4 6.3 101.4 C 6.3 101.4 6.3 101.4 6.3 101.4 Z M 5.2 90.5 C 4.1 90.3 6.7 90.0 5.3 90.8 C 5.2 90.8 5.4 90.5 5.2 90.5 M 3.4 91.6 C 3.3 91.5 3.3 91.5 3.4 91.6 C 3.4 91.6 3.4 91.6 3.4 91.6 Z M 2.7 86.5 C 2.6 86.4 2.6 86.4 2.7 86.5 C 2.7 86.5 2.7 86.5 2.7 86.5 Z M 7.4 96.8 C 8.0 96.8 6.9 97.9 7.3 96.6 M 3.2 101.9 C 3.8 101.8 2.7 103.1 3.1 101.8 M 6.9 68.2 C 6.4 67.8 7.2 67.4 6.9 68.2 M 2.1 85.2 C 1.6 84.9 2.4 84.3 2.1 85.2 M 3.5 87.9 C 4.2 87.8 3.0 89.0 3.5 87.7 M 3.2 98.6 C 3.2 98.6 3.2 98.6 3.2 98.6 C 3.2 98.6 3.2 98.6 3.2 98.6 Z M 6.9 83.3 C 6.9 83.4 6.9 83.4 6.9 83.3 C 6.9 83.3 6.9 83.3 6.9 83.3 Z M 5.5 88.8 C 6.4 88.3 5.0 89.8 5.5 88.8 M 5.4 81.2 C 6.5 80.3 5.0 82.9 5.4 81.2 M 2.9 104.5 C 4.2 103.3 2.2 105.4 2.9 104.5 M 6.2 98.4 C 7.5 97.3 5.5 99.2 6.2 98.4 M 6.3 84.4 C 7.0 84.5 5.9 85.6 6.3 84.4 M 7.0 71.2 C 7.1 70.1 7.5 73.1 7.0 71.2 M 3.2 95.3 C 3.1 95.3 3.1 95.3 3.2 95.3 C 3.2 95.3 3.2 95.3 3.2 95.3 Z M 2.0 73.4 C 2.0 73.4 2.0 73.4 2.0 73.4 C 2.0 73.4 2.0 73.4 2.0 73.4 Z M 7.2 106.6 C 7.1 106.7 7.1 106.7 7.2 106.6 C 7.2 106.6 7.2 106.6 7.2 106.6 Z M 5.6 97.5 C 5.5 97.5 5.5 97.5 5.6 97.5 C 5.6 97.5 5.6 97.5 5.6 97.5 Z M 7.3 104.1 C 7.3 104.2 7.3 104.2 7.3 104.1 C 7.3 104.1 7.3 104.1 7.3 104.1 Z M 4.6 93.2 C 4.5 93.2 4.5 93.2 4.6 93.2 C 4.6 93.2 4.6 93.2 4.6 93.2 Z M 7.9 93.1 C 7.8 93.1 7.8 93.1 7.9 93.1 C 7.9 93.1 7.9 93.1 7.9 93.1 Z M 6.4 88.3 C 6.4 88.3 6.4 88.3 6.4 88.3 C 6.4 88.3 6.4 88.3 6.4 88.3 Z M 7.6 95.0 C 7.8 97.7 6.5 93.4 7.6 95.0 C 7.6 95.0 7.6 95.0 7.6 95.0 Z M 4.3 89.7 C 4.3 89.7 4.3 89.7 4.3 89.7 C 4.3 89.7 4.3 89.7 4.3 89.7 Z M 6.6 89.9 C 7.6 91.7 5.0 90.4 6.6 89.9 M 7.4 82.7 C 7.9 83.4 6.6 82.7 7.4 82.7 M 3.1 78.4 C 3.0 78.3 3.0 78.3 3.1 78.4 C 3.1 78.4 3.1 78.4 3.1 78.4 Z M 3.4 79.3 C 3.4 79.3 3.4 79.3 3.4 79.3 C 3.4 79.3 3.4 79.3 3.4 79.3 Z M 7.6 81.0 C 7.6 81.0 7.6 81.0 7.6 81.0 C 7.6 81.0 7.6 81.0 7.6 81.0 Z M 2.2 79.0 C 2.1 79.1 2.1 79.1 2.2 79.0 C 2.2 79.0 2.2 79.0 2.2 79.0 Z M 7.8 92.0 C 7.8 92.1 7.8 92.1 7.8 92.0 C 7.8 92.0 7.8 92.0 7.8 92.0 Z M 7.8 105.5 C 7.8 105.5 7.8 105.5 7.8 105.5 C 7.8 105.5 7.8 105.5 7.8 105.5 Z M 3.5 70.2 C 3.5 70.3 3.5 70.3 3.5 70.2 C 3.5 70.2 3.5 70.2 3.5 70.2 Z M 6.5 93.2 C 6.4 93.2 6.4 93.2 6.5 93.2 C 6.5 93.2 6.5 93.2 6.5 93.2 Z M 3.3 76.4 C 3.2 76.5 3.2 76.5 3.3 76.4 C 3.3 76.4 3.3 76.4 3.3 76.4 Z M 6.7 92.3 C 6.7 92.4 6.7 92.4 6.7 92.3 C 6.7 92.3 6.7 92.3 6.7 92.3 Z M 2.9 94.8 C 2.9 94.8 2.9 94.8 2.9 94.8 C 2.9 94.8 2.9 94.8 2.9 94.8 Z M 2.2 97.7 C 2.1 97.7 2.1 97.7 2.2 97.7 C 2.2 97.7 2.2 97.7 2.2 97.7 Z M 5.2 95.0 C 5.2 95.1 5.2 95.1 5.2 95.0 C 5.2 95.0 5.2 95.0 5.2 95.0 Z M 4.7 76.0 C 5.8 71.0 5.2 80.4 4.7 76.0 M 4.9 95.9 C 5.2 92.2 6.2 99.1 4.9 95.9 C 5.3 96.4 5.0 95.9 4.9 95.9 " fill="#AE1610"></path></g></svg>