<svg xmlns="http://www.w3.org/2000/svg" width="1100" height="800" viewBox="0 0 1100 800" style="width:100%;height:100%"><defs><clipPath id="a"><path d="M0 0h1100v800H0z"/></clipPath><mask id="j"><path fill="#111" d="M1.811-8.232C-3.793-8.801-9.43-2.366-11.35 3.603c-.507 1.577.703 3.061 2.351 3.228L8.725 8.633c1.648.168 3.132-1.04 2.987-2.69C11.167-.276 7.414-7.663 1.811-8.232z" transform="rotate(-25 1229.474 -785.967)" style="user-select:none"/></mask><mask id="i"><path fill="#111" d="M1.811-8.232C-3.793-8.801-9.43-2.366-11.35 3.603c-.507 1.577.703 3.061 2.351 3.228L8.725 8.633c1.648.168 3.132-1.04 2.987-2.69C11.167-.276 7.414-7.663 1.811-8.232z" transform="rotate(-25 1229.474 -785.967)" style="user-select:none"/></mask><mask id="g"><path fill="#111" d="M4.445 33.656c-22.467 1.176-43.733-24.667-51.188-48.994-2.427-7.921 3.96-15.055 12.233-15.488l68.299-3.573c8.272-.433 15.381 5.983 13.987 14.149C43.519 4.68 26.902 32.481 4.445 33.656z" transform="translate(835.432 572.9)" style="user-select:none"/></mask><mask id="f"><path fill="#111" d="M4.445 33.656c-22.467 1.176-43.733-24.667-51.188-48.994-2.427-7.921 3.96-15.055 12.233-15.488l68.299-3.573c8.272-.433 15.381 5.983 13.987 14.149C43.519 4.68 26.902 32.481 4.445 33.656z" transform="translate(835.432 572.9)" style="user-select:none"/></mask><mask id="e"><path fill="#35505D" d="M240.507 49.87c-2.843 108.4-116.804 102.832-238.414 104.963-99.794-1.523-242.721-12.17-239.878-120.57 2.843-108.401 97.88-192.533 249.296-188.561C162.927-150.328 243.35-58.53 240.507 49.87z" transform="matrix(1 0 0 .9175 778.872 542.383)" style="user-select:none"/></mask><mask id="d"><path fill="#6ECE97" d="M52.614-50.86V50.86H-52.614V-50.86H52.614z" transform="rotate(13.114 -1136.146 2256.38)" style="user-select:none"/></mask><mask id="c"><path fill="#6ECE97" d="M52.614-50.86V50.86H-52.614V-50.86H52.614z" transform="rotate(-13.114 1706.238 -2726.317)" style="user-select:none"/></mask><clipPath id="b"><path fill="#fff" d="M-293.131-256.131v510h750v-510h-750"/></clipPath></defs><g clip-path="url(#a)"><g style="user-select:none"><path fill="#F1F1F1" d="M1131.024-30.913999999999987v861.828H-31.024V-30.914h1162.046z"/><path stroke="#DA5A40" stroke-width="20" d="M1131.024-30.913999999999987v861.828H-31.024V-30.914h1162.046z" fill="none"/></g><g clip-path="url(#b)" transform="translate(468.131 456.131)" opacity=".5" style="user-select:none"><path fill="#6ECE97" d="M81.869-256.131c206.962 0 375 168.038 375 375 0 206.963-168.038 375-375 375s-375-168.038-375-375 168.038-375 375-375z"/></g><g style="user-select:none"><path fill="#7E522A" d="M1080 708.069v.431h-.04c-3.6 18.579-239.492 33.569-529.96 33.569-290.468 0-526.359-14.99-529.958-33.569H20v-.431-21.897h124.529c97.222-7.401 242.786-12.103 405.471-12.103s308.249 4.702 405.471 12.103H1080v21.897z"/><path fill="#9A683B" d="M1080 688.069c0 18.778-237.289 34-530 34s-530-15.222-530-34c0-18.777 237.289-34 530-34s530 15.223 530 34z"/></g><g style="user-select:none"><path fill="#7E522A" d="M1026.5 677.802c0 7.63-106.332 13.815-237.5 13.815s-237.5-6.185-237.5-13.815c0-7.629 106.332-13.813 237.5-13.813s237.5 6.184 237.5 13.813zM485.267 701.084c0 7.134-18.976 12.916-42.383 12.916-23.409 0-42.383-5.782-42.383-12.916s18.974-12.918 42.383-12.918c23.407 0 42.383 5.784 42.383 12.918z"/><path fill="#7E522A" d="M283.6 678.167c-5.523 0-10 4.477-10 10 0 5.522 4.477 10 10 10v-20zm374 20c5.523 0 10-4.478 10-10 0-5.523-4.477-10-10-10v20zm-374 0h374v-20h-374v20z"/></g><g style="user-select:none"><g><path stroke-linecap="round" stroke-linejoin="round" stroke="#34505D" stroke-width="36" d="M678.12 268.002c3.539.058 84.552 1.889 142.56 47.785 58.006 45.897 78.42 124.318 79.29 127.748" fill="none"/><g><path stroke-linecap="round" stroke-linejoin="round" stroke="#586D76" stroke-width="11.399999999999999" d="M672.414 277.502c3.362.055 80.325 1.794 135.432 45.395 55.106 43.603 74.5 118.103 75.326 121.361" fill="none"/></g></g></g><g style="user-select:none"><g><path stroke-linecap="round" stroke-linejoin="round" stroke="#34505D" stroke-width="36" d="M499.356 275.596c3.281-.32 79.21-7.106 130.589 40.662 51.38 47.766 50.137 123.987 50.057 127.283" fill="none"/><g><path stroke-linecap="round" stroke-linejoin="round" stroke="#586D76" stroke-width="11.399999999999999" d="M493.65 285.096c3.118-.303 75.25-6.75 124.06 38.629 48.811 45.379 47.63 117.788 47.555 120.92" fill="none"/></g></g></g><path fill="#35505D" d="M684.6850000000001 296.878c-14.622 5.532-30.961-1.836-36.495-16.458-5.532-14.623 1.838-30.961 16.46-36.493 14.622-5.533 30.96 1.835 36.492 16.458 5.533 14.621-1.835 30.96-16.457 36.493z" style="user-select:none"/><g mask="url(#c)"><path fill="#FFF" d="M674.7729999999999 288.33299999999997c-11.335 4.288-24.002-1.423-28.29-12.759-4.29-11.335 1.422-24.001 12.758-28.29 11.336-4.29 24.001 1.422 28.29 12.759 4.29 11.334-1.423 24-12.758 28.29z" style="user-select:none"/></g><path fill="#111" d="M661.006 288.065a5.665 5.665 0 1 1-4.01-10.597 5.665 5.665 0 0 1 4.01 10.597z" style="user-select:none"/><path fill="#35505D" d="M502.92900000000003 299.47999999999996c-14.622 5.532-30.961-1.836-36.495-16.458-5.532-14.623 1.838-30.961 16.46-36.493 14.622-5.533 30.96 1.835 36.492 16.458 5.533 14.621-1.835 30.96-16.457 36.493z" style="user-select:none"/><g mask="url(#d)"><path fill="#FFF" d="M493.016 290.93399999999997c-11.335 4.288-24.002-1.423-28.29-12.759-4.29-11.335 1.422-24.001 12.758-28.29 11.336-4.29 24.001 1.422 28.29 12.759 4.29 11.334-1.423 24-12.758 28.29z" style="user-select:none"/></g><path fill="#111" d="M479.249 290.667a5.665 5.665 0 1 1-4.01-10.597 5.665 5.665 0 0 1 4.01 10.597z" style="user-select:none"/><g style="user-select:none"><g><path stroke-linecap="round" stroke-linejoin="round" stroke="#34505D" stroke-width="36" d="M351.793 413.006c.58 4.133 14.593 99.033 83.395 154.445 68.803 55.41 164.51 48.873 168.671 48.56" fill="none"/></g></g><path fill="#35505D" d="M1019.3789999999999 588.139c-2.843 99.457-116.804 94.348-238.414 96.303-99.794-1.397-242.721-11.166-239.878-110.623 2.843-99.458 97.88-176.649 249.296-173.005 151.416 3.643 231.839 87.868 228.996 187.325z" style="user-select:none"/><g mask="url(#e)"><path fill="#586C76" d="M976.494 586.535c-4.537 68.852-98.835 119.642-210.619 113.442-111.783-6.2-198.725-67.042-194.189-135.894 4.537-68.852 98.833-119.64 210.617-113.44 111.784 6.2 198.727 67.04 194.191 135.892z" style="user-select:none"/></g><g opacity=".75" style="user-select:none"><path fill="#C4D3DB" d="M769.982 415.109c-.11 2.064 3.722 3.921 8.56 4.15 4.838.227 8.85-1.263 8.96-3.326.109-2.065-3.723-3.923-8.561-4.15-4.838-.228-8.85 1.261-8.96 3.326zM707.575 417.684c.013 2.428 10.106 4.208 22.543 3.975 12.438-.233 22.51-2.39 22.498-4.818-.014-2.429-10.107-4.21-22.545-3.975-12.437.232-22.51 2.39-22.497 4.818zM629.818 452.818c.583 1.319 3.459 1.325 6.422.013 2.963-1.31 4.893-3.442 4.31-4.761-.583-1.319-3.459-1.324-6.422-.012-2.963 1.31-4.893 3.442-4.31 4.76zM592.5649999999999 477.697c1.483 2.155 8.24.08 15.091-4.633 6.854-4.715 11.208-10.283 9.725-12.438-1.483-2.155-8.24-.08-15.092 4.635-6.852 4.713-11.206 10.282-9.724 12.436zM572.964 513.812c1.73.735 5.769-4.876 9.02-12.532 3.251-7.655 4.483-14.457 2.753-15.192-1.73-.735-5.77 4.877-9.02 12.532s-4.483 14.458-2.753 15.192z"/></g><path fill="#111" d="M839.8770000000001 606.5559999999999c-22.467 1.176-43.733-24.667-51.188-48.994-2.427-7.921 3.96-15.055 12.233-15.488l68.299-3.573c8.272-.433 15.381 5.983 13.987 14.149-4.257 24.93-20.874 52.731-43.331 53.906z" style="user-select:none"/><g mask="url(#f)"><path fill="#EB5656" d="M811.103 611.625c-3.289 16.912 9.543 33.637 28.664 37.355 19.12 3.72 37.287-6.975 40.576-23.887 3.289-16.912-9.544-33.637-28.664-37.356-19.121-3.718-37.286 6.976-40.576 23.888z" style="user-select:none"/></g><g style="user-select:none" mask="url(#g)"><path fill="#EDEDED" d="M863.781 564.3399999999999c-.415 1.881-2.988 2.145-3.777.388l-6.333-14.107 10.692-1.097a1.999 1.999 0 0 1 2.156 2.42l-2.738 12.396z"/><path fill="#EDEDED" d="M867.6999999999999 528.752l-79.836 4.175 1.305 24.957a3 3 0 0 0 3.152 2.839l73.845-3.862a3 3 0 0 0 2.839-3.152l-1.305-24.957z"/></g><g style="user-select:none"><path fill="#BA7A0A" d="M329.6 605.168a7 7 0 1 0-14 0h14zm-14 73.655a7 7 0 1 0 14 0h-14zm0 0h14v-73.655h-14v73.655zM629.6 605.168a7 7 0 1 0-14 0h14zm-14 73.655a7 7 0 1 0 14 0h-14zm0 0h14v-73.655h-14v73.655z"/><path fill="#A26904" d="M359.6 575.168a7 7 0 1 0-14 0h14zm-14 103.655a7 7 0 1 0 14 0h-14zm0 0h14V575.168h-14v103.655zM659.6 575.168a7 7 0 1 0-14 0h14zm-14 103.655a7 7 0 1 0 14 0h-14zm0 0h14V575.168h-14v103.655z"/><path fill="#BA7A0A" d="M288.6 488.833c0-8.284 6.716-15 15-15h347.58c8.284 0 15 6.716 15 15V599.5c0 8.284-6.716 15.001-15 15.001H303.6c-8.284 0-15-6.717-15-15.001V488.833z"/><path fill="#A26904" d="M282.6 595.168c-5.523 0-10 4.478-10 10s4.477 10 10 10v-20zm374 20c5.523 0 10-4.478 10-10s-4.477-10-10-10v20zm-374 0h374v-20h-374v20z"/></g><path fill="#793E0B" d="M487.917 387.343c-3.288-16.238-19.12-26.737-35.359-23.447-16.238 3.29-26.735 19.12-23.446 35.359l58.805-11.912zm-38.163 113.816c3.29 16.24 19.12 26.737 35.359 23.448 16.24-3.29 26.736-19.12 23.447-35.359l-58.806 11.911zm-20.643-101.904l20.643 101.904 58.806-11.91-20.643-101.906-58.805 11.912z" style="user-select:none"/><g style="user-select:none"><path fill="#FFC58B" d="M468.932 460.211a8.999 8.999 0 0 0-12.2-3.622 9 9 0 0 0-3.623 12.201l15.823-8.579zm-57.584 94.298a9.002 9.002 0 0 0 .804 17.983l-.804-17.983zM461.021 464.501c-7.912 4.289-7.914 4.286-7.916 4.284a.008.008 0 0 0-.002-.004s-.001-.001 0 0l.015.025.077.147a87.115 87.115 0 0 1 1.668 3.409 121.797 121.797 0 0 1 4.129 10.038c3.116 8.585 6.045 19.06 6.082 30.004.107 10.593-2.528 20.179-9.646 27.421-7.177 7.301-20.28 13.619-44.08 14.684l.804 17.983c26.45-1.185 44.631-8.366 56.114-20.05 11.542-11.742 14.943-26.625 14.806-40.22-.208-13.243-3.806-26.675-7.155-35.949a147.456 147.456 0 0 0-4.73-11.495 113.47 113.47 0 0 0-1.585-3.277 85.45 85.45 0 0 0-.467-.91l-.136-.258-.043-.078-.013-.026-.007-.01c-.002-.004-.003-.008-7.915 4.282z"/><path fill="#F8AF69" d="M464.17600000000004 469.939a4 4 0 0 0-6.857 4.122l6.857-4.122zm-50.607 91.565a4 4 0 1 0 .358 7.992l-.358-7.992zM460.748 472c-3.429 2.061-3.429 2.06-3.43 2.059l.004.006a89.71 89.71 0 0 1 1.978 3.61 119.967 119.967 0 0 1 4.535 9.817c3.386 8.258 6.752 18.842 7.103 29.713.38 10.682-2.18 20.988-10.254 28.937-8.143 8.017-22.519 14.261-47.115 15.362l.358 7.992c25.654-1.149 42.278-7.718 52.37-17.654 10.16-10.004 13.068-22.792 12.636-34.922-.461-11.941-4.189-23.889-7.695-32.459a131.23 131.23 0 0 0-4.837-10.469 99.089 99.089 0 0 0-1.591-2.952 45.217 45.217 0 0 0-.628-1.091l-.003-.006c-.001-.002-.003-.004-3.431 2.057z"/><path fill="#F9F9F9" d="M508.94800000000004 464.89500000000004c-6.686-15.16-24.395-22.029-39.554-15.343-15.16 6.686-22.03 24.395-15.344 39.554l54.898-24.211zM461.556 554.177c-4.873 15.836 4.015 32.624 19.851 37.496 15.836 4.873 32.623-4.014 37.496-19.85l-57.347-17.646zM481.5 477c-27.449 12.106-27.452 12.1-27.455 12.093a.549.549 0 0 1-.028-.065.146.146 0 0 0-.007-.013l.068.162c.114.27.225.536.426 1.041.47 1.175 1.004 2.559 1.731 4.649 1.592 4.533 3.299 9.92 4.838 16.997 3.355 14.904 5.302 28.681.483 42.313l57.347 17.646c7.181-25.367 4.763-54.589.752-72.935-2.143-9.549-4.869-18.35-6.789-23.847a187.38 187.38 0 0 0-2.638-7.066 136.62 136.62 0 0 0-.847-2.076l-.275-.64-.093-.218c-.014-.031-.03-.066-.035-.082l-.017-.034-.007-.017c-.003-.007-.005-.014-27.454 12.092z"/><path fill="#E4E4E4" d="M507.043 498.38800000000003c-3.854-10.352-15.37-15.618-25.722-11.764-10.351 3.854-15.619 15.37-11.764 25.722l37.486-13.958zm-36.382 60.72c-2.148 10.834 4.893 21.36 15.727 23.509 10.835 2.149 21.36-4.892 23.51-15.727l-39.237-7.782zm17.639-53.741c-18.743 6.979-18.745 6.972-18.748 6.965l-.004-.012a2.246 2.246 0 0 0-.052-.141c.036.104.049.14.111.337.174.546.34 1.088.603 2.109.621 2.362 1.251 5.154 1.791 9.381 1.237 9.175 1.729 20.314-1.34 35.102l39.237 7.782c3.702-19.343 3.203-37.021 1.758-48.128-.8-5.915-1.935-11.132-2.744-14.243a92.168 92.168 0 0 0-1.194-4.149 56.583 56.583 0 0 0-.653-1.924l-.012-.03a.072.072 0 0 0-.005-.014c-.003-.007-.005-.014-18.748 6.965z"/><path fill="#E4E4E4" d="M507.137 459.96200000000005c-2.784-4.77-8.906-6.381-13.676-3.599-4.771 2.783-6.382 8.906-3.599 13.677l17.275-10.078zM497.495 571.959c-2.094 5.11.354 10.951 5.464 13.044 5.11 2.094 10.951-.351 13.045-5.462l-18.509-7.582zM498.5 465c-8.638 5.039-8.641 5.037-8.643 5.034l-.002-.006-.002-.005c-.001-.002-.002-.001 0 .003l.037.062.195.35c.203.371.464.855.828 1.565.771 1.498 1.773 3.54 2.977 6.314a137.446 137.446 0 0 1 7.732 23.123c4.811 19.798 6.875 44.369-4.127 70.519l18.509 7.582c12.248-30.601 10.187-61.402 5.06-82.791-2.647-10.893-6.149-20.235-8.836-26.416a135.355 135.355 0 0 0-3.526-7.474 88.163 88.163 0 0 0-1.091-2.056c-.133-.243-.254-.455-.323-.577a6.722 6.722 0 0 0-.097-.173l-.032-.055-.013-.021c0-.003-.003-.007-.004-.009-.002-.003-.004-.008-8.642 5.031z"/><path fill="#2E80EC" d="M457.145 555.508c-11.041.297-19.744 9.491-19.438 20.532.307 11.042 9.506 19.751 20.548 19.452l-1.11-39.984zM494.255 594.519c11.041-.298 19.743-9.491 19.437-20.533-.307-11.042-9.505-19.751-20.547-19.452l1.11 39.985zM458.255 595.492l36-.973-1.11-39.985-36 .974 1.11 39.984z"/><path fill="#F9F9F9" d="M451.11 703v-19.828s-48.61 0-48.61 19.828h48.61z"/><path fill="#418FF7" d="M459.377 589.406c8.232-.926 14.155-8.35 13.229-16.583-.927-8.232-8.351-14.155-16.583-13.229l3.354 29.812zm-83.354-20.812c-8.232.927-14.155 8.351-13.229 16.583.926 8.232 8.351 14.155 16.583 13.23l-3.354-29.813zM456.023 559.594l-80 9 3.354 29.813 80-9.001-3.354-29.812z"/><path fill="#418FF7" d="M428.005 688.3c4.584 6.9 13.894 8.778 20.795 4.195 6.9-4.584 8.778-13.894 4.195-20.795l-24.99 16.6zM390.224 577.201c-4.583-6.901-13.894-8.779-20.794-4.196-6.901 4.584-8.779 13.893-4.195 20.795l24.989-16.599zm62.771 94.499l-62.771-94.499-24.989 16.599 62.77 94.5 24.99-16.6z"/><path fill="#2E80EC" d="M475.87 592.161c8.098-1.751 13.242-9.734 11.491-17.831-1.751-8.097-9.734-13.242-17.831-11.491l6.34 29.322zm-43.34-21.322c-8.097 1.751-13.242 9.734-11.491 17.831 1.75 8.098 9.734 13.242 17.831 11.491l-6.34-29.322zM469.53 562.839l-37 8 6.34 29.322 37-8-6.34-29.322z"/><path fill="#2E80EC" d="M481.748 682.259c2.618 7.859-1.631 16.353-9.49 18.972-7.86 2.618-16.354-1.631-18.973-9.49l28.463-9.482zM419.47 590.241c-2.619-7.86 1.63-16.354 9.49-18.973 7.86-2.618 16.353 1.631 18.972 9.491l-28.462 9.482zM453.285 691.741l-33.815-101.5 28.462-9.482 33.816 101.5-28.463 9.482z"/><path fill="#E4E4E4" d="M464.286 683.172C452.53 683.172 443 692.049 443 703h42.57c0-10.951-9.529-19.828-21.284-19.828z"/><path fill="#FFC58B" d="M416.987 561.352c3.725 8.646-.265 18.676-8.911 22.401-8.647 3.725-18.676-.265-22.401-8.912-3.725-8.646 3.034-12.246 11.681-15.971 8.647-3.725 15.906-6.164 19.631 2.482z"/><path fill="#F8AF69" d="M406.11 580.753c8.646-3.726 12.635-13.755 8.911-22.401a15.124 15.124 0 0 0-.251-.555c.849.884 1.603 2.052 2.251 3.555 3.724 8.647-.265 18.675-8.911 22.401-8.246 3.552-17.747.089-21.841-7.737 4.708 5.652 12.74 7.796 19.841 4.737z"/><path fill="#F9F9F9" d="M488.571 506.571c7.052-4.347 9.245-13.588 4.898-20.64-4.347-7.052-13.588-9.245-20.64-4.898l15.742 25.538zM463.729 479.441c-7.93-2.392-16.299 2.097-18.692 10.029-2.393 7.931 2.097 16.3 10.028 18.692l8.664-28.721zM472.829 481.033c1.002-.618 1.377-.449.29-.354-1.264.147-2.154.068-3.891-.15-1.643-.188-2.856-.442-4.09-.731a29.35 29.35 0 0 1-1.194-.298l-.247-.069-.021-.006a.154.154 0 0 1 .017.005l.016.005a.054.054 0 0 1 .01.003l.006.001c.001.001.004.002-4.328 14.363-4.332 14.36-4.329 14.361-4.326 14.362a.01.01 0 0 0 .006.002l.014.004a.79.79 0 0 0 .031.009l.079.024.222.064c.141.041.407.116.683.191.486.131 1.332.349 2.24.561 1.666.386 4.466.94 7.273 1.292 4.613.559 14.667 1.367 22.952-3.74l-15.742-25.538z"/><path fill="#F8AF69" d="M480.838 422.543a7.922 7.922 0 0 0-15.679 2.275l4.096 28.221a7.921 7.921 0 0 0 8.978 6.701 7.92 7.92 0 0 0 6.701-8.977l-4.096-28.22z"/></g><g style="user-select:none"><path fill="#F8AF69" d="M470.696 391.145c-2.357-10.791-13.017-17.629-23.807-15.272l-19.54 4.268c-10.79 2.357-17.628 13.016-15.27 23.807l6.91 31.638c3.534 16.187 19.523 26.443 35.71 22.906 16.186-3.535 26.443-19.522 22.907-35.71l-6.91-31.637z"/><path fill="#FFC58B" d="M461.386 393.184c-2.358-10.791-13.017-17.629-23.808-15.272l-10.251 2.24c-10.791 2.356-17.628 13.015-15.272 23.806l7.925 36.281c2.975 13.623 16.43 22.254 30.052 19.279 13.622-2.975 22.253-16.43 19.278-30.053l-7.924-36.281z"/><path fill="#793E0B" d="M474.24 386.742c-3.408-16.325-19.477-26.736-35.769-23.177l-17.975 3.925c-6.188 1.352-10.216 7.333-9.141 13.575a3.55 3.55 0 0 0 1.692 2.455l51.482 30.435c6.733 3.98 14.989-1.93 13.39-9.586l-3.68-17.626z"/><path fill="#F8AF69" d="M466.596 419.453a9.062 9.062 0 1 0 17.706-3.87 9.062 9.062 0 0 0-17.706 3.87z"/><path fill="#D27018" d="M477.59499999999997 418.50899999999996a2.656 2.656 0 0 1-2.787-4.053 2.655 2.655 0 1 0 3.377 3.85 2.644 2.644 0 0 1-.59.203z"/><path fill="#793E0B" d="M412.67 374.27299999999997a19.695 19.695 0 0 0-15.804 23.238c2.13 10.841 12.664 18.014 23.525 16.022l-7.72-39.26zM447.305 408.597a19.692 19.692 0 0 0 15.805-23.235c-2.132-10.842-12.665-18.017-23.526-16.025l7.721 39.26zm-26.914 4.936l26.914-4.936-7.721-39.26-26.914 4.936 7.72 39.26z"/><path fill="#B56823" d="M414.358 377.653a12.308 12.308 0 0 0-9.878 14.522c1.333 6.777 7.915 11.26 14.704 10.016l-4.825-24.538zm31.74 19.601a12.308 12.308 0 0 0 9.878-14.523c-1.333-6.775-7.916-11.26-14.704-10.013l4.825 24.536zM419.183 402.191l26.913-4.937-4.825-24.536-26.913 4.935 4.825 24.538z"/><path fill="#B56823" d="M408.163 379.57800000000003c-4.704 3.747-5.099 11.562-.48 19.066 3.41 5.545 8.748 9.6 14.043 11.198-6.598.087-14.006-4.097-18.075-10.711-5.003-8.13-3.069-16.855 4.319-19.485l.193-.068z"/><path fill="#793E0B" d="M414.565 393.05c-1.246 3.222 2.31 6.807 9.003 8.592 5.03 1.342 10.615 1.342 14.906.238-4.22 2.322-11.297 2.966-17.35 1.352-7.263-1.937-10.305-6.392-6.795-9.951.076-.078.155-.155.236-.23zM430.407 390.348c-.742 3.462 3.259 6.758 10.057 7.845 5.108.817 10.56.19 14.587-1.432-3.776 2.867-10.59 4.33-16.738 3.346-7.377-1.179-11.006-5.43-8.106-9.494.064-.09.131-.178.2-.265z"/><path fill="#111" d="M446.288 419.858c.413 1.889 1.84 3.18 3.19 2.887 1.349-.295 2.108-2.066 1.695-3.953-.412-1.89-1.84-3.182-3.19-2.887-1.348.295-2.108 2.065-1.695 3.953zM425.58 424.19300000000004c.413 1.888 1.84 3.181 3.19 2.886 1.349-.294 2.107-2.065 1.695-3.952-.412-1.89-1.84-3.181-3.19-2.886-1.35.294-2.108 2.064-1.695 3.952z"/></g><path stroke-linecap="round" stroke="#111" stroke-width="2" d="M416.64200000000005 405.46500000000003l7.758-6.374" fill="none" style="user-select:none"/><path stroke-linecap="round" stroke="#111" stroke-width="2" d="M-112.265-3.084l-8.992-6.644" fill="none" transform="matrix(1.04803 -.14996 .10647 .74414 569.234 384.57)" style="user-select:none"/><path fill="#111" d="M445.518 437.733c-5.319 1.853-7.708 10.067-6.926 16.288.207 1.644 1.93 2.478 3.495 1.932l16.825-5.857c1.565-.544 2.4-2.266 1.57-3.7-3.122-5.406-9.645-10.515-14.964-8.663z" style="user-select:none"/><g mask="url(#i)"><path fill="#EB5656" d="M449.916 456.685c2.283 3.488 7.332 4.225 11.277 1.644 3.945-2.581 5.292-7.504 3.008-10.993-2.281-3.49-7.33-4.226-11.276-1.644-3.945 2.58-5.293 7.503-3.01 10.993z" style="user-select:none"/></g><g mask="url(#j)"><path fill="#EDEDED" d="M448.81 433.91099999999994l-14.833 6.578 1.53 3.452a3 3 0 0 0 3.959 1.526l9.349-4.146a3.002 3.002 0 0 0 1.525-3.96l-1.53-3.45z" style="user-select:none"/></g><g style="user-select:none"><path fill="#DC5839" d="M353.675 425.82300000000004c-.287-3.578 3.177-6.285 6.58-5.14l43.43 14.616a10.001 10.001 0 0 1 6.778 8.676l2.526 31.417c.288 3.577-3.176 6.284-6.579 5.139l-43.43-14.616a10 10 0 0 1-6.777-8.676l-2.528-31.416z"/><path fill="#FFF" d="M379.67800000000005 456.76300000000003l-.75-3.102-6.54-2.2-1.05 2.495-3.697-1.244 6.905-14.558 4.075 1.371 4.848 18.513-3.79-1.275zM376.304 442.333l-2.864 6.316 4.739 1.595-1.875-7.911zM384.796 458.485l1.028-16.536 5.97 2.01c4.74 1.594 7.89 6.03 7.496 10.963-.3 4.964-3.784 7.167-8.523 5.572l-5.971-2.009zm11.271-4.648c.135-2.909-1.343-5.727-4.376-6.748l-2.843-.957-.63 10.339 2.748.925c3.033 1.02 4.903-.776 5.101-3.559z"/></g><path fill="#35505D" d="M388.519 404.163c1.26 15.316-10.134 28.755-25.45 30.016-15.316 1.261-28.755-10.133-30.017-25.449-1.26-15.317 11.071-17.368 26.388-18.628 15.317-1.262 27.817-1.255 29.079 14.061z" style="user-select:none"/><path fill="#FFF" d="M407.177 436.479a10.001 10.001 0 0 0-9.235-6.163h-47.59c-3.566 0-5.985 3.625-4.617 6.918l30.449 73.287a10.001 10.001 0 0 0 9.235 6.163h47.589c3.566 0 5.985-3.626 4.618-6.919l-30.449-73.286z" opacity=".75" style="user-select:none"/><g style="user-select:none"><g><path stroke-linecap="round" stroke-linejoin="round" stroke="#F7B068" stroke-width="18" d="M431.046 537.02c1.449.62 36.326 15.211 60.41-6.88 24.084-22.09 12.553-58.096 12.06-59.592" fill="none"/><g><path stroke-linecap="round" stroke-linejoin="round" stroke="#FFC48B" stroke-width="7.6" d="M431.044 529.42c1.376.588 34.51 14.45 57.39-6.537 22.88-20.986 11.925-55.19 11.456-56.613" fill="none"/></g></g></g><g style="user-select:none"><path fill="#AAA" d="M396.68100000000004 510.60900000000004a10.005 10.005 0 0 0-5.01-1.344h-25.049c-2.045 0-2.772 2.705-1.002 3.73l41.95 24.285a8.819 8.819 0 0 0 4.416 1.185c9.01 0 12.214-11.925 4.415-16.439l-19.72-11.417z"/><path fill="#333" d="M396.68100000000004 512.609a10.005 10.005 0 0 0-5.01-1.344h-25.049c-2.045 0-2.772 2.705-1.002 3.73l41.95 24.285a8.819 8.819 0 0 0 4.416 1.185c9.01 0 12.214-11.925 4.415-16.439l-19.72-11.417z"/><path fill="#F8AF69" d="M445.29400000000004 535.311c0 9.415-7.632 17.048-17.047 17.048-9.415 0-17.047-7.633-17.047-17.048s7.632-17.046 17.047-17.046c9.415 0 17.047 7.631 17.047 17.046z"/></g></g></svg>