<?xml version="1.0" encoding="UTF-8" standalone="no"?><svg xmlns="http://www.w3.org/2000/svg" xmlns:xlink="http://www.w3.org/1999/xlink" clip-rule="evenodd" stroke-miterlimit="4.00" viewBox="0 0 1024 768"><desc>SVG generated by Keynote</desc><defs></defs><g transform="matrix(1.00, 0.00, -0.00, -1.00, 0.0, 768.0)"><g><clipPath id="clip-3526"><path d="M 0.0 768.0 L 1024.0 768.0 L 1024.0 0.0 L 0.0 0.0 Z M 0.0 768.0 "></path></clipPath><g clip-path="url(#clip-3526)"><image xlink:href="../../AAFA64A7-B22F-44FA-BDCD-1B20F3A178DE/assets/DE78B55DDE70D88C6FF874E8D33A46A3.jpeg" width="1024.00" height="768.00" transform="matrix(1.00, 0.00, -0.00, -1.00, 0.0, 768.0)"></image></g></g><g><clipPath id="clip-3527"><path d="M 848.1 240.8 L 995.1 240.8 L 995.1 93.8 L 848.1 93.8 Z M 848.1 240.8 "></path></clipPath><g clip-path="url(#clip-3527)"><g><clipPath id="clip-3528"><path d="M 79.0 93.0 L 1018.0 93.0 L 1018.0 626.0 L 79.0 626.0 Z M 79.0 93.0 "></path></clipPath><g clip-path="url(#clip-3528)"><image xlink:href="../../A49548D4-82FE-4D1C-B3E6-6C2F56FCE222/assets/9EE5BA7DE83C9F6BFAD24F46305469FC.png" width="512.00" height="512.00" transform="matrix(0.29, 0.00, -0.00, -0.29, 848.1, 240.8)"></image></g></g></g></g><g><clipPath id="clip-3529"><path d="M 226.7 601.1 L 79.7 601.1 L 79.7 454.0 L 226.7 454.0 Z M 226.7 601.1 "></path></clipPath><g clip-path="url(#clip-3529)"><g><clipPath id="clip-3530"><path d="M 79.0 93.0 L 1018.0 93.0 L 1018.0 626.0 L 79.0 626.0 Z M 79.0 93.0 "></path></clipPath><g clip-path="url(#clip-3530)"><image xlink:href="../../A49548D4-82FE-4D1C-B3E6-6C2F56FCE222/assets/75588F7199E6B27B11B5E06D44B0FDC8.png" width="512.00" height="512.00" transform="matrix(-0.29, 0.00, 0.00, -0.29, 226.7, 601.1)"></image></g></g></g></g><g><clipPath id="clip-3531"><path d="M 473.1 575.3 L 565.0 575.3 L 565.0 483.4 L 473.1 483.4 Z M 473.1 575.3 "></path></clipPath><g clip-path="url(#clip-3531)"><g><clipPath id="clip-3532"><path d="M 79.0 93.0 L 1018.0 93.0 L 1018.0 626.0 L 79.0 626.0 Z M 79.0 93.0 "></path></clipPath><g clip-path="url(#clip-3532)"><image xlink:href="../../0ACC393D-F735-4394-A707-B6E2304E444F/assets/97E5EB25FF81A2D2B3812962989F1957.png" width="512.00" height="512.00" transform="matrix(0.18, 0.00, -0.00, -0.18, 473.1, 575.3)"></image></g></g></g></g><g><clipPath id="clip-3533"><path d="M 306.7 575.3 L 399.5 575.3 L 399.5 482.5 L 306.7 482.5 Z M 306.7 575.3 "></path></clipPath><g clip-path="url(#clip-3533)"><g><clipPath id="clip-3534"><path d="M 79.0 93.0 L 1018.0 93.0 L 1018.0 626.0 L 79.0 626.0 Z M 79.0 93.0 "></path></clipPath><g clip-path="url(#clip-3534)"><image xlink:href="../../0ACC393D-F735-4394-A707-B6E2304E444F/assets/E349A7005F21F88553597D74FC7134A7.png" width="512.00" height="512.00" transform="matrix(0.18, 0.00, -0.00, -0.18, 307.3, 575.4)"></image></g></g></g></g><g><clipPath id="clip-3535"><path d="M 79.0 93.0 L 1018.0 93.0 L 1018.0 626.0 L 79.0 626.0 Z M 79.0 93.0 "></path></clipPath><g clip-path="url(#clip-3535)"><path d="M 172.9 172.5 L 218.7 172.2 " fill="none" stroke="#FEFFFF" stroke-width="3.00" stroke-miterlimit="0.00" stroke-linecap="round" stroke-linejoin="round" transform="matrix(1.30, 0.00, 0.00, -1.30, 2.5, 751.8)"></path><path d="M 300.6 528.6 L 286.0 533.9 L 286.1 523.0 Z M 300.6 528.6 " fill="#FEFFFF"></path><path d="M 229.9 172.1 L 218.6 168.0 L 218.7 176.4 Z M 229.9 172.1 " fill="none" stroke="#FEFFFF" stroke-width="3.00" stroke-miterlimit="0.00" transform="matrix(1.30, 0.00, 0.00, -1.30, 2.5, 751.8)"></path><path d="M 306.1 171.8 L 346.9 171.6 " fill="none" stroke="#FEFFFF" stroke-width="3.00" stroke-miterlimit="0.00" stroke-linecap="round" stroke-linejoin="round" transform="matrix(1.30, 0.00, 0.00, -1.30, 2.5, 751.8)"></path><path d="M 467.0 529.2 L 452.4 534.7 L 452.5 523.8 Z M 467.0 529.2 " fill="#FEFFFF"></path><path d="M 358.1 171.6 L 346.9 167.4 L 346.9 175.8 Z M 358.1 171.6 " fill="none" stroke="#FEFFFF" stroke-width="3.00" stroke-miterlimit="0.00" transform="matrix(1.30, 0.00, 0.00, -1.30, 2.5, 751.8)"></path><text xml:space="preserve" font-family="HelveticaNeue" font-size="16.0" fill="#FFFFFF" transform="matrix(1.30, 0.00, -0.00, -1.30, 304.6, 457.3)">W</text><text xml:space="preserve" font-family="HelveticaNeue" font-size="16.0" fill="#FFFFFF" transform="matrix(1.30, 0.00, -0.00, -1.30, 323.8, 457.3)">i</text><text xml:space="preserve" font-family="HelveticaNeue" font-size="16.0" fill="#FFFFFF" transform="matrix(1.30, 0.00, -0.00, -1.30, 328.4, 457.3)">ﬁ</text><text xml:space="preserve" font-family="HelveticaNeue" font-size="16.0" fill="#FFFFFF" transform="matrix(1.30, 0.00, -0.00, -1.30, 339.2, 457.3)"> </text><text xml:space="preserve" font-family="HelveticaNeue" font-size="16.0" fill="#FFFFFF" transform="matrix(1.30, 0.00, -0.00, -1.30, 344.9, 457.3)">R</text><text xml:space="preserve" font-family="HelveticaNeue" font-size="16.0" fill="#FFFFFF" transform="matrix(1.30, 0.00, -0.00, -1.30, 359.1, 457.3)">o</text><text xml:space="preserve" font-family="HelveticaNeue" font-size="16.0" fill="#FFFFFF" transform="matrix(1.30, 0.00, -0.00, -1.30, 371.0, 457.3)">u</text><text xml:space="preserve" font-family="HelveticaNeue" font-size="16.0" fill="#FFFFFF" transform="matrix(1.30, 0.00, -0.00, -1.30, 382.6, 457.3)">t</text><text xml:space="preserve" font-family="HelveticaNeue" font-size="16.0" fill="#FFFFFF" transform="matrix(1.30, 0.00, -0.00, -1.30, 389.1, 457.3)">e</text><text xml:space="preserve" font-family="HelveticaNeue" font-size="16.0" fill="#FFFFFF" transform="matrix(1.30, 0.00, -0.00, -1.30, 400.3, 457.3)">r</text><text xml:space="preserve" font-family="HelveticaNeue" font-size="16.0" fill="#FFFFFF" transform="matrix(1.30, 0.00, -0.00, -1.30, 482.7, 457.3)">P</text><text xml:space="preserve" font-family="HelveticaNeue" font-size="16.0" fill="#FFFFFF" transform="matrix(1.30, 0.00, -0.00, -1.30, 496.1, 457.3)">r</text><text xml:space="preserve" font-family="HelveticaNeue" font-size="16.0" fill="#FFFFFF" transform="matrix(1.30, 0.00, -0.00, -1.30, 502.7, 457.3)">o</text><text xml:space="preserve" font-family="HelveticaNeue" font-size="16.0" fill="#FFFFFF" transform="matrix(1.30, 0.00, -0.00, -1.30, 514.6, 457.3)">v</text><text xml:space="preserve" font-family="HelveticaNeue" font-size="16.0" fill="#FFFFFF" transform="matrix(1.30, 0.00, -0.00, -1.30, 525.0, 457.3)">i</text><text xml:space="preserve" font-family="HelveticaNeue" font-size="16.0" fill="#FFFFFF" transform="matrix(1.30, 0.00, -0.00, -1.30, 529.6, 457.3)">d</text><text xml:space="preserve" font-family="HelveticaNeue" font-size="16.0" fill="#FFFFFF" transform="matrix(1.30, 0.00, -0.00, -1.30, 541.9, 457.3)">e</text><text xml:space="preserve" font-family="HelveticaNeue" font-size="16.0" fill="#FFFFFF" transform="matrix(1.30, 0.00, -0.00, -1.30, 553.0, 457.3)">r</text></g></g><g><clipPath id="clip-3536"><path d="M 686.3 575.3 L 778.2 575.3 L 778.2 483.4 L 686.3 483.4 Z M 686.3 575.3 "></path></clipPath><g clip-path="url(#clip-3536)"><g><clipPath id="clip-3537"><path d="M 79.0 93.0 L 1018.0 93.0 L 1018.0 626.0 L 79.0 626.0 Z M 79.0 93.0 "></path></clipPath><g clip-path="url(#clip-3537)"><image xlink:href="../../A7727946-072C-4173-8D78-3505F331A698/assets/58D73EB7FEB26E4754973C323BCB4D38.png" width="512.00" height="512.00" transform="matrix(0.18, 0.00, -0.00, -0.18, 686.3, 575.3)"></image></g></g></g></g><g><clipPath id="clip-3538"><path d="M 79.0 93.0 L 1018.0 93.0 L 1018.0 626.0 L 79.0 626.0 Z M 79.0 93.0 "></path></clipPath><g clip-path="url(#clip-3538)"><path d="M 433.7 171.5 L 511.3 171.5 " fill="none" stroke="#FEFFFF" stroke-width="3.00" stroke-miterlimit="0.00" stroke-linecap="round" stroke-linejoin="round" transform="matrix(1.30, 0.00, 0.00, -1.30, 2.5, 751.8)"></path><path d="M 680.2 529.4 L 665.7 534.8 L 665.7 523.9 Z M 680.2 529.4 " fill="#FEFFFF"></path><path d="M 522.5 171.5 L 511.3 167.3 L 511.3 175.7 Z M 522.5 171.5 " fill="none" stroke="#FEFFFF" stroke-width="3.00" stroke-miterlimit="0.00" transform="matrix(1.30, 0.00, 0.00, -1.30, 2.5, 751.8)"></path></g></g><g><clipPath id="clip-3539"><path d="M 877.5 575.3 L 969.4 575.3 L 969.4 483.4 L 877.5 483.4 Z M 877.5 575.3 "></path></clipPath><g clip-path="url(#clip-3539)"><g><clipPath id="clip-3540"><path d="M 79.0 93.0 L 1018.0 93.0 L 1018.0 626.0 L 79.0 626.0 Z M 79.0 93.0 "></path></clipPath><g clip-path="url(#clip-3540)"><image xlink:href="../../A7727946-072C-4173-8D78-3505F331A698/assets/58D73EB7FEB26E4754973C323BCB4D38.png" width="512.00" height="512.00" transform="matrix(0.18, 0.00, -0.00, -0.18, 877.5, 575.3)"></image></g></g></g></g><g><clipPath id="clip-3541"><path d="M 877.5 391.5 L 969.4 391.5 L 969.4 299.6 L 877.5 299.6 Z M 877.5 391.5 "></path></clipPath><g clip-path="url(#clip-3541)"><g><clipPath id="clip-3542"><path d="M 79.0 93.0 L 1018.0 93.0 L 1018.0 626.0 L 79.0 626.0 Z M 79.0 93.0 "></path></clipPath><g clip-path="url(#clip-3542)"><image xlink:href="../../A7727946-072C-4173-8D78-3505F331A698/assets/58D73EB7FEB26E4754973C323BCB4D38.png" width="512.00" height="512.00" transform="matrix(0.18, 0.00, -0.00, -0.18, 877.5, 391.5)"></image></g></g></g></g><g><clipPath id="clip-3543"><path d="M 79.0 93.0 L 1018.0 93.0 L 1018.0 626.0 L 79.0 626.0 Z M 79.0 93.0 "></path></clipPath><g clip-path="url(#clip-3543)"><path d="M 598.1 171.5 L 658.7 171.5 " fill="none" stroke="#FEFFFF" stroke-width="3.00" stroke-miterlimit="0.00" stroke-linecap="round" stroke-linejoin="round" transform="matrix(1.30, 0.00, 0.00, -1.30, 2.5, 751.8)"></path><path d="M 871.4 529.4 L 856.8 534.8 L 856.8 523.9 Z M 871.4 529.4 " fill="#FEFFFF"></path><path d="M 669.9 171.5 L 658.7 167.3 L 658.7 175.7 Z M 669.9 171.5 " fill="none" stroke="#FEFFFF" stroke-width="3.00" stroke-miterlimit="0.00" transform="matrix(1.30, 0.00, 0.00, -1.30, 2.5, 751.8)"></path><path d="M 710.5 206.9 L 710.5 261.9 " fill="none" stroke="#FEFFFF" stroke-width="3.00" stroke-miterlimit="0.00" stroke-linecap="round" stroke-linejoin="round" transform="matrix(1.30, 0.00, 0.00, -1.30, 2.5, 751.8)"></path><path d="M 924.0 397.6 L 929.4 412.2 L 918.5 412.2 Z M 924.0 397.6 " fill="#FEFFFF"></path><path d="M 710.5 273.1 L 714.7 261.9 L 706.3 261.9 Z M 710.5 273.1 " fill="none" stroke="#FEFFFF" stroke-width="3.00" stroke-miterlimit="0.00" transform="matrix(1.30, 0.00, 0.00, -1.30, 2.5, 751.8)"></path><path d="M 709.7 348.7 L 709.4 378.1 " fill="none" stroke="#FEFFFF" stroke-width="3.00" stroke-miterlimit="0.00" stroke-linecap="round" stroke-linejoin="round" transform="matrix(1.30, 0.00, 0.00, -1.30, 2.5, 751.8)"></path><path d="M 922.4 246.9 L 928.0 261.4 L 917.1 261.5 Z M 922.4 246.9 " fill="#FEFFFF"></path><path d="M 709.3 389.3 L 713.6 378.2 L 705.2 378.1 Z M 709.3 389.3 " fill="none" stroke="#FEFFFF" stroke-width="3.00" stroke-miterlimit="0.00" transform="matrix(1.30, 0.00, 0.00, -1.30, 2.5, 751.8)"></path><text xml:space="preserve" font-family="HelveticaNeue" font-size="16.0" fill="#FFFFFF" transform="matrix(1.30, 0.00, -0.00, -1.30, 734.2, 598.0)">B</text><text xml:space="preserve" font-family="HelveticaNeue" font-size="16.0" fill="#FFFFFF" transform="matrix(1.30, 0.00, -0.00, -1.30, 748.4, 598.0)">a</text><text xml:space="preserve" font-family="HelveticaNeue" font-size="16.0" fill="#FFFFFF" transform="matrix(1.30, 0.00, -0.00, -1.30, 759.6, 598.0)">c</text><text xml:space="preserve" font-family="HelveticaNeue" font-size="16.0" fill="#FFFFFF" transform="matrix(1.30, 0.00, -0.00, -1.30, 770.7, 598.0)">k</text><text xml:space="preserve" font-family="HelveticaNeue" font-size="16.0" fill="#FFFFFF" transform="matrix(1.30, 0.00, -0.00, -1.30, 781.5, 598.0)">b</text><text xml:space="preserve" font-family="HelveticaNeue" font-size="16.0" fill="#FFFFFF" transform="matrix(1.30, 0.00, -0.00, -1.30, 793.8, 598.0)">o</text><text xml:space="preserve" font-family="HelveticaNeue" font-size="16.0" fill="#FFFFFF" transform="matrix(1.30, 0.00, -0.00, -1.30, 805.7, 598.0)">n</text><text xml:space="preserve" font-family="HelveticaNeue" font-size="16.0" fill="#FFFFFF" transform="matrix(1.30, 0.00, -0.00, -1.30, 817.3, 598.0)">e</text><text xml:space="preserve" font-family="HelveticaNeue" font-size="16.0" fill="#FFFFFF" transform="matrix(1.30, 0.00, -0.00, -1.30, 828.4, 598.0)"> </text><text xml:space="preserve" font-family="HelveticaNeue" font-size="16.0" fill="#FFFFFF" transform="matrix(1.30, 0.00, -0.00, -1.30, 834.2, 598.0)">P</text><text xml:space="preserve" font-family="HelveticaNeue" font-size="16.0" fill="#FFFFFF" transform="matrix(1.30, 0.00, -0.00, -1.30, 847.6, 598.0)">r</text><text xml:space="preserve" font-family="HelveticaNeue" font-size="16.0" fill="#FFFFFF" transform="matrix(1.30, 0.00, -0.00, -1.30, 854.2, 598.0)">o</text><text xml:space="preserve" font-family="HelveticaNeue" font-size="16.0" fill="#FFFFFF" transform="matrix(1.30, 0.00, -0.00, -1.30, 866.1, 598.0)">v</text><text xml:space="preserve" font-family="HelveticaNeue" font-size="16.0" fill="#FFFFFF" transform="matrix(1.30, 0.00, -0.00, -1.30, 876.4, 598.0)">i</text><text xml:space="preserve" font-family="HelveticaNeue" font-size="16.0" fill="#FFFFFF" transform="matrix(1.30, 0.00, -0.00, -1.30, 881.0, 598.0)">d</text><text xml:space="preserve" font-family="HelveticaNeue" font-size="16.0" fill="#FFFFFF" transform="matrix(1.30, 0.00, -0.00, -1.30, 893.4, 598.0)">e</text><text xml:space="preserve" font-family="HelveticaNeue" font-size="16.0" fill="#FFFFFF" transform="matrix(1.30, 0.00, -0.00, -1.30, 904.5, 598.0)">r</text><text xml:space="preserve" font-family="HelveticaNeue" font-size="16.0" fill="#FFFFFF" transform="matrix(0.00, -1.30, -1.30, 0.00, 989.9, 530.4)">B</text><text xml:space="preserve" font-family="HelveticaNeue" font-size="16.0" fill="#FFFFFF" transform="matrix(0.00, -1.30, -1.30, 0.00, 989.9, 516.2)">a</text><text xml:space="preserve" font-family="HelveticaNeue" font-size="16.0" fill="#FFFFFF" transform="matrix(0.00, -1.30, -1.30, 0.00, 989.9, 505.1)">c</text><text xml:space="preserve" font-family="HelveticaNeue" font-size="16.0" fill="#FFFFFF" transform="matrix(0.00, -1.30, -1.30, 0.00, 989.9, 493.9)">k</text><text xml:space="preserve" font-family="HelveticaNeue" font-size="16.0" fill="#FFFFFF" transform="matrix(0.00, -1.30, -1.30, 0.00, 989.9, 483.2)">b</text><text xml:space="preserve" font-family="HelveticaNeue" font-size="16.0" fill="#FFFFFF" transform="matrix(0.00, -1.30, -1.30, 0.00, 989.9, 470.8)">o</text><text xml:space="preserve" font-family="HelveticaNeue" font-size="16.0" fill="#FFFFFF" transform="matrix(0.00, -1.30, -1.30, 0.00, 989.9, 458.9)">n</text><text xml:space="preserve" font-family="HelveticaNeue" font-size="16.0" fill="#FFFFFF" transform="matrix(0.00, -1.30, -1.30, 0.00, 989.9, 447.4)">e</text><text xml:space="preserve" font-family="HelveticaNeue" font-size="16.0" fill="#FFFFFF" transform="matrix(0.00, -1.30, -1.30, 0.00, 989.9, 436.3)"> </text><text xml:space="preserve" font-family="HelveticaNeue" font-size="16.0" fill="#FFFFFF" transform="matrix(0.00, -1.30, -1.30, 0.00, 989.9, 430.5)">P</text><text xml:space="preserve" font-family="HelveticaNeue" font-size="16.0" fill="#FFFFFF" transform="matrix(0.00, -1.30, -1.30, 0.00, 989.9, 417.0)">r</text><text xml:space="preserve" font-family="HelveticaNeue" font-size="16.0" fill="#FFFFFF" transform="matrix(0.00, -1.30, -1.30, 0.00, 989.9, 410.5)">o</text><text xml:space="preserve" font-family="HelveticaNeue" font-size="16.0" fill="#FFFFFF" transform="matrix(0.00, -1.30, -1.30, 0.00, 989.9, 398.6)">v</text><text xml:space="preserve" font-family="HelveticaNeue" font-size="16.0" fill="#FFFFFF" transform="matrix(0.00, -1.30, -1.30, 0.00, 989.9, 388.2)">i</text><text xml:space="preserve" font-family="HelveticaNeue" font-size="16.0" fill="#FFFFFF" transform="matrix(0.00, -1.30, -1.30, 0.00, 989.9, 383.6)">d</text><text xml:space="preserve" font-family="HelveticaNeue" font-size="16.0" fill="#FFFFFF" transform="matrix(0.00, -1.30, -1.30, 0.00, 989.9, 371.3)">e</text><text xml:space="preserve" font-family="HelveticaNeue" font-size="16.0" fill="#FFFFFF" transform="matrix(0.00, -1.30, -1.30, 0.00, 989.9, 360.2)">r</text></g></g><g><clipPath id="clip-3544"><path d="M 274.5 296.0 L 421.6 296.0 L 421.6 148.9 L 274.5 148.9 Z M 274.5 296.0 "></path></clipPath><g clip-path="url(#clip-3544)"><g><clipPath id="clip-3545"><path d="M 79.0 93.0 L 1018.0 93.0 L 1018.0 626.0 L 79.0 626.0 Z M 79.0 93.0 "></path></clipPath><g clip-path="url(#clip-3545)"><image xlink:href="../../FB42B9DB-24C3-4BD5-BD32-C4B5653473C6/assets/3202CC6D782DA1A38A3BB18E8D19A473.png" width="512.00" height="512.00" transform="matrix(0.29, 0.00, -0.00, -0.29, 274.5, 296.0)"></image></g></g></g></g><g><clipPath id="clip-3546"><path d="M 79.0 93.0 L 1018.0 93.0 L 1018.0 626.0 L 79.0 626.0 Z M 79.0 93.0 "></path></clipPath><g clip-path="url(#clip-3546)"><text xml:space="preserve" font-family="HelveticaNeue" font-size="16.0" fill="#FFFFFF" transform="matrix(1.30, 0.00, -0.00, -1.30, 238.4, 121.7)">M</text><text xml:space="preserve" font-family="HelveticaNeue" font-size="16.0" fill="#FFFFFF" transform="matrix(1.30, 0.00, -0.00, -1.30, 256.5, 121.7)">a</text><text xml:space="preserve" font-family="HelveticaNeue" font-size="16.0" fill="#FFFFFF" transform="matrix(1.30, 0.00, -0.00, -1.30, 267.7, 121.7)">n</text><text xml:space="preserve" font-family="HelveticaNeue" font-size="16.0" fill="#FFFFFF" transform="matrix(1.30, 0.00, -0.00, -1.30, 279.2, 121.7)"> </text><text xml:space="preserve" font-family="HelveticaNeue" font-size="16.0" fill="#FFFFFF" transform="matrix(1.30, 0.00, -0.00, -1.30, 285.0, 121.7)">i</text><text xml:space="preserve" font-family="HelveticaNeue" font-size="16.0" fill="#FFFFFF" transform="matrix(1.30, 0.00, -0.00, -1.30, 289.6, 121.7)">n</text><text xml:space="preserve" font-family="HelveticaNeue" font-size="16.0" fill="#FFFFFF" transform="matrix(1.30, 0.00, -0.00, -1.30, 301.1, 121.7)"> </text><text xml:space="preserve" font-family="HelveticaNeue" font-size="16.0" fill="#FFFFFF" transform="matrix(1.30, 0.00, -0.00, -1.30, 306.9, 121.7)">t</text><text xml:space="preserve" font-family="HelveticaNeue" font-size="16.0" fill="#FFFFFF" transform="matrix(1.30, 0.00, -0.00, -1.30, 313.4, 121.7)">h</text><text xml:space="preserve" font-family="HelveticaNeue" font-size="16.0" fill="#FFFFFF" transform="matrix(1.30, 0.00, -0.00, -1.30, 325.0, 121.7)">e</text><text xml:space="preserve" font-family="HelveticaNeue" font-size="16.0" fill="#FFFFFF" transform="matrix(1.30, 0.00, -0.00, -1.30, 336.1, 121.7)"> </text><text xml:space="preserve" font-family="HelveticaNeue" font-size="16.0" fill="#FFFFFF" transform="matrix(1.30, 0.00, -0.00, -1.30, 341.9, 121.7)">m</text><text xml:space="preserve" font-family="HelveticaNeue" font-size="16.0" fill="#FFFFFF" transform="matrix(1.30, 0.00, -0.00, -1.30, 359.6, 121.7)">i</text><text xml:space="preserve" font-family="HelveticaNeue" font-size="16.0" fill="#FFFFFF" transform="matrix(1.30, 0.00, -0.00, -1.30, 364.2, 121.7)">d</text><text xml:space="preserve" font-family="HelveticaNeue" font-size="16.0" fill="#FFFFFF" transform="matrix(1.30, 0.00, -0.00, -1.30, 376.5, 121.7)">d</text><text xml:space="preserve" font-family="HelveticaNeue" font-size="16.0" fill="#FFFFFF" transform="matrix(1.30, 0.00, -0.00, -1.30, 388.8, 121.7)">l</text><text xml:space="preserve" font-family="HelveticaNeue" font-size="16.0" fill="#FFFFFF" transform="matrix(1.30, 0.00, -0.00, -1.30, 393.4, 121.7)">e</text><text xml:space="preserve" font-family="HelveticaNeue" font-size="16.0" fill="#FFFFFF" transform="matrix(1.30, 0.00, -0.00, -1.30, 404.5, 121.7)"> </text><text xml:space="preserve" font-family="HelveticaNeue" font-size="16.0" fill="#FFFFFF" transform="matrix(1.30, 0.00, -0.00, -1.30, 410.3, 121.7)">a</text><text xml:space="preserve" font-family="HelveticaNeue" font-size="16.0" fill="#FFFFFF" transform="matrix(1.30, 0.00, -0.00, -1.30, 421.5, 121.7)">t</text><text xml:space="preserve" font-family="HelveticaNeue" font-size="16.0" fill="#FFFFFF" transform="matrix(1.30, 0.00, -0.00, -1.30, 428.0, 121.7)">t</text><text xml:space="preserve" font-family="HelveticaNeue" font-size="16.0" fill="#FFFFFF" transform="matrix(1.30, 0.00, -0.00, -1.30, 434.5, 121.7)">a</text><text xml:space="preserve" font-family="HelveticaNeue" font-size="16.0" fill="#FFFFFF" transform="matrix(1.30, 0.00, -0.00, -1.30, 445.7, 121.7)">c</text><text xml:space="preserve" font-family="HelveticaNeue" font-size="16.0" fill="#FFFFFF" transform="matrix(1.30, 0.00, -0.00, -1.30, 456.8, 121.7)">k</text><path d="M 250.3 351.5 L 208.5 205.2 " fill="none" stroke="#C01A24" stroke-width="3.00" stroke-miterlimit="0.00" stroke-linecap="round" stroke-linejoin="round" transform="matrix(1.30, 0.00, 0.00, -1.30, 2.5, 751.8)"></path><path d="M 268.9 499.6 L 267.6 484.2 L 278.1 487.2 Z M 268.9 499.6 " fill="#C01A24"></path><path d="M 205.4 194.4 L 204.4 206.4 L 212.5 204.1 Z M 205.4 194.4 " fill="none" stroke="#C01A24" stroke-width="3.00" stroke-miterlimit="0.00" transform="matrix(1.30, 0.00, 0.00, -1.30, 2.5, 751.8)"></path><path d="M 285.1 351.5 L 335.2 199.4 " fill="none" stroke="#C01A24" stroke-width="3.00" stroke-miterlimit="0.00" stroke-linecap="round" stroke-linejoin="round" transform="matrix(1.30, 0.00, 0.00, -1.30, 2.5, 751.8)"></path><path d="M 441.7 507.1 L 432.0 495.0 L 442.4 491.6 Z M 441.7 507.1 " fill="#C01A24"></path><path d="M 338.7 188.7 L 331.2 198.0 L 339.2 200.7 Z M 338.7 188.7 " fill="none" stroke="#C01A24" stroke-width="3.00" stroke-miterlimit="0.00" transform="matrix(1.30, 0.00, 0.00, -1.30, 2.5, 751.8)"></path><path d="M 323.1 353.0 L 470.5 209.5 " fill="none" stroke="#C01A24" stroke-width="3.00" stroke-miterlimit="0.00" stroke-linecap="round" stroke-linejoin="round" transform="matrix(1.30, 0.00, 0.00, -1.30, 2.5, 751.8)"></path><path d="M 623.1 490.2 L 608.9 484.0 L 616.5 476.2 Z M 623.1 490.2 " fill="#C01A24"></path><path d="M 478.5 201.7 L 467.6 206.5 L 473.4 212.5 Z M 478.5 201.7 " fill="none" stroke="#C01A24" stroke-width="3.00" stroke-miterlimit="0.00" transform="matrix(1.30, 0.00, 0.00, -1.30, 2.5, 751.8)"></path><path d="M 323.1 375.5 L 621.2 203.5 " fill="none" stroke="#C01A24" stroke-width="3.00" stroke-miterlimit="0.00" stroke-linecap="round" stroke-linejoin="round" transform="matrix(1.30, 0.00, 0.00, -1.30, 2.5, 751.8)"></path><path d="M 820.7 495.1 L 805.4 492.6 L 810.9 483.1 Z M 820.7 495.1 " fill="#C01A24"></path><path d="M 630.9 197.9 L 619.1 199.9 L 623.3 207.2 Z M 630.9 197.9 " fill="none" stroke="#C01A24" stroke-width="3.00" stroke-miterlimit="0.00" transform="matrix(1.30, 0.00, 0.00, -1.30, 2.5, 751.8)"></path><path d="M 323.1 385.3 L 637.2 258.2 " fill="none" stroke="#C01A24" stroke-width="3.00" stroke-miterlimit="0.00" stroke-linecap="round" stroke-linejoin="round" transform="matrix(1.30, 0.00, 0.00, -1.30, 2.5, 751.8)"></path><path d="M 842.4 422.3 L 826.9 421.9 L 831.0 411.8 Z M 842.4 422.3 " fill="#C01A24"></path><path d="M 647.6 254.0 L 635.7 254.4 L 638.8 262.1 Z M 647.6 254.0 " fill="none" stroke="#C01A24" stroke-width="3.00" stroke-miterlimit="0.00" transform="matrix(1.30, 0.00, 0.00, -1.30, 2.5, 751.8)"></path><path d="M 323.1 402.7 L 658.8 370.0 " fill="none" stroke="#C01A24" stroke-width="3.00" stroke-miterlimit="0.00" stroke-linecap="round" stroke-linejoin="round" transform="matrix(1.30, 0.00, 0.00, -1.30, 2.5, 751.8)"></path><path d="M 871.4 273.3 L 856.4 277.3 L 857.5 266.5 Z M 871.4 273.3 " fill="#C01A24"></path><path d="M 670.0 369.0 L 658.4 365.9 L 659.2 374.2 Z M 670.0 369.0 " fill="none" stroke="#C01A24" stroke-width="3.00" stroke-miterlimit="0.00" transform="matrix(1.30, 0.00, 0.00, -1.30, 2.5, 751.8)"></path></g></g><text xml:space="preserve" font-family="Chalkduster" font-size="64.8" fill="#FFFFFF" transform="matrix(1.00, 0.00, -0.00, -1.00, 73.0, 681.0)">m</text><text xml:space="preserve" font-family="Chalkduster" font-size="64.8" fill="#FFFFFF" transform="matrix(1.00, 0.00, -0.00, -1.00, 138.6, 681.0)">ö</text><text xml:space="preserve" font-family="Chalkduster" font-size="64.8" fill="#FFFFFF" transform="matrix(1.00, 0.00, -0.00, -1.00, 187.9, 681.0)">g</text><text xml:space="preserve" font-family="Chalkduster" font-size="64.8" fill="#FFFFFF" transform="matrix(1.00, 0.00, -0.00, -1.00, 234.8, 681.0)">l</text><text xml:space="preserve" font-family="Chalkduster" font-size="64.8" fill="#FFFFFF" transform="matrix(1.00, 0.00, -0.00, -1.00, 265.9, 681.0)">i</text><text xml:space="preserve" font-family="Chalkduster" font-size="64.8" fill="#FFFFFF" transform="matrix(1.00, 0.00, -0.00, -1.00, 292.1, 681.0)">c</text><text xml:space="preserve" font-family="Chalkduster" font-size="64.8" fill="#FFFFFF" transform="matrix(1.00, 0.00, -0.00, -1.00, 332.9, 681.0)">h</text><text xml:space="preserve" font-family="Chalkduster" font-size="64.8" fill="#FFFFFF" transform="matrix(1.00, 0.00, -0.00, -1.00, 372.9, 681.0)">e</text><text xml:space="preserve" font-family="Chalkduster" font-size="64.8" fill="#FFFFFF" transform="matrix(1.00, 0.00, -0.00, -1.00, 413.1, 681.0)"> </text><text xml:space="preserve" font-family="Chalkduster" font-size="64.8" fill="#FFFFFF" transform="matrix(1.00, 0.00, -0.00, -1.00, 440.9, 681.0)">A</text><text xml:space="preserve" font-family="Chalkduster" font-size="64.8" fill="#FFFFFF" transform="matrix(1.00, 0.00, -0.00, -1.00, 488.8, 681.0)">n</text><text xml:space="preserve" font-family="Chalkduster" font-size="64.8" fill="#FFFFFF" transform="matrix(1.00, 0.00, -0.00, -1.00, 534.3, 681.0)">g</text><text xml:space="preserve" font-family="Chalkduster" font-size="64.8" fill="#FFFFFF" transform="matrix(1.00, 0.00, -0.00, -1.00, 580.3, 681.0)">r</text><text xml:space="preserve" font-family="Chalkduster" font-size="64.8" fill="#FFFFFF" transform="matrix(1.00, 0.00, -0.00, -1.00, 616.2, 681.0)">i</text><text xml:space="preserve" font-family="Chalkduster" font-size="64.8" fill="#FFFFFF" transform="matrix(1.00, 0.00, -0.00, -1.00, 638.7, 681.0)">f</text><text xml:space="preserve" font-family="Chalkduster" font-size="64.8" fill="#FFFFFF" transform="matrix(1.00, 0.00, -0.00, -1.00, 671.3, 681.0)">f</text><text xml:space="preserve" font-family="Chalkduster" font-size="64.8" fill="#FFFFFF" transform="matrix(1.00, 0.00, -0.00, -1.00, 705.0, 681.0)">s</text><text xml:space="preserve" font-family="Chalkduster" font-size="64.8" fill="#FFFFFF" transform="matrix(1.00, 0.00, -0.00, -1.00, 737.7, 681.0)">p</text><text xml:space="preserve" font-family="Chalkduster" font-size="64.8" fill="#FFFFFF" transform="matrix(1.00, 0.00, -0.00, -1.00, 777.7, 681.0)">u</text><text xml:space="preserve" font-family="Chalkduster" font-size="64.8" fill="#FFFFFF" transform="matrix(1.00, 0.00, -0.00, -1.00, 823.2, 681.0)">n</text><text xml:space="preserve" font-family="Chalkduster" font-size="64.8" fill="#FFFFFF" transform="matrix(1.00, 0.00, -0.00, -1.00, 870.7, 681.0)">k</text><text xml:space="preserve" font-family="Chalkduster" font-size="64.8" fill="#FFFFFF" transform="matrix(1.00, 0.00, -0.00, -1.00, 921.1, 681.0)">t</text></g></svg>