<?xml version="1.0" encoding="UTF-8" standalone="no"?><svg xmlns="http://www.w3.org/2000/svg" xmlns:xlink="http://www.w3.org/1999/xlink" clip-rule="evenodd" stroke-miterlimit="4.00" viewBox="0 0 1024 768"><desc>SVG generated by Keynote</desc><defs></defs><g transform="matrix(1.00, 0.00, -0.00, -1.00, 0.0, 768.0)"><g><clipPath id="clip-3133"><path d="M 0.0 768.0 L 1024.0 768.0 L 1024.0 0.0 L 0.0 0.0 Z M 0.0 768.0 "></path></clipPath><g clip-path="url(#clip-3133)"><image xlink:href="../../AAFA64A7-B22F-44FA-BDCD-1B20F3A178DE/assets/DE78B55DDE70D88C6FF874E8D33A46A3.jpeg" width="1024.00" height="768.00" transform="matrix(1.00, 0.00, -0.00, -1.00, 0.0, 768.0)"></image></g></g><g><clipPath id="clip-3134"><path d="M 193.6 158.0 L 954.4 158.0 L 954.4 563.0 L 193.6 563.0 L 193.6 563.5 L 91.5 563.5 L 91.5 157.5 L 193.6 157.5 Z M 193.6 158.0 "></path></clipPath><g clip-path="url(#clip-3134)"><g><clipPath id="clip-3135"><path d="M 93.0 562.0 L 192.1 562.0 L 192.1 461.2 L 93.0 461.2 Z M 93.0 562.0 "></path></clipPath><g clip-path="url(#clip-3135)"><image xlink:href="../../D9F5A849-145E-4BFB-8CF7-F43537F7008E/assets/A0247B50955C4E7B64907AFBD31E7EB9.jpeg" width="408.00" height="408.00" transform="matrix(0.98, 0.00, -0.00, -0.98, 93.0, 562.0)"></image></g></g></g></g><g><clipPath id="clip-3136"><path d="M 193.6 158.0 L 954.4 158.0 L 954.4 563.0 L 193.6 563.0 L 193.6 563.5 L 91.5 563.5 L 91.5 157.5 L 193.6 157.5 Z M 193.6 158.0 "></path></clipPath><g clip-path="url(#clip-3136)"><g><clipPath id="clip-3137"><path d="M 93.0 461.2 L 192.1 461.2 L 192.1 360.5 L 93.0 360.5 Z M 93.0 461.2 "></path></clipPath><g clip-path="url(#clip-3137)"><image xlink:href="../../D9F5A849-145E-4BFB-8CF7-F43537F7008E/assets/A0247B50955C4E7B64907AFBD31E7EB9.jpeg" width="408.00" height="408.00" transform="matrix(0.98, 0.00, -0.00, -0.98, 93.0, 461.2)"></image></g></g></g></g><g><clipPath id="clip-3138"><path d="M 193.6 158.0 L 954.4 158.0 L 954.4 563.0 L 193.6 563.0 L 193.6 563.5 L 91.5 563.5 L 91.5 157.5 L 193.6 157.5 Z M 193.6 158.0 "></path></clipPath><g clip-path="url(#clip-3138)"><g><clipPath id="clip-3139"><path d="M 93.0 360.5 L 192.1 360.5 L 192.1 259.8 L 93.0 259.8 Z M 93.0 360.5 "></path></clipPath><g clip-path="url(#clip-3139)"><image xlink:href="../../D9F5A849-145E-4BFB-8CF7-F43537F7008E/assets/A0247B50955C4E7B64907AFBD31E7EB9.jpeg" width="408.00" height="408.00" transform="matrix(0.98, 0.00, -0.00, -0.98, 93.0, 360.5)"></image></g></g></g></g><g><clipPath id="clip-3140"><path d="M 193.6 158.0 L 954.4 158.0 L 954.4 563.0 L 193.6 563.0 L 193.6 563.5 L 91.5 563.5 L 91.5 157.5 L 193.6 157.5 Z M 193.6 158.0 "></path></clipPath><g clip-path="url(#clip-3140)"><g><clipPath id="clip-3141"><path d="M 93.0 259.8 L 192.1 259.8 L 192.1 159.0 L 93.0 159.0 Z M 93.0 259.8 "></path></clipPath><g clip-path="url(#clip-3141)"><image xlink:href="../../D9F5A849-145E-4BFB-8CF7-F43537F7008E/assets/A0247B50955C4E7B64907AFBD31E7EB9.jpeg" width="408.00" height="408.00" transform="matrix(0.98, 0.00, -0.00, -0.98, 93.0, 259.8)"></image></g></g></g></g><g><clipPath id="clip-3142"><path d="M 193.6 158.0 L 954.4 158.0 L 954.4 563.0 L 193.6 563.0 L 193.6 563.5 L 91.5 563.5 L 91.5 157.5 L 193.6 157.5 Z M 193.6 158.0 "></path></clipPath><g clip-path="url(#clip-3142)"><g><clipPath id="clip-3143"><path d="M 94.5 462.2 L 190.6 462.2 L 190.6 560.5 L 94.5 560.5 Z M 94.5 462.2 "></path></clipPath><g clip-path="url(#clip-3143)"><text xml:space="preserve" font-family="Chalkduster" font-size="36.0" fill="#FFFFFF" transform="matrix(1.00, 0.00, -0.00, -1.00, 107.0, 495.0)">B</text><text xml:space="preserve" font-family="Chalkduster" font-size="36.0" fill="#FFFFFF" transform="matrix(1.00, 0.00, -0.00, -1.00, 131.0, 495.0)">I</text><text xml:space="preserve" font-family="Chalkduster" font-size="36.0" fill="#FFFFFF" transform="matrix(1.00, 0.00, -0.00, -1.00, 152.5, 495.0)">N</text></g></g></g></g><g><clipPath id="clip-3144"><path d="M 193.6 158.0 L 954.4 158.0 L 954.4 563.0 L 193.6 563.0 L 193.6 563.5 L 91.5 563.5 L 91.5 157.5 L 193.6 157.5 Z M 193.6 158.0 "></path></clipPath><g clip-path="url(#clip-3144)"><g><clipPath id="clip-3145"><path d="M 193.6 462.2 L 300.4 462.2 L 300.4 561.0 L 193.6 561.0 Z M 193.6 462.2 "></path></clipPath><g clip-path="url(#clip-3145)"><text xml:space="preserve" font-family="Chalkduster" font-size="36.0" fill="#FFFFFF" transform="matrix(1.00, 0.00, -0.00, -1.00, 207.0, 495.0)">D</text><text xml:space="preserve" font-family="Chalkduster" font-size="36.0" fill="#FFFFFF" transform="matrix(1.00, 0.00, -0.00, -1.00, 232.2, 495.0)">E</text><text xml:space="preserve" font-family="Chalkduster" font-size="36.0" fill="#FFFFFF" transform="matrix(1.00, 0.00, -0.00, -1.00, 258.8, 495.0)">R</text></g></g></g></g><g><clipPath id="clip-3146"><path d="M 193.6 158.0 L 954.4 158.0 L 954.4 563.0 L 193.6 563.0 L 193.6 563.5 L 91.5 563.5 L 91.5 157.5 L 193.6 157.5 Z M 193.6 158.0 "></path></clipPath><g clip-path="url(#clip-3146)"><g><clipPath id="clip-3147"><path d="M 302.4 462.2 L 446.6 462.2 L 446.6 561.0 L 302.4 561.0 Z M 302.4 462.2 "></path></clipPath><g clip-path="url(#clip-3147)"><text xml:space="preserve" font-family="Chalkduster" font-size="36.0" fill="#FFFFFF" transform="matrix(1.00, 0.00, -0.00, -1.00, 308.0, 495.0)">G</text><text xml:space="preserve" font-family="Chalkduster" font-size="36.0" fill="#FFFFFF" transform="matrix(1.00, 0.00, -0.00, -1.00, 348.0, 495.0)">E</text><text xml:space="preserve" font-family="Chalkduster" font-size="36.0" fill="#FFFFFF" transform="matrix(1.00, 0.00, -0.00, -1.00, 374.6, 495.0)">I</text><text xml:space="preserve" font-family="Chalkduster" font-size="36.0" fill="#FFFFFF" transform="matrix(1.00, 0.00, -0.00, -1.00, 396.0, 495.0)">S</text><text xml:space="preserve" font-family="Chalkduster" font-size="36.0" fill="#FFFFFF" transform="matrix(1.00, 0.00, -0.00, -1.00, 413.9, 495.0)">T</text></g></g></g></g><g><clipPath id="clip-3148"><path d="M 193.6 158.0 L 954.4 158.0 L 954.4 563.0 L 193.6 563.0 L 193.6 563.5 L 91.5 563.5 L 91.5 157.5 L 193.6 157.5 Z M 193.6 158.0 "></path></clipPath><g clip-path="url(#clip-3148)"><g><clipPath id="clip-3149"><path d="M 448.6 462.2 L 561.2 462.2 L 561.2 561.0 L 448.6 561.0 Z M 448.6 462.2 "></path></clipPath><g clip-path="url(#clip-3149)"><text xml:space="preserve" font-family="Chalkduster" font-size="36.0" fill="#FFFFFF" transform="matrix(1.00, 0.00, -0.00, -1.00, 465.0, 495.0)">D</text><text xml:space="preserve" font-family="Chalkduster" font-size="36.0" fill="#FFFFFF" transform="matrix(1.00, 0.00, -0.00, -1.00, 490.2, 495.0)">E</text><text xml:space="preserve" font-family="Chalkduster" font-size="36.0" fill="#FFFFFF" transform="matrix(1.00, 0.00, -0.00, -1.00, 516.8, 495.0)">R</text></g></g></g></g><g><clipPath id="clip-3150"><path d="M 193.6 158.0 L 954.4 158.0 L 954.4 563.0 L 193.6 563.0 L 193.6 563.5 L 91.5 563.5 L 91.5 157.5 L 193.6 157.5 Z M 193.6 158.0 "></path></clipPath><g clip-path="url(#clip-3150)"><g><clipPath id="clip-3151"><path d="M 563.2 462.2 L 718.0 462.2 L 718.0 561.0 L 563.2 561.0 Z M 563.2 462.2 "></path></clipPath><g clip-path="url(#clip-3151)"><text xml:space="preserve" font-family="Chalkduster" font-size="36.0" fill="#FFFFFF" transform="matrix(1.00, 0.00, -0.00, -1.00, 582.0, 495.0)">S</text><text xml:space="preserve" font-family="Chalkduster" font-size="36.0" fill="#FFFFFF" transform="matrix(1.00, 0.00, -0.00, -1.00, 599.9, 495.0)">T</text><text xml:space="preserve" font-family="Chalkduster" font-size="36.0" fill="#FFFFFF" transform="matrix(1.00, 0.00, -0.00, -1.00, 627.5, 495.0)">E</text><text xml:space="preserve" font-family="Chalkduster" font-size="36.0" fill="#FFFFFF" transform="matrix(1.00, 0.00, -0.00, -1.00, 654.1, 495.0)">T</text><text xml:space="preserve" font-family="Chalkduster" font-size="36.0" fill="#FFFFFF" transform="matrix(1.00, 0.00, -0.00, -1.00, 681.8, 495.0)">S</text></g></g></g></g><g><clipPath id="clip-3152"><path d="M 193.6 158.0 L 954.4 158.0 L 954.4 563.0 L 193.6 563.0 L 193.6 563.5 L 91.5 563.5 L 91.5 157.5 L 193.6 157.5 Z M 193.6 158.0 "></path></clipPath><g clip-path="url(#clip-3152)"><g><clipPath id="clip-3153"><path d="M 720.0 462.2 L 952.4 462.2 L 952.4 561.0 L 720.0 561.0 Z M 720.0 462.2 "></path></clipPath><g clip-path="url(#clip-3153)"><text xml:space="preserve" font-family="Chalkduster" font-size="36.0" fill="#FFFFFF" transform="matrix(1.00, 0.00, -0.00, -1.00, 732.0, 495.0)">V</text><text xml:space="preserve" font-family="Chalkduster" font-size="36.0" fill="#FFFFFF" transform="matrix(1.00, 0.00, -0.00, -1.00, 758.7, 495.0)">E</text><text xml:space="preserve" font-family="Chalkduster" font-size="36.0" fill="#FFFFFF" transform="matrix(1.00, 0.00, -0.00, -1.00, 785.3, 495.0)">R</text><text xml:space="preserve" font-family="Chalkduster" font-size="36.0" fill="#FFFFFF" transform="matrix(1.00, 0.00, -0.00, -1.00, 813.3, 495.0)">N</text><text xml:space="preserve" font-family="Chalkduster" font-size="36.0" fill="#FFFFFF" transform="matrix(1.00, 0.00, -0.00, -1.00, 838.9, 495.0)">E</text><text xml:space="preserve" font-family="Chalkduster" font-size="36.0" fill="#FFFFFF" transform="matrix(1.00, 0.00, -0.00, -1.00, 865.6, 495.0)">I</text><text xml:space="preserve" font-family="Chalkduster" font-size="36.0" fill="#FFFFFF" transform="matrix(1.00, 0.00, -0.00, -1.00, 887.0, 495.0)">N</text><text xml:space="preserve" font-family="Chalkduster" font-size="36.0" fill="#FFFFFF" transform="matrix(1.00, 0.00, -0.00, -1.00, 912.6, 495.0)">T</text></g></g></g></g><g><clipPath id="clip-3154"><path d="M 193.6 158.0 L 954.4 158.0 L 954.4 563.0 L 193.6 563.0 L 193.6 563.5 L 91.5 563.5 L 91.5 157.5 L 193.6 157.5 Z M 193.6 158.0 "></path></clipPath><g clip-path="url(#clip-3154)"><g><clipPath id="clip-3155"><path d="M 94.5 361.5 L 190.6 361.5 L 190.6 460.2 L 94.5 460.2 Z M 94.5 361.5 "></path></clipPath><g clip-path="url(#clip-3155)"><text xml:space="preserve" font-family="Chalkduster" font-size="36.0" fill="#FFFFFF" transform="matrix(1.00, 0.00, -0.00, -1.00, 101.0, 394.0)">B</text><text xml:space="preserve" font-family="Chalkduster" font-size="36.0" fill="#FFFFFF" transform="matrix(1.00, 0.00, -0.00, -1.00, 125.1, 394.0)">A</text><text xml:space="preserve" font-family="Chalkduster" font-size="36.0" fill="#FFFFFF" transform="matrix(1.00, 0.00, -0.00, -1.00, 150.6, 394.0)">W</text></g></g></g></g><g><clipPath id="clip-3156"><path d="M 193.6 158.0 L 954.4 158.0 L 954.4 563.0 L 193.6 563.0 L 193.6 563.5 L 91.5 563.5 L 91.5 157.5 L 193.6 157.5 Z M 193.6 158.0 "></path></clipPath><g clip-path="url(#clip-3156)"><g><clipPath id="clip-3157"><path d="M 193.6 361.5 L 300.4 361.5 L 300.4 460.2 L 193.6 460.2 Z M 193.6 361.5 "></path></clipPath><g clip-path="url(#clip-3157)"><text xml:space="preserve" font-family="Chalkduster" font-size="36.0" fill="#FFFFFF" transform="matrix(1.00, 0.00, -0.00, -1.00, 206.0, 394.0)">B</text><text xml:space="preserve" font-family="Chalkduster" font-size="36.0" fill="#FFFFFF" transform="matrix(1.00, 0.00, -0.00, -1.00, 230.1, 394.0)">A</text><text xml:space="preserve" font-family="Chalkduster" font-size="36.0" fill="#FFFFFF" transform="matrix(1.00, 0.00, -0.00, -1.00, 255.6, 394.0)">W</text></g></g></g></g><g><clipPath id="clip-3158"><path d="M 193.6 158.0 L 954.4 158.0 L 954.4 563.0 L 193.6 563.0 L 193.6 563.5 L 91.5 563.5 L 91.5 157.5 L 193.6 157.5 Z M 193.6 158.0 "></path></clipPath><g clip-path="url(#clip-3158)"><g><clipPath id="clip-3159"><path d="M 302.4 361.5 L 446.6 361.5 L 446.6 460.2 L 302.4 460.2 Z M 302.4 361.5 "></path></clipPath><g clip-path="url(#clip-3159)"><text xml:space="preserve" font-family="Chalkduster" font-size="36.0" fill="#FFFFFF" transform="matrix(1.00, 0.00, -0.00, -1.00, 308.0, 394.0)">B</text><text xml:space="preserve" font-family="Chalkduster" font-size="36.0" fill="#FFFFFF" transform="matrix(1.00, 0.00, -0.00, -1.00, 332.1, 394.0)">A</text><text xml:space="preserve" font-family="Chalkduster" font-size="36.0" fill="#FFFFFF" transform="matrix(1.00, 0.00, -0.00, -1.00, 357.6, 394.0)">W</text><text xml:space="preserve" font-family="Chalkduster" font-size="36.0" fill="#FFFFFF" transform="matrix(1.00, 0.00, -0.00, -1.00, 390.3, 394.0)">B</text><text xml:space="preserve" font-family="Chalkduster" font-size="36.0" fill="#FFFFFF" transform="matrix(1.00, 0.00, -0.00, -1.00, 414.3, 394.0)">A</text></g></g></g></g><g><clipPath id="clip-3160"><path d="M 193.6 158.0 L 954.4 158.0 L 954.4 563.0 L 193.6 563.0 L 193.6 563.5 L 91.5 563.5 L 91.5 157.5 L 193.6 157.5 Z M 193.6 158.0 "></path></clipPath><g clip-path="url(#clip-3160)"><g><clipPath id="clip-3161"><path d="M 448.6 361.5 L 561.2 361.5 L 561.2 460.2 L 448.6 460.2 Z M 448.6 361.5 "></path></clipPath><g clip-path="url(#clip-3161)"><text xml:space="preserve" font-family="Chalkduster" font-size="36.0" fill="#FFFFFF" transform="matrix(1.00, 0.00, -0.00, -1.00, 463.0, 394.0)">W</text><text xml:space="preserve" font-family="Chalkduster" font-size="36.0" fill="#FFFFFF" transform="matrix(1.00, 0.00, -0.00, -1.00, 495.6, 394.0)">B</text><text xml:space="preserve" font-family="Chalkduster" font-size="36.0" fill="#FFFFFF" transform="matrix(1.00, 0.00, -0.00, -1.00, 519.7, 394.0)">A</text></g></g></g></g><g><clipPath id="clip-3162"><path d="M 193.6 158.0 L 954.4 158.0 L 954.4 563.0 L 193.6 563.0 L 193.6 563.5 L 91.5 563.5 L 91.5 157.5 L 193.6 157.5 Z M 193.6 158.0 "></path></clipPath><g clip-path="url(#clip-3162)"><g><clipPath id="clip-3163"><path d="M 563.2 361.5 L 718.0 361.5 L 718.0 460.2 L 563.2 460.2 Z M 563.2 361.5 "></path></clipPath><g clip-path="url(#clip-3163)"><text xml:space="preserve" font-family="Chalkduster" font-size="36.0" fill="#FFFFFF" transform="matrix(1.00, 0.00, -0.00, -1.00, 571.0, 394.0)">W</text><text xml:space="preserve" font-family="Chalkduster" font-size="36.0" fill="#FFFFFF" transform="matrix(1.00, 0.00, -0.00, -1.00, 603.6, 394.0)">B</text><text xml:space="preserve" font-family="Chalkduster" font-size="36.0" fill="#FFFFFF" transform="matrix(1.00, 0.00, -0.00, -1.00, 627.7, 394.0)">A</text><text xml:space="preserve" font-family="Chalkduster" font-size="36.0" fill="#FFFFFF" transform="matrix(1.00, 0.00, -0.00, -1.00, 653.2, 394.0)">W</text><text xml:space="preserve" font-family="Chalkduster" font-size="36.0" fill="#FFFFFF" transform="matrix(1.00, 0.00, -0.00, -1.00, 685.8, 394.0)">B</text></g></g></g></g><g><clipPath id="clip-3164"><path d="M 193.6 158.0 L 954.4 158.0 L 954.4 563.0 L 193.6 563.0 L 193.6 563.5 L 91.5 563.5 L 91.5 157.5 L 193.6 157.5 Z M 193.6 158.0 "></path></clipPath><g clip-path="url(#clip-3164)"><g><clipPath id="clip-3165"><path d="M 720.0 361.5 L 952.4 361.5 L 952.4 460.2 L 720.0 460.2 Z M 720.0 361.5 "></path></clipPath><g clip-path="url(#clip-3165)"><text xml:space="preserve" font-family="Chalkduster" font-size="36.0" fill="#FFFFFF" transform="matrix(1.00, 0.00, -0.00, -1.00, 725.0, 394.0)">A</text><text xml:space="preserve" font-family="Chalkduster" font-size="36.0" fill="#FFFFFF" transform="matrix(1.00, 0.00, -0.00, -1.00, 750.5, 394.0)">W</text><text xml:space="preserve" font-family="Chalkduster" font-size="36.0" fill="#FFFFFF" transform="matrix(1.00, 0.00, -0.00, -1.00, 783.2, 394.0)">B</text><text xml:space="preserve" font-family="Chalkduster" font-size="36.0" fill="#FFFFFF" transform="matrix(1.00, 0.00, -0.00, -1.00, 807.3, 394.0)">A</text><text xml:space="preserve" font-family="Chalkduster" font-size="36.0" fill="#FFFFFF" transform="matrix(1.00, 0.00, -0.00, -1.00, 832.8, 394.0)">W</text><text xml:space="preserve" font-family="Chalkduster" font-size="36.0" fill="#FFFFFF" transform="matrix(1.00, 0.00, -0.00, -1.00, 865.4, 394.0)">B</text><text xml:space="preserve" font-family="Chalkduster" font-size="36.0" fill="#FFFFFF" transform="matrix(1.00, 0.00, -0.00, -1.00, 889.5, 394.0)">A</text><text xml:space="preserve" font-family="Chalkduster" font-size="36.0" fill="#FFFFFF" transform="matrix(1.00, 0.00, -0.00, -1.00, 915.1, 394.0)">W</text></g></g></g></g><g><clipPath id="clip-3166"><path d="M 193.6 158.0 L 954.4 158.0 L 954.4 563.0 L 193.6 563.0 L 193.6 563.5 L 91.5 563.5 L 91.5 157.5 L 193.6 157.5 Z M 193.6 158.0 "></path></clipPath><g clip-path="url(#clip-3166)"><g><clipPath id="clip-3167"><path d="M 94.5 160.5 L 190.6 160.5 L 190.6 258.8 L 94.5 258.8 Z M 94.5 160.5 "></path></clipPath><g clip-path="url(#clip-3167)"><text xml:space="preserve" font-family="Chalkduster" font-size="36.0" fill="#FFFFFF" transform="matrix(1.00, 0.00, -0.00, -1.00, 107.0, 193.0)">C</text><text xml:space="preserve" font-family="Chalkduster" font-size="36.0" fill="#FFFFFF" transform="matrix(1.00, 0.00, -0.00, -1.00, 136.2, 193.0)">I</text><text xml:space="preserve" font-family="Chalkduster" font-size="36.0" fill="#FFFFFF" transform="matrix(1.00, 0.00, -0.00, -1.00, 157.6, 193.0)">J</text></g></g></g></g><g><clipPath id="clip-3168"><path d="M 193.6 158.0 L 954.4 158.0 L 954.4 563.0 L 193.6 563.0 L 193.6 563.5 L 91.5 563.5 L 91.5 157.5 L 193.6 157.5 Z M 193.6 158.0 "></path></clipPath><g clip-path="url(#clip-3168)"><g><clipPath id="clip-3169"><path d="M 193.6 160.0 L 300.4 160.0 L 300.4 258.8 L 193.6 258.8 Z M 193.6 160.0 "></path></clipPath><g clip-path="url(#clip-3169)"><text xml:space="preserve" font-family="Chalkduster" font-size="36.0" fill="#FFFFFF" transform="matrix(1.00, 0.00, -0.00, -1.00, 208.0, 192.0)">E</text><text xml:space="preserve" font-family="Chalkduster" font-size="36.0" fill="#FFFFFF" transform="matrix(1.00, 0.00, -0.00, -1.00, 234.6, 192.0)">E</text><text xml:space="preserve" font-family="Chalkduster" font-size="36.0" fill="#FFFFFF" transform="matrix(1.00, 0.00, -0.00, -1.00, 261.2, 192.0)">N</text></g></g></g></g><g><clipPath id="clip-3170"><path d="M 193.6 158.0 L 954.4 158.0 L 954.4 563.0 L 193.6 563.0 L 193.6 563.5 L 91.5 563.5 L 91.5 157.5 L 193.6 157.5 Z M 193.6 158.0 "></path></clipPath><g clip-path="url(#clip-3170)"><g><clipPath id="clip-3171"><path d="M 302.4 160.0 L 446.6 160.0 L 446.6 258.8 L 302.4 258.8 Z M 302.4 160.0 "></path></clipPath><g clip-path="url(#clip-3171)"><text xml:space="preserve" font-family="Chalkduster" font-size="36.0" fill="#FFFFFF" transform="matrix(1.00, 0.00, -0.00, -1.00, 309.0, 192.0)">H</text><text xml:space="preserve" font-family="Chalkduster" font-size="36.0" fill="#FFFFFF" transform="matrix(1.00, 0.00, -0.00, -1.00, 331.9, 192.0)">E</text><text xml:space="preserve" font-family="Chalkduster" font-size="36.0" fill="#FFFFFF" transform="matrix(1.00, 0.00, -0.00, -1.00, 358.6, 192.0)">E</text><text xml:space="preserve" font-family="Chalkduster" font-size="36.0" fill="#FFFFFF" transform="matrix(1.00, 0.00, -0.00, -1.00, 385.2, 192.0)">T</text><text xml:space="preserve" font-family="Chalkduster" font-size="36.0" fill="#FFFFFF" transform="matrix(1.00, 0.00, -0.00, -1.00, 412.8, 192.0)">T</text></g></g></g></g><g><clipPath id="clip-3172"><path d="M 193.6 158.0 L 954.4 158.0 L 954.4 563.0 L 193.6 563.0 L 193.6 563.5 L 91.5 563.5 L 91.5 157.5 L 193.6 157.5 Z M 193.6 158.0 "></path></clipPath><g clip-path="url(#clip-3172)"><g><clipPath id="clip-3173"><path d="M 448.6 160.0 L 561.2 160.0 L 561.2 258.8 L 448.6 258.8 Z M 448.6 160.0 "></path></clipPath><g clip-path="url(#clip-3173)"><text xml:space="preserve" font-family="Chalkduster" font-size="36.0" fill="#FFFFFF" transform="matrix(1.00, 0.00, -0.00, -1.00, 463.0, 192.0)">Z</text><text xml:space="preserve" font-family="Chalkduster" font-size="36.0" fill="#FFFFFF" transform="matrix(1.00, 0.00, -0.00, -1.00, 491.6, 192.0)">F</text><text xml:space="preserve" font-family="Chalkduster" font-size="36.0" fill="#FFFFFF" transform="matrix(1.00, 0.00, -0.00, -1.00, 518.4, 192.0)">R</text></g></g></g></g><g><clipPath id="clip-3174"><path d="M 193.6 158.0 L 954.4 158.0 L 954.4 563.0 L 193.6 563.0 L 193.6 563.5 L 91.5 563.5 L 91.5 157.5 L 193.6 157.5 Z M 193.6 158.0 "></path></clipPath><g clip-path="url(#clip-3174)"><g><clipPath id="clip-3175"><path d="M 563.2 160.0 L 718.0 160.0 L 718.0 258.8 L 563.2 258.8 Z M 563.2 160.0 "></path></clipPath><g clip-path="url(#clip-3175)"><text xml:space="preserve" font-family="Chalkduster" font-size="36.0" fill="#FFFFFF" transform="matrix(1.00, 0.00, -0.00, -1.00, 575.0, 192.0)">O</text><text xml:space="preserve" font-family="Chalkduster" font-size="36.0" fill="#FFFFFF" transform="matrix(1.00, 0.00, -0.00, -1.00, 600.2, 192.0)">U</text><text xml:space="preserve" font-family="Chalkduster" font-size="36.0" fill="#FFFFFF" transform="matrix(1.00, 0.00, -0.00, -1.00, 625.8, 192.0)">E</text><text xml:space="preserve" font-family="Chalkduster" font-size="36.0" fill="#FFFFFF" transform="matrix(1.00, 0.00, -0.00, -1.00, 652.4, 192.0)">P</text><text xml:space="preserve" font-family="Chalkduster" font-size="36.0" fill="#FFFFFF" transform="matrix(1.00, 0.00, -0.00, -1.00, 678.0, 192.0)">T</text></g></g></g></g><g><clipPath id="clip-3176"><path d="M 193.6 158.0 L 954.4 158.0 L 954.4 563.0 L 193.6 563.0 L 193.6 563.5 L 91.5 563.5 L 91.5 157.5 L 193.6 157.5 Z M 193.6 158.0 "></path></clipPath><g clip-path="url(#clip-3176)"><g><clipPath id="clip-3177"><path d="M 720.0 160.0 L 952.4 160.0 L 952.4 258.8 L 720.0 258.8 Z M 720.0 160.0 "></path></clipPath><g clip-path="url(#clip-3177)"><text xml:space="preserve" font-family="Chalkduster" font-size="36.0" fill="#FFFFFF" transform="matrix(1.00, 0.00, -0.00, -1.00, 739.0, 192.0)">V</text><text xml:space="preserve" font-family="Chalkduster" font-size="36.0" fill="#FFFFFF" transform="matrix(1.00, 0.00, -0.00, -1.00, 764.1, 192.0)">A</text><text xml:space="preserve" font-family="Chalkduster" font-size="36.0" fill="#FFFFFF" transform="matrix(1.00, 0.00, -0.00, -1.00, 789.2, 192.0)">S</text><text xml:space="preserve" font-family="Chalkduster" font-size="36.0" fill="#FFFFFF" transform="matrix(1.00, 0.00, -0.00, -1.00, 807.1, 192.0)">N</text><text xml:space="preserve" font-family="Chalkduster" font-size="36.0" fill="#FFFFFF" transform="matrix(1.00, 0.00, -0.00, -1.00, 832.7, 192.0)">A</text><text xml:space="preserve" font-family="Chalkduster" font-size="36.0" fill="#FFFFFF" transform="matrix(1.00, 0.00, -0.00, -1.00, 861.3, 192.0)">J</text><text xml:space="preserve" font-family="Chalkduster" font-size="36.0" fill="#FFFFFF" transform="matrix(1.00, 0.00, -0.00, -1.00, 881.9, 192.0)">N</text><text xml:space="preserve" font-family="Chalkduster" font-size="36.0" fill="#FFFFFF" transform="matrix(1.00, 0.00, -0.00, -1.00, 907.5, 192.0)">P</text></g></g></g></g><g><clipPath id="clip-3178"><path d="M 193.6 158.0 L 954.4 158.0 L 954.4 563.0 L 193.6 563.0 L 193.6 563.5 L 91.5 563.5 L 91.5 157.5 L 193.6 157.5 Z M 193.6 158.0 "></path></clipPath><g clip-path="url(#clip-3178)"><path d="M 102.1 1.5 L 102.1 407.5 " fill="none" stroke="#FF0000" stroke-width="3.00" transform="matrix(1.00, 0.00, 0.00, -1.00, 90.0, 565.0)"></path><path d="M 211.4 2.0 L 211.4 407.0 " fill="none" stroke="#FFFFFF" stroke-width="2.00" transform="matrix(1.00, 0.00, 0.00, -1.00, 90.0, 565.0)"></path><path d="M 357.6 2.0 L 357.6 407.0 " fill="none" stroke="#FFFFFF" stroke-width="2.00" transform="matrix(1.00, 0.00, 0.00, -1.00, 90.0, 565.0)"></path><path d="M 472.2 2.0 L 472.2 407.0 " fill="none" stroke="#FFFFFF" stroke-width="2.00" transform="matrix(1.00, 0.00, 0.00, -1.00, 90.0, 565.0)"></path><path d="M 629.0 2.0 L 629.0 407.0 " fill="none" stroke="#FFFFFF" stroke-width="2.00" transform="matrix(1.00, 0.00, 0.00, -1.00, 90.0, 565.0)"></path><path d="M 1.5 103.8 L 864.4 103.8 " fill="none" stroke="#FFFFFF" stroke-width="2.00" transform="matrix(1.00, 0.00, 0.00, -1.00, 90.0, 565.0)"></path><path d="M 1.5 204.5 L 864.4 204.5 " fill="none" stroke="#FFFFFF" stroke-width="2.00" transform="matrix(1.00, 0.00, 0.00, -1.00, 90.0, 565.0)"></path><path d="M 1.5 305.2 L 864.4 305.2 " fill="none" stroke="#FFFFFF" stroke-width="2.00" transform="matrix(1.00, 0.00, 0.00, -1.00, 90.0, 565.0)"></path><path d="M 3.0 1.5 L 3.0 407.5 " fill="none" stroke="#FF0000" stroke-width="3.00" transform="matrix(1.00, 0.00, 0.00, -1.00, 90.0, 565.0)"></path><path d="M 863.4 2.0 L 863.4 407.0 " fill="none" stroke="#FFFFFF" stroke-width="2.00" transform="matrix(1.00, 0.00, 0.00, -1.00, 90.0, 565.0)"></path><path d="M 1.5 3.0 L 103.6 3.0 " fill="none" stroke="#FF0000" stroke-width="3.00" transform="matrix(1.00, 0.00, 0.00, -1.00, 90.0, 565.0)"></path><path d="M 103.6 3.0 L 864.4 3.0 " fill="none" stroke="#FFFFFF" stroke-width="2.00" transform="matrix(1.00, 0.00, 0.00, -1.00, 90.0, 565.0)"></path><path d="M 1.5 406.0 L 103.6 406.0 " fill="none" stroke="#FF0000" stroke-width="3.00" transform="matrix(1.00, 0.00, 0.00, -1.00, 90.0, 565.0)"></path><path d="M 103.6 406.0 L 864.4 406.0 " fill="none" stroke="#FFFFFF" stroke-width="2.00" transform="matrix(1.00, 0.00, 0.00, -1.00, 90.0, 565.0)"></path></g></g><text xml:space="preserve" font-family="Chalkduster" font-size="18.0" fill="#FFFFFF" transform="matrix(1.00, 0.00, -0.00, -1.00, 502.0, 12.0)">2</text><text xml:space="preserve" font-family="Chalkduster" font-size="18.0" fill="#FFFFFF" transform="matrix(1.00, 0.00, -0.00, -1.00, 512.1, 12.0)">2</text><text xml:space="preserve" font-family="Chalkduster" font-size="60.5" fill="#FFFFFF" transform="matrix(1.00, 0.00, -0.00, -1.00, 74.0, 683.0)">V</text><text xml:space="preserve" font-family="Chalkduster" font-size="60.5" fill="#FFFFFF" transform="matrix(1.00, 0.00, -0.00, -1.00, 118.9, 683.0)">i</text><text xml:space="preserve" font-family="Chalkduster" font-size="60.5" fill="#FFFFFF" transform="matrix(1.00, 0.00, -0.00, -1.00, 142.8, 683.0)">g</text><text xml:space="preserve" font-family="Chalkduster" font-size="60.5" fill="#FFFFFF" transform="matrix(1.00, 0.00, -0.00, -1.00, 185.0, 683.0)">e</text><text xml:space="preserve" font-family="Chalkduster" font-size="60.5" fill="#FFFFFF" transform="matrix(1.00, 0.00, -0.00, -1.00, 223.1, 683.0)">n</text><text xml:space="preserve" font-family="Chalkduster" font-size="60.5" fill="#FFFFFF" transform="matrix(1.00, 0.00, -0.00, -1.00, 267.5, 683.0)">è</text><text xml:space="preserve" font-family="Chalkduster" font-size="60.5" fill="#FFFFFF" transform="matrix(1.00, 0.00, -0.00, -1.00, 307.2, 683.0)">r</text><text xml:space="preserve" font-family="Chalkduster" font-size="60.5" fill="#FFFFFF" transform="matrix(1.00, 0.00, -0.00, -1.00, 337.8, 683.0)">e</text><text xml:space="preserve" font-family="Chalkduster" font-size="60.5" fill="#FFFFFF" transform="matrix(1.00, 0.00, -0.00, -1.00, 375.3, 683.0)">-</text><text xml:space="preserve" font-family="Chalkduster" font-size="60.5" fill="#FFFFFF" transform="matrix(1.00, 0.00, -0.00, -1.00, 410.2, 683.0)">V</text><text xml:space="preserve" font-family="Chalkduster" font-size="60.5" fill="#FFFFFF" transform="matrix(1.00, 0.00, -0.00, -1.00, 449.6, 683.0)">e</text><text xml:space="preserve" font-family="Chalkduster" font-size="60.5" fill="#FFFFFF" transform="matrix(1.00, 0.00, -0.00, -1.00, 486.4, 683.0)">r</text><text xml:space="preserve" font-family="Chalkduster" font-size="60.5" fill="#FFFFFF" transform="matrix(1.00, 0.00, -0.00, -1.00, 517.6, 683.0)">s</text><text xml:space="preserve" font-family="Chalkduster" font-size="60.5" fill="#FFFFFF" transform="matrix(1.00, 0.00, -0.00, -1.00, 549.5, 683.0)">c</text><text xml:space="preserve" font-family="Chalkduster" font-size="60.5" fill="#FFFFFF" transform="matrix(1.00, 0.00, -0.00, -1.00, 587.5, 683.0)">h</text><text xml:space="preserve" font-family="Chalkduster" font-size="60.5" fill="#FFFFFF" transform="matrix(1.00, 0.00, -0.00, -1.00, 624.9, 683.0)">l</text><text xml:space="preserve" font-family="Chalkduster" font-size="60.5" fill="#FFFFFF" transform="matrix(1.00, 0.00, -0.00, -1.00, 653.2, 683.0)">ü</text><text xml:space="preserve" font-family="Chalkduster" font-size="60.5" fill="#FFFFFF" transform="matrix(1.00, 0.00, -0.00, -1.00, 696.7, 683.0)">s</text><text xml:space="preserve" font-family="Chalkduster" font-size="60.5" fill="#FFFFFF" transform="matrix(1.00, 0.00, -0.00, -1.00, 727.2, 683.0)">s</text><text xml:space="preserve" font-family="Chalkduster" font-size="60.5" fill="#FFFFFF" transform="matrix(1.00, 0.00, -0.00, -1.00, 757.8, 683.0)">e</text><text xml:space="preserve" font-family="Chalkduster" font-size="60.5" fill="#FFFFFF" transform="matrix(1.00, 0.00, -0.00, -1.00, 795.3, 683.0)">l</text><text xml:space="preserve" font-family="Chalkduster" font-size="60.5" fill="#FFFFFF" transform="matrix(1.00, 0.00, -0.00, -1.00, 823.0, 683.0)">u</text><text xml:space="preserve" font-family="Chalkduster" font-size="60.5" fill="#FFFFFF" transform="matrix(1.00, 0.00, -0.00, -1.00, 865.5, 683.0)">n</text><text xml:space="preserve" font-family="Chalkduster" font-size="60.5" fill="#FFFFFF" transform="matrix(1.00, 0.00, -0.00, -1.00, 908.0, 683.0)">g</text></g></svg>