<?xml version="1.0" encoding="UTF-8" standalone="no"?><svg xmlns="http://www.w3.org/2000/svg" xmlns:xlink="http://www.w3.org/1999/xlink" clip-rule="evenodd" stroke-miterlimit="4.00" viewBox="0 0 506 65"><desc>SVG generated by Keynote</desc><defs></defs><g transform="matrix(1.00, 0.00, -0.00, -1.00, 0.0, 65.0)"><text xml:space="preserve" font-family="Chalkduster" font-size="72.0" fill="#FFFFFF" transform="matrix(1.00, 0.00, -0.00, -1.00, -3.0, 10.0)">R</text><text xml:space="preserve" font-family="Chalkduster" font-size="72.0" fill="#FFFFFF" transform="matrix(1.00, 0.00, -0.00, -1.00, 53.0, 10.0)">a</text><text xml:space="preserve" font-family="Chalkduster" font-size="72.0" fill="#FFFFFF" transform="matrix(1.00, 0.00, -0.00, -1.00, 102.6, 10.0)">n</text><text xml:space="preserve" font-family="Chalkduster" font-size="72.0" fill="#FFFFFF" transform="matrix(1.00, 0.00, -0.00, -1.00, 155.4, 10.0)">s</text><text xml:space="preserve" font-family="Chalkduster" font-size="72.0" fill="#FFFFFF" transform="matrix(1.00, 0.00, -0.00, -1.00, 191.8, 10.0)">o</text><text xml:space="preserve" font-family="Chalkduster" font-size="72.0" fill="#FFFFFF" transform="matrix(1.00, 0.00, -0.00, -1.00, 245.7, 10.0)">m</text><text xml:space="preserve" font-family="Chalkduster" font-size="72.0" fill="#FFFFFF" transform="matrix(1.00, 0.00, -0.00, -1.00, 318.6, 10.0)">w</text><text xml:space="preserve" font-family="Chalkduster" font-size="72.0" fill="#FFFFFF" transform="matrix(1.00, 0.00, -0.00, -1.00, 377.4, 10.0)">a</text><text xml:space="preserve" font-family="Chalkduster" font-size="72.0" fill="#FFFFFF" transform="matrix(1.00, 0.00, -0.00, -1.00, 423.3, 10.0)">r</text><text xml:space="preserve" font-family="Chalkduster" font-size="72.0" fill="#FFFFFF" transform="matrix(1.00, 0.00, -0.00, -1.00, 459.7, 10.0)">e</text></g></svg>