<?xml version="1.0" encoding="UTF-8" standalone="no"?><svg xmlns="http://www.w3.org/2000/svg" xmlns:xlink="http://www.w3.org/1999/xlink" clip-rule="evenodd" stroke-miterlimit="4.00" viewBox="0 0 1024 768"><desc>SVG generated by Keynote</desc><defs></defs><g transform="matrix(1.00, 0.00, -0.00, -1.00, 0.0, 768.0)"><g><clipPath id="clip-3698"><path d="M 0.0 768.0 L 1024.0 768.0 L 1024.0 0.0 L 0.0 0.0 Z M 0.0 768.0 "></path></clipPath><g clip-path="url(#clip-3698)"><image xlink:href="../../AAFA64A7-B22F-44FA-BDCD-1B20F3A178DE/assets/DE78B55DDE70D88C6FF874E8D33A46A3.jpeg" width="1024.00" height="768.00" transform="matrix(1.00, 0.00, -0.00, -1.00, 0.0, 768.0)"></image></g></g><text xml:space="preserve" font-family="Chalkduster" font-size="34.9" fill="#FFFFFF" transform="matrix(1.00, 0.00, -0.00, -1.00, 157.0, 311.0)">E</text><text xml:space="preserve" font-family="Chalkduster" font-size="34.9" fill="#FFFFFF" transform="matrix(1.00, 0.00, -0.00, -1.00, 182.8, 311.0)">r</text><text xml:space="preserve" font-family="Chalkduster" font-size="34.9" fill="#FFFFFF" transform="matrix(1.00, 0.00, -0.00, -1.00, 202.2, 311.0)">p</text><text xml:space="preserve" font-family="Chalkduster" font-size="34.9" fill="#FFFFFF" transform="matrix(1.00, 0.00, -0.00, -1.00, 223.8, 311.0)">r</text><text xml:space="preserve" font-family="Chalkduster" font-size="34.9" fill="#FFFFFF" transform="matrix(1.00, 0.00, -0.00, -1.00, 241.4, 311.0)">e</text><text xml:space="preserve" font-family="Chalkduster" font-size="34.9" fill="#FFFFFF" transform="matrix(1.00, 0.00, -0.00, -1.00, 263.9, 311.0)">s</text><text xml:space="preserve" font-family="Chalkduster" font-size="34.9" fill="#FFFFFF" transform="matrix(1.00, 0.00, -0.00, -1.00, 281.5, 311.0)">s</text><text xml:space="preserve" font-family="Chalkduster" font-size="34.9" fill="#FFFFFF" transform="matrix(1.00, 0.00, -0.00, -1.00, 299.1, 311.0)">u</text><text xml:space="preserve" font-family="Chalkduster" font-size="34.9" fill="#FFFFFF" transform="matrix(1.00, 0.00, -0.00, -1.00, 323.7, 311.0)">n</text><text xml:space="preserve" font-family="Chalkduster" font-size="34.9" fill="#FFFFFF" transform="matrix(1.00, 0.00, -0.00, -1.00, 348.2, 311.0)">g</text><text xml:space="preserve" font-family="Chalkduster" font-size="34.9" fill="#FFFFFF" transform="matrix(1.00, 0.00, -0.00, -1.00, 373.0, 311.0)">s</text><text xml:space="preserve" font-family="Chalkduster" font-size="34.9" fill="#FFFFFF" transform="matrix(1.00, 0.00, -0.00, -1.00, 391.7, 311.0)">t</text><text xml:space="preserve" font-family="Chalkduster" font-size="34.9" fill="#FFFFFF" transform="matrix(1.00, 0.00, -0.00, -1.00, 407.7, 311.0)">r</text><text xml:space="preserve" font-family="Chalkduster" font-size="34.9" fill="#FFFFFF" transform="matrix(1.00, 0.00, -0.00, -1.00, 425.6, 311.0)">o</text><text xml:space="preserve" font-family="Chalkduster" font-size="34.9" fill="#FFFFFF" transform="matrix(1.00, 0.00, -0.00, -1.00, 449.0, 311.0)">j</text><text xml:space="preserve" font-family="Chalkduster" font-size="34.9" fill="#FFFFFF" transform="matrix(1.00, 0.00, -0.00, -1.00, 465.3, 311.0)">a</text><text xml:space="preserve" font-family="Chalkduster" font-size="34.9" fill="#FFFFFF" transform="matrix(1.00, 0.00, -0.00, -1.00, 489.4, 311.0)">n</text><text xml:space="preserve" font-family="Chalkduster" font-size="34.9" fill="#FFFFFF" transform="matrix(1.00, 0.00, -0.00, -1.00, 515.5, 311.0)">e</text><text xml:space="preserve" font-family="Chalkduster" font-size="34.9" fill="#FFFFFF" transform="matrix(1.00, 0.00, -0.00, -1.00, 536.8, 311.0)">r</text><text xml:space="preserve" font-family="Chalkduster" font-size="34.9" fill="#FFFFFF" transform="matrix(1.00, 0.00, -0.00, -1.00, 551.1, 311.0)">,</text><text xml:space="preserve" font-family="Chalkduster" font-size="34.9" fill="#FFFFFF" transform="matrix(1.00, 0.00, -0.00, -1.00, 561.9, 311.0)"> </text><text xml:space="preserve" font-family="Chalkduster" font-size="34.9" fill="#FFFFFF" transform="matrix(1.00, 0.00, -0.00, -1.00, 579.3, 311.0)">K</text><text xml:space="preserve" font-family="Chalkduster" font-size="34.9" fill="#FFFFFF" transform="matrix(1.00, 0.00, -0.00, -1.00, 602.2, 311.0)">r</text><text xml:space="preserve" font-family="Chalkduster" font-size="34.9" fill="#FFFFFF" transform="matrix(1.00, 0.00, -0.00, -1.00, 621.9, 311.0)">y</text><text xml:space="preserve" font-family="Chalkduster" font-size="34.9" fill="#FFFFFF" transform="matrix(1.00, 0.00, -0.00, -1.00, 643.1, 311.0)">p</text><text xml:space="preserve" font-family="Chalkduster" font-size="34.9" fill="#FFFFFF" transform="matrix(1.00, 0.00, -0.00, -1.00, 665.0, 311.0)">t</text><text xml:space="preserve" font-family="Chalkduster" font-size="34.9" fill="#FFFFFF" transform="matrix(1.00, 0.00, -0.00, -1.00, 679.4, 311.0)">o</text><text xml:space="preserve" font-family="Chalkduster" font-size="34.9" fill="#FFFFFF" transform="matrix(1.00, 0.00, -0.00, -1.00, 703.3, 311.0)">t</text><text xml:space="preserve" font-family="Chalkduster" font-size="34.9" fill="#FFFFFF" transform="matrix(1.00, 0.00, -0.00, -1.00, 719.2, 311.0)">r</text><text xml:space="preserve" font-family="Chalkduster" font-size="34.9" fill="#FFFFFF" transform="matrix(1.00, 0.00, -0.00, -1.00, 737.1, 311.0)">o</text><text xml:space="preserve" font-family="Chalkduster" font-size="34.9" fill="#FFFFFF" transform="matrix(1.00, 0.00, -0.00, -1.00, 760.5, 311.0)">j</text><text xml:space="preserve" font-family="Chalkduster" font-size="34.9" fill="#FFFFFF" transform="matrix(1.00, 0.00, -0.00, -1.00, 776.8, 311.0)">a</text><text xml:space="preserve" font-family="Chalkduster" font-size="34.9" fill="#FFFFFF" transform="matrix(1.00, 0.00, -0.00, -1.00, 800.9, 311.0)">n</text><text xml:space="preserve" font-family="Chalkduster" font-size="34.9" fill="#FFFFFF" transform="matrix(1.00, 0.00, -0.00, -1.00, 827.0, 311.0)">e</text><text xml:space="preserve" font-family="Chalkduster" font-size="34.9" fill="#FFFFFF" transform="matrix(1.00, 0.00, -0.00, -1.00, 848.3, 311.0)">r</text><text xml:space="preserve" font-family="Chalkduster" font-size="34.9" fill="#FFFFFF" transform="matrix(1.00, 0.00, -0.00, -1.00, 866.7, 311.0)"> </text><text xml:space="preserve" font-family="Chalkduster" font-size="34.9" fill="#FFFFFF" transform="matrix(1.00, 0.00, -0.00, -1.00, 211.0, 258.0)">o</text><text xml:space="preserve" font-family="Chalkduster" font-size="34.9" fill="#FFFFFF" transform="matrix(1.00, 0.00, -0.00, -1.00, 237.8, 258.0)">d</text><text xml:space="preserve" font-family="Chalkduster" font-size="34.9" fill="#FFFFFF" transform="matrix(1.00, 0.00, -0.00, -1.00, 265.1, 258.0)">e</text><text xml:space="preserve" font-family="Chalkduster" font-size="34.9" fill="#FFFFFF" transform="matrix(1.00, 0.00, -0.00, -1.00, 286.4, 258.0)">r</text><text xml:space="preserve" font-family="Chalkduster" font-size="34.9" fill="#FFFFFF" transform="matrix(1.00, 0.00, -0.00, -1.00, 304.8, 258.0)"> </text><text xml:space="preserve" font-family="Chalkduster" font-size="34.9" fill="#FFFFFF" transform="matrix(1.00, 0.00, -0.00, -1.00, 319.1, 258.0)">V</text><text xml:space="preserve" font-family="Chalkduster" font-size="34.9" fill="#FFFFFF" transform="matrix(1.00, 0.00, -0.00, -1.00, 341.8, 258.0)">e</text><text xml:space="preserve" font-family="Chalkduster" font-size="34.9" fill="#FFFFFF" transform="matrix(1.00, 0.00, -0.00, -1.00, 363.1, 258.0)">r</text><text xml:space="preserve" font-family="Chalkduster" font-size="34.9" fill="#FFFFFF" transform="matrix(1.00, 0.00, -0.00, -1.00, 381.1, 258.0)">s</text><text xml:space="preserve" font-family="Chalkduster" font-size="34.9" fill="#FFFFFF" transform="matrix(1.00, 0.00, -0.00, -1.00, 399.5, 258.0)">c</text><text xml:space="preserve" font-family="Chalkduster" font-size="34.9" fill="#FFFFFF" transform="matrix(1.00, 0.00, -0.00, -1.00, 421.5, 258.0)">h</text><text xml:space="preserve" font-family="Chalkduster" font-size="34.9" fill="#FFFFFF" transform="matrix(1.00, 0.00, -0.00, -1.00, 443.0, 258.0)">l</text><text xml:space="preserve" font-family="Chalkduster" font-size="34.9" fill="#FFFFFF" transform="matrix(1.00, 0.00, -0.00, -1.00, 459.4, 258.0)">ü</text><text xml:space="preserve" font-family="Chalkduster" font-size="34.9" fill="#FFFFFF" transform="matrix(1.00, 0.00, -0.00, -1.00, 484.5, 258.0)">s</text><text xml:space="preserve" font-family="Chalkduster" font-size="34.9" fill="#FFFFFF" transform="matrix(1.00, 0.00, -0.00, -1.00, 502.1, 258.0)">s</text><text xml:space="preserve" font-family="Chalkduster" font-size="34.9" fill="#FFFFFF" transform="matrix(1.00, 0.00, -0.00, -1.00, 519.8, 258.0)">e</text><text xml:space="preserve" font-family="Chalkduster" font-size="34.9" fill="#FFFFFF" transform="matrix(1.00, 0.00, -0.00, -1.00, 541.4, 258.0)">l</text><text xml:space="preserve" font-family="Chalkduster" font-size="34.9" fill="#FFFFFF" transform="matrix(1.00, 0.00, -0.00, -1.00, 557.5, 258.0)">u</text><text xml:space="preserve" font-family="Chalkduster" font-size="34.9" fill="#FFFFFF" transform="matrix(1.00, 0.00, -0.00, -1.00, 582.0, 258.0)">n</text><text xml:space="preserve" font-family="Chalkduster" font-size="34.9" fill="#FFFFFF" transform="matrix(1.00, 0.00, -0.00, -1.00, 606.5, 258.0)">g</text><text xml:space="preserve" font-family="Chalkduster" font-size="34.9" fill="#FFFFFF" transform="matrix(1.00, 0.00, -0.00, -1.00, 631.3, 258.0)">s</text><text xml:space="preserve" font-family="Chalkduster" font-size="34.9" fill="#FFFFFF" transform="matrix(1.00, 0.00, -0.00, -1.00, 650.1, 258.0)">t</text><text xml:space="preserve" font-family="Chalkduster" font-size="34.9" fill="#FFFFFF" transform="matrix(1.00, 0.00, -0.00, -1.00, 666.0, 258.0)">r</text><text xml:space="preserve" font-family="Chalkduster" font-size="34.9" fill="#FFFFFF" transform="matrix(1.00, 0.00, -0.00, -1.00, 683.9, 258.0)">o</text><text xml:space="preserve" font-family="Chalkduster" font-size="34.9" fill="#FFFFFF" transform="matrix(1.00, 0.00, -0.00, -1.00, 707.3, 258.0)">j</text><text xml:space="preserve" font-family="Chalkduster" font-size="34.9" fill="#FFFFFF" transform="matrix(1.00, 0.00, -0.00, -1.00, 723.6, 258.0)">a</text><text xml:space="preserve" font-family="Chalkduster" font-size="34.9" fill="#FFFFFF" transform="matrix(1.00, 0.00, -0.00, -1.00, 747.7, 258.0)">n</text><text xml:space="preserve" font-family="Chalkduster" font-size="34.9" fill="#FFFFFF" transform="matrix(1.00, 0.00, -0.00, -1.00, 773.8, 258.0)">e</text><text xml:space="preserve" font-family="Chalkduster" font-size="34.9" fill="#FFFFFF" transform="matrix(1.00, 0.00, -0.00, -1.00, 795.1, 258.0)">r</text><text xml:space="preserve" font-family="Chalkduster" font-size="72.0" fill="#FFFFFF" transform="matrix(1.00, 0.00, -0.00, -1.00, 258.0, 390.0)">R</text><text xml:space="preserve" font-family="Chalkduster" font-size="72.0" fill="#FFFFFF" transform="matrix(1.00, 0.00, -0.00, -1.00, 314.0, 390.0)">a</text><text xml:space="preserve" font-family="Chalkduster" font-size="72.0" fill="#FFFFFF" transform="matrix(1.00, 0.00, -0.00, -1.00, 363.6, 390.0)">n</text><text xml:space="preserve" font-family="Chalkduster" font-size="72.0" fill="#FFFFFF" transform="matrix(1.00, 0.00, -0.00, -1.00, 416.4, 390.0)">s</text><text xml:space="preserve" font-family="Chalkduster" font-size="72.0" fill="#FFFFFF" transform="matrix(1.00, 0.00, -0.00, -1.00, 452.8, 390.0)">o</text><text xml:space="preserve" font-family="Chalkduster" font-size="72.0" fill="#FFFFFF" transform="matrix(1.00, 0.00, -0.00, -1.00, 506.7, 390.0)">m</text><text xml:space="preserve" font-family="Chalkduster" font-size="72.0" fill="#FFFFFF" transform="matrix(1.00, 0.00, -0.00, -1.00, 579.6, 390.0)">w</text><text xml:space="preserve" font-family="Chalkduster" font-size="72.0" fill="#FFFFFF" transform="matrix(1.00, 0.00, -0.00, -1.00, 638.4, 390.0)">a</text><text xml:space="preserve" font-family="Chalkduster" font-size="72.0" fill="#FFFFFF" transform="matrix(1.00, 0.00, -0.00, -1.00, 684.3, 390.0)">r</text><text xml:space="preserve" font-family="Chalkduster" font-size="72.0" fill="#FFFFFF" transform="matrix(1.00, 0.00, -0.00, -1.00, 720.7, 390.0)">e</text></g></svg>