<?xml version="1.0" encoding="UTF-8" standalone="no"?><svg xmlns="http://www.w3.org/2000/svg" xmlns:xlink="http://www.w3.org/1999/xlink" clip-rule="evenodd" stroke-miterlimit="4.00" viewBox="0 0 1024 768"><desc>SVG generated by Keynote</desc><defs></defs><g transform="matrix(1.00, 0.00, -0.00, -1.00, 0.0, 768.0)"><g><clipPath id="clip-3631"><path d="M 0.0 768.0 L 1024.0 768.0 L 1024.0 0.0 L 0.0 0.0 Z M 0.0 768.0 "></path></clipPath><g clip-path="url(#clip-3631)"><image xlink:href="../../AAFA64A7-B22F-44FA-BDCD-1B20F3A178DE/assets/DE78B55DDE70D88C6FF874E8D33A46A3.jpeg" width="1024.00" height="768.00" transform="matrix(1.00, 0.00, -0.00, -1.00, 0.0, 768.0)"></image></g></g><text xml:space="preserve" font-family="Chalkduster" font-size="68.4" fill="#FFFFFF" transform="matrix(1.00, 0.00, -0.00, -1.00, 174.0, 680.0)">A</text><text xml:space="preserve" font-family="Chalkduster" font-size="68.4" fill="#FFFFFF" transform="matrix(1.00, 0.00, -0.00, -1.00, 224.7, 680.0)">u</text><text xml:space="preserve" font-family="Chalkduster" font-size="68.4" fill="#FFFFFF" transform="matrix(1.00, 0.00, -0.00, -1.00, 271.0, 680.0)">t</text><text xml:space="preserve" font-family="Chalkduster" font-size="68.4" fill="#FFFFFF" transform="matrix(1.00, 0.00, -0.00, -1.00, 303.7, 680.0)">h</text><text xml:space="preserve" font-family="Chalkduster" font-size="68.4" fill="#FFFFFF" transform="matrix(1.00, 0.00, -0.00, -1.00, 345.9, 680.0)">e</text><text xml:space="preserve" font-family="Chalkduster" font-size="68.4" fill="#FFFFFF" transform="matrix(1.00, 0.00, -0.00, -1.00, 389.0, 680.0)">n</text><text xml:space="preserve" font-family="Chalkduster" font-size="68.4" fill="#FFFFFF" transform="matrix(1.00, 0.00, -0.00, -1.00, 436.7, 680.0)">t</text><text xml:space="preserve" font-family="Chalkduster" font-size="68.4" fill="#FFFFFF" transform="matrix(1.00, 0.00, -0.00, -1.00, 468.3, 680.0)">i</text><text xml:space="preserve" font-family="Chalkduster" font-size="68.4" fill="#FFFFFF" transform="matrix(1.00, 0.00, -0.00, -1.00, 492.1, 680.0)">f</text><text xml:space="preserve" font-family="Chalkduster" font-size="68.4" fill="#FFFFFF" transform="matrix(1.00, 0.00, -0.00, -1.00, 528.5, 680.0)">i</text><text xml:space="preserve" font-family="Chalkduster" font-size="68.4" fill="#FFFFFF" transform="matrix(1.00, 0.00, -0.00, -1.00, 555.5, 680.0)">z</text><text xml:space="preserve" font-family="Chalkduster" font-size="68.4" fill="#FFFFFF" transform="matrix(1.00, 0.00, -0.00, -1.00, 599.9, 680.0)">i</text><text xml:space="preserve" font-family="Chalkduster" font-size="68.4" fill="#FFFFFF" transform="matrix(1.00, 0.00, -0.00, -1.00, 626.9, 680.0)">e</text><text xml:space="preserve" font-family="Chalkduster" font-size="68.4" fill="#FFFFFF" transform="matrix(1.00, 0.00, -0.00, -1.00, 668.7, 680.0)">r</text><text xml:space="preserve" font-family="Chalkduster" font-size="68.4" fill="#FFFFFF" transform="matrix(1.00, 0.00, -0.00, -1.00, 706.6, 680.0)">u</text><text xml:space="preserve" font-family="Chalkduster" font-size="68.4" fill="#FFFFFF" transform="matrix(1.00, 0.00, -0.00, -1.00, 754.6, 680.0)">n</text><text xml:space="preserve" font-family="Chalkduster" font-size="68.4" fill="#FFFFFF" transform="matrix(1.00, 0.00, -0.00, -1.00, 802.6, 680.0)">g</text><g><clipPath id="clip-3632"><path d="M 239.0 344.0 L 387.0 344.0 L 387.0 440.0 L 239.0 440.0 Z M 239.0 344.0 "></path></clipPath><g clip-path="url(#clip-3632)"><path d="M 239.0 440.0 L 387.0 440.0 L 387.0 344.0 L 239.0 344.0 Z M 239.0 440.0 " fill="#FEFFFF" fill-opacity="0.00"></path></g></g><g><clipPath id="clip-3633"><path d="M 239.0 439.4 L 386.8 439.4 L 386.8 345.5 L 239.0 345.5 Z M 239.0 439.4 "></path></clipPath><g clip-path="url(#clip-3633)"><g><clipPath id="clip-3634"><path d="M 239.0 345.5 L 386.8 345.5 L 386.8 439.4 L 239.0 439.4 Z M 239.0 345.5 "></path></clipPath><g clip-path="url(#clip-3634)"><image xlink:href="9FB4C7103B38A34DCD0EBEEF63B14F12.jpeg" width="1018.00" height="647.00" transform="matrix(0.15, 0.00, -0.00, -0.15, 239.0, 439.4)"></image></g></g></g></g><g><clipPath id="clip-3635"><path d="M 452.0 160.0 L 600.0 160.0 L 600.0 256.0 L 452.0 256.0 Z M 452.0 160.0 "></path></clipPath><g clip-path="url(#clip-3635)"><path d="M 452.0 256.0 L 600.0 256.0 L 600.0 160.0 L 452.0 160.0 Z M 452.0 256.0 " fill="#FEFFFF" fill-opacity="0.00"></path></g></g><g><clipPath id="clip-3636"><path d="M 452.0 255.4 L 599.8 255.4 L 599.8 161.5 L 452.0 161.5 Z M 452.0 255.4 "></path></clipPath><g clip-path="url(#clip-3636)"><g><clipPath id="clip-3637"><path d="M 452.0 161.5 L 599.8 161.5 L 599.8 255.4 L 452.0 255.4 Z M 452.0 161.5 "></path></clipPath><g clip-path="url(#clip-3637)"><image xlink:href="../../B8DF81C5-897E-4260-86F1-984AACBDB6EF/assets/9FB4C7103B38A34DCD0EBEEF63B14F12.jpeg" width="1018.00" height="647.00" transform="matrix(0.15, 0.00, -0.00, -0.15, 452.0, 255.4)"></image></g></g></g></g><image xlink:href="../../8B43FA8D-EEFD-4019-8934-ED6544426A26/assets/A17B611954928F00669FA518A12DA8DA.png" width="181.00" height="181.00" transform="matrix(0.99, 0.00, -0.00, -1.00, 109.0, 298.0)"></image><text xml:space="preserve" font-family="Chalkduster" font-size="42.0" fill="#FFFFFF" transform="matrix(1.00, 0.00, -0.00, -1.00, 84.0, 82.0)">F</text><text xml:space="preserve" font-family="Chalkduster" font-size="42.0" fill="#FFFFFF" transform="matrix(1.00, 0.00, -0.00, -1.00, 114.3, 82.0)">r</text><text xml:space="preserve" font-family="Chalkduster" font-size="42.0" fill="#FFFFFF" transform="matrix(1.00, 0.00, -0.00, -1.00, 131.2, 82.0)">.</text><text xml:space="preserve" font-family="Chalkduster" font-size="42.0" fill="#FFFFFF" transform="matrix(1.00, 0.00, -0.00, -1.00, 143.2, 82.0)"> </text><text xml:space="preserve" font-family="Chalkduster" font-size="42.0" fill="#FFFFFF" transform="matrix(1.00, 0.00, -0.00, -1.00, 164.1, 82.0)">M</text><text xml:space="preserve" font-family="Chalkduster" font-size="42.0" fill="#FFFFFF" transform="matrix(1.00, 0.00, -0.00, -1.00, 199.4, 82.0)">ü</text><text xml:space="preserve" font-family="Chalkduster" font-size="42.0" fill="#FFFFFF" transform="matrix(1.00, 0.00, -0.00, -1.00, 229.6, 82.0)">l</text><text xml:space="preserve" font-family="Chalkduster" font-size="42.0" fill="#FFFFFF" transform="matrix(1.00, 0.00, -0.00, -1.00, 248.7, 82.0)">l</text><text xml:space="preserve" font-family="Chalkduster" font-size="42.0" fill="#FFFFFF" transform="matrix(1.00, 0.00, -0.00, -1.00, 266.1, 82.0)">e</text><text xml:space="preserve" font-family="Chalkduster" font-size="42.0" fill="#FFFFFF" transform="matrix(1.00, 0.00, -0.00, -1.00, 291.7, 82.0)">r</text><image xlink:href="297577882D93873FEDC41E30F8C29668.png" width="181.00" height="181.00" transform="matrix(1.00, 0.00, -0.00, -1.00, 762.0, 298.0)"></image><image xlink:href="30BE0B286FA6B5C6B0695D93168AD967.png" width="148.00" height="148.00" transform="matrix(1.00, 0.00, -0.00, -1.00, 452.0, 644.0)"></image><text xml:space="preserve" font-family="Chalkduster" font-size="42.0" fill="#FFFFFF" transform="matrix(1.00, 0.00, -0.00, -1.00, 469.0, 442.0)">S</text><text xml:space="preserve" font-family="Chalkduster" font-size="42.0" fill="#FFFFFF" transform="matrix(1.00, 0.00, -0.00, -1.00, 489.9, 442.0)">t</text><text xml:space="preserve" font-family="Chalkduster" font-size="42.0" fill="#FFFFFF" transform="matrix(1.00, 0.00, -0.00, -1.00, 508.6, 442.0)">a</text><text xml:space="preserve" font-family="Chalkduster" font-size="42.0" fill="#FFFFFF" transform="matrix(1.00, 0.00, -0.00, -1.00, 537.6, 442.0)">a</text><text xml:space="preserve" font-family="Chalkduster" font-size="42.0" fill="#FFFFFF" transform="matrix(1.00, 0.00, -0.00, -1.00, 563.6, 442.0)">t</text><text xml:space="preserve" font-family="Chalkduster" font-size="42.0" fill="#FFFFFF" transform="matrix(1.00, 0.00, -0.00, -1.00, 582.8, 442.0)"> </text><text xml:space="preserve" font-family="Chalkduster" font-size="42.0" fill="#FFFFFF" transform="matrix(1.00, 0.00, -0.00, -1.00, 460.0, 388.0)">(</text><text xml:space="preserve" font-family="Chalkduster" font-size="42.0" fill="#FFFFFF" transform="matrix(1.00, 0.00, -0.00, -1.00, 478.4, 388.0)">K</text><text xml:space="preserve" font-family="Chalkduster" font-size="42.0" fill="#FFFFFF" transform="matrix(1.00, 0.00, -0.00, -1.00, 505.9, 388.0)">V</text><text xml:space="preserve" font-family="Chalkduster" font-size="42.0" fill="#FFFFFF" transform="matrix(1.00, 0.00, -0.00, -1.00, 537.1, 388.0)">R</text><text xml:space="preserve" font-family="Chalkduster" font-size="42.0" fill="#FFFFFF" transform="matrix(1.00, 0.00, -0.00, -1.00, 569.7, 388.0)">)</text><path d="M 0.0 0.0 L 97.1 0.0 L 98.6 0.0 " fill="none" stroke="#FFFFFF" stroke-width="3.00" transform="matrix(-0.71, -0.71, -0.71, 0.71, 440.4, 533.1)"></path><path d="M 367.1 469.1 L 362.4 455.1 L 376.4 459.8 Z M 367.1 469.1 " fill="#FFFFFF"></path><path d="M 0.0 0.0 L 36.3 0.0 L 37.8 0.0 " fill="none" stroke="#FFFFFF" stroke-width="3.00" transform="matrix(-0.71, -0.71, -0.71, 0.71, 272.9, 327.0)"></path><path d="M 242.5 306.0 L 237.9 292.0 L 251.9 296.6 Z M 242.5 306.0 " fill="#FFFFFF"></path><path d="M 0.0 0.0 L 91.4 0.0 L 92.9 0.0 " fill="none" stroke="#FFFFFF" stroke-width="3.00" transform="matrix(1.00, 0.00, 0.00, -1.00, 306.8, 216.1)"></path><path d="M 398.2 209.5 L 411.4 216.1 L 398.2 222.7 Z M 398.2 209.5 " fill="#FFFFFF"></path><path d="M 0.0 0.0 L 91.4 0.0 L 92.9 0.0 " fill="none" stroke="#FFFFFF" stroke-width="3.00" transform="matrix(1.00, 0.00, 0.00, -1.00, 654.3, 216.1)"></path><path d="M 745.6 209.5 L 758.8 216.1 L 745.6 222.7 Z M 745.6 209.5 " fill="#FFFFFF"></path><path d="M 0.0 0.0 L 36.0 0.0 L 37.5 0.0 " fill="none" stroke="#FFFFFF" stroke-width="3.00" transform="matrix(-0.61, 0.79, 0.79, 0.61, 817.1, 319.0)"></path><path d="M 800.5 351.6 L 787.3 358.1 L 790.0 343.6 Z M 800.5 351.6 " fill="#FFFFFF"></path><text xml:space="preserve" font-family="Chalkduster" font-size="42.0" fill="#FFFFFF" transform="matrix(1.00, 0.00, -0.00, -1.00, 669.0, 383.0)">V</text><text xml:space="preserve" font-family="Chalkduster" font-size="42.0" fill="#FFFFFF" transform="matrix(1.00, 0.00, -0.00, -1.00, 696.4, 383.0)">e</text><text xml:space="preserve" font-family="Chalkduster" font-size="42.0" fill="#FFFFFF" transform="matrix(1.00, 0.00, -0.00, -1.00, 722.0, 383.0)">r</text><text xml:space="preserve" font-family="Chalkduster" font-size="42.0" fill="#FFFFFF" transform="matrix(1.00, 0.00, -0.00, -1.00, 744.1, 383.0)">t</text><text xml:space="preserve" font-family="Chalkduster" font-size="42.0" fill="#FFFFFF" transform="matrix(1.00, 0.00, -0.00, -1.00, 763.4, 383.0)">r</text><text xml:space="preserve" font-family="Chalkduster" font-size="42.0" fill="#FFFFFF" transform="matrix(1.00, 0.00, -0.00, -1.00, 785.5, 383.0)">a</text><text xml:space="preserve" font-family="Chalkduster" font-size="42.0" fill="#FFFFFF" transform="matrix(1.00, 0.00, -0.00, -1.00, 814.4, 383.0)">u</text><text xml:space="preserve" font-family="Chalkduster" font-size="42.0" fill="#FFFFFF" transform="matrix(1.00, 0.00, -0.00, -1.00, 843.3, 383.0)">e</text><text xml:space="preserve" font-family="Chalkduster" font-size="42.0" fill="#FFFFFF" transform="matrix(1.00, 0.00, -0.00, -1.00, 869.8, 383.0)">n</text><path d="M 0.0 0.0 L 113.7 0.0 L 115.2 0.0 " fill="none" stroke="#FFFFFF" stroke-width="3.00" transform="matrix(-0.66, 0.75, 0.75, 0.66, 720.9, 432.0)"></path><path d="M 650.5 521.5 L 636.8 527.0 L 640.6 512.8 Z M 650.5 521.5 " fill="#FFFFFF"></path></g></svg>