<?xml version="1.0" encoding="UTF-8" standalone="no"?><svg xmlns="http://www.w3.org/2000/svg" xmlns:xlink="http://www.w3.org/1999/xlink" clip-rule="evenodd" stroke-miterlimit="4.00" viewBox="0 0 1024 768"><desc>SVG generated by Keynote</desc><defs></defs><g transform="matrix(1.00, 0.00, -0.00, -1.00, 0.0, 768.0)"><g><clipPath id="clip-3627"><path d="M 0.0 768.0 L 1024.0 768.0 L 1024.0 0.0 L 0.0 0.0 Z M 0.0 768.0 "></path></clipPath><g clip-path="url(#clip-3627)"><image xlink:href="../../AAFA64A7-B22F-44FA-BDCD-1B20F3A178DE/assets/DE78B55DDE70D88C6FF874E8D33A46A3.jpeg" width="1024.00" height="768.00" transform="matrix(1.00, 0.00, -0.00, -1.00, 0.0, 768.0)"></image></g></g><text xml:space="preserve" font-family="Chalkduster" font-size="68.4" fill="#FFFFFF" transform="matrix(1.00, 0.00, -0.00, -1.00, 174.0, 680.0)">A</text><text xml:space="preserve" font-family="Chalkduster" font-size="68.4" fill="#FFFFFF" transform="matrix(1.00, 0.00, -0.00, -1.00, 224.7, 680.0)">u</text><text xml:space="preserve" font-family="Chalkduster" font-size="68.4" fill="#FFFFFF" transform="matrix(1.00, 0.00, -0.00, -1.00, 271.0, 680.0)">t</text><text xml:space="preserve" font-family="Chalkduster" font-size="68.4" fill="#FFFFFF" transform="matrix(1.00, 0.00, -0.00, -1.00, 303.7, 680.0)">h</text><text xml:space="preserve" font-family="Chalkduster" font-size="68.4" fill="#FFFFFF" transform="matrix(1.00, 0.00, -0.00, -1.00, 345.9, 680.0)">e</text><text xml:space="preserve" font-family="Chalkduster" font-size="68.4" fill="#FFFFFF" transform="matrix(1.00, 0.00, -0.00, -1.00, 389.0, 680.0)">n</text><text xml:space="preserve" font-family="Chalkduster" font-size="68.4" fill="#FFFFFF" transform="matrix(1.00, 0.00, -0.00, -1.00, 436.7, 680.0)">t</text><text xml:space="preserve" font-family="Chalkduster" font-size="68.4" fill="#FFFFFF" transform="matrix(1.00, 0.00, -0.00, -1.00, 468.3, 680.0)">i</text><text xml:space="preserve" font-family="Chalkduster" font-size="68.4" fill="#FFFFFF" transform="matrix(1.00, 0.00, -0.00, -1.00, 492.1, 680.0)">f</text><text xml:space="preserve" font-family="Chalkduster" font-size="68.4" fill="#FFFFFF" transform="matrix(1.00, 0.00, -0.00, -1.00, 528.5, 680.0)">i</text><text xml:space="preserve" font-family="Chalkduster" font-size="68.4" fill="#FFFFFF" transform="matrix(1.00, 0.00, -0.00, -1.00, 555.5, 680.0)">z</text><text xml:space="preserve" font-family="Chalkduster" font-size="68.4" fill="#FFFFFF" transform="matrix(1.00, 0.00, -0.00, -1.00, 599.9, 680.0)">i</text><text xml:space="preserve" font-family="Chalkduster" font-size="68.4" fill="#FFFFFF" transform="matrix(1.00, 0.00, -0.00, -1.00, 626.9, 680.0)">e</text><text xml:space="preserve" font-family="Chalkduster" font-size="68.4" fill="#FFFFFF" transform="matrix(1.00, 0.00, -0.00, -1.00, 668.7, 680.0)">r</text><text xml:space="preserve" font-family="Chalkduster" font-size="68.4" fill="#FFFFFF" transform="matrix(1.00, 0.00, -0.00, -1.00, 706.6, 680.0)">u</text><text xml:space="preserve" font-family="Chalkduster" font-size="68.4" fill="#FFFFFF" transform="matrix(1.00, 0.00, -0.00, -1.00, 754.6, 680.0)">n</text><text xml:space="preserve" font-family="Chalkduster" font-size="68.4" fill="#FFFFFF" transform="matrix(1.00, 0.00, -0.00, -1.00, 802.6, 680.0)">g</text><g><clipPath id="clip-3628"><path d="M 78.0 74.0 L 946.0 74.0 L 946.0 647.0 L 78.0 647.0 Z M 78.0 74.0 "></path></clipPath><g clip-path="url(#clip-3628)"><path d="M 78.0 647.0 L 946.0 647.0 L 946.0 74.0 L 78.0 74.0 Z M 78.0 647.0 " fill="#FEFFFF" fill-opacity="0.00"></path></g></g><g><clipPath id="clip-3629"><path d="M 79.0 645.8 L 944.8 645.8 L 944.8 75.1 L 79.0 75.1 Z M 79.0 645.8 "></path></clipPath><g clip-path="url(#clip-3629)"><g><clipPath id="clip-3630"><path d="M 79.0 75.1 L 944.8 75.1 L 944.8 645.8 L 79.0 645.8 Z M 79.0 75.1 "></path></clipPath><g clip-path="url(#clip-3630)"><image xlink:href="../../8B43FA8D-EEFD-4019-8934-ED6544426A26/assets/C6AA095FAA45C28AE8D37B640206F0BD.png" width="679.00" height="448.00" transform="matrix(1.28, 0.00, -0.00, -1.27, 79.0, 645.8)"></image></g></g></g></g></g></svg>