<?xml version="1.0" encoding="UTF-8" standalone="no"?><svg xmlns="http://www.w3.org/2000/svg" xmlns:xlink="http://www.w3.org/1999/xlink" clip-rule="evenodd" stroke-miterlimit="4.00" viewBox="0 0 1024 768"><desc>SVG generated by Keynote</desc><defs></defs><g transform="matrix(1.00, 0.00, -0.00, -1.00, 0.0, 768.0)"><g><clipPath id="clip-3665"><path d="M 0.0 768.0 L 1024.0 768.0 L 1024.0 0.0 L 0.0 0.0 Z M 0.0 768.0 "></path></clipPath><g clip-path="url(#clip-3665)"><image xlink:href="../../AAFA64A7-B22F-44FA-BDCD-1B20F3A178DE/assets/DE78B55DDE70D88C6FF874E8D33A46A3.jpeg" width="1024.00" height="768.00" transform="matrix(1.00, 0.00, -0.00, -1.00, 0.0, 768.0)"></image></g></g><text xml:space="preserve" font-family="Chalkduster" font-size="68.4" fill="#FFFFFF" transform="matrix(1.00, 0.00, -0.00, -1.00, 174.0, 680.0)">A</text><text xml:space="preserve" font-family="Chalkduster" font-size="68.4" fill="#FFFFFF" transform="matrix(1.00, 0.00, -0.00, -1.00, 224.7, 680.0)">u</text><text xml:space="preserve" font-family="Chalkduster" font-size="68.4" fill="#FFFFFF" transform="matrix(1.00, 0.00, -0.00, -1.00, 271.0, 680.0)">t</text><text xml:space="preserve" font-family="Chalkduster" font-size="68.4" fill="#FFFFFF" transform="matrix(1.00, 0.00, -0.00, -1.00, 303.7, 680.0)">h</text><text xml:space="preserve" font-family="Chalkduster" font-size="68.4" fill="#FFFFFF" transform="matrix(1.00, 0.00, -0.00, -1.00, 345.9, 680.0)">e</text><text xml:space="preserve" font-family="Chalkduster" font-size="68.4" fill="#FFFFFF" transform="matrix(1.00, 0.00, -0.00, -1.00, 389.0, 680.0)">n</text><text xml:space="preserve" font-family="Chalkduster" font-size="68.4" fill="#FFFFFF" transform="matrix(1.00, 0.00, -0.00, -1.00, 436.7, 680.0)">t</text><text xml:space="preserve" font-family="Chalkduster" font-size="68.4" fill="#FFFFFF" transform="matrix(1.00, 0.00, -0.00, -1.00, 468.3, 680.0)">i</text><text xml:space="preserve" font-family="Chalkduster" font-size="68.4" fill="#FFFFFF" transform="matrix(1.00, 0.00, -0.00, -1.00, 492.1, 680.0)">f</text><text xml:space="preserve" font-family="Chalkduster" font-size="68.4" fill="#FFFFFF" transform="matrix(1.00, 0.00, -0.00, -1.00, 528.5, 680.0)">i</text><text xml:space="preserve" font-family="Chalkduster" font-size="68.4" fill="#FFFFFF" transform="matrix(1.00, 0.00, -0.00, -1.00, 555.5, 680.0)">z</text><text xml:space="preserve" font-family="Chalkduster" font-size="68.4" fill="#FFFFFF" transform="matrix(1.00, 0.00, -0.00, -1.00, 599.9, 680.0)">i</text><text xml:space="preserve" font-family="Chalkduster" font-size="68.4" fill="#FFFFFF" transform="matrix(1.00, 0.00, -0.00, -1.00, 626.9, 680.0)">e</text><text xml:space="preserve" font-family="Chalkduster" font-size="68.4" fill="#FFFFFF" transform="matrix(1.00, 0.00, -0.00, -1.00, 668.7, 680.0)">r</text><text xml:space="preserve" font-family="Chalkduster" font-size="68.4" fill="#FFFFFF" transform="matrix(1.00, 0.00, -0.00, -1.00, 706.6, 680.0)">u</text><text xml:space="preserve" font-family="Chalkduster" font-size="68.4" fill="#FFFFFF" transform="matrix(1.00, 0.00, -0.00, -1.00, 754.6, 680.0)">n</text><text xml:space="preserve" font-family="Chalkduster" font-size="68.4" fill="#FFFFFF" transform="matrix(1.00, 0.00, -0.00, -1.00, 802.6, 680.0)">g</text><g><clipPath id="clip-3666"><path d="M 207.0 13.0 L 817.0 13.0 L 817.0 656.0 L 207.0 656.0 Z M 207.0 13.0 "></path></clipPath><g clip-path="url(#clip-3666)"><path d="M 207.0 656.0 L 817.0 656.0 L 817.0 13.0 L 207.0 13.0 Z M 207.0 656.0 " fill="#FEFFFF" fill-opacity="0.00"></path></g></g><g><clipPath id="clip-3667"><path d="M 207.5 654.6 L 816.0 654.6 L 816.0 14.2 L 207.5 14.2 Z M 207.5 654.6 "></path></clipPath><g clip-path="url(#clip-3667)"><g><clipPath id="clip-3668"><path d="M 207.5 14.2 L 816.0 14.2 L 816.0 654.6 L 207.5 654.6 Z M 207.5 14.2 "></path></clipPath><g clip-path="url(#clip-3668)"><image xlink:href="../../F3E7E460-CD20-4CE7-B145-14425E2F55ED/assets/1C80BCAAD60FEFA751203D42CD25B317.png" width="624.00" height="657.00" transform="matrix(0.98, 0.00, -0.00, -0.97, 207.5, 654.6)"></image></g></g></g></g></g></svg>