<?xml version="1.0" encoding="UTF-8" standalone="no"?><svg xmlns="http://www.w3.org/2000/svg" xmlns:xlink="http://www.w3.org/1999/xlink" clip-rule="evenodd" stroke-miterlimit="4.00" viewBox="0 0 1024 768"><desc>SVG generated by Keynote</desc><defs></defs><g transform="matrix(1.00, 0.00, -0.00, -1.00, 0.0, 768.0)"><g><clipPath id="clip-3684"><path d="M 0.0 768.0 L 1024.0 768.0 L 1024.0 0.0 L 0.0 0.0 Z M 0.0 768.0 "></path></clipPath><g clip-path="url(#clip-3684)"><image xlink:href="../../AAFA64A7-B22F-44FA-BDCD-1B20F3A178DE/assets/DE78B55DDE70D88C6FF874E8D33A46A3.jpeg" width="1024.00" height="768.00" transform="matrix(1.00, 0.00, -0.00, -1.00, 0.0, 768.0)"></image></g></g><text xml:space="preserve" font-family="Chalkduster" font-size="34.9" fill="#FFFFFF" transform="matrix(1.00, 0.00, -0.00, -1.00, 191.0, 311.0)">…</text><text xml:space="preserve" font-family="Chalkduster" font-size="34.9" fill="#FFFFFF" transform="matrix(1.00, 0.00, -0.00, -1.00, 225.7, 311.0)"> </text><text xml:space="preserve" font-family="Chalkduster" font-size="34.9" fill="#FFFFFF" transform="matrix(1.00, 0.00, -0.00, -1.00, 243.1, 311.0)">a</text><text xml:space="preserve" font-family="Chalkduster" font-size="34.9" fill="#FFFFFF" transform="matrix(1.00, 0.00, -0.00, -1.00, 267.2, 311.0)">b</text><text xml:space="preserve" font-family="Chalkduster" font-size="34.9" fill="#FFFFFF" transform="matrix(1.00, 0.00, -0.00, -1.00, 287.5, 311.0)">e</text><text xml:space="preserve" font-family="Chalkduster" font-size="34.9" fill="#FFFFFF" transform="matrix(1.00, 0.00, -0.00, -1.00, 308.8, 311.0)">r</text><text xml:space="preserve" font-family="Chalkduster" font-size="34.9" fill="#FFFFFF" transform="matrix(1.00, 0.00, -0.00, -1.00, 327.2, 311.0)"> </text><text xml:space="preserve" font-family="Chalkduster" font-size="34.9" fill="#FFFFFF" transform="matrix(1.00, 0.00, -0.00, -1.00, 344.5, 311.0)">w</text><text xml:space="preserve" font-family="Chalkduster" font-size="34.9" fill="#FFFFFF" transform="matrix(1.00, 0.00, -0.00, -1.00, 373.0, 311.0)">a</text><text xml:space="preserve" font-family="Chalkduster" font-size="34.9" fill="#FFFFFF" transform="matrix(1.00, 0.00, -0.00, -1.00, 397.5, 311.0)">s</text><text xml:space="preserve" font-family="Chalkduster" font-size="34.9" fill="#FFFFFF" transform="matrix(1.00, 0.00, -0.00, -1.00, 415.2, 311.0)"> </text><text xml:space="preserve" font-family="Chalkduster" font-size="34.9" fill="#FFFFFF" transform="matrix(1.00, 0.00, -0.00, -1.00, 432.5, 311.0)">h</text><text xml:space="preserve" font-family="Chalkduster" font-size="34.9" fill="#FFFFFF" transform="matrix(1.00, 0.00, -0.00, -1.00, 454.1, 311.0)">a</text><text xml:space="preserve" font-family="Chalkduster" font-size="34.9" fill="#FFFFFF" transform="matrix(1.00, 0.00, -0.00, -1.00, 475.8, 311.0)">t</text><text xml:space="preserve" font-family="Chalkduster" font-size="34.9" fill="#FFFFFF" transform="matrix(1.00, 0.00, -0.00, -1.00, 491.7, 311.0)"> </text><text xml:space="preserve" font-family="Chalkduster" font-size="34.9" fill="#FFFFFF" transform="matrix(1.00, 0.00, -0.00, -1.00, 509.1, 311.0)">d</text><text xml:space="preserve" font-family="Chalkduster" font-size="34.9" fill="#FFFFFF" transform="matrix(1.00, 0.00, -0.00, -1.00, 536.4, 311.0)">a</text><text xml:space="preserve" font-family="Chalkduster" font-size="34.9" fill="#FFFFFF" transform="matrix(1.00, 0.00, -0.00, -1.00, 560.9, 311.0)">s</text><text xml:space="preserve" font-family="Chalkduster" font-size="34.9" fill="#FFFFFF" transform="matrix(1.00, 0.00, -0.00, -1.00, 578.5, 311.0)"> </text><text xml:space="preserve" font-family="Chalkduster" font-size="34.9" fill="#FFFFFF" transform="matrix(1.00, 0.00, -0.00, -1.00, 595.9, 311.0)">m</text><text xml:space="preserve" font-family="Chalkduster" font-size="34.9" fill="#FFFFFF" transform="matrix(1.00, 0.00, -0.00, -1.00, 631.8, 311.0)">i</text><text xml:space="preserve" font-family="Chalkduster" font-size="34.9" fill="#FFFFFF" transform="matrix(1.00, 0.00, -0.00, -1.00, 645.9, 311.0)">t</text><text xml:space="preserve" font-family="Chalkduster" font-size="34.9" fill="#FFFFFF" transform="matrix(1.00, 0.00, -0.00, -1.00, 661.9, 311.0)"> </text><text xml:space="preserve" font-family="Chalkduster" font-size="34.9" fill="#FFFFFF" transform="matrix(1.00, 0.00, -0.00, -1.00, 679.2, 311.0)">m</text><text xml:space="preserve" font-family="Chalkduster" font-size="34.9" fill="#FFFFFF" transform="matrix(1.00, 0.00, -0.00, -1.00, 715.4, 311.0)">e</text><text xml:space="preserve" font-family="Chalkduster" font-size="34.9" fill="#FFFFFF" transform="matrix(1.00, 0.00, -0.00, -1.00, 737.1, 311.0)">i</text><text xml:space="preserve" font-family="Chalkduster" font-size="34.9" fill="#FFFFFF" transform="matrix(1.00, 0.00, -0.00, -1.00, 750.9, 311.0)">n</text><text xml:space="preserve" font-family="Chalkduster" font-size="34.9" fill="#FFFFFF" transform="matrix(1.00, 0.00, -0.00, -1.00, 777.0, 311.0)">e</text><text xml:space="preserve" font-family="Chalkduster" font-size="34.9" fill="#FFFFFF" transform="matrix(1.00, 0.00, -0.00, -1.00, 798.7, 311.0)">m</text><text xml:space="preserve" font-family="Chalkduster" font-size="34.9" fill="#FFFFFF" transform="matrix(1.00, 0.00, -0.00, -1.00, 834.0, 311.0)"> </text><text xml:space="preserve" font-family="Chalkduster" font-size="34.9" fill="#FFFFFF" transform="matrix(1.00, 0.00, -0.00, -1.00, 331.0, 258.0)">B</text><text xml:space="preserve" font-family="Chalkduster" font-size="34.9" fill="#FFFFFF" transform="matrix(1.00, 0.00, -0.00, -1.00, 354.3, 258.0)">u</text><text xml:space="preserve" font-family="Chalkduster" font-size="34.9" fill="#FFFFFF" transform="matrix(1.00, 0.00, -0.00, -1.00, 379.3, 258.0)">s</text><text xml:space="preserve" font-family="Chalkduster" font-size="34.9" fill="#FFFFFF" transform="matrix(1.00, 0.00, -0.00, -1.00, 397.0, 258.0)">i</text><text xml:space="preserve" font-family="Chalkduster" font-size="34.9" fill="#FFFFFF" transform="matrix(1.00, 0.00, -0.00, -1.00, 410.8, 258.0)">n</text><text xml:space="preserve" font-family="Chalkduster" font-size="34.9" fill="#FFFFFF" transform="matrix(1.00, 0.00, -0.00, -1.00, 436.9, 258.0)">e</text><text xml:space="preserve" font-family="Chalkduster" font-size="34.9" fill="#FFFFFF" transform="matrix(1.00, 0.00, -0.00, -1.00, 459.4, 258.0)">s</text><text xml:space="preserve" font-family="Chalkduster" font-size="34.9" fill="#FFFFFF" transform="matrix(1.00, 0.00, -0.00, -1.00, 477.0, 258.0)">s</text><text xml:space="preserve" font-family="Chalkduster" font-size="34.9" fill="#FFFFFF" transform="matrix(1.00, 0.00, -0.00, -1.00, 494.6, 258.0)"> </text><text xml:space="preserve" font-family="Chalkduster" font-size="34.9" fill="#FFFFFF" transform="matrix(1.00, 0.00, -0.00, -1.00, 512.0, 258.0)">z</text><text xml:space="preserve" font-family="Chalkduster" font-size="34.9" fill="#FFFFFF" transform="matrix(1.00, 0.00, -0.00, -1.00, 534.7, 258.0)">u</text><text xml:space="preserve" font-family="Chalkduster" font-size="34.9" fill="#FFFFFF" transform="matrix(1.00, 0.00, -0.00, -1.00, 558.7, 258.0)"> </text><text xml:space="preserve" font-family="Chalkduster" font-size="34.9" fill="#FFFFFF" transform="matrix(1.00, 0.00, -0.00, -1.00, 576.1, 258.0)">t</text><text xml:space="preserve" font-family="Chalkduster" font-size="34.9" fill="#FFFFFF" transform="matrix(1.00, 0.00, -0.00, -1.00, 592.0, 258.0)">u</text><text xml:space="preserve" font-family="Chalkduster" font-size="34.9" fill="#FFFFFF" transform="matrix(1.00, 0.00, -0.00, -1.00, 616.5, 258.0)">n</text><text xml:space="preserve" font-family="Chalkduster" font-size="34.9" fill="#FFFFFF" transform="matrix(1.00, 0.00, -0.00, -1.00, 642.1, 258.0)">?</text><text xml:space="preserve" font-family="Chalkduster" font-size="34.9" fill="#FFFFFF" transform="matrix(1.00, 0.00, -0.00, -1.00, 659.4, 258.0)">?</text><text xml:space="preserve" font-family="Chalkduster" font-size="34.9" fill="#FFFFFF" transform="matrix(1.00, 0.00, -0.00, -1.00, 676.6, 258.0)">?</text><text xml:space="preserve" font-family="Chalkduster" font-size="72.0" fill="#FFFFFF" transform="matrix(1.00, 0.00, -0.00, -1.00, 296.0, 482.0)">A</text><text xml:space="preserve" font-family="Chalkduster" font-size="72.0" fill="#FFFFFF" transform="matrix(1.00, 0.00, -0.00, -1.00, 349.3, 482.0)">l</text><text xml:space="preserve" font-family="Chalkduster" font-size="72.0" fill="#FFFFFF" transform="matrix(1.00, 0.00, -0.00, -1.00, 382.0, 482.0)">l</text><text xml:space="preserve" font-family="Chalkduster" font-size="72.0" fill="#FFFFFF" transform="matrix(1.00, 0.00, -0.00, -1.00, 411.8, 482.0)">e</text><text xml:space="preserve" font-family="Chalkduster" font-size="72.0" fill="#FFFFFF" transform="matrix(1.00, 0.00, -0.00, -1.00, 458.1, 482.0)">s</text><text xml:space="preserve" font-family="Chalkduster" font-size="72.0" fill="#FFFFFF" transform="matrix(1.00, 0.00, -0.00, -1.00, 494.4, 482.0)"> </text><text xml:space="preserve" font-family="Chalkduster" font-size="72.0" fill="#FFFFFF" transform="matrix(1.00, 0.00, -0.00, -1.00, 530.3, 482.0)">g</text><text xml:space="preserve" font-family="Chalkduster" font-size="72.0" fill="#FFFFFF" transform="matrix(1.00, 0.00, -0.00, -1.00, 579.4, 482.0)">a</text><text xml:space="preserve" font-family="Chalkduster" font-size="72.0" fill="#FFFFFF" transform="matrix(1.00, 0.00, -0.00, -1.00, 629.0, 482.0)">n</text><text xml:space="preserve" font-family="Chalkduster" font-size="72.0" fill="#FFFFFF" transform="matrix(1.00, 0.00, -0.00, -1.00, 681.8, 482.0)">z</text><text xml:space="preserve" font-family="Chalkduster" font-size="72.0" fill="#FFFFFF" transform="matrix(1.00, 0.00, -0.00, -1.00, 728.6, 482.0)"> </text><text xml:space="preserve" font-family="Chalkduster" font-size="72.0" fill="#FFFFFF" transform="matrix(1.00, 0.00, -0.00, -1.00, 291.0, 390.0)">i</text><text xml:space="preserve" font-family="Chalkduster" font-size="72.0" fill="#FFFFFF" transform="matrix(1.00, 0.00, -0.00, -1.00, 319.4, 390.0)">n</text><text xml:space="preserve" font-family="Chalkduster" font-size="72.0" fill="#FFFFFF" transform="matrix(1.00, 0.00, -0.00, -1.00, 369.5, 390.0)">t</text><text xml:space="preserve" font-family="Chalkduster" font-size="72.0" fill="#FFFFFF" transform="matrix(1.00, 0.00, -0.00, -1.00, 401.7, 390.0)">e</text><text xml:space="preserve" font-family="Chalkduster" font-size="72.0" fill="#FFFFFF" transform="matrix(1.00, 0.00, -0.00, -1.00, 445.6, 390.0)">r</text><text xml:space="preserve" font-family="Chalkduster" font-size="72.0" fill="#FFFFFF" transform="matrix(1.00, 0.00, -0.00, -1.00, 482.1, 390.0)">e</text><text xml:space="preserve" font-family="Chalkduster" font-size="72.0" fill="#FFFFFF" transform="matrix(1.00, 0.00, -0.00, -1.00, 528.3, 390.0)">s</text><text xml:space="preserve" font-family="Chalkduster" font-size="72.0" fill="#FFFFFF" transform="matrix(1.00, 0.00, -0.00, -1.00, 564.7, 390.0)">s</text><text xml:space="preserve" font-family="Chalkduster" font-size="72.0" fill="#FFFFFF" transform="matrix(1.00, 0.00, -0.00, -1.00, 601.1, 390.0)">a</text><text xml:space="preserve" font-family="Chalkduster" font-size="72.0" fill="#FFFFFF" transform="matrix(1.00, 0.00, -0.00, -1.00, 650.7, 390.0)">n</text><text xml:space="preserve" font-family="Chalkduster" font-size="72.0" fill="#FFFFFF" transform="matrix(1.00, 0.00, -0.00, -1.00, 700.8, 390.0)">t</text><text xml:space="preserve" font-family="Chalkduster" font-size="72.0" fill="#FFFFFF" transform="matrix(1.00, 0.00, -0.00, -1.00, 733.7, 390.0)"> </text></g></svg>