<?xml version="1.0" encoding="UTF-8" standalone="no"?><svg xmlns="http://www.w3.org/2000/svg" xmlns:xlink="http://www.w3.org/1999/xlink" clip-rule="evenodd" stroke-miterlimit="4.00" viewBox="0 0 1024 768"><desc>SVG generated by Keynote</desc><defs></defs><g transform="matrix(1.00, 0.00, -0.00, -1.00, 0.0, 768.0)"><g><clipPath id="clip-2499"><path d="M 0.0 768.0 L 1024.0 768.0 L 1024.0 0.0 L 0.0 0.0 Z M 0.0 768.0 "></path></clipPath><g clip-path="url(#clip-2499)"><image xlink:href="DE78B55DDE70D88C6FF874E8D33A46A3.jpeg" width="1024.00" height="768.00" transform="matrix(1.00, 0.00, -0.00, -1.00, 0.0, 768.0)"></image></g></g><text xml:space="preserve" font-family="Chalkduster" font-size="72.0" fill="#FFFFFF" transform="matrix(1.00, 0.00, -0.00, -1.00, 186.0, 482.0)">C</text><text xml:space="preserve" font-family="Chalkduster" font-size="72.0" fill="#FFFFFF" transform="matrix(1.00, 0.00, -0.00, -1.00, 244.4, 482.0)">a</text><text xml:space="preserve" font-family="Chalkduster" font-size="72.0" fill="#FFFFFF" transform="matrix(1.00, 0.00, -0.00, -1.00, 294.0, 482.0)">n</text><text xml:space="preserve" font-family="Chalkduster" font-size="72.0" fill="#FFFFFF" transform="matrix(1.00, 0.00, -0.00, -1.00, 346.8, 482.0)"> </text><text xml:space="preserve" font-family="Chalkduster" font-size="72.0" fill="#FFFFFF" transform="matrix(1.00, 0.00, -0.00, -1.00, 382.6, 482.0)">y</text><text xml:space="preserve" font-family="Chalkduster" font-size="72.0" fill="#FFFFFF" transform="matrix(1.00, 0.00, -0.00, -1.00, 424.5, 482.0)">o</text><text xml:space="preserve" font-family="Chalkduster" font-size="72.0" fill="#FFFFFF" transform="matrix(1.00, 0.00, -0.00, -1.00, 478.4, 482.0)">u</text><text xml:space="preserve" font-family="Chalkduster" font-size="72.0" fill="#FFFFFF" transform="matrix(1.00, 0.00, -0.00, -1.00, 527.9, 482.0)"> </text><text xml:space="preserve" font-family="Chalkduster" font-size="72.0" fill="#FFFFFF" transform="matrix(1.00, 0.00, -0.00, -1.00, 563.7, 482.0)">k</text><text xml:space="preserve" font-family="Chalkduster" font-size="72.0" fill="#FFFFFF" transform="matrix(1.00, 0.00, -0.00, -1.00, 618.2, 482.0)">e</text><text xml:space="preserve" font-family="Chalkduster" font-size="72.0" fill="#FFFFFF" transform="matrix(1.00, 0.00, -0.00, -1.00, 662.9, 482.0)">e</text><text xml:space="preserve" font-family="Chalkduster" font-size="72.0" fill="#FFFFFF" transform="matrix(1.00, 0.00, -0.00, -1.00, 708.7, 482.0)">p</text><text xml:space="preserve" font-family="Chalkduster" font-size="72.0" fill="#FFFFFF" transform="matrix(1.00, 0.00, -0.00, -1.00, 753.1, 482.0)"> </text><text xml:space="preserve" font-family="Chalkduster" font-size="72.0" fill="#FFFFFF" transform="matrix(1.00, 0.00, -0.00, -1.00, 788.9, 482.0)">a</text><text xml:space="preserve" font-family="Chalkduster" font-size="72.0" fill="#FFFFFF" transform="matrix(1.00, 0.00, -0.00, -1.00, 838.5, 482.0)"> </text><text xml:space="preserve" font-family="Chalkduster" font-size="72.0" fill="#FFFFFF" transform="matrix(1.00, 0.00, -0.00, -1.00, 375.0, 390.0)">s</text><text xml:space="preserve" font-family="Chalkduster" font-size="72.0" fill="#FFFFFF" transform="matrix(1.00, 0.00, -0.00, -1.00, 411.4, 390.0)">e</text><text xml:space="preserve" font-family="Chalkduster" font-size="72.0" fill="#FFFFFF" transform="matrix(1.00, 0.00, -0.00, -1.00, 457.2, 390.0)">c</text><text xml:space="preserve" font-family="Chalkduster" font-size="72.0" fill="#FFFFFF" transform="matrix(1.00, 0.00, -0.00, -1.00, 500.9, 390.0)">r</text><text xml:space="preserve" font-family="Chalkduster" font-size="72.0" fill="#FFFFFF" transform="matrix(1.00, 0.00, -0.00, -1.00, 537.4, 390.0)">e</text><text xml:space="preserve" font-family="Chalkduster" font-size="72.0" fill="#FFFFFF" transform="matrix(1.00, 0.00, -0.00, -1.00, 581.3, 390.0)">t</text><text xml:space="preserve" font-family="Chalkduster" font-size="72.0" fill="#FFFFFF" transform="matrix(1.00, 0.00, -0.00, -1.00, 614.1, 390.0)">?</text></g></svg>