<?xml version="1.0" encoding="UTF-8" standalone="no"?><svg xmlns="http://www.w3.org/2000/svg" xmlns:xlink="http://www.w3.org/1999/xlink" clip-rule="evenodd" stroke-miterlimit="4.00" viewBox="0 0 1024 768"><desc>SVG generated by Keynote</desc><defs></defs><g transform="matrix(1.00, 0.00, -0.00, -1.00, 0.0, 768.0)"><g><clipPath id="clip-3449"><path d="M 0.0 768.0 L 1024.0 768.0 L 1024.0 0.0 L 0.0 0.0 Z M 0.0 768.0 "></path></clipPath><g clip-path="url(#clip-3449)"><image xlink:href="../../AAFA64A7-B22F-44FA-BDCD-1B20F3A178DE/assets/DE78B55DDE70D88C6FF874E8D33A46A3.jpeg" width="1024.00" height="768.00" transform="matrix(1.00, 0.00, -0.00, -1.00, 0.0, 768.0)"></image></g></g><g><clipPath id="clip-3450"><path d="M 840.5 239.3 L 988.2 239.3 L 988.2 91.8 L 840.5 91.8 Z M 840.5 239.3 "></path></clipPath><g clip-path="url(#clip-3450)"><g><clipPath id="clip-3451"><path d="M 68.0 91.0 L 989.0 91.0 L 989.0 601.0 L 68.0 601.0 Z M 68.0 91.0 "></path></clipPath><g clip-path="url(#clip-3451)"><image xlink:href="../../A49548D4-82FE-4D1C-B3E6-6C2F56FCE222/assets/9EE5BA7DE83C9F6BFAD24F46305469FC.png" width="512.00" height="512.00" transform="matrix(0.29, 0.00, -0.00, -0.29, 840.5, 239.3)"></image></g></g></g></g><g><clipPath id="clip-3452"><path d="M 216.4 600.7 L 68.7 600.7 L 68.7 453.2 L 216.4 453.2 Z M 216.4 600.7 "></path></clipPath><g clip-path="url(#clip-3452)"><g><clipPath id="clip-3453"><path d="M 68.0 91.0 L 989.0 91.0 L 989.0 601.0 L 68.0 601.0 Z M 68.0 91.0 "></path></clipPath><g clip-path="url(#clip-3453)"><image xlink:href="../../A49548D4-82FE-4D1C-B3E6-6C2F56FCE222/assets/75588F7199E6B27B11B5E06D44B0FDC8.png" width="512.00" height="512.00" transform="matrix(-0.29, 0.00, 0.00, -0.29, 216.4, 600.7)"></image></g></g></g></g><g><clipPath id="clip-3454"><path d="M 463.8 574.9 L 556.1 574.9 L 556.1 482.7 L 463.8 482.7 Z M 463.8 574.9 "></path></clipPath><g clip-path="url(#clip-3454)"><g><clipPath id="clip-3455"><path d="M 68.0 91.0 L 989.0 91.0 L 989.0 601.0 L 68.0 601.0 Z M 68.0 91.0 "></path></clipPath><g clip-path="url(#clip-3455)"><image xlink:href="97E5EB25FF81A2D2B3812962989F1957.png" width="512.00" height="512.00" transform="matrix(0.18, 0.00, -0.00, -0.18, 463.8, 574.9)"></image></g></g></g></g><g><clipPath id="clip-3456"><path d="M 296.7 574.9 L 389.9 574.9 L 389.9 481.8 L 296.7 481.8 Z M 296.7 574.9 "></path></clipPath><g clip-path="url(#clip-3456)"><g><clipPath id="clip-3457"><path d="M 68.0 91.0 L 989.0 91.0 L 989.0 601.0 L 68.0 601.0 Z M 68.0 91.0 "></path></clipPath><g clip-path="url(#clip-3457)"><image xlink:href="E349A7005F21F88553597D74FC7134A7.png" width="512.00" height="512.00" transform="matrix(0.18, 0.00, -0.00, -0.18, 297.3, 575.0)"></image></g></g></g></g><g><clipPath id="clip-3458"><path d="M 68.0 91.0 L 989.0 91.0 L 989.0 601.0 L 68.0 601.0 Z M 68.0 91.0 "></path></clipPath><g clip-path="url(#clip-3458)"><path d="M 172.9 172.5 L 218.7 172.2 " fill="none" stroke="#FEFFFF" stroke-width="3.00" stroke-miterlimit="0.00" stroke-linecap="round" stroke-linejoin="round" transform="matrix(1.30, 0.00, 0.00, -1.30, -8.9, 751.9)"></path><path d="M 290.6 528.0 L 276.0 533.3 L 276.0 522.4 Z M 290.6 528.0 " fill="#FEFFFF"></path><path d="M 229.9 172.1 L 218.6 168.0 L 218.7 176.4 Z M 229.9 172.1 " fill="none" stroke="#FEFFFF" stroke-width="3.00" stroke-miterlimit="0.00" transform="matrix(1.30, 0.00, 0.00, -1.30, -8.9, 751.9)"></path><path d="M 306.1 171.8 L 346.9 171.6 " fill="none" stroke="#FEFFFF" stroke-width="3.00" stroke-miterlimit="0.00" stroke-linecap="round" stroke-linejoin="round" transform="matrix(1.30, 0.00, 0.00, -1.30, -8.9, 751.9)"></path><path d="M 457.7 528.7 L 443.1 534.1 L 443.1 523.1 Z M 457.7 528.7 " fill="#FEFFFF"></path><path d="M 358.1 171.6 L 346.9 167.4 L 346.9 175.8 Z M 358.1 171.6 " fill="none" stroke="#FEFFFF" stroke-width="3.00" stroke-miterlimit="0.00" transform="matrix(1.30, 0.00, 0.00, -1.30, -8.9, 751.9)"></path><path d="M 433.7 171.5 L 720.5 171.5 L 720.5 172.9 L 720.5 246.6 L 720.5 378.1 " fill="none" stroke="#FEFFFF" stroke-width="3.00" stroke-miterlimit="0.00" stroke-linecap="round" transform="matrix(1.30, 0.00, 0.00, -1.30, -8.9, 751.9)"></path><path d="M 929.7 245.4 L 935.2 260.0 L 924.3 260.0 Z M 929.7 245.4 " fill="#FEFFFF"></path><path d="M 720.5 389.3 L 724.7 378.1 L 716.3 378.1 Z M 720.5 389.3 " fill="none" stroke="#FEFFFF" stroke-width="3.00" stroke-miterlimit="0.00" transform="matrix(1.30, 0.00, 0.00, -1.30, -8.9, 751.9)"></path><text xml:space="preserve" font-family="HelveticaNeue" font-size="16.0" fill="#FFFFFF" transform="matrix(1.30, 0.00, -0.00, -1.30, 294.6, 456.5)">W</text><text xml:space="preserve" font-family="HelveticaNeue" font-size="16.0" fill="#FFFFFF" transform="matrix(1.30, 0.00, -0.00, -1.30, 313.9, 456.5)">i</text><text xml:space="preserve" font-family="HelveticaNeue" font-size="16.0" fill="#FFFFFF" transform="matrix(1.30, 0.00, -0.00, -1.30, 318.5, 456.5)">ï¬</text><text xml:space="preserve" font-family="HelveticaNeue" font-size="16.0" fill="#FFFFFF" transform="matrix(1.30, 0.00, -0.00, -1.30, 329.3, 456.5)"> </text><text xml:space="preserve" font-family="HelveticaNeue" font-size="16.0" fill="#FFFFFF" transform="matrix(1.30, 0.00, -0.00, -1.30, 335.1, 456.5)">R</text><text xml:space="preserve" font-family="HelveticaNeue" font-size="16.0" fill="#FFFFFF" transform="matrix(1.30, 0.00, -0.00, -1.30, 349.4, 456.5)">o</text><text xml:space="preserve" font-family="HelveticaNeue" font-size="16.0" fill="#FFFFFF" transform="matrix(1.30, 0.00, -0.00, -1.30, 361.3, 456.5)">u</text><text xml:space="preserve" font-family="HelveticaNeue" font-size="16.0" fill="#FFFFFF" transform="matrix(1.30, 0.00, -0.00, -1.30, 372.9, 456.5)">t</text><text xml:space="preserve" font-family="HelveticaNeue" font-size="16.0" fill="#FFFFFF" transform="matrix(1.30, 0.00, -0.00, -1.30, 379.5, 456.5)">e</text><text xml:space="preserve" font-family="HelveticaNeue" font-size="16.0" fill="#FFFFFF" transform="matrix(1.30, 0.00, -0.00, -1.30, 390.7, 456.5)">r</text><text xml:space="preserve" font-family="HelveticaNeue" font-size="16.0" fill="#FFFFFF" transform="matrix(1.30, 0.00, -0.00, -1.30, 473.5, 456.5)">P</text><text xml:space="preserve" font-family="HelveticaNeue" font-size="16.0" fill="#FFFFFF" transform="matrix(1.30, 0.00, -0.00, -1.30, 487.0, 456.5)">r</text><text xml:space="preserve" font-family="HelveticaNeue" font-size="16.0" fill="#FFFFFF" transform="matrix(1.30, 0.00, -0.00, -1.30, 493.6, 456.5)">o</text><text xml:space="preserve" font-family="HelveticaNeue" font-size="16.0" fill="#FFFFFF" transform="matrix(1.30, 0.00, -0.00, -1.30, 505.5, 456.5)">v</text><text xml:space="preserve" font-family="HelveticaNeue" font-size="16.0" fill="#FFFFFF" transform="matrix(1.30, 0.00, -0.00, -1.30, 515.9, 456.5)">i</text><text xml:space="preserve" font-family="HelveticaNeue" font-size="16.0" fill="#FFFFFF" transform="matrix(1.30, 0.00, -0.00, -1.30, 520.6, 456.5)">d</text><text xml:space="preserve" font-family="HelveticaNeue" font-size="16.0" fill="#FFFFFF" transform="matrix(1.30, 0.00, -0.00, -1.30, 532.9, 456.5)">e</text><text xml:space="preserve" font-family="HelveticaNeue" font-size="16.0" fill="#FFFFFF" transform="matrix(1.30, 0.00, -0.00, -1.30, 544.1, 456.5)">r</text></g></g><text xml:space="preserve" font-family="Chalkduster" font-size="52.6" fill="#FFFFFF" transform="matrix(1.00, 0.00, -0.00, -1.00, 75.0, 686.0)">V</text><text xml:space="preserve" font-family="Chalkduster" font-size="52.6" fill="#FFFFFF" transform="matrix(1.00, 0.00, -0.00, -1.00, 109.2, 686.0)">e</text><text xml:space="preserve" font-family="Chalkduster" font-size="52.6" fill="#FFFFFF" transform="matrix(1.00, 0.00, -0.00, -1.00, 141.3, 686.0)">r</text><text xml:space="preserve" font-family="Chalkduster" font-size="52.6" fill="#FFFFFF" transform="matrix(1.00, 0.00, -0.00, -1.00, 169.0, 686.0)">b</text><text xml:space="preserve" font-family="Chalkduster" font-size="52.6" fill="#FFFFFF" transform="matrix(1.00, 0.00, -0.00, -1.00, 199.5, 686.0)">i</text><text xml:space="preserve" font-family="Chalkduster" font-size="52.6" fill="#FFFFFF" transform="matrix(1.00, 0.00, -0.00, -1.00, 220.3, 686.0)">n</text><text xml:space="preserve" font-family="Chalkduster" font-size="52.6" fill="#FFFFFF" transform="matrix(1.00, 0.00, -0.00, -1.00, 258.9, 686.0)">d</text><text xml:space="preserve" font-family="Chalkduster" font-size="52.6" fill="#FFFFFF" transform="matrix(1.00, 0.00, -0.00, -1.00, 301.0, 686.0)">u</text><text xml:space="preserve" font-family="Chalkduster" font-size="52.6" fill="#FFFFFF" transform="matrix(1.00, 0.00, -0.00, -1.00, 337.9, 686.0)">n</text><text xml:space="preserve" font-family="Chalkduster" font-size="52.6" fill="#FFFFFF" transform="matrix(1.00, 0.00, -0.00, -1.00, 374.8, 686.0)">g</text><text xml:space="preserve" font-family="Chalkduster" font-size="52.6" fill="#FFFFFF" transform="matrix(1.00, 0.00, -0.00, -1.00, 410.6, 686.0)"> </text><text xml:space="preserve" font-family="Chalkduster" font-size="52.6" fill="#FFFFFF" transform="matrix(1.00, 0.00, -0.00, -1.00, 436.8, 686.0)">m</text><text xml:space="preserve" font-family="Chalkduster" font-size="52.6" fill="#FFFFFF" transform="matrix(1.00, 0.00, -0.00, -1.00, 490.8, 686.0)">i</text><text xml:space="preserve" font-family="Chalkduster" font-size="52.6" fill="#FFFFFF" transform="matrix(1.00, 0.00, -0.00, -1.00, 512.2, 686.0)">t</text><text xml:space="preserve" font-family="Chalkduster" font-size="52.6" fill="#FFFFFF" transform="matrix(1.00, 0.00, -0.00, -1.00, 536.2, 686.0)"> </text><text xml:space="preserve" font-family="Chalkduster" font-size="52.6" fill="#FFFFFF" transform="matrix(1.00, 0.00, -0.00, -1.00, 562.3, 686.0)">e</text><text xml:space="preserve" font-family="Chalkduster" font-size="52.6" fill="#FFFFFF" transform="matrix(1.00, 0.00, -0.00, -1.00, 594.9, 686.0)">i</text><text xml:space="preserve" font-family="Chalkduster" font-size="52.6" fill="#FFFFFF" transform="matrix(1.00, 0.00, -0.00, -1.00, 615.7, 686.0)">n</text><text xml:space="preserve" font-family="Chalkduster" font-size="52.6" fill="#FFFFFF" transform="matrix(1.00, 0.00, -0.00, -1.00, 655.0, 686.0)">e</text><text xml:space="preserve" font-family="Chalkduster" font-size="52.6" fill="#FFFFFF" transform="matrix(1.00, 0.00, -0.00, -1.00, 687.6, 686.0)">m</text><text xml:space="preserve" font-family="Chalkduster" font-size="52.6" fill="#FFFFFF" transform="matrix(1.00, 0.00, -0.00, -1.00, 740.8, 686.0)"> </text><text xml:space="preserve" font-family="Chalkduster" font-size="52.6" fill="#FFFFFF" transform="matrix(1.00, 0.00, -0.00, -1.00, 766.9, 686.0)">S</text><text xml:space="preserve" font-family="Chalkduster" font-size="52.6" fill="#FFFFFF" transform="matrix(1.00, 0.00, -0.00, -1.00, 793.1, 686.0)">e</text><text xml:space="preserve" font-family="Chalkduster" font-size="52.6" fill="#FFFFFF" transform="matrix(1.00, 0.00, -0.00, -1.00, 825.1, 686.0)">r</text><text xml:space="preserve" font-family="Chalkduster" font-size="52.6" fill="#FFFFFF" transform="matrix(1.00, 0.00, -0.00, -1.00, 856.3, 686.0)">v</text><text xml:space="preserve" font-family="Chalkduster" font-size="52.6" fill="#FFFFFF" transform="matrix(1.00, 0.00, -0.00, -1.00, 888.7, 686.0)">e</text><text xml:space="preserve" font-family="Chalkduster" font-size="52.6" fill="#FFFFFF" transform="matrix(1.00, 0.00, -0.00, -1.00, 920.7, 686.0)">r</text></g></svg>