<?xml version="1.0" encoding="UTF-8" standalone="no"?><svg xmlns="http://www.w3.org/2000/svg" xmlns:xlink="http://www.w3.org/1999/xlink" clip-rule="evenodd" stroke-miterlimit="4.00" viewBox="0 0 841 407"><desc>SVG generated by Keynote</desc><defs></defs><g transform="matrix(1.00, 0.00, -0.00, -1.00, 0.0, 407.0)"><g><clipPath id="clip-3015"><path d="M 1.0 405.8 L 841.0 405.8 L 841.0 0.8 L 1.0 0.8 Z M 1.0 405.8 "></path></clipPath><g clip-path="url(#clip-3015)"><g><clipPath id="clip-3016"><path d="M 3.0 204.3 L 89.3 204.3 L 89.3 403.8 L 3.0 403.8 Z M 3.0 204.3 "></path></clipPath><g clip-path="url(#clip-3016)"><text xml:space="preserve" font-family="Chalkduster" font-size="36.0" fill="#FFFFFF" transform="matrix(1.00, 0.00, -0.00, -1.00, 9.0, 287.0)">E</text><text xml:space="preserve" font-family="Chalkduster" font-size="36.0" fill="#FFFFFF" transform="matrix(1.00, 0.00, -0.00, -1.00, 35.6, 287.0)">L</text><text xml:space="preserve" font-family="Chalkduster" font-size="36.0" fill="#FFFFFF" transform="matrix(1.00, 0.00, -0.00, -1.00, 57.3, 287.0)">Q</text></g></g></g></g><g><clipPath id="clip-3017"><path d="M 1.0 405.8 L 841.0 405.8 L 841.0 0.8 L 1.0 0.8 Z M 1.0 405.8 "></path></clipPath><g clip-path="url(#clip-3017)"><g><clipPath id="clip-3018"><path d="M 91.3 204.3 L 197.0 204.3 L 197.0 403.8 L 91.3 403.8 Z M 91.3 204.3 "></path></clipPath><g clip-path="url(#clip-3018)"><text xml:space="preserve" font-family="Chalkduster" font-size="36.0" fill="#FFFFFF" transform="matrix(1.00, 0.00, -0.00, -1.00, 100.0, 287.0)">G</text><text xml:space="preserve" font-family="Chalkduster" font-size="36.0" fill="#FEFB00" transform="matrix(1.00, 0.00, -0.00, -1.00, 139.9, 287.0)">H</text><text xml:space="preserve" font-family="Chalkduster" font-size="36.0" fill="#FFFFFF" transform="matrix(1.00, 0.00, -0.00, -1.00, 162.1, 287.0)">U</text></g></g></g></g><g><clipPath id="clip-3019"><path d="M 1.0 405.8 L 841.0 405.8 L 841.0 0.8 L 1.0 0.8 Z M 1.0 405.8 "></path></clipPath><g clip-path="url(#clip-3019)"><g><clipPath id="clip-3020"><path d="M 199.0 204.3 L 340.9 204.3 L 340.9 403.8 L 199.0 403.8 Z M 199.0 204.3 "></path></clipPath><g clip-path="url(#clip-3020)"><text xml:space="preserve" font-family="Chalkduster" font-size="36.0" fill="#FFFFFF" transform="matrix(1.00, 0.00, -0.00, -1.00, 209.0, 287.0)">J</text><text xml:space="preserve" font-family="Chalkduster" font-size="36.0" fill="#FEFB00" transform="matrix(1.00, 0.00, -0.00, -1.00, 229.6, 287.0)">H</text><text xml:space="preserve" font-family="Chalkduster" font-size="36.0" fill="#FFFFFF" transform="matrix(1.00, 0.00, -0.00, -1.00, 251.8, 287.0)">L</text><text xml:space="preserve" font-family="Chalkduster" font-size="36.0" fill="#FFFFFF" transform="matrix(1.00, 0.00, -0.00, -1.00, 272.5, 287.0)">V</text><text xml:space="preserve" font-family="Chalkduster" font-size="36.0" fill="#FFFFFF" transform="matrix(1.00, 0.00, -0.00, -1.00, 299.2, 287.0)">W</text></g></g></g></g><g><clipPath id="clip-3021"><path d="M 1.0 405.8 L 841.0 405.8 L 841.0 0.8 L 1.0 0.8 Z M 1.0 405.8 "></path></clipPath><g clip-path="url(#clip-3021)"><g><clipPath id="clip-3022"><path d="M 342.9 204.3 L 453.8 204.3 L 453.8 403.8 L 342.9 403.8 Z M 342.9 204.3 "></path></clipPath><g clip-path="url(#clip-3022)"><text xml:space="preserve" font-family="Chalkduster" font-size="36.0" fill="#FFFFFF" transform="matrix(1.00, 0.00, -0.00, -1.00, 354.0, 287.0)">G</text><text xml:space="preserve" font-family="Chalkduster" font-size="36.0" fill="#FEFB00" transform="matrix(1.00, 0.00, -0.00, -1.00, 393.9, 287.0)">H</text><text xml:space="preserve" font-family="Chalkduster" font-size="36.0" fill="#FFFFFF" transform="matrix(1.00, 0.00, -0.00, -1.00, 416.1, 287.0)">U</text></g></g></g></g><g><clipPath id="clip-3023"><path d="M 1.0 405.8 L 841.0 405.8 L 841.0 0.8 L 1.0 0.8 Z M 1.0 405.8 "></path></clipPath><g clip-path="url(#clip-3023)"><g><clipPath id="clip-3024"><path d="M 455.8 204.3 L 608.2 204.3 L 608.2 403.8 L 455.8 403.8 Z M 455.8 204.3 "></path></clipPath><g clip-path="url(#clip-3024)"><text xml:space="preserve" font-family="Chalkduster" font-size="36.0" fill="#FFFFFF" transform="matrix(1.00, 0.00, -0.00, -1.00, 462.0, 287.0)">V</text><text xml:space="preserve" font-family="Chalkduster" font-size="36.0" fill="#FFFFFF" transform="matrix(1.00, 0.00, -0.00, -1.00, 488.7, 287.0)">W</text><text xml:space="preserve" font-family="Chalkduster" font-size="36.0" fill="#FEFB00" transform="matrix(1.00, 0.00, -0.00, -1.00, 521.4, 287.0)">H</text><text xml:space="preserve" font-family="Chalkduster" font-size="36.0" fill="#FFFFFF" transform="matrix(1.00, 0.00, -0.00, -1.00, 543.5, 287.0)">W</text><text xml:space="preserve" font-family="Chalkduster" font-size="36.0" fill="#FFFFFF" transform="matrix(1.00, 0.00, -0.00, -1.00, 576.2, 287.0)">V</text></g></g></g></g><g><clipPath id="clip-3025"><path d="M 1.0 405.8 L 841.0 405.8 L 841.0 0.8 L 1.0 0.8 Z M 1.0 405.8 "></path></clipPath><g clip-path="url(#clip-3025)"><g><clipPath id="clip-3026"><path d="M 610.2 204.3 L 839.0 204.3 L 839.0 403.8 L 610.2 403.8 Z M 610.2 204.3 "></path></clipPath><g clip-path="url(#clip-3026)"><text xml:space="preserve" font-family="Chalkduster" font-size="36.0" fill="#FFFFFF" transform="matrix(1.00, 0.00, -0.00, -1.00, 619.0, 287.0)">Y</text><text xml:space="preserve" font-family="Chalkduster" font-size="36.0" fill="#FEFB00" transform="matrix(1.00, 0.00, -0.00, -1.00, 652.7, 287.0)">H</text><text xml:space="preserve" font-family="Chalkduster" font-size="36.0" fill="#FFFFFF" transform="matrix(1.00, 0.00, -0.00, -1.00, 674.9, 287.0)">U</text><text xml:space="preserve" font-family="Chalkduster" font-size="36.0" fill="#FFFFFF" transform="matrix(1.00, 0.00, -0.00, -1.00, 700.5, 287.0)">Q</text><text xml:space="preserve" font-family="Chalkduster" font-size="36.0" fill="#FEFB00" transform="matrix(1.00, 0.00, -0.00, -1.00, 727.2, 287.0)">H</text><text xml:space="preserve" font-family="Chalkduster" font-size="36.0" fill="#FFFFFF" transform="matrix(1.00, 0.00, -0.00, -1.00, 749.4, 287.0)">L</text><text xml:space="preserve" font-family="Chalkduster" font-size="36.0" fill="#FFFFFF" transform="matrix(1.00, 0.00, -0.00, -1.00, 771.2, 287.0)">Q</text><text xml:space="preserve" font-family="Chalkduster" font-size="36.0" fill="#FFFFFF" transform="matrix(1.00, 0.00, -0.00, -1.00, 797.9, 287.0)">W</text></g></g></g></g><g><clipPath id="clip-3027"><path d="M 1.0 405.8 L 841.0 405.8 L 841.0 0.8 L 1.0 0.8 Z M 1.0 405.8 "></path></clipPath><g clip-path="url(#clip-3027)"><g><clipPath id="clip-3028"><path d="M 3.0 2.8 L 89.3 2.8 L 89.3 202.3 L 3.0 202.3 Z M 3.0 2.8 "></path></clipPath><g clip-path="url(#clip-3028)"><text xml:space="preserve" font-family="Chalkduster" font-size="36.0" fill="#FFFFFF" transform="matrix(1.00, 0.00, -0.00, -1.00, 11.0, 86.0)">B</text><text xml:space="preserve" font-family="Chalkduster" font-size="36.0" fill="#FFFFFF" transform="matrix(1.00, 0.00, -0.00, -1.00, 35.0, 86.0)">I</text><text xml:space="preserve" font-family="Chalkduster" font-size="36.0" fill="#FFFFFF" transform="matrix(1.00, 0.00, -0.00, -1.00, 56.5, 86.0)">N</text></g></g></g></g><g><clipPath id="clip-3029"><path d="M 1.0 405.8 L 841.0 405.8 L 841.0 0.8 L 1.0 0.8 Z M 1.0 405.8 "></path></clipPath><g clip-path="url(#clip-3029)"><g><clipPath id="clip-3030"><path d="M 91.3 2.8 L 197.0 2.8 L 197.0 202.3 L 91.3 202.3 Z M 91.3 2.8 "></path></clipPath><g clip-path="url(#clip-3030)"><text xml:space="preserve" font-family="Chalkduster" font-size="36.0" fill="#FFFFFF" transform="matrix(1.00, 0.00, -0.00, -1.00, 104.0, 86.0)">D</text><text xml:space="preserve" font-family="Chalkduster" font-size="36.0" fill="#FEFB00" transform="matrix(1.00, 0.00, -0.00, -1.00, 129.2, 86.0)">E</text><text xml:space="preserve" font-family="Chalkduster" font-size="36.0" fill="#FFFFFF" transform="matrix(1.00, 0.00, -0.00, -1.00, 155.8, 86.0)">R</text></g></g></g></g><g><clipPath id="clip-3031"><path d="M 1.0 405.8 L 841.0 405.8 L 841.0 0.8 L 1.0 0.8 Z M 1.0 405.8 "></path></clipPath><g clip-path="url(#clip-3031)"><g><clipPath id="clip-3032"><path d="M 199.0 2.8 L 340.9 2.8 L 340.9 202.3 L 199.0 202.3 Z M 199.0 2.8 "></path></clipPath><g clip-path="url(#clip-3032)"><text xml:space="preserve" font-family="Chalkduster" font-size="36.0" fill="#FFFFFF" transform="matrix(1.00, 0.00, -0.00, -1.00, 203.0, 86.0)">G</text><text xml:space="preserve" font-family="Chalkduster" font-size="36.0" fill="#FEFB00" transform="matrix(1.00, 0.00, -0.00, -1.00, 242.9, 86.0)">E</text><text xml:space="preserve" font-family="Chalkduster" font-size="36.0" fill="#FFFFFF" transform="matrix(1.00, 0.00, -0.00, -1.00, 269.6, 86.0)">I</text><text xml:space="preserve" font-family="Chalkduster" font-size="36.0" fill="#FFFFFF" transform="matrix(1.00, 0.00, -0.00, -1.00, 291.0, 86.0)">S</text><text xml:space="preserve" font-family="Chalkduster" font-size="36.0" fill="#FFFFFF" transform="matrix(1.00, 0.00, -0.00, -1.00, 308.9, 86.0)">T</text></g></g></g></g><g><clipPath id="clip-3033"><path d="M 1.0 405.8 L 841.0 405.8 L 841.0 0.8 L 1.0 0.8 Z M 1.0 405.8 "></path></clipPath><g clip-path="url(#clip-3033)"><g><clipPath id="clip-3034"><path d="M 342.9 2.8 L 453.8 2.8 L 453.8 202.3 L 342.9 202.3 Z M 342.9 2.8 "></path></clipPath><g clip-path="url(#clip-3034)"><text xml:space="preserve" font-family="Chalkduster" font-size="36.0" fill="#FFFFFF" transform="matrix(1.00, 0.00, -0.00, -1.00, 358.0, 86.0)">D</text><text xml:space="preserve" font-family="Chalkduster" font-size="36.0" fill="#FEFB00" transform="matrix(1.00, 0.00, -0.00, -1.00, 383.2, 86.0)">E</text><text xml:space="preserve" font-family="Chalkduster" font-size="36.0" fill="#FFFFFF" transform="matrix(1.00, 0.00, -0.00, -1.00, 409.8, 86.0)">R</text></g></g></g></g><g><clipPath id="clip-3035"><path d="M 1.0 405.8 L 841.0 405.8 L 841.0 0.8 L 1.0 0.8 Z M 1.0 405.8 "></path></clipPath><g clip-path="url(#clip-3035)"><g><clipPath id="clip-3036"><path d="M 455.8 2.8 L 608.2 2.8 L 608.2 202.3 L 455.8 202.3 Z M 455.8 2.8 "></path></clipPath><g clip-path="url(#clip-3036)"><text xml:space="preserve" font-family="Chalkduster" font-size="36.0" fill="#FFFFFF" transform="matrix(1.00, 0.00, -0.00, -1.00, 473.0, 86.0)">S</text><text xml:space="preserve" font-family="Chalkduster" font-size="36.0" fill="#FFFFFF" transform="matrix(1.00, 0.00, -0.00, -1.00, 490.9, 86.0)">T</text><text xml:space="preserve" font-family="Chalkduster" font-size="36.0" fill="#FEFB00" transform="matrix(1.00, 0.00, -0.00, -1.00, 518.5, 86.0)">E</text><text xml:space="preserve" font-family="Chalkduster" font-size="36.0" fill="#FFFFFF" transform="matrix(1.00, 0.00, -0.00, -1.00, 545.1, 86.0)">T</text><text xml:space="preserve" font-family="Chalkduster" font-size="36.0" fill="#FFFFFF" transform="matrix(1.00, 0.00, -0.00, -1.00, 572.7, 86.0)">S</text></g></g></g></g><g><clipPath id="clip-3037"><path d="M 1.0 405.8 L 841.0 405.8 L 841.0 0.8 L 1.0 0.8 Z M 1.0 405.8 "></path></clipPath><g clip-path="url(#clip-3037)"><g><clipPath id="clip-3038"><path d="M 610.2 2.8 L 839.0 2.8 L 839.0 202.3 L 610.2 202.3 Z M 610.2 2.8 "></path></clipPath><g clip-path="url(#clip-3038)"><text xml:space="preserve" font-family="Chalkduster" font-size="36.0" fill="#FFFFFF" transform="matrix(1.00, 0.00, -0.00, -1.00, 620.0, 86.0)">V</text><text xml:space="preserve" font-family="Chalkduster" font-size="36.0" fill="#FEFB00" transform="matrix(1.00, 0.00, -0.00, -1.00, 646.7, 86.0)">E</text><text xml:space="preserve" font-family="Chalkduster" font-size="36.0" fill="#FFFFFF" transform="matrix(1.00, 0.00, -0.00, -1.00, 673.3, 86.0)">R</text><text xml:space="preserve" font-family="Chalkduster" font-size="36.0" fill="#FFFFFF" transform="matrix(1.00, 0.00, -0.00, -1.00, 701.3, 86.0)">N</text><text xml:space="preserve" font-family="Chalkduster" font-size="36.0" fill="#FEFB00" transform="matrix(1.00, 0.00, -0.00, -1.00, 726.9, 86.0)">E</text><text xml:space="preserve" font-family="Chalkduster" font-size="36.0" fill="#FFFFFF" transform="matrix(1.00, 0.00, -0.00, -1.00, 753.5, 86.0)">I</text><text xml:space="preserve" font-family="Chalkduster" font-size="36.0" fill="#FFFFFF" transform="matrix(1.00, 0.00, -0.00, -1.00, 775.0, 86.0)">N</text><text xml:space="preserve" font-family="Chalkduster" font-size="36.0" fill="#FFFFFF" transform="matrix(1.00, 0.00, -0.00, -1.00, 800.6, 86.0)">T</text></g></g></g></g><g><clipPath id="clip-3039"><path d="M 1.0 405.8 L 841.0 405.8 L 841.0 0.8 L 1.0 0.8 Z M 1.0 405.8 "></path></clipPath><g clip-path="url(#clip-3039)"><path d="M 90.3 1.0 L 90.3 406.0 " fill="none" stroke="#FFFFFF" stroke-width="2.00" transform="matrix(1.00, 0.00, 0.00, -1.00, 0.0, 406.8)"></path><path d="M 197.9 1.0 L 197.9 406.0 " fill="none" stroke="#FFFFFF" stroke-width="2.00" transform="matrix(1.00, 0.00, 0.00, -1.00, 0.0, 406.8)"></path><path d="M 341.9 1.0 L 341.9 406.0 " fill="none" stroke="#FFFFFF" stroke-width="2.00" transform="matrix(1.00, 0.00, 0.00, -1.00, 0.0, 406.8)"></path><path d="M 454.7 1.0 L 454.7 406.0 " fill="none" stroke="#FFFFFF" stroke-width="2.00" transform="matrix(1.00, 0.00, 0.00, -1.00, 0.0, 406.8)"></path><path d="M 609.1 1.0 L 609.1 406.0 " fill="none" stroke="#FFFFFF" stroke-width="2.00" transform="matrix(1.00, 0.00, 0.00, -1.00, 0.0, 406.8)"></path><path d="M 1.0 203.5 L 841.0 203.5 " fill="none" stroke="#FFFFFF" stroke-width="2.00" transform="matrix(1.00, 0.00, 0.00, -1.00, 0.0, 406.8)"></path><path d="M 2.0 1.0 L 2.0 406.0 " fill="none" stroke="#FFFFFF" stroke-width="2.00" transform="matrix(1.00, 0.00, 0.00, -1.00, 0.0, 406.8)"></path><path d="M 840.0 1.0 L 840.0 406.0 " fill="none" stroke="#FFFFFF" stroke-width="2.00" transform="matrix(1.00, 0.00, 0.00, -1.00, 0.0, 406.8)"></path><path d="M 1.0 2.0 L 841.0 2.0 " fill="none" stroke="#FFFFFF" stroke-width="2.00" transform="matrix(1.00, 0.00, 0.00, -1.00, 0.0, 406.8)"></path><path d="M 1.0 405.0 L 841.0 405.0 " fill="none" stroke="#FFFFFF" stroke-width="2.00" transform="matrix(1.00, 0.00, 0.00, -1.00, 0.0, 406.8)"></path></g></g></g></svg>