<?xml version="1.0" encoding="UTF-8" standalone="no"?><svg xmlns="http://www.w3.org/2000/svg" xmlns:xlink="http://www.w3.org/1999/xlink" clip-rule="evenodd" stroke-miterlimit="4.00" viewBox="0 0 931 111"><desc>SVG generated by Keynote</desc><defs></defs><g transform="matrix(1.00, 0.00, -0.00, -1.00, 0.0, 111.0)"><text xml:space="preserve" font-family="Chalkduster" font-size="42.0" fill="#FFFFFF" transform="matrix(1.00, 0.00, -0.00, -1.00, -1.0, 69.0)">L</text><text xml:space="preserve" font-family="Chalkduster" font-size="42.0" fill="#FFFFFF" transform="matrix(1.00, 0.00, -0.00, -1.00, 25.6, 69.0)">e</text><text xml:space="preserve" font-family="Chalkduster" font-size="42.0" fill="#FFFFFF" transform="matrix(1.00, 0.00, -0.00, -1.00, 51.6, 69.0)">i</text><text xml:space="preserve" font-family="Chalkduster" font-size="42.0" fill="#FFFFFF" transform="matrix(1.00, 0.00, -0.00, -1.00, 68.6, 69.0)">c</text><text xml:space="preserve" font-family="Chalkduster" font-size="42.0" fill="#FFFFFF" transform="matrix(1.00, 0.00, -0.00, -1.00, 95.1, 69.0)">h</text><text xml:space="preserve" font-family="Chalkduster" font-size="42.0" fill="#FFFFFF" transform="matrix(1.00, 0.00, -0.00, -1.00, 119.1, 69.0)">t</text><text xml:space="preserve" font-family="Chalkduster" font-size="42.0" fill="#FFFFFF" transform="matrix(1.00, 0.00, -0.00, -1.00, 138.3, 69.0)"> </text><text xml:space="preserve" font-family="Chalkduster" font-size="42.0" fill="#FFFFFF" transform="matrix(1.00, 0.00, -0.00, -1.00, 156.3, 69.0)">A</text><text xml:space="preserve" font-family="Chalkduster" font-size="42.0" fill="#FFFFFF" transform="matrix(1.00, 0.00, -0.00, -1.00, 187.4, 69.0)">n</text><text xml:space="preserve" font-family="Chalkduster" font-size="42.0" fill="#FFFFFF" transform="matrix(1.00, 0.00, -0.00, -1.00, 216.9, 69.0)">g</text><text xml:space="preserve" font-family="Chalkduster" font-size="42.0" fill="#FFFFFF" transform="matrix(1.00, 0.00, -0.00, -1.00, 246.7, 69.0)">r</text><text xml:space="preserve" font-family="Chalkduster" font-size="42.0" fill="#FFFFFF" transform="matrix(1.00, 0.00, -0.00, -1.00, 267.9, 69.0)">e</text><text xml:space="preserve" font-family="Chalkduster" font-size="42.0" fill="#FFFFFF" transform="matrix(1.00, 0.00, -0.00, -1.00, 294.0, 69.0)">i</text><text xml:space="preserve" font-family="Chalkduster" font-size="42.0" fill="#FFFFFF" transform="matrix(1.00, 0.00, -0.00, -1.00, 308.6, 69.0)">f</text><text xml:space="preserve" font-family="Chalkduster" font-size="42.0" fill="#FFFFFF" transform="matrix(1.00, 0.00, -0.00, -1.00, 330.9, 69.0)">b</text><text xml:space="preserve" font-family="Chalkduster" font-size="42.0" fill="#FFFFFF" transform="matrix(1.00, 0.00, -0.00, -1.00, 354.4, 69.0)">a</text><text xml:space="preserve" font-family="Chalkduster" font-size="42.0" fill="#FFFFFF" transform="matrix(1.00, 0.00, -0.00, -1.00, 381.1, 69.0)">r</text><text xml:space="preserve" font-family="Chalkduster" font-size="42.0" fill="#FFFFFF" transform="matrix(1.00, 0.00, -0.00, -1.00, 398.3, 69.0)">,</text><text xml:space="preserve" font-family="Chalkduster" font-size="42.0" fill="#FFFFFF" transform="matrix(1.00, 0.00, -0.00, -1.00, 411.3, 69.0)"> </text><text xml:space="preserve" font-family="Chalkduster" font-size="42.0" fill="#FFFFFF" transform="matrix(1.00, 0.00, -0.00, -1.00, 432.2, 69.0)">d</text><text xml:space="preserve" font-family="Chalkduster" font-size="42.0" fill="#FFFFFF" transform="matrix(1.00, 0.00, -0.00, -1.00, 465.0, 69.0)">a</text><text xml:space="preserve" font-family="Chalkduster" font-size="42.0" fill="#FFFFFF" transform="matrix(1.00, 0.00, -0.00, -1.00, 493.9, 69.0)"> </text><text xml:space="preserve" font-family="Chalkduster" font-size="42.0" fill="#FFFFFF" transform="matrix(1.00, 0.00, -0.00, -1.00, 514.8, 69.0)">z</text><text xml:space="preserve" font-family="Chalkduster" font-size="42.0" fill="#FFFFFF" transform="matrix(1.00, 0.00, -0.00, -1.00, 542.1, 69.0)">.</text><text xml:space="preserve" font-family="Chalkduster" font-size="42.0" fill="#FFFFFF" transform="matrix(1.00, 0.00, -0.00, -1.00, 556.4, 69.0)">B</text><text xml:space="preserve" font-family="Chalkduster" font-size="42.0" fill="#FFFFFF" transform="matrix(1.00, 0.00, -0.00, -1.00, 581.1, 69.0)">.</text><text xml:space="preserve" font-family="Chalkduster" font-size="42.0" fill="#FFFFFF" transform="matrix(1.00, 0.00, -0.00, -1.00, 593.1, 69.0)"> </text><text xml:space="preserve" font-family="Chalkduster" font-size="42.0" fill="#FFFFFF" transform="matrix(1.00, 0.00, -0.00, -1.00, 614.0, 69.0)">i</text><text xml:space="preserve" font-family="Chalkduster" font-size="42.0" fill="#FFFFFF" transform="matrix(1.00, 0.00, -0.00, -1.00, 630.5, 69.0)">m</text><text xml:space="preserve" font-family="Chalkduster" font-size="42.0" fill="#FFFFFF" transform="matrix(1.00, 0.00, -0.00, -1.00, 673.1, 69.0)"> </text><text xml:space="preserve" font-family="Chalkduster" font-size="42.0" fill="#FFFFFF" transform="matrix(1.00, 0.00, -0.00, -1.00, 693.9, 69.0)">D</text><text xml:space="preserve" font-family="Chalkduster" font-size="42.0" fill="#FFFFFF" transform="matrix(1.00, 0.00, -0.00, -1.00, 722.9, 69.0)">e</text><text xml:space="preserve" font-family="Chalkduster" font-size="42.0" fill="#FFFFFF" transform="matrix(1.00, 0.00, -0.00, -1.00, 748.9, 69.0)">u</text><text xml:space="preserve" font-family="Chalkduster" font-size="42.0" fill="#FFFFFF" transform="matrix(1.00, 0.00, -0.00, -1.00, 777.4, 69.0)">t</text><text xml:space="preserve" font-family="Chalkduster" font-size="42.0" fill="#FFFFFF" transform="matrix(1.00, 0.00, -0.00, -1.00, 796.6, 69.0)">s</text><text xml:space="preserve" font-family="Chalkduster" font-size="42.0" fill="#FFFFFF" transform="matrix(1.00, 0.00, -0.00, -1.00, 818.7, 69.0)">c</text><text xml:space="preserve" font-family="Chalkduster" font-size="42.0" fill="#FFFFFF" transform="matrix(1.00, 0.00, -0.00, -1.00, 845.1, 69.0)">h</text><text xml:space="preserve" font-family="Chalkduster" font-size="42.0" fill="#FFFFFF" transform="matrix(1.00, 0.00, -0.00, -1.00, 871.1, 69.0)">e</text><text xml:space="preserve" font-family="Chalkduster" font-size="42.0" fill="#FFFFFF" transform="matrix(1.00, 0.00, -0.00, -1.00, 897.6, 69.0)">n</text><text xml:space="preserve" font-family="Chalkduster" font-size="42.0" fill="#FFFFFF" transform="matrix(1.00, 0.00, -0.00, -1.00, 928.4, 69.0)"> </text><text xml:space="preserve" font-family="Chalkduster" font-size="42.0" fill="#FFFFFF" transform="matrix(1.00, 0.00, -0.00, -1.00, 74.0, 15.0)">„</text><text xml:space="preserve" font-family="Chalkduster" font-size="42.0" fill="#FFFFFF" transform="matrix(1.00, 0.00, -0.00, -1.00, 98.6, 15.0)">e</text><text xml:space="preserve" font-family="Chalkduster" font-size="42.0" fill="#FFFFFF" transform="matrix(1.00, 0.00, -0.00, -1.00, 124.6, 15.0)">“</text><text xml:space="preserve" font-family="Chalkduster" font-size="42.0" fill="#FFFFFF" transform="matrix(1.00, 0.00, -0.00, -1.00, 145.0, 15.0)"> </text><text xml:space="preserve" font-family="Chalkduster" font-size="42.0" fill="#FFFFFF" transform="matrix(1.00, 0.00, -0.00, -1.00, 166.0, 15.0)">u</text><text xml:space="preserve" font-family="Chalkduster" font-size="42.0" fill="#FFFFFF" transform="matrix(1.00, 0.00, -0.00, -1.00, 195.4, 15.0)">n</text><text xml:space="preserve" font-family="Chalkduster" font-size="42.0" fill="#FFFFFF" transform="matrix(1.00, 0.00, -0.00, -1.00, 226.2, 15.0)">d</text><text xml:space="preserve" font-family="Chalkduster" font-size="42.0" fill="#FFFFFF" transform="matrix(1.00, 0.00, -0.00, -1.00, 259.1, 15.0)"> </text><text xml:space="preserve" font-family="Chalkduster" font-size="42.0" fill="#FFFFFF" transform="matrix(1.00, 0.00, -0.00, -1.00, 280.0, 15.0)">„</text><text xml:space="preserve" font-family="Chalkduster" font-size="42.0" fill="#FFFFFF" transform="matrix(1.00, 0.00, -0.00, -1.00, 304.6, 15.0)">d</text><text xml:space="preserve" font-family="Chalkduster" font-size="42.0" fill="#FFFFFF" transform="matrix(1.00, 0.00, -0.00, -1.00, 337.4, 15.0)">e</text><text xml:space="preserve" font-family="Chalkduster" font-size="42.0" fill="#FFFFFF" transform="matrix(1.00, 0.00, -0.00, -1.00, 363.0, 15.0)">r</text><text xml:space="preserve" font-family="Chalkduster" font-size="42.0" fill="#FFFFFF" transform="matrix(1.00, 0.00, -0.00, -1.00, 385.2, 15.0)">“</text><text xml:space="preserve" font-family="Chalkduster" font-size="42.0" fill="#FFFFFF" transform="matrix(1.00, 0.00, -0.00, -1.00, 405.6, 15.0)"> </text><text xml:space="preserve" font-family="Chalkduster" font-size="42.0" fill="#FFFFFF" transform="matrix(1.00, 0.00, -0.00, -1.00, 426.5, 15.0)">ö</text><text xml:space="preserve" font-family="Chalkduster" font-size="42.0" fill="#FFFFFF" transform="matrix(1.00, 0.00, -0.00, -1.00, 458.5, 15.0)">f</text><text xml:space="preserve" font-family="Chalkduster" font-size="42.0" fill="#FFFFFF" transform="matrix(1.00, 0.00, -0.00, -1.00, 479.2, 15.0)">t</text><text xml:space="preserve" font-family="Chalkduster" font-size="42.0" fill="#FFFFFF" transform="matrix(1.00, 0.00, -0.00, -1.00, 498.0, 15.0)">e</text><text xml:space="preserve" font-family="Chalkduster" font-size="42.0" fill="#FFFFFF" transform="matrix(1.00, 0.00, -0.00, -1.00, 523.6, 15.0)">r</text><text xml:space="preserve" font-family="Chalkduster" font-size="42.0" fill="#FFFFFF" transform="matrix(1.00, 0.00, -0.00, -1.00, 545.7, 15.0)"> </text><text xml:space="preserve" font-family="Chalkduster" font-size="42.0" fill="#FFFFFF" transform="matrix(1.00, 0.00, -0.00, -1.00, 566.7, 15.0)">v</text><text xml:space="preserve" font-family="Chalkduster" font-size="42.0" fill="#FFFFFF" transform="matrix(1.00, 0.00, -0.00, -1.00, 592.9, 15.0)">o</text><text xml:space="preserve" font-family="Chalkduster" font-size="42.0" fill="#FFFFFF" transform="matrix(1.00, 0.00, -0.00, -1.00, 623.5, 15.0)">r</text><text xml:space="preserve" font-family="Chalkduster" font-size="42.0" fill="#FFFFFF" transform="matrix(1.00, 0.00, -0.00, -1.00, 645.7, 15.0)">k</text><text xml:space="preserve" font-family="Chalkduster" font-size="42.0" fill="#FFFFFF" transform="matrix(1.00, 0.00, -0.00, -1.00, 677.4, 15.0)">o</text><text xml:space="preserve" font-family="Chalkduster" font-size="42.0" fill="#FFFFFF" transform="matrix(1.00, 0.00, -0.00, -1.00, 708.8, 15.0)">m</text><text xml:space="preserve" font-family="Chalkduster" font-size="42.0" fill="#FFFFFF" transform="matrix(1.00, 0.00, -0.00, -1.00, 752.7, 15.0)">m</text><text xml:space="preserve" font-family="Chalkduster" font-size="42.0" fill="#FFFFFF" transform="matrix(1.00, 0.00, -0.00, -1.00, 796.2, 15.0)">e</text><text xml:space="preserve" font-family="Chalkduster" font-size="42.0" fill="#FFFFFF" transform="matrix(1.00, 0.00, -0.00, -1.00, 822.7, 15.0)">n</text></g></svg>