<?xml version="1.0" encoding="UTF-8" standalone="no"?><svg xmlns="http://www.w3.org/2000/svg" xmlns:xlink="http://www.w3.org/1999/xlink" clip-rule="evenodd" stroke-miterlimit="4.00" viewBox="0 0 1024 768"><desc>SVG generated by Keynote</desc><defs></defs><g transform="matrix(1.00, 0.00, -0.00, -1.00, 0.0, 768.0)"><g><clipPath id="clip-3711"><path d="M 0.0 768.0 L 1024.0 768.0 L 1024.0 0.0 L 0.0 0.0 Z M 0.0 768.0 "></path></clipPath><g clip-path="url(#clip-3711)"><image xlink:href="../../AAFA64A7-B22F-44FA-BDCD-1B20F3A178DE/assets/DE78B55DDE70D88C6FF874E8D33A46A3.jpeg" width="1024.00" height="768.00" transform="matrix(1.00, 0.00, -0.00, -1.00, 0.0, 768.0)"></image></g></g><text xml:space="preserve" font-family="Chalkduster" font-size="34.6" fill="#FFFFFF" transform="matrix(1.00, 0.00, -0.00, -1.00, 105.0, 311.0)">L</text><text xml:space="preserve" font-family="Chalkduster" font-size="34.6" fill="#FFFFFF" transform="matrix(1.00, 0.00, -0.00, -1.00, 126.9, 311.0)">i</text><text xml:space="preserve" font-family="Chalkduster" font-size="34.6" fill="#FFFFFF" transform="matrix(1.00, 0.00, -0.00, -1.00, 140.5, 311.0)">n</text><text xml:space="preserve" font-family="Chalkduster" font-size="34.6" fill="#FFFFFF" transform="matrix(1.00, 0.00, -0.00, -1.00, 165.9, 311.0)">k</text><text xml:space="preserve" font-family="Chalkduster" font-size="34.6" fill="#FFFFFF" transform="matrix(1.00, 0.00, -0.00, -1.00, 192.8, 311.0)"> </text><text xml:space="preserve" font-family="Chalkduster" font-size="34.6" fill="#FFFFFF" transform="matrix(1.00, 0.00, -0.00, -1.00, 210.0, 311.0)">z</text><text xml:space="preserve" font-family="Chalkduster" font-size="34.6" fill="#FFFFFF" transform="matrix(1.00, 0.00, -0.00, -1.00, 232.4, 311.0)">u</text><text xml:space="preserve" font-family="Chalkduster" font-size="34.6" fill="#FFFFFF" transform="matrix(1.00, 0.00, -0.00, -1.00, 256.2, 311.0)">:</text><text xml:space="preserve" font-family="Chalkduster" font-size="34.6" fill="#FFFFFF" transform="matrix(1.00, 0.00, -0.00, -1.00, 267.6, 311.0)"> </text><text xml:space="preserve" font-family="Chalkduster" font-size="34.6" fill="#FFFFFF" transform="matrix(1.00, 0.00, -0.00, -1.00, 284.7, 311.0)">N</text><text xml:space="preserve" font-family="Chalkduster" font-size="34.6" fill="#FFFFFF" transform="matrix(1.00, 0.00, -0.00, -1.00, 310.4, 311.0)">o</text><text xml:space="preserve" font-family="Chalkduster" font-size="34.6" fill="#FFFFFF" transform="matrix(1.00, 0.00, -0.00, -1.00, 335.2, 311.0)"> </text><text xml:space="preserve" font-family="Chalkduster" font-size="34.6" fill="#FFFFFF" transform="matrix(1.00, 0.00, -0.00, -1.00, 352.4, 311.0)">O</text><text xml:space="preserve" font-family="Chalkduster" font-size="34.6" fill="#FFFFFF" transform="matrix(1.00, 0.00, -0.00, -1.00, 377.5, 311.0)">n</text><text xml:space="preserve" font-family="Chalkduster" font-size="34.6" fill="#FFFFFF" transform="matrix(1.00, 0.00, -0.00, -1.00, 403.3, 311.0)">e</text><text xml:space="preserve" font-family="Chalkduster" font-size="34.6" fill="#FFFFFF" transform="matrix(1.00, 0.00, -0.00, -1.00, 424.8, 311.0)"> </text><text xml:space="preserve" font-family="Chalkduster" font-size="34.6" fill="#FFFFFF" transform="matrix(1.00, 0.00, -0.00, -1.00, 441.9, 311.0)">U</text><text xml:space="preserve" font-family="Chalkduster" font-size="34.6" fill="#FFFFFF" transform="matrix(1.00, 0.00, -0.00, -1.00, 466.6, 311.0)">n</text><text xml:space="preserve" font-family="Chalkduster" font-size="34.6" fill="#FFFFFF" transform="matrix(1.00, 0.00, -0.00, -1.00, 491.9, 311.0)">d</text><text xml:space="preserve" font-family="Chalkduster" font-size="34.6" fill="#FFFFFF" transform="matrix(1.00, 0.00, -0.00, -1.00, 518.9, 311.0)">e</text><text xml:space="preserve" font-family="Chalkduster" font-size="34.6" fill="#FFFFFF" transform="matrix(1.00, 0.00, -0.00, -1.00, 540.0, 311.0)">r</text><text xml:space="preserve" font-family="Chalkduster" font-size="34.6" fill="#FFFFFF" transform="matrix(1.00, 0.00, -0.00, -1.00, 557.8, 311.0)">s</text><text xml:space="preserve" font-family="Chalkduster" font-size="34.6" fill="#FFFFFF" transform="matrix(1.00, 0.00, -0.00, -1.00, 576.3, 311.0)">t</text><text xml:space="preserve" font-family="Chalkduster" font-size="34.6" fill="#FFFFFF" transform="matrix(1.00, 0.00, -0.00, -1.00, 591.8, 311.0)">a</text><text xml:space="preserve" font-family="Chalkduster" font-size="34.6" fill="#FFFFFF" transform="matrix(1.00, 0.00, -0.00, -1.00, 615.6, 311.0)">n</text><text xml:space="preserve" font-family="Chalkduster" font-size="34.6" fill="#FFFFFF" transform="matrix(1.00, 0.00, -0.00, -1.00, 640.9, 311.0)">d</text><text xml:space="preserve" font-family="Chalkduster" font-size="34.6" fill="#FFFFFF" transform="matrix(1.00, 0.00, -0.00, -1.00, 669.1, 311.0)">s</text><text xml:space="preserve" font-family="Chalkduster" font-size="34.6" fill="#FFFFFF" transform="matrix(1.00, 0.00, -0.00, -1.00, 686.5, 311.0)"> </text><text xml:space="preserve" font-family="Chalkduster" font-size="34.6" fill="#FFFFFF" transform="matrix(1.00, 0.00, -0.00, -1.00, 700.8, 311.0)">T</text><text xml:space="preserve" font-family="Chalkduster" font-size="34.6" fill="#FFFFFF" transform="matrix(1.00, 0.00, -0.00, -1.00, 727.3, 311.0)">h</text><text xml:space="preserve" font-family="Chalkduster" font-size="34.6" fill="#FFFFFF" transform="matrix(1.00, 0.00, -0.00, -1.00, 748.7, 311.0)">e</text><text xml:space="preserve" font-family="Chalkduster" font-size="34.6" fill="#FFFFFF" transform="matrix(1.00, 0.00, -0.00, -1.00, 770.1, 311.0)"> </text><text xml:space="preserve" font-family="Chalkduster" font-size="34.6" fill="#FFFFFF" transform="matrix(1.00, 0.00, -0.00, -1.00, 787.3, 311.0)">C</text><text xml:space="preserve" font-family="Chalkduster" font-size="34.6" fill="#FFFFFF" transform="matrix(1.00, 0.00, -0.00, -1.00, 815.3, 311.0)">l</text><text xml:space="preserve" font-family="Chalkduster" font-size="34.6" fill="#FFFFFF" transform="matrix(1.00, 0.00, -0.00, -1.00, 830.2, 311.0)">o</text><text xml:space="preserve" font-family="Chalkduster" font-size="34.6" fill="#FFFFFF" transform="matrix(1.00, 0.00, -0.00, -1.00, 856.1, 311.0)">u</text><text xml:space="preserve" font-family="Chalkduster" font-size="34.6" fill="#FFFFFF" transform="matrix(1.00, 0.00, -0.00, -1.00, 881.7, 311.0)">d</text><text xml:space="preserve" font-family="Chalkduster" font-size="34.6" fill="#FFFFFF" transform="matrix(1.00, 0.00, -0.00, -1.00, 908.7, 311.0)">,</text><text xml:space="preserve" font-family="Chalkduster" font-size="34.6" fill="#FFFFFF" transform="matrix(1.00, 0.00, -0.00, -1.00, 919.4, 311.0)"> </text><text xml:space="preserve" font-family="Chalkduster" font-size="34.6" fill="#FFFFFF" transform="matrix(1.00, 0.00, -0.00, -1.00, 375.0, 258.0)">i</text><text xml:space="preserve" font-family="Chalkduster" font-size="34.6" fill="#FFFFFF" transform="matrix(1.00, 0.00, -0.00, -1.00, 389.0, 258.0)">t</text><text xml:space="preserve" font-family="Chalkduster" font-size="34.6" fill="#FFFFFF" transform="matrix(1.00, 0.00, -0.00, -1.00, 404.8, 258.0)">’</text><text xml:space="preserve" font-family="Chalkduster" font-size="34.6" fill="#FFFFFF" transform="matrix(1.00, 0.00, -0.00, -1.00, 409.1, 258.0)">s</text><text xml:space="preserve" font-family="Chalkduster" font-size="34.6" fill="#FFFFFF" transform="matrix(1.00, 0.00, -0.00, -1.00, 426.6, 258.0)"> </text><text xml:space="preserve" font-family="Chalkduster" font-size="34.6" fill="#FFFFFF" transform="matrix(1.00, 0.00, -0.00, -1.00, 443.8, 258.0)">a</text><text xml:space="preserve" font-family="Chalkduster" font-size="34.6" fill="#FFFFFF" transform="matrix(1.00, 0.00, -0.00, -1.00, 467.6, 258.0)"> </text><text xml:space="preserve" font-family="Chalkduster" font-size="34.6" fill="#FFFFFF" transform="matrix(1.00, 0.00, -0.00, -1.00, 484.8, 258.0)">m</text><text xml:space="preserve" font-family="Chalkduster" font-size="34.6" fill="#FFFFFF" transform="matrix(1.00, 0.00, -0.00, -1.00, 519.8, 258.0)">y</text><text xml:space="preserve" font-family="Chalkduster" font-size="34.6" fill="#FFFFFF" transform="matrix(1.00, 0.00, -0.00, -1.00, 540.9, 258.0)">s</text><text xml:space="preserve" font-family="Chalkduster" font-size="34.6" fill="#FFFFFF" transform="matrix(1.00, 0.00, -0.00, -1.00, 559.4, 258.0)">t</text><text xml:space="preserve" font-family="Chalkduster" font-size="34.6" fill="#FFFFFF" transform="matrix(1.00, 0.00, -0.00, -1.00, 574.8, 258.0)">e</text><text xml:space="preserve" font-family="Chalkduster" font-size="34.6" fill="#FFFFFF" transform="matrix(1.00, 0.00, -0.00, -1.00, 595.9, 258.0)">r</text><text xml:space="preserve" font-family="Chalkduster" font-size="34.6" fill="#FFFFFF" transform="matrix(1.00, 0.00, -0.00, -1.00, 615.4, 258.0)">y</text><text xml:space="preserve" font-family="Chalkduster" font-size="34.6" fill="#FFFFFF" transform="matrix(1.00, 0.00, -0.00, -1.00, 635.9, 258.0)">!</text><text xml:space="preserve" font-family="Chalkduster" font-size="72.0" fill="#FFFFFF" transform="matrix(1.00, 0.00, -0.00, -1.00, 386.0, 390.0)">C</text><text xml:space="preserve" font-family="Chalkduster" font-size="72.0" fill="#FFFFFF" transform="matrix(1.00, 0.00, -0.00, -1.00, 444.4, 390.0)">l</text><text xml:space="preserve" font-family="Chalkduster" font-size="72.0" fill="#FFFFFF" transform="matrix(1.00, 0.00, -0.00, -1.00, 475.4, 390.0)">o</text><text xml:space="preserve" font-family="Chalkduster" font-size="72.0" fill="#FFFFFF" transform="matrix(1.00, 0.00, -0.00, -1.00, 529.4, 390.0)">u</text><text xml:space="preserve" font-family="Chalkduster" font-size="72.0" fill="#FFFFFF" transform="matrix(1.00, 0.00, -0.00, -1.00, 582.7, 390.0)">d</text></g></svg>